<svg width="453" height="236" viewBox="0 0 453 236" fill="none" xmlns="http://www.w3.org/2000/svg">
    <path d="M36.1847 85.8707C35.7223 86.7182 35.4911 87.6814 35.4911 88.76C35.4911 90.3781 34.3736 92.0731 32.1385 93.8452C29.9805 95.6174 28.7474 96.8116 28.4391 97.428C27.6684 98.8149 26.2426 99.9321 24.1617 100.78C22.0808 101.627 20.2311 102.051 18.6126 102.051C16.1463 102.051 13.603 101.357 10.9826 99.9706C8.43925 98.6608 6.35834 97.0428 4.73985 95.1165C4.04622 94.3461 3.46818 93.0362 3.00576 91.1871C2.46626 89.3379 1.88823 88.0281 1.27167 87.2576C0.423889 86.1019 0 83.2896 0 78.8208C0 78.5126 0.0770708 78.0888 0.231212 77.5495C0.308283 76.9331 0.346818 76.5093 0.346818 76.2782C0.346818 76.1241 0.346818 75.8929 0.346818 75.5847C0.269748 75.1995 0.231212 74.9298 0.231212 74.7757C0.231212 72.6954 1.07899 70.3839 2.77455 67.8413C4.4701 65.2987 5.39495 63.7963 5.5491 63.334C6.70516 60.9455 8.74753 59.2119 11.6762 58.1332C14.6049 57.0545 17.6107 56.5152 20.6935 56.5152C25.7802 56.5152 30.443 57.748 34.6818 60.2135C35.2984 60.5988 35.7994 60.7914 36.1847 60.7914C36.8784 60.7914 37.6105 59.4816 38.3812 56.8619C39.229 54.1652 39.6529 51.9693 39.6529 50.2742C39.6529 49.966 39.2676 49.6579 38.4969 49.3497C37.8032 49.0415 37.1867 48.8874 36.6472 48.8874C36.4159 48.8874 36.0306 49.0415 35.4911 49.3497C34.9516 49.5808 34.5277 49.6964 34.2194 49.6964C33.9111 49.6964 33.5258 49.6193 33.0634 49.4652C32.7551 49.4652 32.2927 49.5038 31.6761 49.5808C31.0595 49.5808 30.6356 49.5808 30.4044 49.5808C28.6318 49.5808 25.3948 48.7718 20.6935 47.1538C20.2311 46.7685 19.5374 46.0366 18.6126 44.9579C17.6877 43.8022 16.917 42.9931 16.3005 42.5309C14.9903 41.6063 14.181 39.8727 13.8727 37.3301C13.5645 34.7104 13.1406 32.9768 12.6011 32.1293C12.4469 31.8211 12.3699 31.6285 12.3699 31.5514C12.3699 31.3973 12.4469 31.1277 12.6011 30.7424C12.8323 30.3572 12.9479 30.049 12.9479 29.8178C12.9479 29.6637 12.9094 29.4326 12.8323 29.1244C12.8323 28.8162 12.8323 28.585 12.8323 28.431C12.8323 27.1211 13.1791 25.349 13.8727 23.1146C14.5664 20.8031 14.9903 19.2236 15.1444 18.3761C15.2985 17.9909 15.838 17.2204 16.7629 16.0646C17.6877 14.8319 18.2658 13.9843 18.497 13.522C19.1136 12.4434 20.6164 10.8639 23.0056 8.78355C25.3948 6.62619 27.3601 5.54751 28.9015 5.54751C29.2098 5.54751 29.4796 5.7016 29.7108 6.00979C30.0191 6.31799 30.2888 6.47208 30.52 6.47208C30.8283 6.47208 31.2907 6.39504 31.9073 6.24094C32.5239 6.00979 32.9478 5.89422 33.179 5.89422C33.7185 5.89422 34.5662 6.00979 35.7223 6.24094C36.8784 6.39504 37.7261 6.47208 38.2656 6.47208C39.4217 6.47208 40.2695 6.43356 40.809 6.35651C41.4255 6.35651 42.3119 6.47209 43.4679 6.70323C44.624 6.93438 45.4718 7.04995 46.0113 7.04995C48.2463 7.04995 49.3638 5.8557 49.3638 3.46719C49.3638 3.23604 49.3253 2.8508 49.2482 2.31146C49.1712 1.77212 49.1326 1.38688 49.1326 1.15573C49.1326 0.924586 49.2482 0.69344 49.4794 0.462293C49.7107 0.154098 49.9419 0 50.1731 0C55.491 0 58.1499 1.5795 58.1499 4.73849C58.0728 5.27783 58.0343 6.12537 58.0343 7.2811C58.0343 8.05158 58.1499 8.74502 58.3811 9.36141C58.6123 9.9778 58.7665 10.4016 58.8435 10.6327C58.9977 10.8639 59.383 11.2491 59.9996 11.7884C60.6162 12.3278 60.963 12.636 61.0401 12.713C61.6566 12.713 62.4273 13.0983 63.3522 13.8688C64.277 14.5622 65.1248 15.3327 65.8955 16.1802C66.6662 17.0278 67.5911 18.145 68.6701 19.5318C69.8261 20.8417 70.6739 21.7662 71.2134 22.3056C73.7567 27.6219 76.1074 30.2801 78.2654 30.2801C79.5756 30.2801 81.7721 29.9719 84.8549 29.3555C87.9378 28.6621 90.0957 28.3154 91.3289 28.3154C91.7913 28.3154 92.4079 28.3539 93.1786 28.431C94.0263 28.508 94.6429 28.5465 95.0283 28.5465C95.1824 28.5465 95.3751 28.5465 95.6063 28.5465C95.8375 28.4695 95.9916 28.431 96.0687 28.431C98.535 29.2785 99.7681 30.2801 99.7681 31.4358C99.7681 32.5916 99.1901 33.4776 98.034 34.094C96.878 34.7104 95.5678 35.0186 94.1034 35.0186C93.8722 35.0186 93.5639 35.0186 93.1786 35.0186C92.8703 34.9416 92.6391 34.903 92.4849 34.903C92.0225 34.903 91.4059 34.9801 90.6352 35.1342C89.8645 35.2112 89.248 35.2498 88.7855 35.2498C88.5543 35.2498 88.2075 35.2112 87.7451 35.1342C87.2826 34.9801 86.9744 34.903 86.8202 34.903C86.6661 34.903 86.5505 34.9416 86.4734 35.0186C85.9339 35.4039 85.0861 35.7891 83.9301 36.1743C82.774 36.5596 81.8106 36.9833 81.0399 37.4456C80.2692 37.9079 79.8839 38.6014 79.8839 39.526C79.8839 40.0653 80.4233 41.1825 81.5023 42.8776C82.1189 43.8792 82.5043 45.2661 82.6584 47.0382C82.8896 48.8103 83.275 50.0046 83.8145 50.621C83.8145 51.4685 84.0842 52.5472 84.6237 53.857C85.2403 55.0898 85.5486 56.0529 85.5486 56.7463C85.5486 63.2955 85.2017 68.111 84.5081 71.1929C84.431 71.5782 84.0071 72.1561 83.2364 72.9265C82.4657 73.697 82.0418 74.4675 81.9648 75.238C81.6565 78.0117 80.038 80.2076 77.1093 81.8257C74.1806 83.3666 71.1363 84.1371 67.9764 84.1371C61.4254 84.1371 54.489 82.1339 47.1673 78.1273C45.3947 77.1257 44.2001 76.6249 43.5835 76.6249C42.8899 76.6249 41.6953 78.1273 39.9997 81.1322C38.3042 84.1371 37.3793 85.7166 37.2252 85.8707V85.9863C36.7628 85.9863 36.4159 85.9478 36.1847 85.8707ZM73.2943 49.3497C73.4485 48.7333 73.5255 48.3095 73.5255 48.0783C73.5255 47.2308 73.1016 46.3833 72.2539 45.5357C72.1768 45.4587 71.83 44.4956 71.2134 42.6464C70.5968 40.7973 69.7105 39.8727 68.5545 39.8727C68.4774 39.8727 68.4003 39.9112 68.3232 39.9882C68.2462 39.9882 68.1691 39.9882 68.092 39.9882C67.3984 40.2194 66.2809 40.7202 64.7395 41.4907C63.198 42.2612 61.8493 42.839 60.6932 43.2243C59.6142 43.6095 58.5353 43.8407 57.4563 43.9177C56.069 43.9177 54.5661 44.4185 52.9476 45.4202C51.4062 46.4218 50.4428 47.8087 50.0575 49.5808C50.0575 51.6611 49.4409 54.666 48.2078 58.5955C47.0517 62.4479 46.4737 64.875 46.4737 65.8766C46.4737 67.1864 49.0941 68.92 54.3349 71.0774C59.5757 73.2347 64.0073 74.3905 67.6296 74.5446C71.0978 74.5446 73.1016 71.6552 73.6411 65.8766C73.6411 65.4913 73.6026 64.9135 73.5255 64.143C73.5255 63.3725 73.5255 62.7561 73.5255 62.2938C73.5255 60.7529 73.8338 59.5586 74.4504 58.7111C74.4504 57.4783 74.065 54.3578 73.2943 49.3497ZM34.2194 41.2595C34.4506 41.2595 34.9516 41.2595 35.7223 41.2595C36.5701 41.1825 37.1096 41.144 37.3408 41.144C37.6491 41.0669 38.15 40.9899 38.8437 40.9128C39.5373 40.8358 40.0383 40.7202 40.3466 40.5661C40.6548 40.412 41.0402 40.2194 41.5026 39.9882C42.0421 39.7571 42.3889 39.4874 42.5431 39.1792C42.7743 38.794 42.967 38.3702 43.1211 37.9079C43.3523 37.3686 43.4679 36.7907 43.4679 36.1743C43.4679 34.4022 44.0845 31.1277 45.3176 26.3506C46.6278 21.4966 47.2829 17.8753 47.2829 15.4868C47.2829 13.9458 46.3195 12.8286 44.3928 12.1352C42.5431 11.4417 40.5778 11.095 38.4969 11.095C32.4853 11.095 27.7455 15.3712 24.2773 23.9236C24.2773 23.8466 24.2002 23.9236 24.0461 24.1547C23.8919 24.3088 23.6607 24.617 23.3524 25.0793C23.1212 25.4646 22.8515 25.9269 22.5432 26.4662C22.312 26.9285 22.0808 27.5449 21.8496 28.3154C21.6954 29.0088 21.6184 29.7408 21.6184 30.5113C21.6954 30.9736 21.9266 31.667 22.312 32.5916C22.6973 33.5162 22.9286 34.1711 23.0056 34.5563C23.391 36.6366 24.7012 38.2932 26.9362 39.526C29.2484 40.6817 31.6761 41.2595 34.2194 41.2595ZM13.7571 95.1165C14.9903 94.6543 15.7995 94.4231 16.1849 94.4231C18.8053 94.1149 21.233 92.728 23.4681 90.2625C25.7802 87.7969 27.5143 85.1002 28.6703 82.1724C28.8245 81.8642 29.6722 80.3617 31.2137 77.665C32.7551 74.8913 33.5258 72.9265 33.5258 71.7708C33.5258 71.6167 33.4873 71.4241 33.4102 71.1929C33.4102 70.9618 33.4102 70.7692 33.4102 70.6151C33.4102 69.2282 31.599 67.6872 27.9767 65.9922C24.4314 64.22 21.6954 63.334 19.7687 63.334C15.9922 63.334 13.1791 64.7209 11.3294 67.4946C9.4797 70.2684 8.55486 73.62 8.55486 77.5495C8.55486 78.1658 8.59339 78.6281 8.67046 78.9363C8.67046 79.3986 8.63193 80.0535 8.55486 80.9011C8.55486 81.6716 8.55486 82.2494 8.55486 82.6347C8.55486 87.4887 10.2889 91.6494 13.7571 95.1165ZM60.5776 36.0588C60.7318 35.9817 61.3098 35.6735 62.3117 35.1342C63.3136 34.5178 64.0458 34.017 64.5082 33.6317C64.9707 33.2465 65.2019 32.8612 65.2019 32.476C65.2019 30.7039 64.1614 28.3154 62.0805 25.3105C59.9996 22.3056 58.3426 20.8031 57.1094 20.8031C56.5699 20.8031 55.9148 22.6138 55.1441 26.2351C54.3734 29.7793 53.9881 32.8998 53.9881 35.5965C53.9881 36.2899 54.3734 36.6366 55.1441 36.6366C55.7607 36.5596 56.647 36.4825 57.8031 36.4055C59.0362 36.2514 59.9611 36.1358 60.5776 36.0588ZM77.6873 44.8423C78.6122 42.839 79.0746 41.6448 79.0746 41.2595C79.0746 39.8727 78.6122 39.1792 77.6873 39.1792C77.6103 39.3333 77.5717 39.4489 77.5717 39.526C77.5717 40.0653 77.5717 40.9128 77.5717 42.0686C77.6488 43.2243 77.6873 44.1489 77.6873 44.8423ZM37.2252 85.8707L36.994 86.2174C36.9169 86.4486 36.8013 86.5641 36.6472 86.5641L36.1847 85.8707L36.0691 85.9863C36.6086 85.9863 36.994 85.9478 37.2252 85.8707Z" fill="#78A8EF"/>
    <path d="M158.715 61.8315C158.252 63.3725 157.481 65.5299 156.402 68.3036C155.323 71.0003 154.591 72.8495 154.206 73.8511C153.744 75.0069 153.127 77.2798 152.356 80.6699C151.663 84.0601 151.008 86.2174 150.391 87.142L150.16 87.7199C150.006 88.1822 149.813 88.76 149.582 89.4535C149.351 90.224 149.119 91.0715 148.888 91.9961C148.657 92.9207 148.464 93.9993 148.31 95.2321C148.156 96.4649 148.079 97.7362 148.079 99.046C148.079 99.7395 147.963 100.356 147.732 100.895C147.578 101.512 147.424 101.974 147.27 102.282C147.115 102.667 146.807 103.207 146.345 103.9C145.882 104.671 145.574 105.21 145.42 105.518C144.726 106.751 142.915 107.367 139.986 107.367C138.83 107.367 137.983 107.213 137.443 106.905C136.904 106.597 136.364 106.135 135.825 105.518C135.285 104.902 134.746 104.439 134.206 104.131C133.667 103.823 133.281 103.245 133.05 102.398C132.819 101.55 132.588 101.049 132.356 100.895C131.509 100.048 131.008 98.1214 130.854 95.1165C130.854 94.6543 130.892 94.0379 130.969 93.2674C131.046 92.4969 131.085 91.919 131.085 91.5338C131.085 91.0715 130.776 90.4551 130.16 89.6846C129.543 88.9141 129.235 88.2592 129.235 87.7199C129.235 81.7871 129.466 75.9314 129.929 70.1528C130.006 69.2282 130.083 67.7258 130.16 65.6454C130.237 63.5651 130.314 61.8701 130.391 60.5602C130.545 59.2504 130.776 57.8635 131.085 56.3996C131.393 54.9357 131.817 53.857 132.356 53.1636C132.665 52.8554 132.819 52.4316 132.819 51.8923C132.819 51.6611 132.78 51.2759 132.703 50.7365C132.626 50.1201 132.588 49.6579 132.588 49.3497C132.588 48.9644 132.626 48.3865 132.703 47.6161C132.857 46.7685 132.934 46.1136 132.934 45.6513C132.934 45.4972 132.896 45.2276 132.819 44.8423C132.742 44.4571 132.703 44.1489 132.703 43.9177C132.703 43.3784 133.012 42.839 133.628 42.2997C134.245 41.7604 134.553 41.3751 134.553 41.144C134.476 40.5276 134.168 39.2948 133.628 37.4456C131.778 37.6768 130.584 38.3702 130.044 39.526C129.505 40.6046 128.85 41.1825 128.079 41.2595C127.771 41.3366 127.385 41.8374 126.923 42.762C126.46 43.6866 125.998 44.2644 125.536 44.4956C124.919 44.8038 124.264 45.4202 123.57 46.3448C122.877 47.1923 121.875 48.0013 120.565 48.7718C120.333 49.157 120.064 50.2357 119.755 52.0078C119.524 53.7799 118.792 54.7816 117.559 55.0127C117.096 55.3209 116.75 55.6291 116.518 55.9373C116.364 56.1685 116.249 56.3611 116.172 56.5152C116.094 56.6693 116.017 56.9389 115.94 57.3242C115.863 57.6324 115.786 57.9021 115.709 58.1332C115.555 58.5184 114.977 59.443 113.975 60.907C112.973 62.3709 112.395 63.5651 112.241 64.4897C112.164 64.7979 111.856 65.4143 111.316 66.3389C110.931 67.1094 110.353 68.3807 109.582 70.1528C108.811 71.9249 108.195 73.2347 107.732 74.0823C107.27 74.8528 106.576 75.8159 105.651 76.9716C104.804 78.0503 103.763 78.8208 102.53 79.2831C101.374 79.7453 99.9867 79.9765 98.3682 79.9765C96.1331 79.9765 94.2449 79.0134 92.7035 77.0872C91.2391 75.0839 90.507 72.2331 90.507 68.5348C90.507 67.379 90.6226 66.1848 90.8538 64.952C91.085 63.6422 91.3548 62.2553 91.663 60.7914C91.9713 59.2504 92.2025 58.0562 92.3567 57.2086C92.4337 56.5922 92.742 55.7447 93.2815 54.666C93.821 53.5873 94.1678 52.7013 94.322 52.0078C94.4761 51.0062 94.7459 50.0816 95.1312 49.2341C95.5937 48.3095 96.2488 47.1538 97.0965 45.7669C98.0214 44.303 98.7921 42.9161 99.4086 41.6063C101.798 38.3702 103.224 36.0588 103.686 34.6719C104.149 33.3621 105.343 32.3219 107.27 31.5514C109.197 30.7039 110.969 30.2801 112.588 30.2801C114.9 30.2801 117.251 30.935 119.64 32.2449C120.179 32.5531 120.873 33.285 121.721 34.4407C122.568 35.5194 123.185 36.0588 123.57 36.0588C124.033 35.9817 125.189 35.0186 127.039 33.1694C128.888 31.2432 130.43 30.0875 131.663 29.7023C132.048 29.6252 132.857 29.1244 134.091 28.1998C135.401 27.2752 136.403 26.8129 137.096 26.8129C138.869 26.8129 140.449 27.3137 141.836 28.3154C143.3 29.317 144.033 30.6268 144.033 32.2449C144.033 32.5531 143.994 33.5932 143.917 35.3653C143.84 37.0604 143.763 38.2547 143.686 38.9481C143.609 39.5645 143.455 40.4891 143.223 41.7218C142.992 42.9546 142.645 44.0718 142.183 45.0735C141.721 46.3833 141.412 49.08 141.258 53.1636C141.104 57.1701 140.68 59.5586 139.986 60.3291C138.676 62.4094 138.021 67.6487 138.021 76.047C138.021 76.1241 138.021 76.3167 138.021 76.6249C138.098 76.856 138.137 77.0486 138.137 77.2027C138.137 77.7421 138.021 78.5511 137.79 79.6298C137.636 80.7084 137.559 81.5175 137.559 82.0568C137.559 83.4437 137.713 85.2928 138.021 87.6043C138.329 89.9928 138.484 91.4953 138.484 92.1117C138.484 92.2657 138.445 92.4584 138.368 92.6895C138.368 92.9207 138.368 93.0748 138.368 93.1518C138.368 93.383 138.561 94.1534 138.946 95.4633C139.331 96.8501 139.678 97.5436 139.986 97.5436C140.218 97.5436 140.487 97.2739 140.796 96.7346C141.104 96.1952 141.451 95.5018 141.836 94.6543C142.221 93.8067 142.53 93.2289 142.761 92.9207C143.3 91.9961 143.84 90.1854 144.379 87.4887C144.919 84.8691 145.343 83.0584 145.651 82.0568C145.882 81.4404 146.191 80.3232 146.576 78.7052C147.038 77.0101 147.462 75.5847 147.848 74.429C148.31 73.2733 148.772 72.4642 149.235 72.002C149.543 71.7708 149.929 70.3454 150.391 67.7258C150.93 65.0291 151.586 63.1799 152.356 62.1783C152.819 61.6389 153.666 60.2906 154.9 58.1332C156.133 55.9758 157.289 54.3963 158.368 53.3947C159.293 53.3947 159.755 54.3193 159.755 56.1685C159.755 57.7865 159.408 59.6742 158.715 61.8315ZM120.68 38.8325C119.909 38.1391 118.946 37.7924 117.79 37.7924C116.865 37.7924 115.979 38.062 115.131 38.6014C108.734 43.1472 104.033 51.1988 101.027 62.7561C100.95 62.8332 100.912 62.9873 100.912 63.2184C100.912 63.7578 101.066 64.0274 101.374 64.0274C101.836 64.0274 102.877 62.9873 104.495 60.907C106.114 58.7496 107.463 56.8234 108.542 55.1283C110.391 52.2005 112.279 49.889 114.206 48.1939C114.669 47.7316 115.362 46.8456 116.287 45.5357C117.289 44.1489 118.214 43.2243 119.062 42.762L120.796 39.2948V39.1792C120.719 39.0251 120.68 38.9096 120.68 38.8325Z" fill="#78A8EF"/>
    <path d="M161.696 50.2742C161.85 50.2742 162.081 50.2742 162.39 50.2742C162.698 50.1972 162.891 50.1587 162.968 50.1587C163.661 50.1587 164.856 48.8103 166.551 46.1136C168.247 43.3399 169.75 41.6448 171.06 41.0284C176.686 34.3252 182.274 30.9736 187.823 30.9736C188.825 30.9736 190.251 31.2817 192.1 31.8981C192.486 31.9752 192.871 32.2834 193.256 32.8227C193.642 33.3621 194.027 33.6317 194.413 33.6317C195.414 33.8629 196.301 34.7489 197.071 36.2899C197.842 37.8309 198.228 39.0251 198.228 39.8727C198.228 43.8792 197.38 47.7702 195.684 51.5455C195.299 52.316 194.528 53.6259 193.372 55.475C192.293 57.2471 191.522 58.7111 191.06 59.8668C190.906 60.4061 190.636 60.9455 190.251 61.4848C189.865 62.0242 189.48 62.4864 189.095 62.8717C188.786 63.2569 188.362 63.7578 187.823 64.3741C187.283 64.9135 186.86 65.3372 186.551 65.6454C186.32 65.9536 185.896 66.6086 185.28 67.6102C184.74 68.5348 184.162 69.3053 183.546 69.9216C182.929 70.538 182.274 70.8848 181.58 70.9618C180.655 70.9618 180.193 71.4626 180.193 72.4642C180.193 73.4659 178.228 74.6601 174.297 76.047C170.366 77.4339 167.515 78.1273 165.742 78.1273C165.434 78.1273 164.933 78.0117 164.239 77.7806C163.546 77.4724 163.006 77.3183 162.621 77.3183C161.619 77.3183 160.848 78.5511 160.309 81.0166C159.769 83.4822 159.499 85.7166 159.499 87.7199C159.499 88.1822 159.538 88.8371 159.615 89.6846C159.769 90.5322 159.846 91.1485 159.846 91.5338C159.846 91.919 159.808 92.4969 159.731 93.2674C159.731 94.0379 159.731 94.6157 159.731 95.001C159.731 95.6944 159.923 96.2337 160.309 96.619C160.694 96.9272 161.002 97.3895 161.234 98.0059C161.465 98.6993 161.619 99.3157 161.696 99.855C161.773 100.471 161.812 101.242 161.812 102.166C161.889 103.091 161.927 103.707 161.927 104.016C162.004 104.401 162.235 105.133 162.621 106.212C163.006 107.367 163.199 108.253 163.199 108.87C163.199 108.947 163.199 109.062 163.199 109.216C163.199 109.833 163.16 110.295 163.083 110.603C163.083 110.989 162.929 111.451 162.621 111.99C162.39 112.53 161.927 112.915 161.234 113.146C160.617 113.377 159.769 113.493 158.69 113.493C157.303 113.493 156.108 112.298 155.106 109.91C154.105 107.598 153.604 104.863 153.604 101.704C153.604 101.242 153.719 100.587 153.95 99.7395C154.259 98.8919 154.413 98.3141 154.413 98.0059C152.794 94.3846 151.985 92.0346 151.985 90.9559C151.985 90.6477 152.101 90.2625 152.332 89.8002C152.563 89.3379 152.679 88.9527 152.679 88.6445C152.679 88.4133 152.602 88.0666 152.447 87.6043C152.293 87.142 152.216 86.7953 152.216 86.5641C152.216 86.41 152.255 86.1789 152.332 85.8707C152.486 85.4855 152.563 85.1773 152.563 84.9461C152.563 84.715 152.525 84.4068 152.447 84.0215C152.37 83.5592 152.332 83.2125 152.332 82.9814C152.332 82.7502 152.409 82.4035 152.563 81.9412C152.563 81.556 152.409 80.9781 152.101 80.2076C151.792 79.3601 151.638 78.7052 151.638 78.2429C151.638 77.4724 151.831 76.2782 152.216 74.6601C152.679 72.9651 152.91 71.9249 152.91 71.5397C152.91 71.4626 152.871 71.347 152.794 71.1929C152.717 70.9618 152.679 70.8077 152.679 70.7307C152.679 70.4995 152.756 70.2298 152.91 69.9216C153.141 69.6134 153.257 69.3823 153.257 69.2282C153.257 68.92 153.026 68.4962 152.563 67.9569C152.178 67.3405 151.985 66.9553 151.985 66.8012C151.985 66.6471 152.216 66.3389 152.679 65.8766C153.141 65.4143 153.372 65.0291 153.372 64.7209C153.372 64.5668 153.257 64.143 153.026 63.4496C152.794 62.7561 152.679 62.2168 152.679 61.8315C152.679 60.3676 153.064 59.2119 153.835 58.3643C154.605 57.5168 154.991 57.016 154.991 56.8619C154.991 56.6308 154.798 56.3226 154.413 55.9373C154.105 55.475 153.873 54.9742 153.719 54.4349C154.721 52.0464 155.222 50.4283 155.222 49.5808C155.222 49.1185 154.952 48.348 154.413 47.2693C153.873 46.1907 153.604 45.2276 153.604 44.38C153.604 44.1489 153.835 43.4169 154.297 42.1841C154.837 40.8743 155.106 39.7956 155.106 38.9481C155.106 38.3317 154.991 37.4456 154.76 36.2899C154.605 35.1342 154.528 34.2866 154.528 33.7473C154.528 33.208 154.798 32.399 155.338 31.3203C155.954 30.2416 156.262 29.3555 156.262 28.6621C156.262 28.2769 156.224 27.776 156.147 27.1596C156.07 26.4662 156.031 25.9654 156.031 25.6572C156.031 21.1113 157.033 18.8384 159.037 18.8384C160.578 18.8384 162.197 19.3777 163.893 20.4564C165.665 21.5351 166.551 23.1146 166.551 25.1949C166.551 26.1965 165.973 28.0842 164.817 30.858C163.661 33.6317 163.083 35.5579 163.083 36.6366C163.083 37.9465 162.814 39.603 162.274 41.6063C161.812 43.6095 161.542 44.9579 161.465 45.6513C161.465 45.9595 161.58 46.3448 161.812 46.8071C162.043 47.1923 162.158 47.462 162.158 47.6161C162.158 47.7702 162.004 48.0398 161.696 48.4251C161.465 48.8103 161.349 49.1185 161.349 49.3497C161.349 49.5038 161.503 49.8119 161.812 50.2742C160.964 50.6595 160.347 51.0832 159.962 51.5455C159.654 51.9308 159.384 52.6242 159.153 53.6259C158.921 54.5504 158.652 55.3594 158.343 56.0529L158.575 56.284C159.191 56.284 159.654 55.8603 159.962 55.0127C160.347 54.0881 160.54 53.2791 160.54 52.5857C160.54 51.9693 160.386 51.3914 160.077 50.8521C160.232 50.7751 160.501 50.698 160.887 50.621C161.272 50.4669 161.542 50.3513 161.696 50.2742ZM173.372 45.998C173.372 47.2308 172.948 48.3095 172.101 49.2341C171.33 50.1587 170.867 50.9292 170.713 51.5455C170.559 52.1619 169.48 53.857 167.476 56.6308C166.937 57.4012 166.166 59.2119 165.164 62.0627C164.162 64.8364 163.661 66.9938 163.661 68.5348C163.661 70.6921 164.085 71.7708 164.933 71.7708C165.55 71.7708 166.821 71.5782 168.748 71.1929C170.675 70.7307 172.987 69.8061 175.684 68.4192C178.382 66.9553 180.116 65.1831 180.887 63.1028C182.968 60.175 184.509 58.2873 185.511 57.4398C186.204 56.9004 187.129 54.3193 188.285 49.6964C189.441 44.9964 190.019 41.4907 190.019 39.1792C190.019 37.7924 189.21 37.0989 187.592 37.0989C185.665 37.0989 183.122 38.5243 179.962 41.3751C176.879 44.2259 174.682 45.7669 173.372 45.998ZM156.725 57.7865C156.417 57.9406 156.262 58.2488 156.262 58.7111C156.262 58.8652 156.301 59.0193 156.378 59.1734C156.455 59.3275 156.494 59.443 156.494 59.5201C156.494 59.443 156.532 59.3275 156.609 59.1734C156.763 59.0193 156.879 58.9037 156.956 58.8266C156.956 58.5955 156.879 58.2488 156.725 57.7865ZM158.343 93.383L158.228 93.7297L158.575 93.8452L158.343 93.383ZM156.609 87.8354C156.763 87.3732 156.841 87.1035 156.841 87.0264L156.609 86.7953C156.455 87.1035 156.378 87.3732 156.378 87.6043L156.609 87.8354Z" fill="#78A8EF"/>
    <path d="M257.29 81.7101C256.288 85.5625 253.899 87.9896 250.122 88.9912C249.968 88.9141 249.428 88.5674 248.504 87.951C247.656 87.4117 247.078 86.9879 246.769 86.6797C246.461 86.3715 246.076 85.9092 245.613 85.2928C245.228 84.6765 245.035 84.0601 245.035 83.4437C245.035 82.7502 244.766 82.0953 244.226 81.4789C243.687 80.8626 243.417 80.2847 243.417 79.7453C243.417 79.3601 243.417 78.7437 243.417 77.8962C243.494 76.9716 243.532 76.3167 243.532 75.9314C243.455 75.4691 243.34 74.7757 243.186 73.8511C243.109 72.9265 242.993 72.079 242.839 71.3085C242.762 70.538 242.723 69.8831 242.723 69.3438C242.723 69.0356 242.762 68.5733 242.839 67.9569C242.916 67.2635 242.954 66.7627 242.954 66.4545C242.877 66.0692 242.762 65.4913 242.608 64.7209C242.454 63.9504 242.376 63.411 242.376 63.1028C242.376 62.7946 242.454 62.3324 242.608 61.716C242.839 61.0225 242.954 60.5602 242.954 60.3291C242.954 60.0979 242.877 59.7127 242.723 59.1734C242.646 58.634 242.608 58.2103 242.608 57.9021C242.608 57.1316 242.723 55.7832 242.954 53.857C243.186 51.9308 243.301 50.5054 243.301 49.5808C243.301 48.5021 243.07 47.8472 242.608 47.6161C242.454 47.6161 242.299 47.6546 242.145 47.7316C241.991 47.7316 241.837 47.7316 241.683 47.7316C241.683 47.8857 241.22 48.5792 240.296 49.8119C239.371 50.9677 238.369 52.2775 237.29 53.7414C236.288 55.2054 235.671 56.2455 235.44 56.8619C234.053 60.4832 233.282 62.2938 233.128 62.2938C232.203 62.6791 231.432 63.6422 230.816 65.1832C230.276 66.6471 229.93 67.4561 229.775 67.6102C229.005 68.3036 227.887 69.9602 226.423 72.5798C225.036 75.1995 223.456 77.4724 221.683 79.3986C219.91 81.2478 217.829 82.1724 215.44 82.1724C213.359 82.1724 211.433 81.4789 209.66 80.0921C207.964 78.6281 207.001 76.6634 206.77 74.1978C206.693 73.3503 206.384 72.079 205.845 70.3839C205.382 68.6889 205.151 67.4176 205.151 66.57C205.151 61.8701 205.537 57.7094 206.307 54.0881C206.384 53.934 206.5 53.0865 206.654 51.5455C206.808 49.9275 206.962 47.7316 207.117 44.9579C207.348 42.1071 207.463 39.4489 207.463 36.9834C207.463 36.6752 207.386 36.2129 207.232 35.5965C207.155 34.903 207.117 34.4022 207.117 34.094C207.117 33.7858 207.271 33.4776 207.579 33.1694C207.964 32.7842 208.35 32.5916 208.735 32.5916C210.354 32.7457 211.741 33.1694 212.897 33.8629C214.13 34.5563 214.747 35.5579 214.747 36.8678C213.436 51.6611 212.781 60.6373 212.781 63.7963C212.781 70.1913 213.436 73.3888 214.747 73.3888C215.517 73.3888 216.75 72.2716 218.446 70.0372C220.142 67.7258 222.222 64.6053 224.689 60.6758C227.155 56.6693 228.735 54.1652 229.429 53.1636C229.66 52.8554 230.199 52.316 231.047 51.5455C231.972 50.698 232.511 49.889 232.666 49.1185C232.82 48.5792 233.089 48.0398 233.475 47.5005C233.86 46.8841 234.207 46.4218 234.515 46.1136C234.901 45.7284 235.363 45.2661 235.903 44.7267C236.519 44.1103 236.904 43.6866 237.059 43.4554C237.136 43.3784 237.945 42.3768 239.486 40.4505C241.028 38.4473 242.376 36.8678 243.532 35.712C244.766 34.4793 245.768 33.8629 246.538 33.8629C246.847 33.8629 247.425 33.8244 248.272 33.7473C249.197 33.6703 249.891 33.6317 250.353 33.6317C252.82 33.6317 254.631 34.4022 255.787 35.9432C257.02 37.4071 257.636 39.3333 257.636 41.7218C257.636 43.2628 257.367 45.4587 256.827 48.3095C256.288 51.1603 256.018 53.125 256.018 54.2037C256.018 54.4349 256.018 54.8586 256.018 55.475C256.095 56.0144 256.134 56.4381 256.134 56.7463C256.134 57.825 255.979 59.4045 255.671 61.4848C255.363 63.5651 255.209 65.1061 255.209 66.1077C255.286 66.8782 255.44 68.5348 255.671 71.0774C255.979 73.62 256.134 75.5077 256.134 76.7404C256.134 76.8945 256.095 77.0486 256.018 77.2027C256.018 77.3568 256.018 77.4724 256.018 77.5495C256.018 78.7822 256.442 80.1691 257.29 81.7101Z" fill="#78A8EF"/>
    <path d="M347.456 69.4593C346.763 71.5397 345.876 73.9282 344.797 76.6249C344.489 77.6265 343.757 78.8978 342.601 80.4388C341.522 81.9027 340.982 83.5207 340.982 85.2928C340.982 86.4486 340.635 88.1436 339.942 90.3781C339.325 92.6125 338.94 94.1149 338.786 94.8854C338.323 95.81 337.899 96.542 337.514 97.0813C337.206 97.6206 336.666 98.3526 335.895 99.2772C335.202 100.202 334.316 100.895 333.237 101.357C332.158 101.82 330.924 102.051 329.537 102.051C327.919 102.051 326.416 101.396 325.029 100.086C323.641 98.7764 322.948 97.428 322.948 96.0411C322.948 95.887 323.063 95.3862 323.294 94.5387C321.599 91.3026 320.751 89.2609 320.751 88.4133C320.751 88.3363 320.905 87.2191 321.214 85.0617C321.599 82.9043 321.792 80.2076 321.792 76.9716C321.792 76.1241 322.1 75.0454 322.716 73.7355C323.333 72.4257 323.641 71.4626 323.641 70.8462C323.641 70.461 323.526 69.8831 323.294 69.1126C323.14 68.3421 323.063 67.8028 323.063 67.4946C323.217 67.2635 323.526 66.9938 323.988 66.6856C324.45 66.3774 324.759 66.1077 324.913 65.8766C324.373 64.7979 324.104 63.8733 324.104 63.1028C324.104 61.1766 324.643 58.7111 325.722 55.7062C326.801 52.6242 327.341 50.8521 327.341 50.3898C327.341 50.1587 327.302 49.8119 327.225 49.3497C327.148 48.8874 327.109 48.5021 327.109 48.1939C327.109 47.7316 327.148 47.1152 327.225 46.3448C327.379 45.5743 327.456 44.9579 327.456 44.4956C327.456 44.3415 327.418 44.0718 327.341 43.6866C327.264 43.3013 327.225 42.9931 327.225 42.762C327.225 42.6079 327.225 42.3768 327.225 42.0686C327.302 41.7604 327.341 41.5292 327.341 41.3751C327.341 41.144 327.264 40.7973 327.109 40.335C326.955 39.7956 326.878 39.4104 326.878 39.1792C326.878 38.4858 327.071 37.8309 327.456 37.2145C327.302 37.2145 327.109 37.2145 326.878 37.2145C326.647 37.1374 326.493 37.0989 326.416 37.0989C326.03 37.0989 325.183 37.4842 323.872 38.2547C323.795 38.871 323.603 39.4104 323.294 39.8727C323.063 40.2579 322.832 40.5276 322.601 40.6817C322.447 40.8358 322.061 41.1054 321.445 41.4907C320.905 41.7989 320.558 41.9915 320.404 42.0686C319.788 44.7653 319.056 46.653 318.208 47.7316C317.591 48.5021 316.589 50.3128 315.202 53.1636C313.815 56.0144 312.504 58.1717 311.271 59.6356C310.886 60.0979 310.501 61.0996 310.115 62.6405C309.73 64.1045 309.422 65.1061 309.19 65.6454C308.497 67.0323 307.803 68.6503 307.11 70.4995C306.493 72.2716 306.031 73.62 305.722 74.5446C305.414 75.3921 304.913 76.1626 304.219 76.856C303.526 77.4724 302.639 77.7806 301.56 77.7806C301.329 77.7806 300.982 77.7421 300.52 77.665C300.135 77.588 299.403 77.3183 298.324 76.856C297.245 76.3167 296.281 75.6232 295.433 74.7757C294.663 73.9282 293.93 72.5798 293.237 70.7307C292.62 68.8815 292.312 66.7241 292.312 64.2586V62.4094C292.312 60.3291 292.004 59.2889 291.387 59.2889C291.002 59.2889 290.578 59.366 290.115 59.5201C287.803 64.6823 285.26 69.3053 282.485 73.3888C282.254 73.697 281.753 74.4675 280.983 75.7003C280.289 76.856 279.788 77.6265 279.48 78.0118C279.171 78.3199 278.593 78.7052 277.746 79.1675C276.898 79.6298 275.973 79.8609 274.971 79.8609C273.353 79.8609 271.773 78.6667 270.231 76.2782C268.767 73.8897 268.035 71.27 268.035 68.4192C268.035 68.111 268.073 67.6487 268.15 67.0323C268.227 66.4159 268.266 65.9151 268.266 65.5299C268.266 64.9905 268.227 64.2586 268.15 63.334C268.073 62.3323 268.035 61.6004 268.035 61.1381C268.035 60.3676 268.227 58.4414 268.613 55.3594C268.613 55.0513 268.921 54.0496 269.538 52.3546C270.231 50.6595 270.578 49.2341 270.578 48.0783C270.578 47.8472 270.501 47.5005 270.347 47.0382C270.193 46.5759 270.116 46.2292 270.116 45.998C270.347 44.4571 270.694 42.9161 271.156 41.3751C271.31 40.7587 271.503 39.6415 271.734 38.0235C271.965 36.4055 272.235 35.1342 272.543 34.2096C272.929 33.285 273.545 32.8227 274.393 32.8227C275.703 32.8227 277.399 33.3621 279.48 34.4407C281.561 35.4424 282.601 36.5981 282.601 37.9079C282.601 38.062 282.524 38.2932 282.37 38.6014C281.291 40.7587 280.751 43.3784 280.751 46.4603C280.751 47.6931 280.289 49.6964 279.364 52.4701C278.516 55.1668 278.092 57.2857 278.092 58.8266C278.092 59.443 278.169 60.3291 278.324 61.4848C278.555 62.6405 278.67 63.5266 278.67 64.143C278.67 64.3741 278.593 64.7209 278.439 65.1832C278.285 65.5684 278.208 65.8381 278.208 65.9922C278.208 66.6856 278.516 67.0323 279.133 67.0323C279.749 66.8782 280.289 66.4159 280.751 65.6454C282.293 63.2569 283.526 61.4078 284.451 60.0979C285.376 58.7881 286.609 57.2086 288.15 55.3594C289.769 53.4332 291.349 52.0464 292.89 51.1988C294.508 50.2742 296.127 49.8119 297.745 49.8119C298.593 49.8119 299.325 50.1201 299.942 50.7365C300.636 51.3529 300.982 52.0464 300.982 52.8168C300.982 54.0496 300.905 55.7832 300.751 58.0176C300.674 60.175 300.636 61.793 300.636 62.8717C300.636 62.9487 300.713 63.0643 300.867 63.2184C301.483 63.2184 302.293 62.4864 303.295 61.0225C304.296 59.4815 304.913 58.2102 305.144 57.2086C305.221 56.7463 305.684 56.0914 306.532 55.2439C307.379 54.3963 307.957 53.7029 308.266 53.1636C309.345 51.1603 311.849 47.3464 315.78 41.7218C316.242 41.1055 316.898 40.5276 317.745 39.9882C318.67 39.3719 319.248 38.6014 319.479 37.6768C319.634 37.0604 320.135 36.367 320.982 35.5965C321.83 34.7489 322.37 34.1325 322.601 33.7473C322.986 32.9768 323.526 32.1293 324.219 31.2047C324.913 30.2031 326.185 29.1244 328.034 27.9687C329.884 26.7359 331.849 26.1195 333.93 26.1195C334.932 26.1195 335.896 26.4662 336.82 27.1596C337.822 27.776 338.323 28.5465 338.323 29.4711C338.323 29.5482 338.285 29.7023 338.208 29.9334C338.208 30.0875 338.208 30.2031 338.208 30.2801C338.208 30.6654 338.285 31.1662 338.439 31.7826C338.67 32.399 338.786 32.8998 338.786 33.285C338.786 34.4407 338.554 36.4825 338.092 39.4104C337.63 42.2612 337.398 44.38 337.398 45.7669C337.398 46.3833 337.09 47.1152 336.474 47.9628C335.934 48.7333 335.664 49.2341 335.664 49.4652C335.664 49.8505 335.896 50.2742 336.358 50.7365C336.82 51.1988 337.052 51.507 337.052 51.6611C337.052 52.2005 336.82 52.7783 336.358 53.3947C335.973 53.9341 335.78 54.3963 335.78 54.7816C335.78 54.9357 335.78 55.2054 335.78 55.5906C335.857 55.8988 335.895 56.1299 335.895 56.284C335.895 56.9004 335.78 57.748 335.549 58.8266C335.317 59.8283 335.202 60.5602 335.202 61.0225C335.125 61.3307 334.894 61.793 334.508 62.4094C334.123 62.9487 333.93 63.411 333.93 63.7963C333.93 63.8733 333.93 63.9118 333.93 63.9118L334.046 64.143C334.046 64.6053 333.776 65.4143 333.237 66.57C332.697 67.7258 332.427 68.6889 332.427 69.4593C332.427 70.6921 332.35 72.5028 332.196 74.8913C332.042 77.2027 331.965 79.0134 331.965 80.3232C331.965 83.3281 332.581 84.8306 333.815 84.8306C335.125 84.8306 338.015 80.015 342.485 70.3839L343.41 68.4192C343.41 68.0339 343.564 67.302 343.872 66.2233C344.258 65.0676 344.604 64.4897 344.913 64.4897C345.067 64.4897 345.491 65.3372 346.184 67.0323C346.955 68.6503 347.379 69.4593 347.456 69.4593ZM319.711 19.763C313.699 20.2253 308.574 21.4966 304.335 23.5769C300.173 25.5801 296.512 26.5818 293.352 26.5818C289.422 26.5818 285.915 25.272 282.832 22.6523C279.827 20.0326 278.324 16.9122 278.324 13.2909C278.324 12.2893 278.67 11.7884 279.364 11.7884C280.674 11.7884 282.37 12.6745 284.451 14.4466C286.609 16.1417 288.266 16.9892 289.422 16.9892C289.961 16.9892 290.385 16.9507 290.694 16.8737C291.927 16.5655 294.239 15.9876 297.63 15.1401C301.021 14.2155 303.95 13.5606 306.416 13.1753C308.959 12.713 311.618 12.4819 314.393 12.4819C314.932 12.4819 315.587 12.5204 316.358 12.5975C317.206 12.6745 318.478 12.8286 320.173 13.0597C321.869 13.2138 323.256 13.6376 324.335 14.331C325.491 14.9474 326.069 15.7565 326.069 16.7581C326.069 16.9892 325.915 17.3359 325.607 17.7982C325.298 18.2605 324.72 18.7613 323.872 19.3007C323.025 19.84 321.984 20.1097 320.751 20.1097C320.443 20.1097 320.096 19.9941 319.711 19.763ZM334.277 68.4192C334.123 68.111 334.046 67.8799 334.046 67.7258C334.123 67.7258 334.238 67.6872 334.393 67.6102C334.316 67.7643 334.277 68.0339 334.277 68.4192ZM334.161 68.3036L334.277 68.4192C334.2 68.2651 334.084 68.188 333.93 68.188C333.853 68.188 333.815 68.2266 333.815 68.3036H334.161Z" fill="#78A8EF"/>
    <path d="M379.652 70.8462C378.805 71.0003 378.381 71.1544 378.381 71.3085C378.381 71.5397 378.419 71.8864 378.496 72.3487C378.573 72.7339 378.612 73.0036 378.612 73.1577C378.612 73.7741 377.995 75.315 376.762 77.7806C375.529 80.2462 374.489 81.4789 373.641 81.4789L372.485 80.9011C372.022 80.9011 371.367 81.5945 370.52 82.9814C369.672 84.3683 368.554 85.7551 367.167 87.142C365.78 88.5289 364.161 89.2223 362.311 89.2223C361.849 89.2223 361.155 89.0682 360.231 88.76C359.383 88.5289 358.728 88.4133 358.265 88.4133C358.188 88.4133 358.073 88.4133 357.918 88.4133C357.764 88.4904 357.61 88.5289 357.456 88.5289C356.917 88.5289 356.493 87.9125 356.184 86.6797C355.876 85.4469 355.26 84.8306 354.335 84.8306C354.103 84.8306 353.795 84.8691 353.41 84.9461C353.102 84.9461 352.87 84.9461 352.716 84.9461C351.868 84.9461 351.367 83.983 351.213 82.0568C351.059 81.5175 350.674 80.5929 350.057 79.2831C349.518 77.8962 349.055 76.5864 348.67 75.3536C348.285 74.0437 348.092 72.7724 348.092 71.5397C348.092 71.3085 348.208 71.1929 348.439 71.1929C348.67 71.1929 348.863 71.4241 349.017 71.8864C349.171 72.3487 349.325 72.5798 349.479 72.5798C350.173 72.5798 350.52 71.4241 350.52 69.1126C350.52 67.9569 350.019 67.2635 349.017 67.0323C348.015 66.7241 347.514 66.1848 347.514 65.4143C347.514 64.875 347.745 63.6807 348.208 61.8315C348.67 59.9824 348.901 58.9807 348.901 58.8266C348.901 57.6709 348.978 56.4767 349.132 55.2439C349.364 53.934 349.672 52.4316 350.057 50.7365C350.52 48.9644 350.828 47.6931 350.982 46.9226C351.136 46.1521 351.522 45.112 352.138 43.8022C352.832 42.4153 353.179 41.4136 353.179 40.7973C353.179 38.794 353.988 36.0973 355.606 32.7071C356.377 30.3957 357.841 29.24 359.999 29.24C364.778 29.24 367.167 30.7424 367.167 33.7473C367.167 35.6735 366.743 38.3702 365.895 41.8374C365.048 45.3046 364.624 47.5775 364.624 48.6562C364.624 49.2726 364.662 49.6964 364.739 49.9275C364.739 50.621 364.547 51.6226 364.161 52.9324C363.853 54.1652 363.699 55.0513 363.699 55.5906C363.699 56.7463 365.51 57.6324 369.132 58.2488C372.832 58.8652 374.681 59.6742 374.681 60.6758C374.681 60.8299 374.527 61.0996 374.219 61.4848C373.988 61.8701 373.872 62.1012 373.872 62.1783L374.219 62.7561C374.45 63.1414 374.758 63.5651 375.144 64.0274C375.606 64.4897 375.992 64.7209 376.3 64.7209C376.608 64.7209 376.801 64.6053 376.878 64.3741C376.955 64.143 377.032 63.7578 377.109 63.2184C377.186 62.6791 377.225 62.3324 377.225 62.1783C377.61 62.8717 378.034 63.7963 378.496 64.952C378.959 66.1077 379.652 67.2635 380.577 68.4192C380.577 68.8815 380.423 69.3823 380.115 69.9216L379.652 70.8462ZM362.427 66.2233C362.427 66.3004 362.35 66.4159 362.196 66.57C362.042 66.7241 361.965 66.8397 361.965 66.9167C361.965 74.3905 363.468 78.1273 366.473 78.1273C367.09 78.1273 367.861 77.7421 368.785 76.9716C369.71 76.1241 370.173 75.2765 370.173 74.429C370.173 74.3519 370.134 74.2749 370.057 74.1978C370.057 74.0437 370.057 73.9282 370.057 73.8511C369.903 73.5429 369.633 72.9651 369.248 72.1175C368.862 71.27 368.554 70.6536 368.323 70.2684C368.169 69.8831 367.861 69.3823 367.398 68.7659C366.936 68.1495 366.512 67.6872 366.126 67.379C365.741 67.0708 365.202 66.8012 364.508 66.57C363.891 66.3389 363.198 66.2233 362.427 66.2233ZM379.537 70.8462C380.385 71.1544 380.808 71.6938 380.808 72.4642C380.808 72.6954 380.577 72.811 380.115 72.811C379.652 72.811 379.421 72.4257 379.421 71.6552C379.421 71.4241 379.498 71.1544 379.652 70.8462H379.537Z" fill="#78A8EF"/>
    <path d="M57.4563 175.902C57.4563 175.979 57.4948 176.287 57.5719 176.827C57.6489 177.289 57.6875 177.636 57.6875 177.867C57.7645 178.098 57.8416 178.483 57.9187 179.023C57.9958 179.562 58.1114 179.986 58.2655 180.294C58.4196 180.525 58.5738 180.795 58.7279 181.103C58.9591 181.411 59.1904 181.642 59.4216 181.796C59.7298 181.95 60.0767 182.027 60.462 182.027C61.0015 182.027 61.9264 181.604 63.2366 180.756C64.6238 179.832 65.5487 179.369 66.0111 179.369C66.2423 179.369 66.4735 179.485 66.7048 179.716C66.936 179.87 67.0516 180.063 67.0516 180.294C67.0516 181.141 66.9745 181.95 66.8204 182.721C66.7433 183.414 66.5121 184.108 66.1267 184.801C65.8184 185.495 65.5487 186.034 65.3175 186.419C65.0863 186.804 64.6624 187.382 64.0458 188.153C63.5063 189 63.121 189.578 62.8898 189.886C62.6585 189.963 62.3503 189.963 61.9649 189.886C61.5796 189.886 61.2327 189.925 60.9244 190.002C60.6932 190.079 60.5006 190.272 60.3464 190.58C58.3426 192.121 56.2231 192.891 53.9881 192.891C51.1365 192.891 49.595 192.313 49.3638 191.158C49.2868 190.31 48.6317 189.27 47.3985 188.037C46.2425 186.804 45.6259 185.687 45.5488 184.686C45.4718 184.069 45.0479 183.183 44.2772 182.027C43.5835 180.872 43.2367 179.986 43.2367 179.369C43.2367 178.984 43.3523 178.637 43.5835 178.329C43.1982 177.096 42.9284 175.632 42.7743 173.937C42.6972 172.242 42.6201 171.164 42.5431 170.701C42.5431 170.316 42.7357 169.815 43.1211 169.199C43.5065 168.582 43.6991 168.12 43.6991 167.812C43.6991 167.581 43.3523 167.35 42.6587 167.118C42.0421 166.887 41.7338 166.618 41.7338 166.309C41.7338 166.078 41.7724 165.77 41.8494 165.385C42.0036 164.923 42.0806 164.614 42.0806 164.46C42.0806 163.998 41.9265 163.228 41.6182 162.149C41.3099 161.07 41.1558 160.261 41.1558 159.722C41.1558 157.025 39.9612 155.677 37.572 155.677C36.2618 155.677 33.5258 155.946 29.364 156.486C22.3505 157.719 18.8438 158.759 18.8438 159.606C18.8438 159.914 18.8438 160.415 18.8438 161.109C18.9209 161.802 18.9594 162.341 18.9594 162.727C18.9594 163.189 18.8823 163.959 18.7282 165.038C18.5741 166.117 18.497 166.926 18.497 167.465C18.497 167.773 18.5355 168.197 18.6126 168.737C18.7667 169.276 18.8438 169.7 18.8438 170.008C18.8438 170.701 18.2272 171.472 16.9941 172.319C15.838 173.167 14.8361 173.591 13.9883 173.591C13.3718 173.591 12.7937 173.436 12.2543 173.128C11.7918 172.743 11.4065 172.165 11.0982 171.395C10.7899 170.624 10.5202 169.854 10.2889 169.083C10.0577 168.313 9.86506 167.311 9.71092 166.078C9.63385 164.846 9.55678 163.805 9.4797 162.958C9.4797 162.033 9.44117 160.878 9.3641 159.491C9.3641 158.104 9.32556 157.025 9.24849 156.255C9.24849 155.715 9.32556 154.829 9.4797 153.596C9.71092 152.364 9.82652 151.439 9.82652 150.823C9.82652 150.592 9.74945 150.206 9.59531 149.667C9.44117 149.051 9.3641 148.588 9.3641 148.28C9.3641 147.818 9.71092 144.659 10.4046 138.803C10.6358 137.416 12.4469 136.723 15.838 136.723C16.84 136.723 17.7263 137.031 18.497 137.647C19.3448 138.264 19.7687 139.073 19.7687 140.074C19.7687 141.307 19.653 143.041 19.4218 145.275C19.2677 147.433 19.1906 149.051 19.1906 150.129C19.1906 150.746 19.3833 151.362 19.7687 151.978C20.154 152.518 20.655 152.787 21.2715 152.787C23.969 152.787 28.1308 152.441 33.757 151.747C39.3832 150.977 42.1963 150.091 42.1963 149.089C42.1963 148.858 42.1577 148.473 42.0806 147.933C42.0036 147.394 41.965 146.97 41.965 146.662C41.965 146.2 42.1192 145.583 42.4275 144.813C42.7357 143.965 42.8899 143.349 42.8899 142.964C42.8899 142.733 42.8128 142.424 42.6587 142.039C42.5816 141.577 42.5431 141.23 42.5431 140.999C42.5431 140.074 42.7743 138.765 43.2367 137.07C43.7762 135.374 44.046 134.103 44.046 133.256C44.046 132.716 44.0074 131.907 43.9303 130.829C43.8533 129.75 43.8147 128.902 43.8147 128.286C43.8147 126.206 44.7011 125.166 46.4737 125.166C50.1731 125.166 52.6008 126.283 53.7569 128.517C54.99 130.674 55.6066 133.564 55.6066 137.185C55.6066 138.649 55.6836 140.729 55.8378 143.426C56.069 146.123 56.1846 148.126 56.1846 149.436C56.1846 150.206 55.9919 151.401 55.6066 153.019C55.2983 154.637 55.1441 155.831 55.1441 156.601C55.1441 156.987 54.8744 157.487 54.3349 158.104C53.7954 158.72 53.5257 159.298 53.5257 159.837C53.5257 159.991 53.8339 160.261 54.4505 160.646C55.1441 160.955 55.491 161.494 55.491 162.264C55.491 162.341 55.4139 162.534 55.2597 162.842C55.1056 163.073 55.0285 163.305 55.0285 163.536C55.0285 165.154 55.2597 166.926 55.7222 168.852C56.1846 170.701 56.4158 171.818 56.4158 172.204C56.4158 172.358 56.3387 172.666 56.1846 173.128C56.1075 173.591 56.069 173.937 56.069 174.168C56.069 174.554 56.5314 175.132 57.4563 175.902ZM53.9881 151.978L54.2193 152.21V151.978C54.1422 151.978 54.0651 152.017 53.9881 152.094C54.0651 152.171 54.1422 152.21 54.2193 152.21C54.3734 152.21 54.4505 152.094 54.4505 151.863C54.3734 151.786 54.2964 151.747 54.2193 151.747L53.9881 151.978Z" fill="#78A8EF"/>
    <path d="M135.232 160.069C134.77 161.61 133.999 163.767 132.92 166.541C131.841 169.237 131.109 171.087 130.723 172.088C130.261 173.244 129.644 175.517 128.874 178.907C128.18 182.297 127.525 184.454 126.908 185.379L126.677 185.957C126.523 186.419 126.33 186.997 126.099 187.69C125.868 188.461 125.637 189.309 125.406 190.233C125.174 191.158 124.982 192.236 124.828 193.469C124.673 194.702 124.596 195.973 124.596 197.283C124.596 197.976 124.481 198.593 124.25 199.132C124.095 199.749 123.941 200.211 123.787 200.519C123.633 200.904 123.325 201.444 122.862 202.137C122.4 202.908 122.092 203.447 121.937 203.755C121.244 204.988 119.433 205.604 116.504 205.604C115.348 205.604 114.5 205.45 113.961 205.142C113.421 204.834 112.882 204.372 112.342 203.755C111.803 203.139 111.263 202.676 110.724 202.368C110.184 202.06 109.799 201.482 109.568 200.635C109.336 199.787 109.105 199.286 108.874 199.132C108.026 198.285 107.525 196.358 107.371 193.354C107.371 192.891 107.41 192.275 107.487 191.504C107.564 190.734 107.602 190.156 107.602 189.771C107.602 189.309 107.294 188.692 106.677 187.922C106.061 187.151 105.753 186.496 105.753 185.957C105.753 180.024 105.984 174.168 106.446 168.39C106.523 167.465 106.6 165.963 106.677 163.882C106.754 161.802 106.832 160.107 106.909 158.797C107.063 157.487 107.294 156.101 107.602 154.637C107.911 153.173 108.334 152.094 108.874 151.401C109.182 151.092 109.336 150.669 109.336 150.129C109.336 149.898 109.298 149.513 109.221 148.974C109.144 148.357 109.105 147.895 109.105 147.587C109.105 147.201 109.144 146.624 109.221 145.853C109.375 145.006 109.452 144.351 109.452 143.888C109.452 143.734 109.413 143.465 109.336 143.079C109.259 142.694 109.221 142.386 109.221 142.155C109.221 141.615 109.529 141.076 110.146 140.537C110.762 139.997 111.07 139.612 111.07 139.381C110.993 138.765 110.685 137.532 110.146 135.683C108.296 135.914 107.101 136.607 106.562 137.763C106.022 138.842 105.367 139.42 104.596 139.497C104.288 139.574 103.903 140.074 103.44 140.999C102.978 141.924 102.516 142.501 102.053 142.733C101.437 143.041 100.781 143.657 100.088 144.582C99.3942 145.429 98.3923 146.238 97.0821 147.009C96.8509 147.394 96.5811 148.473 96.2728 150.245C96.0416 152.017 95.3095 153.019 94.0763 153.25C93.6139 153.558 93.2671 153.866 93.0359 154.174C92.8817 154.405 92.7661 154.598 92.689 154.752C92.612 154.906 92.5349 155.176 92.4578 155.561C92.3808 155.869 92.3037 156.139 92.2266 156.37C92.0725 156.755 91.4945 157.68 90.4925 159.144C89.4906 160.608 88.9126 161.802 88.7584 162.727C88.6814 163.035 88.3731 163.651 87.8336 164.576C87.4482 165.346 86.8702 166.618 86.0995 168.39C85.3288 170.162 84.7122 171.472 84.2498 172.319C83.7874 173.09 83.0937 174.053 82.1689 175.209C81.3211 176.287 80.2807 177.058 79.0475 177.52C77.8915 177.982 76.5042 178.213 74.8857 178.213C72.6506 178.213 70.7624 177.25 69.221 175.324C67.7567 173.321 67.0245 170.47 67.0245 166.772C67.0245 165.616 67.1401 164.422 67.3713 163.189C67.6025 161.879 67.8723 160.492 68.1805 159.028C68.4888 157.487 68.72 156.293 68.8742 155.446C68.9512 154.829 69.2595 153.982 69.799 152.903C70.3385 151.824 70.6853 150.938 70.8395 150.245C70.9936 149.243 71.2634 148.319 71.6487 147.471C72.1111 146.547 72.7663 145.391 73.614 144.004C74.5389 142.54 75.3096 141.153 75.9261 139.843C78.3153 136.607 79.7412 134.296 80.2036 132.909C80.666 131.599 81.8606 130.559 83.7874 129.788C85.7141 128.941 87.4868 128.517 89.1052 128.517C91.4174 128.517 93.768 129.172 96.1572 130.482C96.6967 130.79 97.3904 131.522 98.2381 132.678C99.0859 133.756 99.7025 134.296 100.088 134.296C100.55 134.219 101.706 133.256 103.556 131.406C105.406 129.48 106.947 128.325 108.18 127.939C108.566 127.862 109.375 127.361 110.608 126.437C111.918 125.512 112.92 125.05 113.614 125.05C115.386 125.05 116.966 125.551 118.354 126.552C119.818 127.554 120.55 128.864 120.55 130.482C120.55 130.79 120.512 131.83 120.435 133.602C120.357 135.297 120.28 136.492 120.203 137.185C120.126 137.801 119.972 138.726 119.741 139.959C119.51 141.192 119.163 142.309 118.7 143.31C118.238 144.62 117.93 147.317 117.776 151.401C117.621 155.407 117.198 157.796 116.504 158.566C115.194 160.646 114.539 165.886 114.539 174.284C114.539 174.361 114.539 174.554 114.539 174.862C114.616 175.093 114.654 175.286 114.654 175.44C114.654 175.979 114.539 176.788 114.307 177.867C114.153 178.945 114.076 179.754 114.076 180.294C114.076 181.681 114.23 183.53 114.539 185.841C114.847 188.23 115.001 189.732 115.001 190.349C115.001 190.503 114.962 190.695 114.885 190.927C114.885 191.158 114.885 191.312 114.885 191.389C114.885 191.62 115.078 192.39 115.463 193.7C115.849 195.087 116.196 195.781 116.504 195.781C116.735 195.781 117.005 195.511 117.313 194.972C117.621 194.432 117.968 193.739 118.354 192.891C118.739 192.044 119.047 191.466 119.278 191.158C119.818 190.233 120.357 188.422 120.897 185.726C121.436 183.106 121.86 181.295 122.169 180.294C122.4 179.677 122.708 178.56 123.093 176.942C123.556 175.247 123.98 173.822 124.365 172.666C124.828 171.51 125.29 170.701 125.752 170.239C126.061 170.008 126.446 168.582 126.908 165.963C127.448 163.266 128.103 161.417 128.874 160.415C129.336 159.876 130.184 158.528 131.417 156.37C132.65 154.213 133.806 152.633 134.885 151.632C135.81 151.632 136.273 152.556 136.273 154.405C136.273 156.023 135.926 157.911 135.232 160.069ZM97.1977 137.07C96.427 136.376 95.4636 136.029 94.3075 136.029C93.3827 136.029 92.4964 136.299 91.6486 136.838C85.2517 141.384 80.5504 149.436 77.5446 160.993C77.4676 161.07 77.429 161.224 77.429 161.455C77.429 161.995 77.5832 162.264 77.8915 162.264C78.3539 162.264 79.3943 161.224 81.0128 159.144C82.6313 156.987 83.98 155.06 85.059 153.365C86.9087 150.437 88.797 148.126 90.7237 146.431C91.1862 145.969 91.8798 145.083 92.8047 143.773C93.8066 142.386 94.7314 141.461 95.5792 140.999L97.3133 137.532V137.416C97.2362 137.262 97.1977 137.147 97.1977 137.07Z" fill="#78A8EF"/>
    <path d="M181.28 157.757C181.357 157.988 181.512 158.335 181.743 158.797C181.974 159.26 182.167 159.645 182.321 159.953C181.858 160.261 181.165 160.685 180.24 161.224C179.392 161.687 178.583 162.149 177.812 162.611C177.042 163.073 176.386 163.574 175.847 164.114C174.768 164.114 173.226 165.115 171.223 167.118C169.219 169.045 168.217 171.241 168.217 173.706C168.217 173.86 168.217 174.014 168.217 174.168C168.294 174.323 168.333 174.438 168.333 174.515C168.333 174.9 168.255 175.247 168.101 175.555C166.329 178.252 165.442 180.486 165.442 182.259C165.442 182.644 165.442 183.183 165.442 183.877C165.519 184.493 165.558 184.955 165.558 185.263C165.558 188.808 164.98 192.198 163.824 195.434C163.516 195.973 163.246 196.859 163.015 198.092C162.86 199.402 162.591 200.326 162.205 200.866C161.897 201.251 161.666 202.022 161.512 203.177C161.435 204.333 161.242 205.026 160.934 205.258C160.24 205.797 159.778 206.721 159.546 208.031C159.315 209.418 159.123 210.189 158.968 210.343C158.352 210.651 157.966 211.036 157.812 211.499C157.658 211.961 157.543 212.5 157.466 213.117C157.466 213.81 157.388 214.349 157.234 214.735C157.311 214.657 157.388 214.619 157.466 214.619L154.229 219.473C154.229 220.86 154.074 221.746 153.766 222.131C153.535 222.516 152.841 222.902 151.685 223.287C151.685 225.213 151.146 226.831 150.067 228.141C149.065 229.528 147.793 230.53 146.252 231.146C144.71 231.762 143.323 232.186 142.09 232.417C140.934 232.648 139.97 232.764 139.2 232.764C137.581 232.764 135.539 231.878 133.073 230.106C130.683 228.411 129.489 226.369 129.489 223.98C129.489 222.671 129.604 220.783 129.836 218.317C130.144 215.852 130.298 214.08 130.298 213.001C130.298 211.845 130.876 209.765 132.032 206.76C133.265 203.755 133.959 201.444 134.113 199.826C134.19 198.747 134.807 197.322 135.963 195.549C137.119 193.777 137.697 192.814 137.697 192.66C137.928 191.119 139.238 188.923 141.627 186.072C144.942 181.758 147.832 178.213 150.298 175.44C150.606 175.132 151.223 174.746 152.148 174.284C153.072 173.745 153.689 173.167 153.997 172.55C154.383 171.626 155.115 170.701 156.194 169.777C157.273 168.775 158.275 167.966 159.2 167.35C160.202 166.656 161.088 165.809 161.859 164.807C162.629 163.728 163.015 162.611 163.015 161.455C163.015 160.916 163.284 159.529 163.824 157.295C164.363 155.06 164.633 153.635 164.633 153.019C164.633 152.787 164.595 152.441 164.517 151.978C164.44 151.439 164.402 151.015 164.402 150.707C164.402 150.091 164.517 149.051 164.749 147.587C164.98 146.123 165.096 145.083 165.096 144.466C165.096 144.235 164.864 144.119 164.402 144.119C163.785 144.197 162.938 144.736 161.859 145.738C160.857 146.739 159.97 147.356 159.2 147.587C158.814 147.741 158.159 148.242 157.234 149.089C156.309 149.937 155.847 150.669 155.847 151.285C155.847 152.826 154.768 153.635 152.61 153.712C152.533 154.097 152.34 154.675 152.032 155.446C151.724 156.216 151.223 157.102 150.529 158.104C149.836 159.028 149.18 159.491 148.564 159.491C148.101 159.491 147.408 160.3 146.483 161.918C145.558 163.536 145.019 164.846 144.864 165.847C144.633 167.311 143.824 168.467 142.437 169.314C141.049 170.085 139.585 170.47 138.044 170.47C136.656 170.47 135.577 170.393 134.807 170.239C134.036 170.085 133.034 169.661 131.801 168.968C130.568 168.274 129.643 166.964 129.026 165.038C128.41 163.112 128.102 160.608 128.102 157.526C128.102 156.216 128.371 154.521 128.911 152.441C129.527 150.36 129.836 148.858 129.836 147.933C130.298 147.086 130.876 145.853 131.57 144.235C132.34 142.617 132.957 141.423 133.419 140.652C133.882 139.805 134.73 138.726 135.963 137.416C137.273 136.029 138.891 134.681 140.818 133.371C145.134 130.289 148.718 128.748 151.57 128.748C154.344 128.748 156.81 129.249 158.968 130.251C161.203 131.252 162.321 132.639 162.321 134.411C162.321 135.952 161.704 136.723 160.471 136.723C159.855 136.723 158.814 136.338 157.35 135.567C155.963 134.72 154.961 134.296 154.344 134.296C153.728 134.296 153.072 134.411 152.379 134.642C151.608 135.028 150.452 135.721 148.911 136.723C147.446 137.724 145.674 139.111 143.593 140.883C141.512 142.656 139.701 144.813 138.159 147.356C136.695 149.821 135.963 152.287 135.963 154.752C135.963 154.829 135.963 155.022 135.963 155.33C136.04 155.638 136.078 155.869 136.078 156.023C136.078 156.486 135.963 157.218 135.732 158.219C135.5 159.221 135.385 160.03 135.385 160.646C135.385 162.573 135.809 163.536 136.656 163.536C137.119 163.536 137.89 162.996 138.969 161.918C140.125 160.762 141.435 159.414 142.899 157.873C144.441 156.332 145.635 155.214 146.483 154.521C149.18 153.751 151.03 152.055 152.032 149.436C152.34 148.819 152.726 148.396 153.188 148.165C154.73 147.471 155.963 146.123 156.888 144.119C157.119 143.657 157.735 143.156 158.737 142.617C159.739 142.078 160.356 141.423 160.587 140.652C160.587 140.267 161.049 139.805 161.974 139.265C162.976 138.726 163.554 138.264 163.708 137.879C164.017 136.954 164.749 136.106 165.905 135.336C167.061 134.565 168.14 134.18 169.142 134.18C171.454 134.18 173.034 134.565 173.882 135.336C174.729 136.029 175.153 137.339 175.153 139.265C175.153 140.96 174.806 143.31 174.113 146.315C173.419 149.243 172.995 151.324 172.841 152.556C172.764 153.096 172.494 153.866 172.032 154.868C171.569 155.869 171.338 156.447 171.338 156.601C171.338 157.372 172.109 157.757 173.65 157.757C174.036 157.757 174.845 157.526 176.078 157.064C177.311 156.601 178.198 156.37 178.737 156.37C179.739 156.37 180.587 156.833 181.28 157.757ZM160.587 190.002C160.741 189.694 160.818 189.463 160.818 189.309C160.818 188.769 160.471 188.23 159.778 187.69C159.161 187.151 158.853 186.727 158.853 186.419L160.124 182.143C160.047 181.989 160.009 181.719 160.009 181.334C160.009 180.949 160.279 179.947 160.818 178.329C160.818 177.79 160.548 177.52 160.009 177.52C159.855 177.52 159.739 177.559 159.662 177.636C158.044 178.945 156.155 181.103 153.997 184.108C151.916 187.036 150.182 189.077 148.795 190.233C148.101 190.849 147.408 191.89 146.714 193.354C146.098 194.895 145.558 195.935 145.096 196.474C143.785 198.169 142.321 201.174 140.703 205.489C139.084 209.803 138.275 213.232 138.275 215.775C138.198 216.16 137.967 216.815 137.581 217.739C137.273 218.664 137.119 219.396 137.119 219.935C137.119 223.865 137.851 225.83 139.315 225.83C140.703 225.83 141.82 225.444 142.668 224.674C142.976 224.212 143.824 223.364 145.211 222.131C146.599 220.898 147.755 219.666 148.679 218.433C149.681 217.277 150.182 216.237 150.182 215.312C150.182 214.927 150.683 213.848 151.685 212.076C152.687 210.304 153.265 208.956 153.419 208.031C153.419 207.954 153.92 207.338 154.922 206.182C156.001 205.026 156.541 204.256 156.541 203.871C156.541 203.717 156.425 203.524 156.194 203.293C156.04 203.139 155.77 202.946 155.385 202.715C155.076 202.561 154.845 202.445 154.691 202.368C154.768 202.291 155.115 201.521 155.731 200.057C156.348 198.593 156.965 196.975 157.581 195.203C158.275 193.508 158.622 192.429 158.622 191.967C158.622 191.736 158.583 191.466 158.506 191.158C158.506 190.927 158.506 190.772 158.506 190.695C158.506 190.464 158.66 190.118 158.968 189.655C159.123 189.655 159.315 189.771 159.546 190.002C159.855 190.233 160.047 190.349 160.124 190.349C160.202 190.349 160.356 190.233 160.587 190.002Z" fill="#78A8EF"/>
    <path d="M188.015 144.351C189.634 141.346 190.636 139.15 191.021 137.763C191.329 136.684 192.062 135.529 193.218 134.296C194.451 132.986 195.607 131.946 196.686 131.175C197.765 130.405 198.304 130.097 198.304 130.251C198.69 129.788 199.114 129.48 199.576 129.326C200.115 129.095 200.771 128.979 201.541 128.979C202.312 128.902 202.851 128.825 203.16 128.748C204.008 128.748 205.318 129.134 207.09 129.904C208.94 130.674 210.366 131.098 211.368 131.175C211.522 131.252 211.869 131.484 212.408 131.869C213.025 132.177 213.487 132.447 213.796 132.678C214.181 132.909 214.643 133.256 215.183 133.718C215.799 134.18 216.262 134.642 216.57 135.105C216.878 135.567 217.148 136.145 217.379 136.838C217.688 137.455 217.842 138.148 217.842 138.919C217.842 140.999 216.801 143.426 214.72 146.2C212.639 148.896 210.327 151.131 207.784 152.903C207.167 153.365 206.358 154.097 205.356 155.099C204.431 156.023 203.507 156.794 202.582 157.41C201.657 158.027 200.616 158.412 199.46 158.566C197.534 158.797 196.3 159.606 195.761 160.993C195.221 162.303 194.952 164.961 194.952 168.968C194.952 174.13 196.223 176.711 198.767 176.711C199.537 176.711 201.695 175.555 205.241 173.244C208.786 170.855 211.214 168.852 212.524 167.234C213.295 166.926 214.374 166.117 215.761 164.807C217.225 163.497 218.42 162.842 219.345 162.842C219.884 162.842 220.347 163.035 220.732 163.42C221.194 163.805 221.426 164.229 221.426 164.691C221.426 165.385 220.578 166.656 218.882 168.505C217.264 170.355 215.992 171.433 215.067 171.741C214.528 171.896 213.911 172.319 213.217 173.013C212.601 173.706 212.061 174.13 211.599 174.284C211.522 174.361 211.137 174.9 210.443 175.902C209.749 176.827 209.133 177.482 208.593 177.867C208.285 178.098 207.745 178.714 206.975 179.716C206.204 180.718 205.318 181.604 204.316 182.374C203.314 183.068 202.119 183.414 200.732 183.414C200.424 183.414 199.846 183.376 198.998 183.299C198.227 183.145 197.611 183.068 197.148 183.068C196.994 183.068 196.763 183.106 196.455 183.183C196.146 183.183 195.915 183.183 195.761 183.183C194.374 183.183 192.871 182.644 191.252 181.565C189.711 180.409 188.94 179.292 188.94 178.213C188.94 177.751 188.632 177.404 188.015 177.173C187.476 176.865 187.206 176.403 187.206 175.786C187.206 175.324 186.859 174.515 186.166 173.359C185.472 172.127 185.125 171.164 185.125 170.47L185.819 168.159C186.204 166.618 186.397 165.423 186.397 164.576C186.397 164.191 186.089 163.42 185.472 162.264C184.933 161.109 184.663 160.377 184.663 160.069C184.663 159.452 184.701 158.605 184.778 157.526C184.933 156.447 185.01 155.6 185.01 154.983C185.01 154.829 184.971 154.598 184.894 154.29C184.894 153.982 184.894 153.751 184.894 153.596C185.048 153.288 185.279 152.787 185.588 152.094C185.973 151.324 186.281 150.707 186.512 150.245C186.744 149.783 186.936 149.243 187.09 148.627C187.322 147.933 187.437 147.356 187.437 146.893C187.437 146.816 187.399 146.701 187.322 146.547C187.322 146.392 187.322 146.277 187.322 146.2C187.322 145.969 187.437 145.66 187.669 145.275C187.977 144.89 188.131 144.62 188.131 144.466L188.015 144.351ZM196.455 152.21L197.379 151.747C197.996 151.362 198.728 150.9 199.576 150.36C200.424 149.821 201.349 149.205 202.351 148.511C203.352 147.741 204.277 147.009 205.125 146.315C205.973 145.622 206.666 144.89 207.206 144.119C207.823 143.349 208.131 142.694 208.131 142.155C208.131 141.538 207.977 140.614 207.668 139.381C207.36 138.148 206.936 137.532 206.397 137.532C205.78 137.532 205.009 137.994 204.085 138.919C203.16 139.843 202.196 140.96 201.194 142.27C200.193 143.503 199.499 144.274 199.114 144.582L198.304 145.853C197.842 146.701 197.341 147.702 196.801 148.858C196.262 149.937 195.992 150.707 195.992 151.169C195.992 151.401 196.146 151.747 196.455 152.21ZM188.015 144.351L188.247 144.466C188.092 144.466 188.015 144.428 188.015 144.351Z" fill="#78A8EF"/>
    <path d="M290.645 139.034C290.799 138.803 291.069 138.379 291.454 137.763C291.916 137.07 292.302 136.569 292.61 136.261C292.918 135.875 293.304 135.644 293.766 135.567C294.383 135.413 294.884 134.797 295.269 133.718C295.731 132.639 296.271 131.984 296.887 131.753C297.581 131.445 298.352 130.829 299.2 129.904C300.124 128.902 301.088 128.055 302.09 127.361C303.169 126.591 304.402 126.206 305.789 126.206C306.02 126.206 306.444 126.283 307.061 126.437C309.219 127.284 310.606 128.209 311.223 129.211C311.839 130.212 312.147 132.061 312.147 134.758C312.147 135.837 311.878 138.456 311.338 142.617C310.645 147.548 309.835 150.707 308.911 152.094C308.911 152.865 308.718 154.02 308.332 155.561C307.947 157.025 307.754 158.181 307.754 159.028C307.754 159.337 307.832 159.876 307.986 160.646C307.754 161.879 307.639 163.728 307.639 166.194C307.639 172.589 308.063 175.786 308.911 175.786C309.45 175.786 310.182 175.517 311.107 174.977C312.032 174.438 313.072 173.745 314.228 172.897C315.462 171.973 316.232 171.395 316.541 171.164C316.849 171.009 317.542 170.586 318.621 169.892C319.7 169.122 320.51 168.582 321.049 168.274C321.666 167.889 322.436 167.427 323.361 166.887C324.363 166.348 325.249 165.963 326.02 165.732C326.791 165.5 327.523 165.385 328.217 165.385C328.987 165.385 329.373 165.578 329.373 165.963C329.373 166.733 328.602 167.542 327.061 168.39C325.905 169.16 324.749 170.316 323.592 171.857C322.436 173.321 321.203 175.055 319.893 177.058C318.66 179.061 317.851 180.332 317.465 180.872C317.08 181.411 316.309 182.104 315.153 182.952C313.997 183.8 313.226 184.57 312.841 185.263C309.681 187.036 307.716 187.922 306.945 187.922C304.016 187.922 301.781 186.766 300.24 184.454C298.776 182.143 297.658 178.483 296.887 173.475C296.887 173.09 297.003 172.627 297.234 172.088C297.465 171.549 297.581 171.164 297.581 170.932C297.581 170.701 297.504 170.432 297.35 170.123C297.273 169.738 297.234 169.43 297.234 169.199C297.234 168.814 297.388 168.313 297.697 167.696C298.005 167.08 298.159 166.618 298.159 166.309C298.159 166.001 298.082 165.578 297.928 165.038C297.851 164.499 297.812 164.075 297.812 163.767C297.812 163.382 297.851 162.804 297.928 162.033C298.082 161.186 298.159 160.685 298.159 160.531C299.161 155.677 299.855 150.669 300.24 145.506C300.317 144.659 300.625 143.349 301.165 141.577C301.704 139.728 301.974 138.302 301.974 137.301C301.974 136.299 301.704 135.798 301.165 135.798C300.394 135.798 299.2 136.761 297.581 138.688C295.963 140.537 294.961 141.962 294.575 142.964C293.573 145.275 292.649 146.508 291.801 146.662C291.338 146.893 290.606 148.319 289.604 150.938C288.602 153.558 287.793 155.292 287.177 156.139C286.868 156.447 286.521 157.102 286.136 158.104C285.751 159.105 285.404 159.683 285.096 159.837C284.556 160.223 283.516 161.841 281.974 164.691C280.51 167.542 278.737 168.968 276.656 168.968C275.192 168.968 273.997 168.544 273.073 167.696C272.148 166.849 271.493 165.616 271.107 163.998C270.722 162.303 270.452 160.762 270.298 159.375C270.221 157.988 270.182 156.293 270.182 154.29C270.182 153.674 270.182 152.787 270.182 151.632C270.26 150.476 270.298 149.628 270.298 149.089C270.298 146.315 269.874 144.928 269.026 144.928C268.41 144.928 266.406 146.392 263.015 149.32C259.624 152.171 257.928 154.405 257.928 156.023C257.928 156.178 257.967 156.447 258.044 156.833C258.198 157.218 258.275 157.487 258.275 157.642C258.275 158.027 258.044 158.373 257.581 158.682C257.119 158.99 256.888 159.221 256.888 159.375C256.888 159.914 256.811 160.8 256.657 162.033C256.579 163.189 256.541 164.075 256.541 164.691C256.541 164.846 256.541 165.115 256.541 165.5C256.618 165.886 256.657 166.194 256.657 166.425C256.657 166.964 256.464 167.619 256.078 168.39C255.616 169.083 255.269 170.046 255.038 171.279C254.807 172.512 254.614 173.321 254.46 173.706C254.229 174.168 253.766 175.016 253.073 176.249C252.379 177.404 251.955 178.368 251.801 179.138C251.184 181.604 249.566 183.684 246.946 185.379C244.325 187.151 242.167 188.037 240.472 188.037C238.16 188.037 235.886 187.036 233.651 185.032C233.42 184.57 232.649 183.915 231.339 183.068C230.029 182.22 229.219 181.18 228.911 179.947C228.911 175.478 230.067 171.587 232.379 168.274C234.691 164.884 237.89 161.571 241.975 158.335C246.213 155.022 248.68 152.865 249.373 151.863C250.144 150.861 250.529 148.935 250.529 146.084C250.529 145.853 250.491 145.275 250.414 144.351C250.337 143.349 250.26 142.386 250.183 141.461C250.105 140.537 249.99 139.458 249.836 138.225C249.759 136.915 249.605 135.76 249.373 134.758C249.219 133.679 248.988 132.678 248.68 131.753C248.371 130.829 248.025 130.097 247.639 129.557C247.254 129.018 246.791 128.748 246.252 128.748C244.171 128.748 242.167 129.711 240.24 131.638C238.314 133.487 236.811 135.529 235.732 137.763C234.576 139.997 233.381 142.078 232.148 144.004C230.838 145.853 229.682 146.778 228.68 146.778C228.603 146.778 228.102 146.469 227.177 145.853C226.175 145.237 225.173 144.466 224.171 143.542C223.169 142.617 222.668 141.847 222.668 141.23C222.668 140.614 223.439 139.265 224.98 137.185C226.445 135.028 227.794 133.333 229.027 132.1C230.722 129.172 233.15 126.745 236.31 124.819C239.47 122.816 242.591 121.814 245.674 121.814C249.065 121.814 251.878 122.893 254.113 125.05C256.425 127.13 257.658 129.557 257.813 132.331C257.813 133.41 258.082 135.606 258.622 138.919C259.161 142.155 259.662 143.773 260.125 143.773C261.05 143.696 263.13 142.54 266.367 140.306C269.681 137.994 272.071 136.838 273.535 136.838C276.232 136.838 277.967 137.493 278.737 138.803C279.508 140.113 279.893 142.078 279.893 144.697C279.893 145.391 279.778 146.392 279.547 147.702C279.392 149.012 279.315 150.014 279.315 150.707C279.315 151.709 279.547 152.21 280.009 152.21C280.163 152.21 280.548 151.824 281.165 151.054C281.782 150.283 282.437 149.513 283.13 148.742C283.824 147.895 284.248 147.394 284.402 147.24C284.864 146.855 285.327 146.2 285.789 145.275C286.252 144.274 286.791 143.58 287.408 143.195C287.87 142.964 288.448 142.27 289.142 141.115C289.913 139.959 290.452 139.227 290.76 138.919V139.265C290.76 139.188 290.722 139.111 290.645 139.034ZM248.795 163.189C247.793 163.189 246.984 163.497 246.368 164.114C246.136 164.345 245.404 165.038 244.171 166.194C242.938 167.273 241.897 168.274 241.05 169.199C240.202 170.046 239.354 171.164 238.506 172.55C237.736 173.86 237.35 175.055 237.35 176.133C237.35 177.366 237.62 177.982 238.16 177.982C238.391 177.982 238.699 177.944 239.084 177.867C239.47 177.713 239.894 177.559 240.356 177.404C240.818 177.25 241.127 177.135 241.281 177.058C242.437 176.75 243.978 175.324 245.905 172.782C247.909 170.239 248.911 167.735 248.911 165.269C248.911 165.038 248.872 164.691 248.795 164.229C248.795 163.767 248.795 163.42 248.795 163.189Z" fill="#78A8EF"/>
    <path d="M373.318 157.757C373.395 157.988 373.549 158.335 373.78 158.797C374.011 159.26 374.204 159.645 374.358 159.953C373.896 160.261 373.202 160.685 372.277 161.224C371.429 161.687 370.62 162.149 369.849 162.611C369.079 163.073 368.424 163.574 367.884 164.114C366.805 164.114 365.264 165.115 363.26 167.118C361.256 169.045 360.254 171.241 360.254 173.706C360.254 173.86 360.254 174.014 360.254 174.168C360.331 174.323 360.37 174.438 360.37 174.515C360.37 174.9 360.293 175.247 360.138 175.555C358.366 178.252 357.48 180.486 357.48 182.259C357.48 182.644 357.48 183.183 357.48 183.877C357.557 184.493 357.595 184.955 357.595 185.263C357.595 188.808 357.017 192.198 355.861 195.434C355.553 195.973 355.283 196.859 355.052 198.092C354.898 199.402 354.628 200.326 354.243 200.866C353.934 201.251 353.703 202.022 353.549 203.177C353.472 204.333 353.279 205.026 352.971 205.258C352.277 205.797 351.815 206.721 351.584 208.031C351.352 209.418 351.16 210.189 351.006 210.343C350.389 210.651 350.004 211.036 349.85 211.499C349.695 211.961 349.58 212.5 349.503 213.117C349.503 213.81 349.426 214.349 349.272 214.735C349.349 214.657 349.426 214.619 349.503 214.619L346.266 219.473C346.266 220.86 346.112 221.746 345.803 222.131C345.572 222.516 344.878 222.902 343.722 223.287C343.722 225.213 343.183 226.831 342.104 228.141C341.102 229.528 339.83 230.53 338.289 231.146C336.747 231.762 335.36 232.186 334.127 232.417C332.971 232.648 332.008 232.764 331.237 232.764C329.618 232.764 327.576 231.878 325.11 230.106C322.721 228.411 321.526 226.369 321.526 223.98C321.526 222.671 321.642 220.783 321.873 218.317C322.181 215.852 322.335 214.08 322.335 213.001C322.335 211.845 322.913 209.765 324.069 206.76C325.302 203.755 325.996 201.444 326.15 199.826C326.227 198.747 326.844 197.322 328 195.549C329.156 193.777 329.734 192.814 329.734 192.66C329.965 191.119 331.275 188.923 333.665 186.072C336.979 181.758 339.869 178.213 342.335 175.44C342.643 175.132 343.26 174.746 344.185 174.284C345.11 173.745 345.726 173.167 346.034 172.55C346.42 171.626 347.152 170.701 348.231 169.777C349.31 168.775 350.312 167.966 351.237 167.35C352.239 166.656 353.125 165.809 353.896 164.807C354.666 163.728 355.052 162.611 355.052 161.455C355.052 160.916 355.322 159.529 355.861 157.295C356.401 155.06 356.67 153.635 356.67 153.019C356.67 152.787 356.632 152.441 356.555 151.978C356.478 151.439 356.439 151.015 356.439 150.707C356.439 150.091 356.555 149.051 356.786 147.587C357.017 146.123 357.133 145.083 357.133 144.466C357.133 144.235 356.902 144.119 356.439 144.119C355.823 144.197 354.975 144.736 353.896 145.738C352.894 146.739 352.007 147.356 351.237 147.587C350.851 147.741 350.196 148.242 349.272 149.089C348.347 149.937 347.884 150.669 347.884 151.285C347.884 152.826 346.805 153.635 344.647 153.712C344.57 154.097 344.378 154.675 344.069 155.446C343.761 156.216 343.26 157.102 342.566 158.104C341.873 159.028 341.218 159.491 340.601 159.491C340.139 159.491 339.445 160.3 338.52 161.918C337.595 163.536 337.056 164.846 336.902 165.847C336.67 167.311 335.861 168.467 334.474 169.314C333.087 170.085 331.622 170.47 330.081 170.47C328.694 170.47 327.615 170.393 326.844 170.239C326.073 170.085 325.071 169.661 323.838 168.968C322.605 168.274 321.68 166.964 321.064 165.038C320.447 163.112 320.139 160.608 320.139 157.526C320.139 156.216 320.409 154.521 320.948 152.441C321.565 150.36 321.873 148.858 321.873 147.933C322.335 147.086 322.913 145.853 323.607 144.235C324.378 142.617 324.994 141.423 325.457 140.652C325.919 139.805 326.767 138.726 328 137.416C329.31 136.029 330.929 134.681 332.855 133.371C337.171 130.289 340.755 128.748 343.607 128.748C346.381 128.748 348.848 129.249 351.006 130.251C353.241 131.252 354.358 132.639 354.358 134.411C354.358 135.952 353.742 136.723 352.508 136.723C351.892 136.723 350.851 136.338 349.387 135.567C348 134.72 346.998 134.296 346.381 134.296C345.765 134.296 345.11 134.411 344.416 134.642C343.645 135.028 342.489 135.721 340.948 136.723C339.483 137.724 337.711 139.111 335.63 140.883C333.549 142.656 331.738 144.813 330.196 147.356C328.732 149.821 328 152.287 328 154.752C328 154.829 328 155.022 328 155.33C328.077 155.638 328.116 155.869 328.116 156.023C328.116 156.486 328 157.218 327.769 158.219C327.538 159.221 327.422 160.03 327.422 160.646C327.422 162.573 327.846 163.536 328.694 163.536C329.156 163.536 329.927 162.996 331.006 161.918C332.162 160.762 333.472 159.414 334.936 157.873C336.478 156.332 337.672 155.214 338.52 154.521C341.218 153.751 343.067 152.055 344.069 149.436C344.378 148.819 344.763 148.396 345.225 148.165C346.767 147.471 348 146.123 348.925 144.119C349.156 143.657 349.772 143.156 350.774 142.617C351.776 142.078 352.393 141.423 352.624 140.652C352.624 140.267 353.086 139.805 354.011 139.265C355.013 138.726 355.591 138.264 355.745 137.879C356.054 136.954 356.786 136.106 357.942 135.336C359.098 134.565 360.177 134.18 361.179 134.18C363.491 134.18 365.071 134.565 365.919 135.336C366.767 136.029 367.19 137.339 367.19 139.265C367.19 140.96 366.844 143.31 366.15 146.315C365.456 149.243 365.032 151.324 364.878 152.556C364.801 153.096 364.532 153.866 364.069 154.868C363.607 155.869 363.375 156.447 363.375 156.601C363.375 157.372 364.146 157.757 365.688 157.757C366.073 157.757 366.882 157.526 368.115 157.064C369.348 156.601 370.235 156.37 370.774 156.37C371.776 156.37 372.624 156.833 373.318 157.757ZM352.624 190.002C352.778 189.694 352.855 189.463 352.855 189.309C352.855 188.769 352.508 188.23 351.815 187.69C351.198 187.151 350.89 186.727 350.89 186.419L352.162 182.143C352.085 181.989 352.046 181.719 352.046 181.334C352.046 180.949 352.316 179.947 352.855 178.329C352.855 177.79 352.586 177.52 352.046 177.52C351.892 177.52 351.776 177.559 351.699 177.636C350.081 178.945 348.192 181.103 346.034 184.108C343.954 187.036 342.22 189.077 340.832 190.233C340.139 190.849 339.445 191.89 338.751 193.354C338.135 194.895 337.595 195.935 337.133 196.474C335.823 198.169 334.358 201.174 332.74 205.489C331.121 209.803 330.312 213.232 330.312 215.775C330.235 216.16 330.004 216.815 329.618 217.739C329.31 218.664 329.156 219.396 329.156 219.935C329.156 223.865 329.888 225.83 331.353 225.83C332.74 225.83 333.857 225.444 334.705 224.674C335.013 224.212 335.861 223.364 337.248 222.131C338.636 220.898 339.792 219.666 340.717 218.433C341.719 217.277 342.22 216.237 342.22 215.312C342.22 214.927 342.72 213.848 343.722 212.076C344.724 210.304 345.302 208.956 345.456 208.031C345.456 207.954 345.957 207.338 346.959 206.182C348.038 205.026 348.578 204.256 348.578 203.871C348.578 203.717 348.462 203.524 348.231 203.293C348.077 203.139 347.807 202.946 347.422 202.715C347.114 202.561 346.882 202.445 346.728 202.368C346.805 202.291 347.152 201.521 347.769 200.057C348.385 198.593 349.002 196.975 349.618 195.203C350.312 193.508 350.659 192.429 350.659 191.967C350.659 191.736 350.62 191.466 350.543 191.158C350.543 190.927 350.543 190.772 350.543 190.695C350.543 190.464 350.697 190.118 351.006 189.655C351.16 189.655 351.352 189.771 351.584 190.002C351.892 190.233 352.085 190.349 352.162 190.349C352.239 190.349 352.393 190.233 352.624 190.002Z" fill="#78A8EF"/>
    <path d="M411.035 211.845C410.033 212.847 409.301 214.619 408.838 217.162C408.376 219.704 407.759 221.515 406.989 222.594C406.989 225.444 405.601 228.372 402.827 231.377C400.129 234.459 397.162 236 393.925 236C392.307 236 391.035 235.769 390.11 235.307C389.185 234.921 388.299 234.305 387.451 233.457C386.681 232.687 386.026 232.148 385.486 231.839C383.482 230.684 382.48 227.794 382.48 223.171C382.48 217.239 383.675 212.23 386.064 208.147C386.372 207.762 386.796 206.606 387.336 204.68C387.952 202.753 388.376 201.482 388.607 200.866C390.149 197.476 392.037 193.97 394.272 190.349C394.426 190.118 394.735 189.732 395.197 189.193C395.659 188.654 396.006 188.23 396.237 187.922C396.546 187.459 397.008 186.573 397.625 185.263C398.318 183.954 398.935 182.913 399.474 182.143C400.014 181.295 400.592 180.756 401.208 180.525C401.902 180.14 402.634 179.369 403.405 178.213C404.253 177.058 404.946 176.249 405.486 175.786C408.029 173.706 409.84 169.738 410.919 163.882C410.996 163.189 411.42 162.303 412.191 161.224C412.962 160.069 413.347 159.182 413.347 158.566C413.347 158.104 413.27 157.873 413.116 157.873C413.039 157.873 412.769 158.027 412.307 158.335C411.921 158.566 411.652 158.682 411.497 158.682C411.189 158.682 411.035 158.528 411.035 158.219C411.035 156.37 411.42 154.714 412.191 153.25C412.962 151.709 413.347 150.553 413.347 149.783C413.347 144.62 412.653 142.039 411.266 142.039C410.495 142.039 409.84 142.501 409.301 143.426C408.761 144.274 408.376 144.697 408.145 144.697C405.91 146.392 404.638 147.933 404.33 149.32L403.521 150.129C401.517 152.595 400.091 154.059 399.243 154.521C399.012 154.675 398.472 155.523 397.625 157.064C396.777 158.528 396.276 159.722 396.122 160.646C396.045 161.263 395.775 161.841 395.313 162.38C394.85 162.919 394.079 163.651 393 164.576C391.999 165.423 391.42 165.924 391.266 166.078C383.097 165.308 379.012 159.568 379.012 148.858C379.012 148.01 379.089 146.816 379.243 145.275C379.243 144.351 379.397 142.463 379.706 139.612C380.014 136.761 380.669 133.564 381.671 130.02C382.75 126.398 384.06 124.588 385.602 124.588C387.683 124.588 389.378 125.358 390.688 126.899C391.999 128.44 392.654 129.943 392.654 131.406C392.654 133.256 392.307 136.068 391.613 139.843C390.92 143.542 390.573 146.238 390.573 147.933C390.573 148.935 390.842 149.436 391.382 149.436C392.076 149.436 393.309 148.704 395.081 147.24C396.854 145.699 398.203 144.389 399.128 143.31C400.515 141.615 402.48 140.19 405.023 139.034C405.64 138.726 406.025 138.225 406.18 137.532C406.411 136.761 406.758 136.299 407.22 136.145C407.759 135.914 408.183 135.336 408.492 134.411C408.877 133.487 409.339 132.832 409.879 132.447C410.033 132.37 410.457 131.984 411.151 131.291C411.921 130.597 412.576 130.02 413.116 129.557C413.732 129.018 414.503 128.517 415.428 128.055C416.353 127.593 417.239 127.361 418.087 127.361C419.551 127.361 421.17 127.901 422.942 128.979C424.792 129.981 425.717 131.021 425.717 132.1C425.717 132.177 425.601 134.18 425.37 138.11C425.139 139.034 424.792 141.384 424.33 145.16C423.867 148.935 423.251 151.516 422.48 152.903C421.786 154.213 421.44 156.332 421.44 159.26C421.44 160.03 421.786 160.415 422.48 160.415C422.865 160.415 423.405 160.223 424.098 159.837C424.869 159.452 425.755 158.951 426.757 158.335C427.759 157.719 428.53 157.295 429.07 157.064C431.228 155.137 433.27 153.866 435.197 153.25C437.046 152.556 438.164 151.901 438.549 151.285C438.703 151.054 439.937 150.476 442.249 149.551C444.561 148.627 446.064 148.165 446.757 148.165C447.913 148.165 449.224 148.473 450.688 149.089C452.229 149.628 453 150.515 453 151.747C453 153.134 452.422 153.905 451.266 154.059C450.418 154.059 449.647 154.136 448.954 154.29C448.337 154.444 447.875 154.598 447.567 154.752C447.258 154.906 446.757 155.214 446.064 155.677C445.37 156.062 444.753 156.409 444.214 156.717C438.279 159.876 433.732 162.573 430.572 164.807C429.262 165.578 427.798 166.618 426.179 167.927C424.561 169.237 423.482 170.046 422.942 170.355C421.093 171.587 419.59 173.013 418.434 174.631C417.355 176.249 416.122 178.907 414.734 182.605C414.657 182.836 414.31 183.106 413.694 183.414C413.154 183.722 412.885 184.108 412.885 184.57C412.885 185.341 413.039 185.764 413.347 185.841C413.732 185.841 414.079 185.687 414.388 185.379C414.696 186.381 414.85 187.498 414.85 188.731C414.85 189.347 414.773 190.272 414.619 191.504C414.542 192.198 413.81 192.814 412.422 193.354C411.035 193.893 410.341 194.663 410.341 195.665C410.341 195.819 410.38 196.05 410.457 196.358C410.534 196.667 410.573 196.898 410.573 197.052C410.804 196.898 411.035 196.397 411.266 195.549C411.497 194.702 412.037 194.278 412.885 194.278C413.732 194.278 414.156 194.74 414.156 195.665C414.156 196.127 414.041 196.705 413.81 197.399C413.655 198.092 413.578 198.554 413.578 198.785L412.769 199.594C412.23 200.057 411.96 200.558 411.96 201.097C411.96 201.174 411.96 201.328 411.96 201.559C412.037 201.79 412.075 201.983 412.075 202.137C412.075 202.214 412.037 202.33 411.96 202.484C411.96 202.638 411.96 202.792 411.96 202.946C411.96 203.254 412.075 203.717 412.307 204.333C412.538 205.026 412.653 205.527 412.653 205.835L412.307 207.338C412.153 208.34 411.921 209.341 411.613 210.343C411.305 211.421 410.958 211.961 410.573 211.961C410.495 211.961 410.38 211.922 410.226 211.845C410.149 211.845 410.072 211.845 409.995 211.845C409.763 211.845 409.532 211.961 409.301 212.192L409.185 212.423C409.339 212.269 409.956 212.076 411.035 211.845ZM410.457 206.298C409.686 206.375 409.185 206.49 408.954 206.644C408.8 206.876 408.723 207.338 408.723 208.031C408.723 208.108 408.8 208.224 408.954 208.378C409.494 208.378 409.879 208.031 410.11 207.338C410.418 206.644 410.611 206.259 410.688 206.182C410.688 206.028 410.65 205.951 410.573 205.951C410.418 205.951 410.341 205.99 410.341 206.067L410.457 206.182V206.298ZM390.341 223.287C390.341 225.83 391.266 227.101 393.116 227.101C393.733 227.101 394.465 226.754 395.313 226.061C396.16 225.367 396.777 224.943 397.162 224.789C398.087 224.404 398.935 223.711 399.706 222.709C400.553 221.785 401.363 220.629 402.133 219.242C402.981 217.932 403.675 216.969 404.214 216.353C404.137 216.198 403.944 215.967 403.636 215.659C403.405 215.351 403.289 215.081 403.289 214.85C403.289 214.08 403.598 213.232 404.214 212.308C404.908 211.46 405.255 210.69 405.255 209.996C405.255 209.842 405.216 209.611 405.139 209.303C405.139 208.994 405.139 208.802 405.139 208.725C405.139 208.108 405.447 207.03 406.064 205.489C406.758 203.948 407.104 202.638 407.104 201.559C407.104 201.328 407.066 201.02 406.989 200.635C406.912 200.249 406.873 199.98 406.873 199.826C406.873 198.901 407.181 196.898 407.798 193.816C408.415 190.734 408.723 188.422 408.723 186.881C408.723 185.803 408.376 185.263 407.682 185.263C407.297 185.263 406.218 186.496 404.445 188.962C402.673 191.427 401.44 193.354 400.746 194.74C400.592 195.049 400.361 195.395 400.052 195.781C395.891 200.635 393.771 204.68 393.694 207.916C393.694 208.224 393.54 208.609 393.232 209.071C392.538 209.842 391.575 214.58 390.341 223.287ZM410.341 201.097C410.264 201.174 410.149 201.251 409.995 201.328C409.917 201.482 409.802 201.559 409.648 201.559C409.571 201.636 409.494 201.713 409.416 201.79C409.339 201.944 409.301 202.06 409.301 202.137C409.301 202.445 409.532 202.599 409.995 202.599C410.765 202.368 411.151 202.022 411.151 201.559C410.842 201.405 410.573 201.251 410.341 201.097ZM410.804 189.54C410.727 189.463 410.611 189.386 410.457 189.309C410.38 189.231 410.303 189.193 410.226 189.193C409.917 189.193 409.763 189.347 409.763 189.655C409.763 189.809 409.879 189.886 410.11 189.886C410.264 189.886 410.38 189.848 410.457 189.771C410.611 189.617 410.727 189.54 410.804 189.54ZM406.526 213.81C406.218 213.81 406.064 213.926 406.064 214.157C406.064 214.311 406.141 214.388 406.295 214.388C406.449 214.388 406.526 214.195 406.526 213.81ZM402.365 222.478L402.249 222.362C402.172 222.285 402.133 222.208 402.133 222.131C401.979 222.285 401.902 222.401 401.902 222.478C401.902 222.709 401.979 222.825 402.133 222.825C402.287 222.825 402.365 222.709 402.365 222.478ZM413.578 182.49C413.578 182.104 413.501 181.912 413.347 181.912C413.193 181.989 413.116 182.066 413.116 182.143C413.116 182.374 413.27 182.49 413.578 182.49ZM406.18 210.112L406.295 210.458L406.411 210.343C406.488 210.266 406.565 210.227 406.642 210.227L406.411 209.996L406.18 210.112ZM409.185 212.192V212.423L409.301 212.192H409.185Z" fill="#78A8EF"/>
</svg>
