<svg width="842" height="282" viewBox="0 0 842 282" fill="none" xmlns="http://www.w3.org/2000/svg">
    <path d="M688.462 87.169C682.421 84.6689 667.176 81.4938 657.692 75.5797C648.208 69.6656 614.832 48.8524 599.329 39.1851C575.089 26.6028 531.405 -1.82246 506.333 1.4587C490.248 3.56371 435.179 8.59403 409.741 12.1514L183.584 96.5673L1.04114 163.851M688.462 87.169C701.643 92.4338 729.012 104.603 733.028 111.161C738.049 119.358 736.008 128.724 729.176 131.556C722.343 134.388 705.064 132.985 697.279 131.93C696.863 131.83 696.428 131.725 695.975 131.616M688.462 87.169C688.805 88.6499 695.511 73.8331 706.895 65.7333C718.278 57.6335 725.123 66.9679 726.153 71.4096C726.977 74.9631 719.3 91.2005 715.358 98.875C705.985 104.429 690.977 118.881 705.937 132.263M575.24 100.157C583.428 97.5253 602.04 101.953 620.002 107.587M620.002 107.587C640.26 113.94 659.692 121.828 662.41 122.852C666.341 124.332 685.645 129.122 695.975 131.616M620.002 107.587C634.471 117.483 655.514 131.629 675.465 144.569M836.322 193.305C841.06 192.206 840.492 186.617 839.616 183.96C838.779 182.594 835.464 178.838 828.898 174.744C822.333 170.649 807.859 172.6 801.443 174.088L777.067 176.619C765.144 176.783 739.289 177.082 731.257 176.964C728.148 176.918 715.836 169.973 699.953 160.138M836.322 193.305C832.621 194.163 818.487 199.026 807.557 202.875M836.322 193.305C830.124 191.735 815.693 191.452 807.557 202.875M113.141 280.618L217.771 220.477C285.1 185.625 421.555 114.257 428.748 107.597C435.941 100.937 474.059 116.854 492.219 125.645L596.973 187.169C617.343 196.135 665.819 198.82 698.996 210.419M598.1 175.206C622.194 181.251 672.722 194.87 682.084 200.98C691.445 207.091 697.259 209.819 698.996 210.419M698.996 210.419C708.957 213.902 717.832 217.232 724.709 219.961L767.421 212.399L799.425 205.759C801.684 204.951 804.495 203.953 807.557 202.875M795.746 173.068L817.371 153.623M838.996 134.178C843.016 129.086 845.018 118.429 820.865 116.539C817.463 117.9 811.316 120.919 804.55 125.363C802.973 126.399 801.362 127.512 799.745 128.7M838.996 134.178C833.034 134.26 820.613 137.66 818.621 150.603L817.371 153.623M838.996 134.178L817.371 153.623M699.953 160.138C705.551 165.785 722.246 165.688 729.893 164.933C744.395 161.311 776.289 151.056 787.851 139.015C788.106 138.75 788.361 138.487 788.619 138.227M699.953 160.138C695.033 157.092 689.771 153.768 684.333 150.286M799.745 128.7C805.226 122.407 815.503 108.889 812.765 105.155M799.745 128.7C795.958 131.48 792.135 134.668 788.619 138.227M812.765 105.155C809.343 100.488 803.067 90.242 785.761 99.7148C768.455 109.188 766.416 120.582 755.258 126.289C744.1 131.996 714.324 158.687 684.333 150.286M812.765 105.155C803.563 112.083 785.852 128.395 788.619 138.227M684.333 150.286C681.419 148.42 678.454 146.508 675.465 144.569M675.465 144.569C682.475 140.526 696.391 132.275 695.975 131.616" stroke="#78A8EF"/>
</svg>
