<svg width="472" height="204" viewBox="0 0 472 204" fill="none" xmlns="http://www.w3.org/2000/svg">
    <path d="M80.2708 172.863C78.1928 173.496 74.4703 175.524 76.2051 178.564C80.5419 177.937 89.9746 179.206 93.0103 189.298C86.0513 185.708 77.5339 180.894 76.2051 178.564C74.4703 175.524 78.1928 173.496 80.2708 172.863C86.4147 173.225 102.822 175.035 119.302 179.379C135.782 183.723 151.467 178.474 157.249 175.306L176.765 157.387L124.181 154.672C113.249 153.586 88.3482 149.893 76.2051 143.812C64.062 137.73 52.5332 132.59 48.2868 130.779C41.9622 129.06 28.7168 123.829 26.3316 116.661C23.9463 109.493 39.9745 108.607 48.2868 109.059C54.8767 110.57 64.5086 112.923 73.4946 115.4C68.9771 112.201 59.671 104.444 58.5868 99.0136C47.786 96.6653 26.5108 91.9077 21.7238 90.3585C21.3451 90.236 21.0696 90.1335 20.9106 90.0539C18.2001 88.6963 3.02119 86.7958 1.12383 78.1076C-0.394059 71.1571 12.4176 67.9714 19.0132 67.2474C32.4755 69.2384 63.4657 72.0259 79.7288 67.2474C88.2128 64.7546 105.672 56.8334 123.639 48.1557C113.881 48.7604 93.6609 49.6071 90.8419 48.1557C87.3182 46.3414 61.8394 44.1694 62.9236 33.8522C63.7298 26.1804 78.4927 26.3588 87.3182 27.5849C79.5119 32.1283 67.8025 33.6562 62.9236 33.8522C61.8394 44.1694 87.3182 46.3414 90.8419 48.1557C93.6609 49.6071 113.881 48.7604 123.639 48.1557C105.672 56.8334 88.2128 64.7546 79.7288 67.2474C63.4657 72.0259 32.4755 69.2384 19.0132 67.2474C12.4176 67.9714 -0.394059 71.1571 1.12383 78.1076C8.62294 77.7678 23.2417 79.7422 21.7238 90.3585C26.5108 91.9077 47.786 96.6653 58.5868 99.0136C59.671 104.444 68.9771 112.201 73.4946 115.4C64.5086 112.923 54.8767 110.57 48.2868 109.059C39.9745 108.607 23.9463 109.493 26.3316 116.661C34.192 117.023 49.5877 120.354 48.2868 130.779C52.5332 132.59 64.062 137.73 76.2051 143.812C88.3482 149.893 113.249 153.586 124.181 154.672L176.765 157.387L157.249 175.306C151.467 178.474 135.782 183.723 119.302 179.379C102.822 175.035 86.4147 173.225 80.2708 172.863Z" fill="#78A8EF"/>
    <path d="M416.646 136.753C409.418 132.047 392.739 123.449 383.849 126.707C374.958 129.965 356.834 137.477 348.883 140.825C334.246 142.002 303.617 145.984 298.196 152.5C292.775 159.016 255.099 164.084 236.939 165.804C224.199 169.333 202.538 178.564 192.486 187.524C184.87 194.313 155.894 201.552 140.715 203C130.506 202.366 107.81 199.308 98.7023 192.14C97.1167 191.377 95.1362 190.395 93.0103 189.298M76.2051 178.564C74.4703 175.524 78.1928 173.496 80.2708 172.863C86.4147 173.225 102.822 175.035 119.302 179.379C135.782 183.723 151.467 178.474 157.249 175.306L176.765 157.387M76.2051 178.564C77.5339 180.894 86.0513 185.708 93.0103 189.298M76.2051 178.564C80.5419 177.937 89.9746 179.206 93.0103 189.298M176.765 157.387H190.86M176.765 157.387L124.181 154.672C113.249 153.586 88.3482 149.893 76.2051 143.812C64.062 137.73 52.5332 132.59 48.2868 130.779M48.2868 130.779C41.9622 129.06 28.7168 123.829 26.3316 116.661M48.2868 130.779C49.5877 120.354 34.192 117.023 26.3316 116.661M26.3316 116.661C23.9463 109.493 39.9745 108.607 48.2868 109.059C54.8767 110.57 64.5086 112.923 73.4946 115.4M183.542 117.747C155.985 121.368 100.112 127.685 97.0761 123.992C95.3741 121.922 84.9601 118.561 73.4946 115.4M73.4946 115.4C68.9771 112.201 59.671 104.444 58.5868 99.0136M58.5868 99.0136C67.5315 99.3756 85.8003 99.8824 87.3182 99.0136C88.8361 98.1447 146.317 83.8092 174.868 76.7501M58.5868 99.0136C47.786 96.6653 26.5108 91.9077 21.7238 90.3585M1.12383 78.1076C3.02119 86.7958 18.2001 88.6963 20.9106 90.0539C21.0696 90.1335 21.3451 90.236 21.7238 90.3585M1.12383 78.1076C-0.394059 71.1571 12.4176 67.9714 19.0132 67.2474C32.4755 69.2384 63.4657 72.0259 79.7288 67.2474C88.2128 64.7546 105.672 56.8334 123.639 48.1557M1.12383 78.1076C8.62294 77.7678 23.2417 79.7422 21.7238 90.3585M167.821 25.9785C157.016 31.6062 140.114 40.199 123.639 48.1557M123.639 48.1557C113.881 48.7604 93.6609 49.6071 90.8419 48.1557C87.3182 46.3415 61.8394 44.1694 62.9236 33.8522M62.9236 33.8522C63.7298 26.1804 78.4927 26.3588 87.3182 27.5849M62.9236 33.8522C67.8025 33.6562 79.5119 32.1283 87.3182 27.5849M191.944 93.8547C196.823 92.5877 207.286 91.1396 210.105 95.4837M187.607 49.3278C192.396 48.4227 202.515 47.753 204.684 52.3143M87.3182 27.5849C87.9878 27.6779 88.6231 27.777 89.2156 27.8791C93.8235 27.155 105.696 24.3495 116.321 18.9194C126.946 13.4893 169.357 6.15861 189.234 3.17205C190.95 2.26703 194.991 1.00003 200.076 1C204.65 0.999972 295.576 7.33496 340.48 10.2309C372.916 19.6431 438.872 36.8385 443.209 30.3224C452.154 28.8744 470.435 25.9785 472 25.9785" stroke="#78A8EF"/>
</svg>
