<svg width="49" height="46"  viewBox="0 0 74 74" fill="none" xmlns="http://www.w3.org/2000/svg">
<path d="M52.5808 31.2184C60.2813 35.2391 63.7362 42.9764 61.723 47.8584C59.645 52.8974 53.0046 56.2425 43.3345 53.5115C38.4626 60.6196 32.271 64.2195 27.0137 62.028C21.7564 59.8366 19.282 53.6176 20.9477 44.1322C12.6574 39.7675 9.52142 31.5926 12.3623 26.0465C15.2031 20.5005 21.2014 18.8802 30.0724 21.8888C34.6238 13.6931 40.7886 10.4941 47.1682 13.1533C53.5477 15.8126 55.3433 24.3902 52.5808 31.2184Z" stroke="#266EF1" stroke-opacity="0.42" stroke-width="3"/>
<path d="M45.7259 41.3275C43.7239 46.1823 38.7355 48.8523 33.842 46.8125C28.9485 44.7727 25.5401 39.9181 28.005 33.9406C30.007 29.0858 34.509 26.9666 40.4903 28.8436C45.8227 30.517 47.9975 35.8188 45.7259 41.3275Z" stroke="#266EF1" stroke-opacity="0.42" stroke-width="3"/>
</svg>
