<svg width="49" height="46" viewBox="0 0 49 46" fill="none" xmlns="http://www.w3.org/2000/svg">
    <path d="M28.7623 17.0241H40.2887C40.3242 16.751 40.3684 16.4803 40.3684 16.1966C40.3684 15.2599 40.1673 14.3724 39.8084 13.5785C46.6447 12.8432 45.3088 7.60787 45.3088 7.60787C40.3232 6.79714 38.8417 9.57066 38.4168 11.6298C37.3836 10.6624 36.0202 10.0741 34.5254 10.0741C31.2985 10.0741 28.6826 12.8151 28.6826 16.1968C28.6826 16.4805 28.7268 16.7512 28.7623 17.0244V17.0241Z" fill="#3D7EF6"/>
    <path d="M15.5368 13.161C15.5368 12.4479 14.9961 11.8646 14.3353 11.8646H12.6004V10.4836C12.6004 10.1374 12.3375 9.85352 12.0163 9.85352H10.6912C10.3701 9.85352 10.1072 10.1374 10.1072 10.4836V11.8646H8.37231C7.7116 11.8646 7.1709 12.4476 7.1709 13.161V17.0242H15.5368V13.161Z" fill="#3D7EF6"/>
    <path d="M23.0404 21.0019C23.5201 21.7675 24.592 22.0325 25.4225 21.5903C26.253 21.1481 26.5403 20.1599 26.0607 19.3943L17.5944 5.87534C17.1147 5.10968 16.0429 4.84474 15.2124 5.28692C14.3818 5.7291 14.0945 6.71728 14.5741 7.48293L23.0404 21.0019Z" fill="#3D7EF6"/>
    <path d="M27.2728 17.024C27.2467 16.7982 27.2194 16.573 27.2194 16.3405C27.2194 14.1721 28.259 12.241 29.8778 10.8967V8.4339C29.8778 7.27422 29.0312 6.32192 27.8932 5.99181V0.29248H24.6916V5.99181C23.5538 6.32192 22.707 7.27422 22.707 8.4339V12.2832L25.6597 17.0242H27.2726L27.2728 17.024Z" fill="#3D7EF6"/>
    <path d="M46.6413 18.2192H30.1322V18.2337H26.0426L26.7035 19.3771C27.4961 20.7483 27.024 22.5086 25.6506 23.3006C25.2156 23.5516 24.7199 23.6842 24.2175 23.6842C23.19 23.6842 22.2336 23.1344 21.7218 22.2495L19.3918 18.2194H2.35866C1.06146 18.2194 0 19.2795 0 20.5749V27.6327C0 28.9281 1.06146 29.9881 2.35866 29.9881H2.52115L4.72189 43.243C4.72189 44.5983 5.83232 45.707 7.1895 45.707H41.8105C43.1677 45.707 44.2781 44.5983 44.2781 43.243L46.4789 29.9881H46.6413C47.9385 29.9881 49 28.9281 49 27.6327V20.5749C49 19.2795 47.9385 18.2194 46.6413 18.2194V18.2192ZM14.4209 41.6767C14.4209 42.2922 13.9166 42.7958 13.3001 42.7958H13.2156C12.5991 42.7958 12.0948 42.2922 12.0948 41.6767V31.8368C12.0948 31.2211 12.5991 30.7176 13.2156 30.7176H13.3001C13.9166 30.7176 14.4209 31.2211 14.4209 31.8368V41.6767ZM25.1204 41.6767C25.1204 42.2922 24.6161 42.7958 23.9996 42.7958H23.9151C23.2986 42.7958 22.7943 42.2922 22.7943 41.6767V31.8368C22.7943 31.2211 23.2986 30.7176 23.9151 30.7176H23.9996C24.6161 30.7176 25.1204 31.2211 25.1204 31.8368V41.6767ZM35.8198 41.6767C35.8198 42.2922 35.3156 42.7958 34.699 42.7958H34.6146C33.998 42.7958 33.4938 42.2922 33.4938 41.6767V31.8368C33.4938 31.2211 33.998 30.7176 34.6146 30.7176H34.699C35.3156 30.7176 35.8198 31.2211 35.8198 31.8368V41.6767Z" fill="#3D7EF6"/>
</svg>
