<svg width="54" height="47" viewBox="0 0 54 47" fill="none" xmlns="http://www.w3.org/2000/svg">
<path d="M13.6154 6.61754C20.883 0.928364 37.9263 -5.38662 47.9584 14.8668C48.084 16.0889 48.2013 17.7739 48.2362 19.5604M13.6154 6.61754C12.7029 6.61754 9.34048 13.1601 7.77331 16.4313C7.0613 15.3654 6.39458 14.6508 5.77828 14.2067M13.6154 6.61754C11.0505 6.28566 5.49327 6.3046 3.78325 9.03541C2.07322 11.7662 2.69073 13.369 3.21324 13.8291M25.8167 18.4226C25.835 17.4577 25.5892 16.3188 25.0161 14.8668C23.5341 11.112 19.6485 10.1732 17.891 10.1732C16.4184 10.5051 13.0459 12.0222 11.3359 15.4357C9.62584 18.8492 12.4284 22.4524 14.0434 23.8273C15.8959 24.7755 20.171 26.1029 22.451 23.8273C23.5273 22.753 24.4207 21.8817 25.0161 20.9603M25.8167 18.4226C26.7374 18.1381 28.9206 17.9674 30.2887 19.5604C31.3812 18.3277 34.4212 15.9762 37.8413 16.4313C41.2613 16.8865 43.3514 20.0345 43.9689 21.5516C44.2064 23.5902 44.2254 27.8666 42.4014 28.6631C41.2613 29.8957 37.9838 31.9912 33.9937 30.5121C30.0037 29.0329 29.2912 23.9221 29.4337 21.5516C28.6367 20.6982 26.7975 19.2475 25.8167 20.2715C24.836 21.2956 24.8743 21.1574 25.0161 20.9603M25.8167 18.4226C25.7983 19.3987 25.5096 20.1967 25.0161 20.9603M18.6029 26.5296C17.8906 27.6675 17.2925 29.6018 20.5985 28.2364C20.8835 30.7491 22.9641 34.8927 29.0062 31.3654C29.3387 32.0672 30.3742 33.1635 31.8562 31.9343M13.0459 30.5121C12.8927 30.2062 12.8067 29.6675 13.1935 29.232M14.3284 28.6631C13.7621 28.7842 13.4063 28.9925 13.1935 29.232M13.1935 29.232C14.1343 30.8612 15.6956 32.8789 17.7485 34.5902M33.7087 34.9212C34.0229 34.8689 34.5014 34.8829 34.8487 35.1155M35.2763 36.2012C35.3274 35.6394 35.1316 35.3049 34.8487 35.1155M34.8487 35.1155L34.7062 35.3479L33.9937 36.2012C31.7935 37.4692 29.6924 38.0766 27.7236 38.2023M17.7485 34.5902C17.891 35.6013 18.518 37.908 19.886 39.0458M17.7485 34.5902C18.4112 35.1427 19.1252 35.6633 19.886 36.1285M27.7236 38.2023C27.2011 38.7205 25.7856 39.8423 24.3036 40.1837M27.7236 38.2023C27.0219 38.2471 26.3371 38.2306 25.6705 38.1611M19.886 36.1285C20.2185 37.1483 21.5675 39.0458 24.3036 38.4769L25.6705 38.1611M19.886 36.1285C21.5942 37.173 23.5387 37.9387 25.6705 38.1611M3.21324 13.8291C2.24794 14.3066 1.56476 15.4578 1.21791 16.4313C0.0778906 24.6238 3.68779 26.0081 5.63524 25.6763C5.30273 25.9133 4.83722 27.2977 5.63524 30.9387C6.43325 34.5798 12.6178 39.188 15.6104 41.037C15.6104 41.4163 16.2089 42.7153 18.6029 44.8772C20.997 47.0391 24.7305 45.5884 26.2981 44.5928L36.1307 44.0238C40.4058 44.735 43.1133 37.3391 43.5408 38.0502C43.9684 38.7614 46.2484 38.4769 47.3884 38.6191C48.5284 38.7614 52.661 33.9256 52.946 32.361C53.1223 31.3934 52.8625 30.3714 52.234 29.4632M3.21324 13.8291C3.47747 13.6983 3.76285 13.6181 4.06825 13.6058M8.20082 8.46649C6.9183 9.52223 4.29626 12.0281 4.06825 13.6058M4.06825 13.6058C4.58311 13.5851 5.1549 13.7575 5.77828 14.2067M10.0533 9.03541C8.91333 10.1124 6.46229 12.6546 5.77828 14.2067M48.2362 19.5604C48.3069 23.1797 48.0396 27.2156 46.8184 28.6631C45.0409 30.7699 47.3341 28.4679 49.2415 27.8901M48.2362 19.5604C49.9963 21.362 53.2885 25.7047 52.3765 28.6631L52.234 29.4632M52.234 29.4632C51.9666 29.0767 51.6323 28.7108 51.2365 28.3785M48.6715 23.9695C49.099 24.9713 49.8115 27.1579 49.2415 27.8901M49.2415 27.8901C49.7807 27.7267 50.2891 27.7012 50.666 27.9519C50.8683 28.0865 51.0586 28.2291 51.2365 28.3785M50.3815 23.8273C50.8567 23.8746 51.6929 24.8511 51.2365 28.3785M14.8984 17.1425C15.4684 16.0995 17.2925 14.3263 20.0285 15.578M20.171 17.0003C20.2545 17.1907 20.3554 17.4416 20.456 17.7231M20.8835 20.2715C21.0543 19.6751 20.7562 18.5627 20.456 17.7231M16.0384 17.5692C16.6085 18.8492 18.29 20.8973 20.456 18.8492M20.456 17.7231C20.171 16.9133 18.9455 15.5211 16.3234 16.4313M36.4163 20.556C37.7938 21.2197 40.2638 23.1161 39.1238 25.3918M32.5687 23.4006C32.8223 23.0209 33.3981 22.471 34.2787 22.1101M37.2713 21.8361C37.0756 21.8021 36.8856 21.7779 36.7013 21.7626M34.2787 22.1101C34.2787 23.9151 35.1622 26.9563 38.6963 24.6806C38.7438 23.8257 38.4113 22.0453 36.7013 21.7626M34.2787 22.1101C34.9246 21.8454 35.7344 21.6824 36.7013 21.7626M46.9614 31.2232C48.0065 30.1921 50.2675 28.3966 50.9515 29.4632C51.6355 30.5299 51.6165 31.8395 51.5215 32.361C51.0465 33.2792 49.9825 35.1155 49.5265 35.1155C48.9565 35.1155 45.6789 37.3391 45.6789 35.4901C45.6789 34.0109 46.5339 32.0292 46.9614 31.2232ZM4.06825 14.4401C3.21324 15.4831 1.61721 17.8821 2.07322 19.1337C2.64323 20.6982 3.35574 24.5384 4.63826 23.9695C5.92078 23.4006 7.63081 18.8492 7.3458 18.4226C7.0608 17.9959 5.63578 14.2979 4.06825 14.4401Z" stroke="#78A8EF" stroke-width="2"/>
</svg>
