<svg width="49" height="46" viewBox="0 0 53 42" fill="none" xmlns="http://www.w3.org/2000/svg">
    <path d="M42.2173 18.69L42.3789 19.0565H41.8942M42.2173 18.69L41.8942 19.0565M42.2173 18.69L42.6182 18.2916M41.8942 19.0565H38.695M42.6182 18.2916L44.3016 16.6183L43.2191 15.8852M42.6182 18.2916L45.9497 19.7896M38.695 19.0565C38.8114 18.929 38.7435 18.5996 38.695 18.4509M38.695 19.0565H37.0147M43.2191 15.8852L42.2173 15.8056L41.8942 15.1841M43.2191 15.8852C45.0664 13.4948 48.7578 8.45584 48.7449 7.42321C48.7287 6.13238 49.2781 6.00491 47.937 4.53879C46.8642 3.3659 45.3034 3.77386 44.6571 4.12445L38.0326 11.8694M41.8942 15.1841C41.6142 15.1894 41.0282 15.2191 40.9248 15.2956C40.7955 15.3912 40.44 14.9928 40.2623 15.0884C40.1201 15.1649 39.9553 15.0353 39.8907 14.961C39.783 14.9716 39.5385 15.0119 39.4221 15.0884C39.3058 15.1649 38.8889 14.9716 38.695 14.8653C38.4742 14.8706 37.9389 14.9227 37.564 15.0884C37.5215 15.1073 37.4782 15.1208 37.4348 15.1297M41.8942 15.1841L38.695 18.4509M38.0326 11.8694L37.4348 15.1297M38.0326 11.8694C38.7273 8.75654 39.5804 2.29182 37.4348 1.33566C35.2891 0.379494 33.934 1.69156 33.5247 2.46711C32.9915 3.99697 31.8573 8.05744 31.5858 12.0606C31.3144 16.0637 30.9126 18.3925 30.7457 19.0565M37.4348 15.1297C37.0955 15.1997 36.7426 14.9925 36.5946 14.8653H34.5103C34.4134 14.7644 34.0191 14.588 33.2177 14.69C32.8461 15.2319 32.0932 16.8637 32.0544 19.0565M38.695 18.4509C38.5712 18.3075 38.2394 18.0047 37.9033 17.941C37.5673 17.8772 37.1709 18.6581 37.0147 19.0565M32.0544 19.0565H37.0147M32.0544 19.0565H30.7457M30.7457 19.0565H29.8085M29.8085 19.0565C30.1317 19.0565 29.9378 17.3354 29.8893 16.5067C29.8409 15.678 28.8714 14.5785 28.4998 14.3076M29.8085 19.0565H25.543M32.3937 6.29173C32.3506 6.29173 32.2418 6.24712 32.1513 6.06867C32.0609 5.89017 31.7259 5.99429 31.5697 6.06867C31.4458 5.89867 31.0914 5.58101 30.6649 5.67025C30.1317 5.7818 30.5356 5.9571 30.0832 6.19614C30.0401 6.38737 29.9733 6.81764 30.0509 7.00887C30.1478 7.24792 29.1784 6.1005 28.7906 6.19614C28.4804 6.27263 28.2844 6.4405 28.2251 6.51484C27.9666 6.30767 27.3526 5.90291 26.9648 5.94116C26.5771 5.9794 26.0492 5.9571 25.8338 5.94116C25.7907 5.79243 25.6399 5.49495 25.3814 5.49495C25.0583 5.49495 24.7674 5.47902 24.3312 5.94116C23.9822 6.31088 23.2917 6.16957 22.9902 6.05273C22.8501 6.00491 22.4892 5.97303 22.1661 6.22802C21.843 6.48301 21.019 6.37674 20.6474 6.29173C20.4319 6.35018 19.9461 6.4001 19.7264 6.13238C19.4517 5.79773 19.3224 6.00491 18.8539 5.63838C18.479 5.34515 18.3745 5.76055 18.3691 6.00491C18.3422 6.74857 18.2851 8.27103 18.2722 8.41123C18.2593 8.55148 17.8467 8.46967 17.6421 8.41123C17.5613 8.4006 17.2963 8.55785 16.8827 9.27178C16.4691 9.98571 15.9779 10.7379 15.784 11.0248M15.784 11.0248L25.4783 10.0526H25.6076M15.784 11.0248H15.2508L9.77343 13.0008M25.6076 10.0526L25.9061 11.5984M25.6076 10.0526L23.5718 11.2131M9.77343 13.0008L10.8657 18.7059M9.77343 13.0008L22.0851 12.0606M9.77343 13.0008L23.5718 11.2131M25.9061 11.5984L26.06 12.3952M25.9061 11.5984L25.1299 15.3593L24.4702 15.4709L24.1403 14.3076M23.5718 11.2131L22.0851 12.0606M23.5718 11.2131L24.1403 14.3076M26.06 12.3952L26.9487 11.5984C27.1 11.6955 27.3237 11.8589 27.5214 12.0447M26.06 12.3952C26.0492 13.0008 25.9857 14.2534 25.8177 14.4191M26.06 12.3952C26.1516 12.4962 26.3476 12.698 26.3993 12.698C26.4511 12.698 26.3347 13.0167 26.2701 13.1761C26.4639 13.2186 26.8808 13.3036 26.9971 13.3036C27.1135 13.3036 27.498 12.8999 27.6758 12.698L27.4657 12.4909L27.5214 12.0447M27.5214 12.0447C27.7458 12.2554 27.9367 12.4947 27.9505 12.698C27.9827 13.1761 28.1282 14.0366 28.4998 14.3076M25.8177 14.4191C25.6496 14.5849 25.5968 15.115 25.5915 15.3593C25.376 15.9277 24.6705 17.1983 23.5718 17.7338M25.8177 14.4191C25.8769 14.6316 26.0083 15.0597 26.06 15.0725C26.1117 15.0853 26.1462 15.0141 26.157 14.9769C26.2701 14.9291 26.4995 14.8462 26.5124 14.8972C26.5253 14.9482 26.5501 15.1522 26.5609 15.2478C26.6686 15.2956 26.8873 15.4135 26.9002 15.5028C26.9131 15.592 26.9702 15.6568 26.9971 15.678C27.0295 15.6356 27.0973 15.5346 27.1103 15.4709C27.1232 15.4072 27.331 15.2956 27.4334 15.2478M28.4998 14.3076C28.4029 14.4829 28.1928 14.8303 28.1282 14.8175C28.0474 14.8016 27.9505 14.6104 27.8373 14.6581C27.7469 14.6964 27.5303 15.0672 27.4334 15.2478M27.4334 15.2478C27.1049 16.4961 26.2668 19.0055 25.543 19.0565M25.543 19.0565H11.9612M23.5718 17.7338C22.1984 18.4031 21.1482 18.945 20.6796 18.7697M23.5718 17.7338L22.0851 12.0606M20.6796 18.7697C20.7281 18.844 20.8057 19.0023 20.7281 19.0406M20.6796 18.7697C20.3362 17.6167 18.9135 15.3358 15.9702 15.4361C13.0269 15.5363 11.3882 17.9021 10.9368 19.0724L10.9206 18.9927L10.8657 18.7059M22.0851 12.0606L24.1403 14.3076M10.8657 18.7059L10.3066 19.0565H11.6567M11.9612 19.0565C12.7985 17.9651 13.509 18.218 13.5597 18.218C13.6105 18.218 14.1687 18.218 14.3463 18.218C14.4884 18.218 14.7776 18.0175 14.9045 17.9173C15.5134 17.8371 16.596 18.452 17.0612 18.7694C17.1035 18.8195 17.1576 18.8546 17.0358 18.594C16.914 18.3333 15.9363 17.6834 15.4627 17.391C15.505 17.2322 15.7926 16.7744 16.6045 16.213C17.4164 15.6516 17.9577 15.8455 18.1269 16.0125C18.1607 15.9743 18.0508 15.8506 17.3403 15.6617C16.6299 15.4727 15.5219 16.3515 15.0567 16.8145C14.9755 16.9348 14.8368 16.6976 14.7776 16.5639C14.6508 16.5138 14.7269 15.0852 14.7269 14.9599C14.7269 14.8596 14.8453 14.8012 14.9045 14.7845C14.8233 14.7444 14.6677 14.8012 14.6 14.8346C14.2955 15.015 14.2533 16.0292 14.2702 16.5138C14.2363 16.447 14.1382 16.2882 14.0164 16.188C13.8946 16.0877 13.6612 16.2632 13.5597 16.3634C13.7204 16.6725 13.9302 17.2456 13.4836 17.0652C13.037 16.8847 12.0965 17.1905 11.6821 17.3659L11.9612 17.4411L13.1791 17.6917C13.4921 17.792 13.9302 17.9774 13.1791 17.9173C12.4281 17.8571 11.8512 18.6517 11.6567 19.0565M11.9612 19.0565H11.6567M10.759 18.1641L6.83283 19.933M6.83283 19.933C6.75204 19.9702 6.59691 20.1338 6.62279 20.4907C6.64071 20.7382 6.92895 22.1084 7.20095 23.3592M6.83283 19.933C19.0639 19.9649 43.8104 20.0254 44.9479 20.0127C46.0854 19.9999 46.0897 19.8586 45.9497 19.7896M7.20095 23.3592C7.23505 23.5159 7.2689 23.6708 7.30188 23.8214M7.20095 23.3592L1.59782 28.8093L1 31.901M45.9497 19.7896C46.1112 19.8533 46.415 20.086 46.3374 20.5067C46.2859 20.7865 46.0027 22.0546 45.7333 23.2477M7.30188 23.8214C7.38536 24.2022 7.46366 24.5553 7.52755 24.8413L1.90481 30.4348L2.00175 28.8093L7.30188 23.8214ZM1 31.901L10.7752 21.5903C10.9637 21.3991 11.4635 21.1059 11.9547 21.4629C12.4458 21.8198 12.2455 22.5677 12.0839 22.8971L9.22405 25.6996M1 31.901C1.25852 32.2834 1.77555 32.6446 2.00175 32.7774L8.80397 26.1114M9.22405 25.6996H43.7039M9.22405 25.6996L8.80397 26.1114M8.80397 26.1114C9.49336 30.3785 10.8883 39.104 10.9529 39.8689C11.0175 40.6339 11.2599 40.8994 11.373 40.9366C21.439 40.9845 41.5872 41.0514 41.6518 40.9366C41.7164 40.8219 43.3199 30.9979 44.1136 26.1002M45.7333 23.2477C45.6918 23.4313 45.6506 23.6132 45.6107 23.7895M45.7333 23.2477L51.3785 28.8571L51.9924 31.8531M45.6107 23.7895C45.52 24.1897 45.4356 24.5608 45.368 24.8572L51.0877 30.4507L50.9422 28.8571L45.6107 23.7895ZM51.9924 31.8531C52.0193 31.9062 51.9894 31.9424 51.6529 31.6619C51.3171 31.3814 44.8994 24.6925 41.7326 21.3832C41.4849 21.3088 40.9118 21.3162 40.6016 21.9409C40.2914 22.5656 41.1079 23.3061 41.5549 23.5982L43.7039 25.6996M51.9924 31.8531C52.0056 31.9168 51.2978 32.4959 50.9422 32.7774L44.1136 26.1002M43.7039 25.6996L44.1136 26.1002M37.2248 15.6621C36.9716 15.9702 36.5752 16.6597 37.0147 16.9529C37.4542 17.2462 37.8764 16.7139 38.0326 16.4111C38.0595 16.2836 37.9357 15.9553 37.2248 15.6621ZM35.4474 15.3912C35.2858 15.4337 34.995 15.6526 35.1243 16.188C35.2536 16.7235 35.5659 16.2412 35.706 15.933C35.7598 15.8056 35.7835 15.5187 35.4474 15.3912ZM33.654 16.6821C33.4708 16.8148 33.1596 17.1537 33.3793 17.447C33.599 17.7402 33.8371 17.3141 33.9286 17.0645C33.9556 16.9582 33.9383 16.733 33.654 16.6821ZM34.785 17.941C34.6342 18.0472 34.4037 18.384 34.688 18.8812C34.785 18.9821 35.0241 19.117 35.205 18.8493C35.4313 18.5147 35.2536 17.9888 34.785 17.941Z" stroke="#3D7EF6"/>
</svg>
