<svg width="49" height="46"  viewBox="0 0 59 63" fill="none" xmlns="http://www.w3.org/2000/svg">
<path d="M39.6733 28.4392C30.1522 27.5485 26.0883 34.3141 31.633 37.1939M53.2506 40.4946C52.0639 42.9231 49.2009 45.1365 43.4079 46.2058C37.9196 47.2188 34.7019 46.1079 32.9669 44.2511M53.2506 40.4946C54.9591 43.9488 55.5616 51.3868 44.5054 53.1036C41.7804 53.5268 39.6481 53.4365 37.9942 53.0027M53.2506 40.4946C54.5896 37.7545 53.4996 34.3805 52.3551 32.408M32.9669 44.2511C31.0827 42.2346 31.0253 39.2114 31.633 37.1939M32.9669 44.2511C32.3519 47.1402 32.9377 51.6766 37.9942 53.0027M14.1174 30.1825C15.0022 29.9645 15.7841 29.6652 16.4766 29.2963M38.2526 52.8495C38.1668 52.9011 38.0806 52.9522 37.9942 53.0027M16.4766 29.2963C25.803 24.3282 18.5626 6.01413 28.3524 4.46616C38.407 2.87633 34.3026 23.4332 34.3026 23.4332C39.7805 21.2104 50.7005 19.863 52.7459 26.8159C53.3863 28.993 53.167 30.8536 52.3551 32.408M16.4766 29.2963C16.4766 29.2963 14.6502 26.2352 11.799 26.7101C1.43611 28.4361 11.7078 60.8308 19.2586 60.8709C24.8475 60.9006 25.2637 56.1806 25.2637 56.1806M25.2637 56.1806C23.555 55.9947 22.0436 55.4996 20.7255 54.7166M25.2637 56.1806C28.9546 56.5823 33.8185 55.4433 37.9942 53.0027M52.3551 32.408C49.0907 38.6582 37.499 40.2407 31.633 37.1939" stroke="#266EF1" stroke-opacity="0.6" stroke-width="2"/>
</svg>
