<svg width="65" height="57" viewBox="0 0 65 57" fill="none" xmlns="http://www.w3.org/2000/svg">
<path d="M48.4925 14.8561L58.2636 5.08493C40.634 -3.23093 35.6722 10.906 35.395 19.014L12.9422 42.9221C11.4871 51.1995 16.8916 57.8522 25.416 51.6537L47.2451 30.4483C67.8685 29.4504 64.9856 14.9254 60.9663 7.78758L51.1952 17.5587L48.4925 14.8561Z" stroke="#78A8EF" stroke-width="2"/>
<path d="M21.65 33.9442L19.5502 32.0022C11.4548 32.5321 -3.10523 28.9998 3.41743 10.631L14.1112 19.3827L16.5319 16.4249L5.83811 7.67318C12.5411 2.96439 26.7077 -1.34767 29.7503 19.0744L32.4606 21.8862M33.2922 44.3391L45.5713 51.9678C53.9524 52.5931 60.0351 46.5543 53.0201 38.688L44.5186 33.1127" stroke="#78A8EF" stroke-width="2"/>
</svg>
