<svg width="136" height="154" viewBox="0 0 136 154" fill="none" xmlns="http://www.w3.org/2000/svg">
<path d="M5.23133 78.0436L86.9841 2C94.5142 2 102.48 4.78571 109.698 9.27733M5.23133 78.0436L3.61567 114.522M5.23133 78.0436C15.4889 77.2522 27.1038 80.1523 37.9879 85.5427M76.3207 126.465L134 40.5093C132.796 34.9497 129.978 29.3473 126.094 24.2029M76.3207 126.465L39.1603 138.732M76.3207 126.465C73.9578 118.278 68.9942 110.429 62.4738 103.518M3.61567 114.522L2 151L39.1603 138.732M3.61567 114.522C3.61567 114.522 14.3386 116.443 23.3268 122.565C32.315 128.687 39.1603 138.732 39.1603 138.732M62.4738 103.518L126.094 24.2029M62.4738 103.518C55.6258 96.2597 47.0607 90.036 37.9879 85.5427M126.094 24.2029C121.719 18.4079 115.993 13.194 109.698 9.27733M37.9879 85.5427L109.698 9.27733" stroke="#78A8EF" stroke-width="3"/>
</svg>
