<svg width="206" height="150" viewBox="0 0 206 150" fill="none" xmlns="http://www.w3.org/2000/svg">
        <path d="M103 0.967773C34.7531 0.967773 0.964874 27.4004 0.964874 60.0068C0.964874 80.1987 14.5909 98.0231 40.7605 108.669L26.8037 148.065L71.3146 116.781C80.9353 118.256 91.505 119.045 103 119.045C169.504 119.045 205.035 92.6129 205.035 60.0068C205.035 28.6635 169.421 -6.75481 88.2418 21.9291" stroke="#266EF1" stroke-opacity="0.49" stroke-width="3"/>
        <path d="M35.7002 54.6754C35.7002 54.6754 38.3159 80.6118 49.9822 83.9452C65.1766 88.287 70.8379 47.1765 70.8379 47.1765C70.8379 47.1765 78.2872 84.1567 94.6413 83.9452C112.062 83.7202 115.044 41.6128 115.044 41.6128C115.044 41.6128 123.434 88.2246 143.608 87.5738C162.849 86.9534 171.265 44.0318 171.265 44.0318" stroke="#266EF1" stroke-opacity="0.49" stroke-width="3"/>
</svg>





