<svg width="291" height="152" viewBox="0 0 291 152" fill="none" xmlns="http://www.w3.org/2000/svg">
    <path d="M23.2445 55.3066C22.9474 55.8524 22.7989 56.4727 22.7989 57.1675C22.7989 58.2096 22.081 59.3013 20.6453 60.4427C19.259 61.5841 18.4669 62.3532 18.2688 62.7502C17.7737 63.6435 16.8578 64.363 15.5211 64.9089C14.1843 65.4548 12.9961 65.7277 11.9564 65.7277C10.3721 65.7277 8.73835 65.2811 7.05504 64.3879C5.42124 63.5442 4.0845 62.5021 3.04481 61.2615C2.59922 60.7653 2.22791 59.9216 1.93085 58.7307C1.58429 57.5397 1.21297 56.6961 0.816899 56.1998C0.2723 55.4554 0 53.6441 0 50.7659C0 50.5674 0.049509 50.2945 0.148527 49.9471C0.198036 49.5501 0.222791 49.2772 0.222791 49.1283C0.222791 49.0291 0.222791 48.8802 0.222791 48.6817C0.173282 48.4336 0.148527 48.2599 0.148527 48.1606C0.148527 46.8208 0.693127 45.332 1.78233 43.6944C2.87152 42.0568 3.46563 41.0891 3.56465 40.7914C4.30729 39.253 5.61928 38.1365 7.50062 37.4417C9.38196 36.747 11.3128 36.3996 13.2932 36.3996C16.5608 36.3996 19.5561 37.1936 22.2791 38.7816C22.6751 39.0297 22.9969 39.1538 23.2445 39.1538C23.6901 39.1538 24.1604 38.3102 24.6555 36.6229C25.2001 34.8861 25.4724 33.4718 25.4724 32.38C25.4724 32.1815 25.2249 31.983 24.7298 31.7845C24.2842 31.586 23.8881 31.4868 23.5415 31.4868C23.393 31.4868 23.1455 31.586 22.7989 31.7845C22.4523 31.9334 22.18 32.0078 21.982 32.0078C21.784 32.0078 21.5364 31.9582 21.2394 31.859C21.0413 31.859 20.7443 31.8838 20.3482 31.9334C19.9521 31.9334 19.6798 31.9334 19.5313 31.9334C18.3926 31.9334 16.3132 31.4123 13.2932 30.3702C12.9961 30.1221 12.5505 29.6507 11.9564 28.9559C11.3623 28.2116 10.8672 27.6905 10.4712 27.3928C9.62951 26.7973 9.10966 25.6807 8.91163 24.0431C8.71359 22.3559 8.44129 21.2393 8.09473 20.6934C7.99571 20.4949 7.9462 20.3709 7.9462 20.3213C7.9462 20.222 7.99571 20.0483 8.09473 19.8002C8.24325 19.5521 8.31752 19.3536 8.31752 19.2047C8.31752 19.1055 8.29276 18.9566 8.24325 18.7581C8.24325 18.5596 8.24325 18.4107 8.24325 18.3115C8.24325 17.4678 8.46605 16.3265 8.91163 14.8874C9.35721 13.3986 9.62951 12.3813 9.72853 11.8355C9.82754 11.5873 10.1741 11.0911 10.7682 10.3467C11.3623 9.55273 11.7336 9.00686 11.8822 8.70911C12.2782 8.01437 13.2437 6.99706 14.7784 5.6572C16.3132 4.26771 17.5757 3.57297 18.5659 3.57297C18.7639 3.57297 18.9372 3.67222 19.0857 3.87071C19.2838 4.06921 19.4571 4.16846 19.6056 4.16846C19.8036 4.16846 20.1007 4.11884 20.4967 4.01959C20.8928 3.87072 21.1651 3.79628 21.3136 3.79628C21.6602 3.79628 22.2048 3.87072 22.9474 4.01959C23.6901 4.11884 24.2347 4.16846 24.5812 4.16846C25.3239 4.16846 25.8685 4.14365 26.215 4.09403C26.6111 4.09403 27.1805 4.16846 27.9231 4.31734C28.6657 4.46621 29.2103 4.54065 29.5569 4.54065C30.9927 4.54065 31.7105 3.77147 31.7105 2.23311C31.7105 2.08423 31.6858 1.83611 31.6363 1.48874C31.5868 1.14137 31.562 0.893242 31.562 0.744368C31.562 0.595496 31.6363 0.446623 31.7848 0.297748C31.9333 0.0992493 32.0819 0 32.2304 0C35.6465 0 37.3546 1.0173 37.3546 3.05191C37.3051 3.39928 37.2803 3.94515 37.2803 4.68952C37.2803 5.18577 37.3546 5.63239 37.5031 6.02938C37.6516 6.42638 37.7506 6.69931 37.8001 6.84819C37.8992 6.99706 38.1467 7.24519 38.5428 7.59256C38.9389 7.93993 39.1617 8.13843 39.2112 8.18805C39.6072 8.18805 40.1023 8.43617 40.6964 8.93242C41.2905 9.37904 41.8351 9.87529 42.3302 10.4212C42.8253 10.967 43.4194 11.6866 44.1126 12.5798C44.8552 13.4234 45.3998 14.0189 45.7464 14.3663C47.3802 17.7904 48.8902 19.5024 50.2764 19.5024C51.1181 19.5024 52.5291 19.304 54.5095 18.907C56.4898 18.4603 57.8761 18.237 58.6682 18.237C58.9653 18.237 59.3613 18.2618 59.8564 18.3115C60.401 18.3611 60.7971 18.3859 61.0446 18.3859C61.1437 18.3859 61.2674 18.3859 61.416 18.3859C61.5645 18.3363 61.6635 18.3115 61.713 18.3115C63.2973 18.8573 64.0895 19.5024 64.0895 20.2468C64.0895 20.9912 63.7181 21.5619 62.9755 21.9589C62.2329 22.3559 61.3912 22.5544 60.4505 22.5544C60.302 22.5544 60.104 22.5544 59.8564 22.5544C59.6584 22.5047 59.5099 22.4799 59.4109 22.4799C59.1138 22.4799 58.7177 22.5295 58.2226 22.6288C57.7275 22.6784 57.3315 22.7032 57.0344 22.7032C56.8859 22.7032 56.6631 22.6784 56.366 22.6288C56.069 22.5295 55.871 22.4799 55.7719 22.4799C55.6729 22.4799 55.5987 22.5047 55.5491 22.5544C55.2026 22.8025 54.658 23.0506 53.9153 23.2987C53.1727 23.5468 52.5538 23.8198 52.0588 24.1175C51.5637 24.4153 51.3161 24.8619 51.3161 25.4574C51.3161 25.8048 51.6627 26.5243 52.3558 27.6161C52.7519 28.2612 52.9994 29.1544 53.0984 30.2958C53.247 31.4372 53.4945 32.2063 53.8411 32.6033C53.8411 33.1492 54.0144 33.8439 54.3609 34.6876C54.757 35.4816 54.955 36.1019 54.955 36.5485C54.955 40.7666 54.7322 43.8681 54.2867 45.8531C54.2371 46.1012 53.9649 46.4734 53.4698 46.9696C52.9747 47.4659 52.7024 47.9621 52.6529 48.4584C52.4548 50.2449 51.4151 51.6592 49.5338 52.7013C47.6525 53.6938 45.6968 54.19 43.667 54.19C39.4587 54.19 35.0029 52.8998 30.2995 50.3193C29.1608 49.6742 28.3934 49.3516 27.9974 49.3516C27.5518 49.3516 26.7844 50.3193 25.6952 52.2547C24.606 54.19 24.0119 55.2073 23.9129 55.3066V55.381C23.6158 55.381 23.393 55.3562 23.2445 55.3066ZM47.0831 31.7845C47.1821 31.3875 47.2316 31.1146 47.2316 30.9657C47.2316 30.4198 46.9593 29.874 46.4147 29.3281C46.3652 29.2785 46.1424 28.6582 45.7464 27.4672C45.3503 26.2762 44.7809 25.6807 44.0383 25.6807C43.9888 25.6807 43.9393 25.7055 43.8898 25.7551C43.8403 25.7551 43.7907 25.7551 43.7412 25.7551C43.2957 25.904 42.5778 26.2266 41.5876 26.7228C40.5974 27.2191 39.731 27.5913 38.9884 27.8394C38.2952 28.0875 37.6021 28.2364 36.909 28.286C36.0178 28.286 35.0524 28.6086 34.0127 29.2537C33.0225 29.8988 32.4037 30.792 32.1561 31.9334C32.1561 33.2733 31.76 35.2086 30.9679 37.7395C30.2253 40.2207 29.854 41.7839 29.854 42.429C29.854 43.2726 31.5373 44.3892 34.9039 45.7786C38.2705 47.1681 41.1173 47.9125 43.4442 48.0118C45.6721 48.0118 46.9593 46.1508 47.3059 42.429C47.3059 42.1809 47.2811 41.8087 47.2316 41.3124C47.2316 40.8162 47.2316 40.4192 47.2316 40.1214C47.2316 39.129 47.4297 38.3598 47.8257 37.8139C47.8257 37.0199 47.5782 35.0101 47.0831 31.7845ZM21.982 26.5739C22.1305 26.5739 22.4523 26.5739 22.9474 26.5739C23.492 26.5243 23.8386 26.4995 23.9871 26.4995C24.1852 26.4499 24.507 26.4003 24.9526 26.3506C25.3981 26.301 25.7199 26.2266 25.918 26.1273C26.116 26.0281 26.3636 25.904 26.6606 25.7551C27.0072 25.6063 27.23 25.4326 27.329 25.2341C27.4775 24.986 27.6013 24.713 27.7003 24.4153C27.8488 24.0679 27.9231 23.6957 27.9231 23.2987C27.9231 22.1574 28.3192 20.0483 29.1113 16.9716C29.953 13.8453 30.3738 11.5129 30.3738 9.97453C30.3738 8.98204 29.7549 8.26249 28.5172 7.81587C27.329 7.36925 26.0665 7.14594 24.7298 7.14594C20.8681 7.14594 17.8233 9.9001 15.5953 15.4084C15.5953 15.3588 15.5458 15.4084 15.4468 15.5573C15.3478 15.6565 15.1993 15.855 15.0012 16.1528C14.8527 16.4009 14.6794 16.6987 14.4814 17.046C14.3329 17.3438 14.1843 17.7408 14.0358 18.237C13.9368 18.6836 13.8873 19.1551 13.8873 19.6513C13.9368 19.9491 14.0853 20.3957 14.3329 20.9912C14.5804 21.5867 14.7289 22.0085 14.7784 22.2566C15.026 23.5965 15.8676 24.6634 17.3034 25.4574C18.7887 26.2018 20.3482 26.5739 21.982 26.5739ZM8.83736 61.2615C9.62951 60.9638 10.1494 60.8149 10.3969 60.8149C12.0802 60.6164 13.6397 59.7231 15.0755 58.1352C16.5608 56.5472 17.6747 54.8103 18.4174 52.9246C18.5164 52.7261 19.061 51.7584 20.0512 50.0215C21.0413 48.2351 21.5364 46.9696 21.5364 46.2253C21.5364 46.126 21.5117 46.002 21.4622 45.8531C21.4622 45.7042 21.4622 45.5801 21.4622 45.4809C21.4622 44.5877 20.2987 43.5952 17.9718 42.5034C15.6944 41.3621 13.9368 40.7914 12.6991 40.7914C10.2731 40.7914 8.46605 41.6846 7.27783 43.4711C6.08961 45.2576 5.4955 47.4163 5.4955 49.9471C5.4955 50.3441 5.52026 50.6419 5.56977 50.8403C5.56977 51.1381 5.54501 51.5599 5.4955 52.1058C5.4955 52.602 5.4955 52.9742 5.4955 53.2223C5.4955 56.3487 6.60946 59.0284 8.83736 61.2615ZM38.9141 23.2243C39.0131 23.1747 39.3844 22.9762 40.0281 22.6288C40.6717 22.2318 41.142 21.9092 41.4391 21.6611C41.7361 21.413 41.8846 21.1649 41.8846 20.9167C41.8846 19.7754 41.2163 18.237 39.8795 16.3017C38.5428 14.3663 37.4783 13.3986 36.6862 13.3986C36.3396 13.3986 35.9188 14.5648 35.4237 16.8972C34.9286 19.1799 34.6811 21.1897 34.6811 22.9265C34.6811 23.3732 34.9286 23.5965 35.4237 23.5965C35.8198 23.5468 36.3891 23.4972 37.1318 23.4476C37.9239 23.3483 38.518 23.2739 38.9141 23.2243ZM49.9051 28.8815C50.4992 27.5912 50.7963 26.8221 50.7963 26.5739C50.7963 25.6807 50.4992 25.2341 49.9051 25.2341C49.8556 25.3333 49.8308 25.4078 49.8308 25.4574C49.8308 25.8048 49.8308 26.3506 49.8308 27.095C49.8804 27.8394 49.9051 28.4349 49.9051 28.8815ZM23.9129 55.3066L23.7643 55.5299C23.7148 55.6787 23.6406 55.7532 23.5415 55.7532L23.2445 55.3066L23.1702 55.381C23.5168 55.381 23.7643 55.3562 23.9129 55.3066Z" fill="#78A8EF"/>
    <path d="M101.956 39.8237C101.659 40.8162 101.164 42.2057 100.47 43.9922C99.7773 45.729 99.307 46.92 99.0595 47.5651C98.7624 48.3095 98.3663 49.7734 97.8712 51.9569C97.4257 54.1404 97.0048 55.5299 96.6088 56.1254L96.4602 56.4975C96.3612 56.7953 96.2374 57.1675 96.0889 57.6141C95.9404 58.1103 95.7919 58.6562 95.6433 59.2517C95.4948 59.8472 95.371 60.5419 95.272 61.3359C95.173 62.1299 95.1235 62.9487 95.1235 63.7924C95.1235 64.239 95.0492 64.636 94.9007 64.9833C94.8017 65.3803 94.7027 65.6781 94.6037 65.8766C94.5046 66.1247 94.3066 66.4721 94.0095 66.9187C93.7125 67.4149 93.5144 67.7623 93.4154 67.9608C92.9698 68.7548 91.8064 69.1518 89.925 69.1518C89.1824 69.1518 88.6378 69.0526 88.2912 68.8541C87.9447 68.6556 87.5981 68.3578 87.2516 67.9608C86.905 67.5638 86.5584 67.2661 86.2119 67.0676C85.8653 66.8691 85.6178 66.4969 85.4692 65.951C85.3207 65.4052 85.1722 65.0826 85.0237 64.9833C84.4791 64.4375 84.1572 63.1969 84.0582 61.2615C84.0582 60.9638 84.083 60.5668 84.1325 60.0705C84.182 59.5743 84.2067 59.2021 84.2067 58.954C84.2067 58.6562 84.0087 58.2592 83.6126 57.763C83.2166 57.2667 83.0185 56.8449 83.0185 56.4975C83.0185 52.6765 83.1671 48.905 83.4641 45.1832C83.5136 44.5877 83.5631 43.62 83.6126 42.2801C83.6622 40.9403 83.7117 39.8485 83.7612 39.0049C83.8602 38.1613 84.0087 37.268 84.2067 36.3252C84.4048 35.3823 84.6771 34.6876 85.0237 34.2409C85.2217 34.0424 85.3207 33.7695 85.3207 33.4221C85.3207 33.2733 85.2959 33.0251 85.2464 32.6778C85.1969 32.2808 85.1722 31.983 85.1722 31.7845C85.1722 31.5364 85.1969 31.1642 85.2464 30.668C85.3455 30.1221 85.395 29.7003 85.395 29.4025C85.395 29.3033 85.3702 29.1296 85.3207 28.8815C85.2712 28.6334 85.2464 28.4349 85.2464 28.286C85.2464 27.9386 85.4445 27.5913 85.8406 27.2439C86.2366 26.8965 86.4347 26.6484 86.4347 26.4995C86.3852 26.1025 86.1871 25.3085 85.8406 24.1175C84.6523 24.2664 83.8849 24.713 83.5384 25.4574C83.1918 26.1521 82.771 26.5243 82.2759 26.5739C82.0779 26.6236 81.8303 26.9461 81.5333 27.5416C81.2362 28.1371 80.9392 28.5093 80.6421 28.6582C80.246 28.8567 79.8252 29.2537 79.3796 29.8492C78.934 30.395 78.2904 30.9161 77.4488 31.4123C77.3002 31.6605 77.127 32.3552 76.9289 33.4966C76.7804 34.6379 76.3101 35.2831 75.5179 35.4319C75.2209 35.6304 74.9981 35.8289 74.8495 36.0274C74.7505 36.1763 74.6763 36.3004 74.6268 36.3996C74.5772 36.4989 74.5277 36.6725 74.4782 36.9207C74.4287 37.1192 74.3792 37.2928 74.3297 37.4417C74.2307 37.6898 73.8594 38.2853 73.2157 39.2282C72.5721 40.1711 72.2008 40.9403 72.1018 41.5357C72.0523 41.7342 71.8542 42.1312 71.5077 42.7267C71.2601 43.223 70.8888 44.0418 70.3937 45.1832C69.8986 46.3245 69.5026 47.1681 69.2055 47.714C68.9085 48.2103 68.4629 48.8306 67.8688 49.5749C67.3242 50.2697 66.6558 50.7659 65.8637 51.0637C65.121 51.3614 64.2299 51.5103 63.1902 51.5103C61.7544 51.5103 60.5414 50.89 59.5512 49.6494C58.6106 48.3591 58.1402 46.523 58.1402 44.141C58.1402 43.3967 58.2145 42.6275 58.363 41.8335C58.5116 40.9899 58.6848 40.0966 58.8829 39.1538C59.0809 38.1613 59.2294 37.3921 59.3285 36.8462C59.378 36.4492 59.576 35.9034 59.9226 35.2086C60.2691 34.5139 60.4919 33.9432 60.5909 33.4966C60.69 32.8514 60.8632 32.256 61.1108 31.7101C61.4078 31.1146 61.8287 30.3702 62.3733 29.477C62.9674 28.5341 63.4625 27.6409 63.8585 26.7973C65.3933 24.713 66.3092 23.2243 66.6063 22.331C66.9033 21.4874 67.6707 20.8175 68.9085 20.3213C70.1462 19.7754 71.2849 19.5024 72.3246 19.5024C73.8098 19.5024 75.3199 19.9243 76.8547 20.7679C77.2012 20.9664 77.6468 21.4378 78.1914 22.1822C78.736 22.8769 79.1321 23.2243 79.3796 23.2243C79.6767 23.1747 80.4193 22.5544 81.6075 21.3634C82.7957 20.1228 83.7859 19.3784 84.5781 19.1303C84.8256 19.0806 85.3455 18.7581 86.1376 18.1626C86.9793 17.5671 87.6229 17.2693 88.0685 17.2693C89.2072 17.2693 90.2221 17.5919 91.1133 18.237C92.0539 18.8821 92.5243 19.7258 92.5243 20.7679C92.5243 20.9664 92.4995 21.6363 92.45 22.7777C92.4005 23.8694 92.351 24.6386 92.3015 25.0852C92.252 25.4822 92.1529 26.0777 92.0044 26.8717C91.8559 27.6657 91.6331 28.3852 91.336 29.0304C91.039 29.874 90.841 31.6108 90.7419 34.2409C90.6429 36.8214 90.3706 38.3598 89.925 38.856C89.0834 40.1959 88.6626 43.5704 88.6626 48.9794C88.6626 49.0291 88.6626 49.1531 88.6626 49.3516C88.7121 49.5005 88.7368 49.6245 88.7368 49.7238C88.7368 50.0712 88.6626 50.5922 88.514 51.287C88.415 51.9817 88.3655 52.5028 88.3655 52.8501C88.3655 53.7434 88.4645 54.9344 88.6626 56.4231C88.8606 57.9615 88.9596 58.9292 88.9596 59.3261C88.9596 59.4254 88.9349 59.5495 88.8854 59.6983C88.8854 59.8472 88.8854 59.9465 88.8854 59.9961C88.8854 60.145 89.0091 60.6412 89.2567 61.4848C89.5042 62.3781 89.727 62.8247 89.925 62.8247C90.0736 62.8247 90.2469 62.651 90.4449 62.3036C90.6429 61.9562 90.8657 61.5096 91.1133 60.9638C91.3608 60.4179 91.5588 60.0457 91.7074 59.8472C92.0539 59.2517 92.4005 58.0855 92.7471 56.3487C93.0936 54.6614 93.3659 53.4953 93.564 52.8501C93.7125 52.4531 93.9105 51.7336 94.1581 50.6915C94.4551 49.5997 94.7274 48.6817 94.975 47.9373C95.272 47.1929 95.5691 46.6719 95.8661 46.3741C96.0642 46.2253 96.3117 45.3072 96.6088 43.62C96.9553 41.8831 97.3762 40.6921 97.8712 40.047C98.1683 39.6996 98.7129 38.8312 99.505 37.4417C100.297 36.0522 101.04 35.0349 101.733 34.3898C102.327 34.3898 102.624 34.9853 102.624 36.1763C102.624 37.2184 102.401 38.4342 101.956 39.8237ZM77.523 25.0108C77.0279 24.5642 76.4091 24.3408 75.6664 24.3408C75.0723 24.3408 74.503 24.5145 73.9584 24.8619C69.8491 27.7897 66.8291 32.9755 64.8982 40.4192C64.8487 40.4688 64.824 40.5681 64.824 40.7169C64.824 41.0643 64.923 41.238 65.121 41.238C65.4181 41.238 66.0864 40.5681 67.1261 39.2282C68.1658 37.8387 69.0322 36.5981 69.7254 35.5064C70.9136 33.6206 72.1265 32.1319 73.3643 31.0402C73.6613 30.7424 74.1069 30.1717 74.701 29.3281C75.3446 28.4349 75.9387 27.8394 76.4833 27.5416L77.5973 25.3085V25.2341C77.5478 25.1348 77.523 25.0604 77.523 25.0108Z" fill="#78A8EF"/>
    <path d="M103.871 32.38C103.97 32.38 104.118 32.38 104.317 32.38C104.515 32.3304 104.638 32.3056 104.688 32.3056C105.133 32.3056 105.901 31.4372 106.99 29.7003C108.079 27.9138 109.045 26.8221 109.886 26.4251C113.5 22.1077 117.09 19.9491 120.654 19.9491C121.298 19.9491 122.214 20.1476 123.402 20.5446C123.65 20.5942 123.897 20.7927 124.145 21.1401C124.392 21.4874 124.64 21.6611 124.888 21.6611C125.531 21.81 126.1 22.3807 126.596 23.3732C127.091 24.3657 127.338 25.1348 127.338 25.6807C127.338 28.2612 126.794 30.7672 125.704 33.1988C125.457 33.6951 124.962 34.5387 124.219 35.7297C123.526 36.871 123.031 37.8139 122.734 38.5583C122.635 38.9056 122.462 39.253 122.214 39.6004C121.966 39.9478 121.719 40.2455 121.471 40.4936C121.273 40.7418 121.001 41.0643 120.654 41.4613C120.308 41.8087 120.036 42.0816 119.838 42.2801C119.689 42.4786 119.417 42.9004 119.021 43.5455C118.674 44.141 118.303 44.6373 117.907 45.0343C117.511 45.4313 117.09 45.6546 116.644 45.7042C116.05 45.7042 115.753 46.0268 115.753 46.6719C115.753 47.317 114.491 48.0862 111.966 48.9794C109.441 49.8727 107.609 50.3193 106.47 50.3193C106.272 50.3193 105.95 50.2449 105.505 50.096C105.059 49.8975 104.713 49.7982 104.465 49.7982C103.821 49.7982 103.326 50.5922 102.98 52.1802C102.633 53.7682 102.46 55.2073 102.46 56.4975C102.46 56.7953 102.485 57.2171 102.534 57.763C102.633 58.3088 102.683 58.7058 102.683 58.954C102.683 59.2021 102.658 59.5743 102.608 60.0705C102.608 60.5668 102.608 60.9389 102.608 61.1871C102.608 61.6337 102.732 61.9811 102.98 62.2292C103.227 62.4277 103.425 62.7254 103.574 63.1224C103.722 63.569 103.821 63.966 103.871 64.3134C103.92 64.7104 103.945 65.2067 103.945 65.8022C103.995 66.3976 104.019 66.7946 104.019 66.9931C104.069 67.2413 104.217 67.7127 104.465 68.4074C104.713 69.1518 104.836 69.7225 104.836 70.1195C104.836 70.1691 104.836 70.2436 104.836 70.3428C104.836 70.7398 104.812 71.0375 104.762 71.236C104.762 71.4842 104.663 71.7819 104.465 72.1293C104.317 72.4767 104.019 72.7248 103.574 72.8737C103.178 73.0225 102.633 73.097 101.94 73.097C101.049 73.097 100.282 72.3278 99.6379 70.7894C98.9943 69.3007 98.6725 67.539 98.6725 65.5044C98.6725 65.2067 98.7467 64.7848 98.8953 64.239C99.0933 63.6931 99.1923 63.3209 99.1923 63.1224C98.1526 60.7901 97.6328 59.2765 97.6328 58.5818C97.6328 58.3833 97.7071 58.1352 97.8556 57.8374C98.0041 57.5397 98.0784 57.2915 98.0784 57.093C98.0784 56.9442 98.0289 56.7209 97.9298 56.4231C97.8308 56.1254 97.7813 55.9021 97.7813 55.7532C97.7813 55.6539 97.8061 55.5051 97.8556 55.3066C97.9546 55.0584 98.0041 54.8599 98.0041 54.7111C98.0041 54.5622 97.9793 54.3637 97.9298 54.1156C97.8803 53.8178 97.8556 53.5945 97.8556 53.4456C97.8556 53.2968 97.9051 53.0735 98.0041 52.7757C98.0041 52.5276 97.9051 52.1554 97.707 51.6592C97.509 51.1133 97.41 50.6915 97.41 50.3937C97.41 49.8975 97.5338 49.1283 97.7813 48.0862C98.0784 46.9944 98.2269 46.3245 98.2269 46.0764C98.2269 46.0268 98.2021 45.9523 98.1526 45.8531C98.1031 45.7042 98.0784 45.605 98.0784 45.5553C98.0784 45.4065 98.1279 45.2328 98.2269 45.0343C98.3754 44.8358 98.4497 44.6869 98.4497 44.5877C98.4497 44.3892 98.3012 44.1162 98.0041 43.7689C97.7566 43.3719 97.6328 43.1237 97.6328 43.0245C97.6328 42.9252 97.7813 42.7267 98.0784 42.429C98.3754 42.1312 98.5239 41.8831 98.5239 41.6846C98.5239 41.5854 98.4497 41.3124 98.3012 40.8658C98.1526 40.4192 98.0784 40.0718 98.0784 39.8237C98.0784 38.8808 98.3259 38.1365 98.821 37.5906C99.3161 37.0447 99.5636 36.7222 99.5636 36.6229C99.5636 36.474 99.4399 36.2755 99.1923 36.0274C98.9943 35.7297 98.8458 35.4071 98.7467 35.0597C99.3904 33.5214 99.7122 32.4793 99.7122 31.9334C99.7122 31.6357 99.5389 31.1394 99.1923 30.4447C98.8458 29.7499 98.6725 29.1296 98.6725 28.5837C98.6725 28.4349 98.821 27.9634 99.1181 27.1694C99.4646 26.3258 99.6379 25.6311 99.6379 25.0852C99.6379 24.6882 99.5636 24.1175 99.4151 23.3732C99.3161 22.6288 99.2666 22.0829 99.2666 21.7356C99.2666 21.3882 99.4399 20.8671 99.7864 20.1724C100.182 19.4776 100.381 18.907 100.381 18.4603C100.381 18.2122 100.356 17.8897 100.306 17.4927C100.257 17.046 100.232 16.7235 100.232 16.525C100.232 13.5971 100.876 12.1332 102.163 12.1332C103.153 12.1332 104.193 12.4806 105.282 13.1753C106.421 13.8701 106.99 14.8874 106.99 16.2272C106.99 16.8723 106.619 18.0881 105.876 19.8746C105.133 21.6611 104.762 22.9017 104.762 23.5965C104.762 24.4401 104.589 25.507 104.242 26.7973C103.945 28.0875 103.772 28.9559 103.722 29.4025C103.722 29.601 103.797 29.8492 103.945 30.1469C104.094 30.395 104.168 30.5687 104.168 30.668C104.168 30.7672 104.069 30.9409 103.871 31.189C103.722 31.4372 103.648 31.6357 103.648 31.7845C103.648 31.8838 103.747 32.0823 103.945 32.38C103.401 32.6281 103.005 32.9011 102.757 33.1988C102.559 33.4469 102.386 33.8936 102.237 34.5387C102.089 35.1342 101.915 35.6552 101.717 36.1019L101.866 36.2507C102.262 36.2507 102.559 35.9778 102.757 35.4319C103.005 34.8364 103.128 34.3154 103.128 33.8688C103.128 33.4718 103.029 33.0996 102.831 32.7522C102.93 32.7026 103.104 32.653 103.351 32.6033C103.599 32.5041 103.772 32.4296 103.871 32.38ZM111.372 29.6259C111.372 30.4198 111.099 31.1146 110.555 31.7101C110.06 32.3056 109.762 32.8018 109.663 33.1988C109.564 33.5958 108.871 34.6876 107.584 36.474C107.238 36.9703 106.742 38.1365 106.099 39.9726C105.455 41.7591 105.133 43.1485 105.133 44.141C105.133 45.5305 105.406 46.2253 105.95 46.2253C106.346 46.2253 107.163 46.1012 108.401 45.8531C109.639 45.5553 111.124 44.9598 112.857 44.0666C114.59 43.1237 115.704 41.9824 116.199 40.6425C117.535 38.7568 118.526 37.541 119.169 36.9951C119.615 36.6477 120.209 34.9853 120.952 32.0078C121.694 28.9807 122.065 26.7228 122.065 25.2341C122.065 24.3408 121.546 23.8942 120.506 23.8942C119.268 23.8942 117.634 24.8123 115.605 26.6484C113.624 28.4845 112.213 29.477 111.372 29.6259ZM100.678 37.2184C100.48 37.3177 100.381 37.5162 100.381 37.8139C100.381 37.9132 100.405 38.0124 100.455 38.1117C100.504 38.2109 100.529 38.2853 100.529 38.335C100.529 38.2853 100.554 38.2109 100.603 38.1117C100.702 38.0124 100.777 37.938 100.826 37.8883C100.826 37.7395 100.777 37.5162 100.678 37.2184ZM101.717 60.145L101.643 60.3683L101.866 60.4427L101.717 60.145ZM100.603 56.572C100.702 56.2742 100.752 56.1006 100.752 56.0509L100.603 55.9021C100.504 56.1006 100.455 56.2742 100.455 56.4231L100.603 56.572Z" fill="#78A8EF"/>
    <path d="M165.279 52.6268C164.635 55.1081 163.1 56.6712 160.674 57.3164C160.575 57.2667 160.229 57.0434 159.635 56.6464C159.09 56.2991 158.719 56.0261 158.521 55.8276C158.323 55.6291 158.075 55.3314 157.778 54.9344C157.531 54.5374 157.407 54.1404 157.407 53.7434C157.407 53.2968 157.234 52.875 156.887 52.478C156.54 52.081 156.367 51.7088 156.367 51.3614C156.367 51.1133 156.367 50.7163 156.367 50.1704C156.417 49.5749 156.441 49.1531 156.441 48.905C156.392 48.6072 156.318 48.1606 156.219 47.5651C156.169 46.9696 156.095 46.4238 155.996 45.9275C155.946 45.4313 155.922 45.0095 155.922 44.6621C155.922 44.4636 155.946 44.1658 155.996 43.7689C156.045 43.3222 156.07 42.9997 156.07 42.8012C156.021 42.5531 155.946 42.1809 155.847 41.6846C155.748 41.1884 155.699 40.841 155.699 40.6425C155.699 40.444 155.748 40.1463 155.847 39.7493C155.996 39.3026 156.07 39.0049 156.07 38.856C156.07 38.7072 156.021 38.459 155.922 38.1117C155.872 37.7643 155.847 37.4914 155.847 37.2929C155.847 36.7966 155.922 35.9282 156.07 34.6876C156.219 33.4469 156.293 32.5289 156.293 31.9334C156.293 31.2387 156.144 30.8168 155.847 30.668C155.748 30.668 155.649 30.6928 155.55 30.7424C155.451 30.7424 155.352 30.7424 155.253 30.7424C155.253 30.8417 154.956 31.2883 154.362 32.0823C153.768 32.8266 153.124 33.6703 152.431 34.6131C151.788 35.556 151.391 36.2259 151.243 36.6229C150.352 38.9553 149.857 40.1214 149.758 40.1214C149.164 40.3696 148.668 40.9899 148.272 41.9824C147.926 42.9252 147.703 43.4463 147.604 43.5455C147.109 43.9922 146.391 45.0591 145.45 46.7463C144.559 48.4336 143.544 49.8975 142.406 51.1381C141.267 52.3291 139.93 52.9246 138.395 52.9246C137.059 52.9246 135.821 52.478 134.682 51.5847C133.593 50.6419 132.974 49.3764 132.826 47.7884C132.776 47.2426 132.578 46.4238 132.231 45.332C131.934 44.2403 131.786 43.4215 131.786 42.8756C131.786 39.8485 132.033 37.1688 132.529 34.8364C132.578 34.7372 132.652 34.1913 132.751 33.1988C132.85 32.1567 132.949 30.7424 133.048 28.9559C133.197 27.1198 133.271 25.4078 133.271 23.8198C133.271 23.6213 133.222 23.3235 133.123 22.9265C133.073 22.4799 133.048 22.1574 133.048 21.9589C133.048 21.7604 133.147 21.5619 133.345 21.3634C133.593 21.1152 133.841 20.9912 134.088 20.9912C135.128 21.0904 136.019 21.3634 136.762 21.81C137.554 22.2566 137.95 22.9017 137.95 23.7453C137.108 33.2733 136.687 39.0545 136.687 41.0891C136.687 45.208 137.108 47.2674 137.95 47.2674C138.445 47.2674 139.237 46.5478 140.326 45.1087C141.415 43.62 142.752 41.6102 144.336 39.0793C145.921 36.4989 146.936 34.8861 147.381 34.2409C147.53 34.0424 147.876 33.6951 148.421 33.1988C149.015 32.653 149.362 32.1319 149.461 31.6357C149.56 31.2883 149.733 30.9409 149.98 30.5935C150.228 30.1965 150.451 29.8988 150.649 29.7003C150.896 29.4522 151.193 29.1544 151.54 28.807C151.936 28.4101 152.184 28.1371 152.283 27.9882C152.332 27.9386 152.852 27.2935 153.842 26.0529C154.832 24.7627 155.699 23.7453 156.441 23.001C157.234 22.207 157.877 21.81 158.372 21.81C158.57 21.81 158.942 21.7852 159.486 21.7356C160.08 21.6859 160.526 21.6611 160.823 21.6611C162.407 21.6611 163.571 22.1574 164.313 23.1499C165.105 24.0927 165.502 25.3333 165.502 26.8717C165.502 27.8642 165.328 29.2785 164.982 31.1146C164.635 32.9507 164.462 34.2161 164.462 34.9109C164.462 35.0597 164.462 35.3327 164.462 35.7297C164.511 36.077 164.536 36.35 164.536 36.5485C164.536 37.2432 164.437 38.2605 164.239 39.6004C164.041 40.9403 163.942 41.9327 163.942 42.5779C163.992 43.0741 164.091 44.141 164.239 45.7786C164.437 47.4163 164.536 48.6321 164.536 49.426C164.536 49.5253 164.511 49.6245 164.462 49.7238C164.462 49.823 164.462 49.8975 164.462 49.9471C164.462 50.7411 164.734 51.6343 165.279 52.6268Z" fill="#78A8EF"/>
    <path d="M223.2 44.7365C222.755 46.0764 222.185 47.6148 221.492 49.3516C221.294 49.9967 220.824 50.8155 220.081 51.808C219.388 52.7509 219.042 53.793 219.042 54.9344C219.042 55.6787 218.819 56.7705 218.373 58.2096C217.977 59.6487 217.73 60.6164 217.631 61.1126C217.333 61.7081 217.061 62.1796 216.814 62.5269C216.616 62.8743 216.269 63.3457 215.774 63.9412C215.328 64.5367 214.759 64.9833 214.066 65.2811C213.373 65.5788 212.581 65.7277 211.689 65.7277C210.65 65.7277 209.684 65.3059 208.793 64.4623C207.902 63.6187 207.456 62.7502 207.456 61.857C207.456 61.7578 207.531 61.4352 207.679 60.8893C206.59 58.8051 206.045 57.49 206.045 56.9442C206.045 56.8945 206.144 56.175 206.342 54.7855C206.59 53.396 206.714 51.6592 206.714 49.5749C206.714 49.0291 206.912 48.3343 207.308 47.4907C207.704 46.6471 207.902 46.0268 207.902 45.6298C207.902 45.3817 207.828 45.0095 207.679 44.5132C207.58 44.017 207.531 43.6696 207.531 43.4711C207.63 43.3222 207.828 43.1485 208.125 42.95C208.422 42.7516 208.62 42.5779 208.719 42.429C208.372 41.7342 208.199 41.1388 208.199 40.6425C208.199 39.4019 208.546 37.8139 209.239 35.8785C209.932 33.8936 210.278 32.7522 210.278 32.4545C210.278 32.3056 210.254 32.0823 210.204 31.7845C210.155 31.4868 210.13 31.2387 210.13 31.0402C210.13 30.7424 210.155 30.3454 210.204 29.8492C210.303 29.3529 210.353 28.9559 210.353 28.6582C210.353 28.5589 210.328 28.3852 210.278 28.1371C210.229 27.889 210.204 27.6905 210.204 27.5416C210.204 27.4424 210.204 27.2935 210.204 27.095C210.254 26.8965 210.278 26.7476 210.278 26.6484C210.278 26.4995 210.229 26.2762 210.13 25.9785C210.031 25.6311 209.981 25.383 209.981 25.2341C209.981 24.7875 210.105 24.3657 210.353 23.9687C210.254 23.9687 210.13 23.9687 209.981 23.9687C209.833 23.919 209.734 23.8942 209.684 23.8942C209.437 23.8942 208.892 24.1423 208.051 24.6386C208.001 25.0356 207.877 25.383 207.679 25.6807C207.531 25.9288 207.382 26.1025 207.234 26.2018C207.135 26.301 206.887 26.4747 206.491 26.7228C206.144 26.9213 205.922 27.0454 205.823 27.095C205.427 28.8319 204.956 30.0477 204.412 30.7424C204.016 31.2387 203.372 32.4048 202.481 34.2409C201.59 36.077 200.748 37.4665 199.956 38.4094C199.708 38.7071 199.461 39.3523 199.213 40.3448C198.966 41.2876 198.768 41.9327 198.619 42.2801C198.173 43.1734 197.728 44.2155 197.282 45.4065C196.886 46.5478 196.589 47.4163 196.391 48.0118C196.193 48.5576 195.871 49.0539 195.426 49.5005C194.98 49.8975 194.411 50.096 193.718 50.096C193.569 50.096 193.346 50.0712 193.049 50.0215C192.802 49.9719 192.331 49.7982 191.638 49.5005C190.945 49.1531 190.326 48.7065 189.782 48.1606C189.287 47.6148 188.816 46.7463 188.371 45.5553C187.975 44.3643 187.777 42.9749 187.777 41.3869V40.1959C187.777 38.856 187.579 38.1861 187.182 38.1861C186.935 38.1861 186.663 38.2357 186.366 38.335C184.88 41.6598 183.246 44.6373 181.464 47.2674C181.316 47.4659 180.994 47.9621 180.499 48.7561C180.053 49.5005 179.731 49.9967 179.533 50.2449C179.335 50.4434 178.964 50.6915 178.419 50.9892C177.875 51.287 177.281 51.4358 176.637 51.4358C175.597 51.4358 174.582 50.6667 173.592 49.1283C172.652 47.5899 172.181 45.9027 172.181 44.0666C172.181 43.8681 172.206 43.5704 172.255 43.1734C172.305 42.7764 172.33 42.4538 172.33 42.2057C172.33 41.8583 172.305 41.3869 172.255 40.7914C172.206 40.1463 172.181 39.6748 172.181 39.3771C172.181 38.8808 172.305 37.6402 172.553 35.6552C172.553 35.4567 172.751 34.8116 173.147 33.7199C173.592 32.6281 173.815 31.7101 173.815 30.9657C173.815 30.8168 173.765 30.5935 173.666 30.2958C173.567 29.998 173.518 29.7747 173.518 29.6259C173.666 28.6334 173.889 27.6409 174.186 26.6484C174.285 26.2514 174.409 25.5318 174.558 24.4897C174.706 23.4476 174.879 22.6288 175.077 22.0333C175.325 21.4378 175.721 21.1401 176.266 21.1401C177.107 21.1401 178.197 21.4874 179.533 22.1822C180.87 22.8273 181.538 23.5717 181.538 24.4153C181.538 24.5145 181.489 24.6634 181.39 24.8619C180.697 26.2514 180.35 27.9386 180.35 29.9236C180.35 30.7176 180.053 32.0078 179.459 33.7943C178.914 35.5312 178.642 36.8959 178.642 37.8883C178.642 38.2853 178.692 38.856 178.791 39.6004C178.939 40.3448 179.013 40.9154 179.013 41.3124C179.013 41.4613 178.964 41.6846 178.865 41.9824C178.766 42.2305 178.716 42.4042 178.716 42.5034C178.716 42.95 178.914 43.1734 179.311 43.1734C179.707 43.0741 180.053 42.7764 180.35 42.2801C181.34 40.7418 182.133 39.5508 182.727 38.7071C183.321 37.8635 184.113 36.8462 185.103 35.6552C186.143 34.4146 187.158 33.5214 188.148 32.9755C189.188 32.38 190.227 32.0823 191.267 32.0823C191.812 32.0823 192.282 32.2808 192.678 32.6778C193.124 33.0748 193.346 33.5214 193.346 34.0176C193.346 34.8116 193.297 35.9282 193.198 37.3673C193.148 38.7568 193.124 39.7989 193.124 40.4936C193.124 40.5433 193.173 40.6177 193.272 40.7169C193.668 40.7169 194.188 40.2455 194.832 39.3026C195.475 38.3102 195.871 37.4913 196.02 36.8462C196.069 36.5485 196.366 36.1267 196.911 35.5808C197.456 35.0349 197.827 34.5883 198.025 34.2409C198.718 32.9507 200.327 30.4943 202.852 26.8717C203.149 26.4747 203.57 26.1025 204.115 25.7551C204.709 25.3581 205.08 24.8619 205.228 24.2664C205.328 23.8694 205.649 23.4228 206.194 22.9265C206.739 22.3807 207.085 21.9837 207.234 21.7356C207.481 21.2393 207.828 20.6934 208.273 20.0979C208.719 19.4528 209.536 18.7581 210.724 18.0137C211.912 17.2197 213.175 16.8227 214.511 16.8227C215.155 16.8227 215.774 17.046 216.368 17.4927C217.012 17.8897 217.333 18.3859 217.333 18.9814C217.333 19.031 217.309 19.1303 217.259 19.2791C217.259 19.3784 217.259 19.4528 217.259 19.5024C217.259 19.7506 217.309 20.0731 217.408 20.4701C217.556 20.8671 217.631 21.1897 217.631 21.4378C217.631 22.1822 217.482 23.4972 217.185 25.383C216.888 27.2191 216.739 28.5837 216.739 29.477C216.739 29.874 216.541 30.3454 216.145 30.8913C215.799 31.3875 215.625 31.7101 215.625 31.859C215.625 32.1071 215.774 32.38 216.071 32.6778C216.368 32.9755 216.517 33.174 216.517 33.2733C216.517 33.6206 216.368 33.9928 216.071 34.3898C215.823 34.7372 215.7 35.0349 215.7 35.2831C215.7 35.3823 215.7 35.556 215.7 35.8041C215.749 36.0026 215.774 36.1515 215.774 36.2507C215.774 36.6477 215.7 37.1936 215.551 37.8883C215.403 38.5335 215.328 39.0049 215.328 39.3026C215.279 39.5011 215.13 39.7989 214.883 40.1959C214.635 40.5433 214.511 40.841 214.511 41.0891C214.511 41.1388 214.511 41.1636 214.511 41.1636L214.586 41.3124C214.586 41.6102 214.412 42.1312 214.066 42.8756C213.719 43.62 213.546 44.2403 213.546 44.7365C213.546 45.5305 213.496 46.6967 213.397 48.2351C213.298 49.7238 213.249 50.89 213.249 51.7336C213.249 53.669 213.645 54.6366 214.437 54.6366C215.279 54.6366 217.135 51.5351 220.007 45.332L220.601 44.0666C220.601 43.8185 220.7 43.347 220.898 42.6523C221.146 41.9079 221.368 41.5357 221.566 41.5357C221.665 41.5357 221.938 42.0816 222.383 43.1734C222.878 44.2155 223.151 44.7365 223.2 44.7365ZM205.377 12.7287C201.515 13.0264 198.223 13.8453 195.5 15.1851C192.826 16.4754 190.475 17.1205 188.445 17.1205C185.92 17.1205 183.667 16.2769 181.687 14.5896C179.756 12.9024 178.791 10.8926 178.791 8.56024C178.791 7.91512 179.013 7.59256 179.459 7.59256C180.301 7.59256 181.39 8.16324 182.727 9.3046C184.113 10.3963 185.177 10.9422 185.92 10.9422C186.267 10.9422 186.539 10.9174 186.737 10.8678C187.529 10.6693 189.014 10.2971 191.193 9.75123C193.371 9.15573 195.252 8.73392 196.837 8.4858C198.471 8.18805 200.179 8.03918 201.961 8.03918C202.307 8.03918 202.728 8.06399 203.223 8.11362C203.768 8.16324 204.585 8.26249 205.674 8.41136C206.763 8.51061 207.654 8.78355 208.348 9.23017C209.09 9.62716 209.462 10.1482 209.462 10.7933C209.462 10.9422 209.363 11.1655 209.164 11.4633C208.966 11.761 208.595 12.0836 208.051 12.4309C207.506 12.7783 206.838 12.952 206.045 12.952C205.847 12.952 205.625 12.8776 205.377 12.7287ZM214.734 44.0666C214.635 43.8681 214.586 43.7192 214.586 43.62C214.635 43.62 214.709 43.5952 214.808 43.5455C214.759 43.6448 214.734 43.8185 214.734 44.0666ZM214.66 43.9922L214.734 44.0666C214.685 43.9674 214.61 43.9177 214.511 43.9177C214.462 43.9177 214.437 43.9425 214.437 43.9922H214.66Z" fill="#78A8EF"/>
    <path d="M243.883 45.6298C243.338 45.729 243.066 45.8283 243.066 45.9275C243.066 46.0764 243.091 46.2997 243.14 46.5975C243.19 46.8456 243.214 47.0193 243.214 47.1185C243.214 47.5155 242.818 48.508 242.026 50.096C241.234 51.684 240.566 52.478 240.021 52.478L239.278 52.1058C238.981 52.1058 238.56 52.5524 238.016 53.4456C237.471 54.3389 236.753 55.2321 235.862 56.1254C234.971 57.0186 233.931 57.4652 232.743 57.4652C232.446 57.4652 232.001 57.366 231.406 57.1675C230.862 57.0186 230.441 56.9442 230.144 56.9442C230.094 56.9442 230.02 56.9442 229.921 56.9442C229.822 56.9938 229.723 57.0186 229.624 57.0186C229.278 57.0186 229.005 56.6216 228.807 55.8276C228.609 55.0336 228.213 54.6366 227.619 54.6366C227.47 54.6366 227.272 54.6614 227.025 54.7111C226.827 54.7111 226.678 54.7111 226.579 54.7111C226.035 54.7111 225.713 54.0908 225.614 52.8501C225.515 52.5028 225.267 51.9073 224.871 51.0637C224.525 50.1704 224.228 49.3268 223.98 48.5328C223.732 47.6892 223.609 46.8704 223.609 46.0764C223.609 45.9275 223.683 45.8531 223.832 45.8531C223.98 45.8531 224.104 46.002 224.203 46.2997C224.302 46.5975 224.401 46.7463 224.5 46.7463C224.945 46.7463 225.168 46.002 225.168 44.5132C225.168 43.7689 224.846 43.3222 224.203 43.1734C223.559 42.9749 223.237 42.6275 223.237 42.1312C223.237 41.7839 223.386 41.0147 223.683 39.8237C223.98 38.6327 224.129 37.9876 224.129 37.8883C224.129 37.144 224.178 36.3748 224.277 35.5808C224.426 34.7372 224.624 33.7695 224.871 32.6778C225.168 31.5364 225.366 30.7176 225.465 30.2214C225.564 29.7251 225.812 29.0552 226.208 28.2116C226.654 27.3183 226.876 26.6732 226.876 26.2762C226.876 24.986 227.396 23.2491 228.436 21.0656C228.931 19.5769 229.872 18.8325 231.258 18.8325C234.327 18.8325 235.862 19.8002 235.862 21.7356C235.862 22.9762 235.59 24.713 235.045 26.9461C234.501 29.1792 234.228 30.6432 234.228 31.3379C234.228 31.7349 234.253 32.0078 234.303 32.1567C234.303 32.6033 234.179 33.2485 233.931 34.0921C233.733 34.8861 233.634 35.4567 233.634 35.8041C233.634 36.5485 234.798 37.1192 237.125 37.5162C239.501 37.9132 240.689 38.4342 240.689 39.0793C240.689 39.1786 240.59 39.3523 240.392 39.6004C240.244 39.8485 240.169 39.9974 240.169 40.047L240.392 40.4192C240.541 40.6673 240.739 40.9403 240.986 41.238C241.283 41.5357 241.531 41.6846 241.729 41.6846C241.927 41.6846 242.051 41.6102 242.1 41.4613C242.15 41.3124 242.199 41.0643 242.249 40.7169C242.298 40.3696 242.323 40.1463 242.323 40.047C242.571 40.4936 242.843 41.0891 243.14 41.8335C243.437 42.5779 243.883 43.3222 244.477 44.0666C244.477 44.3643 244.378 44.6869 244.18 45.0343L243.883 45.6298ZM232.817 42.6523C232.817 42.7019 232.768 42.7764 232.669 42.8756C232.57 42.9749 232.52 43.0493 232.52 43.0989C232.52 47.9125 233.486 50.3193 235.417 50.3193C235.813 50.3193 236.308 50.0712 236.902 49.5749C237.496 49.0291 237.793 48.4832 237.793 47.9373C237.793 47.8877 237.768 47.8381 237.719 47.7884C237.719 47.6892 237.719 47.6148 237.719 47.5651C237.62 47.3666 237.446 46.9944 237.199 46.4486C236.951 45.9027 236.753 45.5057 236.605 45.2576C236.506 45.0095 236.308 44.6869 236.011 44.2899C235.714 43.8929 235.441 43.5952 235.194 43.3967C234.946 43.1982 234.6 43.0245 234.154 42.8756C233.758 42.7267 233.312 42.6523 232.817 42.6523ZM243.808 45.6298C244.353 45.8283 244.625 46.1756 244.625 46.6719C244.625 46.8208 244.477 46.8952 244.18 46.8952C243.883 46.8952 243.734 46.6471 243.734 46.1508C243.734 46.002 243.784 45.8283 243.883 45.6298H243.808Z" fill="#78A8EF"/>
    <path d="M36.909 113.293C36.909 113.342 36.9337 113.541 36.9833 113.888C37.0328 114.186 37.0575 114.409 37.0575 114.558C37.107 114.707 37.1565 114.955 37.206 115.303C37.2556 115.65 37.3298 115.923 37.4288 116.121C37.5279 116.27 37.6269 116.444 37.7259 116.642C37.8744 116.841 38.0229 116.99 38.1715 117.089C38.3695 117.188 38.5923 117.238 38.8398 117.238C39.1864 117.238 39.7805 116.965 40.6222 116.419C41.5133 115.824 42.1074 115.526 42.4045 115.526C42.553 115.526 42.7015 115.6 42.8501 115.749C42.9986 115.848 43.0729 115.973 43.0729 116.121C43.0729 116.667 43.0234 117.188 42.9243 117.685C42.8748 118.131 42.7263 118.578 42.4788 119.024C42.2807 119.471 42.1074 119.818 41.9589 120.067C41.8104 120.315 41.5381 120.687 41.142 121.183C40.7954 121.729 40.5479 122.101 40.3994 122.3C40.2508 122.349 40.0528 122.349 39.8053 122.3C39.5577 122.3 39.3349 122.325 39.1369 122.374C38.9884 122.424 38.8646 122.548 38.7656 122.746C37.4783 123.739 36.1168 124.235 34.6811 124.235C32.8492 124.235 31.8591 123.863 31.7105 123.119C31.661 122.573 31.2402 121.903 30.4481 121.109C29.7054 120.315 29.3094 119.595 29.2598 118.95C29.2103 118.553 28.938 117.982 28.4429 117.238C27.9974 116.494 27.7746 115.923 27.7746 115.526C27.7746 115.278 27.8488 115.055 27.9974 114.856C27.7498 114.062 27.5765 113.119 27.4775 112.027C27.428 110.936 27.3785 110.241 27.329 109.943C27.329 109.695 27.4528 109.373 27.7003 108.976C27.9479 108.579 28.0716 108.281 28.0716 108.082C28.0716 107.933 27.8488 107.785 27.4033 107.636C27.0072 107.487 26.8091 107.313 26.8091 107.115C26.8091 106.966 26.8339 106.767 26.8834 106.519C26.9824 106.221 27.0319 106.023 27.0319 105.924C27.0319 105.626 26.9329 105.13 26.7349 104.435C26.5368 103.74 26.4378 103.219 26.4378 102.872C26.4378 101.135 25.6704 100.266 24.1357 100.266C23.294 100.266 21.5364 100.44 18.8629 100.787C14.3576 101.581 12.105 102.251 12.105 102.797C12.105 102.996 12.105 103.318 12.105 103.765C12.1545 104.212 12.1792 104.559 12.1792 104.807C12.1792 105.105 12.1297 105.601 12.0307 106.296C11.9317 106.991 11.8822 107.512 11.8822 107.859C11.8822 108.057 11.9069 108.33 11.9564 108.678C12.0555 109.025 12.105 109.298 12.105 109.497C12.105 109.943 11.7089 110.439 10.9167 110.985C10.1741 111.531 9.53049 111.804 8.98589 111.804C8.58982 111.804 8.2185 111.705 7.87194 111.506C7.57488 111.258 7.32734 110.886 7.1293 110.39C6.93127 109.894 6.75798 109.397 6.60946 108.901C6.46093 108.405 6.33716 107.76 6.23814 106.966C6.18863 106.172 6.13912 105.502 6.08961 104.956C6.08961 104.36 6.06486 103.616 6.01535 102.723C6.01535 101.83 5.99059 101.135 5.94108 100.639C5.94108 100.291 5.99059 99.7205 6.08961 98.9265C6.23814 98.1325 6.3124 97.537 6.3124 97.14C6.3124 96.9912 6.26289 96.7431 6.16388 96.3957C6.06486 95.9987 6.01535 95.7009 6.01535 95.5024C6.01535 95.2047 6.23814 93.1701 6.68372 89.3986C6.83225 88.5054 7.99571 88.0588 10.1741 88.0588C10.8177 88.0588 11.3871 88.2573 11.8822 88.6542C12.4268 89.0512 12.6991 89.5723 12.6991 90.2174C12.6991 91.0114 12.6248 92.128 12.4763 93.5671C12.3773 94.9566 12.3278 95.9987 12.3278 96.6934C12.3278 97.0904 12.4515 97.4874 12.6991 97.8844C12.9466 98.2318 13.2684 98.4055 13.6645 98.4055C15.3973 98.4055 18.0708 98.1822 21.685 97.7355C25.2991 97.2393 27.1062 96.6686 27.1062 96.0235C27.1062 95.8746 27.0814 95.6265 27.0319 95.2791C26.9824 94.9318 26.9577 94.6588 26.9577 94.4603C26.9577 94.1626 27.0567 93.7656 27.2547 93.2693C27.4528 92.7235 27.5518 92.3265 27.5518 92.0783C27.5518 91.9295 27.5023 91.731 27.4033 91.4829C27.3537 91.1851 27.329 90.9618 27.329 90.8129C27.329 90.2174 27.4775 89.3738 27.7746 88.2821C28.1211 87.1903 28.2944 86.3715 28.2944 85.8257C28.2944 85.4783 28.2697 84.9572 28.2202 84.2625C28.1706 83.5677 28.1459 83.0219 28.1459 82.6249C28.1459 81.285 28.7152 80.6151 29.854 80.6151C32.2304 80.6151 33.7899 81.3346 34.5326 82.7737C35.3247 84.1632 35.7208 86.0242 35.7208 88.3565C35.7208 89.2994 35.7703 90.6392 35.8693 92.3761C36.0178 94.113 36.0921 95.4032 36.0921 96.2468C36.0921 96.7431 35.9683 97.5122 35.7208 98.5544C35.5227 99.5965 35.4237 100.366 35.4237 100.862C35.4237 101.11 35.2504 101.433 34.9039 101.83C34.5573 102.227 34.384 102.599 34.384 102.946C34.384 103.045 34.5821 103.219 34.9781 103.467C35.4237 103.666 35.6465 104.013 35.6465 104.509C35.6465 104.559 35.597 104.683 35.498 104.881C35.399 105.03 35.3495 105.179 35.3495 105.328C35.3495 106.37 35.498 107.512 35.795 108.752C36.0921 109.943 36.2406 110.663 36.2406 110.911C36.2406 111.01 36.1911 111.209 36.0921 111.506C36.0426 111.804 36.0178 112.027 36.0178 112.176C36.0178 112.424 36.3149 112.797 36.909 113.293ZM34.6811 97.8844L34.8296 98.0333V97.8844C34.7801 97.8844 34.7306 97.9092 34.6811 97.9589C34.7306 98.0085 34.7801 98.0333 34.8296 98.0333C34.9286 98.0333 34.9781 97.9589 34.9781 97.81C34.9286 97.7604 34.8791 97.7355 34.8296 97.7355L34.6811 97.8844Z" fill="#78A8EF"/>
    <path d="M86.871 103.095C86.5739 104.087 86.0788 105.477 85.3857 107.263C84.6926 109 84.2222 110.191 83.9747 110.836C83.6776 111.581 83.2815 113.045 82.7865 115.228C82.3409 117.412 81.92 118.801 81.524 119.397L81.3754 119.769C81.2764 120.067 81.1527 120.439 81.0041 120.885C80.8556 121.382 80.7071 121.928 80.5585 122.523C80.41 123.119 80.2863 123.813 80.1872 124.607C80.0882 125.401 80.0387 126.22 80.0387 127.064C80.0387 127.51 79.9644 127.907 79.8159 128.255C79.7169 128.652 79.6179 128.949 79.5189 129.148C79.4198 129.396 79.2218 129.743 78.9248 130.19C78.6277 130.686 78.4297 131.034 78.3306 131.232C77.8851 132.026 76.7216 132.423 74.8403 132.423C74.0976 132.423 73.553 132.324 73.2065 132.125C72.8599 131.927 72.5133 131.629 72.1668 131.232C71.8202 130.835 71.4736 130.537 71.1271 130.339C70.7805 130.14 70.533 129.768 70.3844 129.222C70.2359 128.676 70.0874 128.354 69.9389 128.255C69.3943 127.709 69.0725 126.468 68.9734 124.533C68.9734 124.235 68.9982 123.838 69.0477 123.342C69.0972 122.846 69.122 122.473 69.122 122.225C69.122 121.928 68.9239 121.531 68.5279 121.034C68.1318 120.538 67.9337 120.116 67.9337 119.769C67.9337 115.948 68.0823 112.176 68.3793 108.454C68.4288 107.859 68.4783 106.891 68.5279 105.551C68.5774 104.212 68.6269 103.12 68.6764 102.276C68.7754 101.433 68.9239 100.539 69.122 99.5965C69.32 98.6536 69.5923 97.9589 69.9389 97.5122C70.1369 97.3137 70.2359 97.0408 70.2359 96.6934C70.2359 96.5446 70.2112 96.2964 70.1617 95.9491C70.1121 95.5521 70.0874 95.2543 70.0874 95.0558C70.0874 94.8077 70.1121 94.4355 70.1617 93.9393C70.2607 93.3934 70.3102 92.9716 70.3102 92.6738C70.3102 92.5746 70.2854 92.4009 70.2359 92.1528C70.1864 91.9047 70.1617 91.7062 70.1617 91.5573C70.1617 91.2099 70.3597 90.8625 70.7558 90.5152C71.1518 90.1678 71.3499 89.9197 71.3499 89.7708C71.3004 89.3738 71.1023 88.5798 70.7558 87.3888C69.5675 87.5377 68.8002 87.9843 68.4536 88.7287C68.107 89.4234 67.6862 89.7956 67.1911 89.8452C66.9931 89.8949 66.7455 90.2174 66.4485 90.8129C66.1514 91.4084 65.8544 91.7806 65.5573 91.9295C65.1612 92.128 64.7404 92.525 64.2948 93.1205C63.8493 93.6663 63.2056 94.1874 62.364 94.6836C62.2155 94.9318 62.0422 95.6265 61.8441 96.7679C61.6956 97.9092 61.2253 98.5544 60.4331 98.7032C60.1361 98.9017 59.9133 99.1002 59.7648 99.2987C59.6657 99.4476 59.5915 99.5717 59.542 99.6709C59.4925 99.7702 59.4429 99.9438 59.3934 100.192C59.3439 100.39 59.2944 100.564 59.2449 100.713C59.1459 100.961 58.7746 101.557 58.131 102.499C57.4873 103.442 57.116 104.212 57.017 104.807C56.9675 105.006 56.7695 105.403 56.4229 105.998C56.1753 106.494 55.804 107.313 55.3089 108.454C54.8139 109.596 54.4178 110.439 54.1207 110.985C53.8237 111.482 53.3781 112.102 52.784 112.846C52.2394 113.541 51.571 114.037 50.7789 114.335C50.0362 114.633 49.1451 114.782 48.1054 114.782C46.6696 114.782 45.4566 114.161 44.4665 112.921C43.5258 111.63 43.0555 109.794 43.0555 107.412C43.0555 106.668 43.1297 105.899 43.2782 105.105C43.4268 104.261 43.6001 103.368 43.7981 102.425C43.9961 101.433 44.1447 100.663 44.2437 100.118C44.2932 99.7205 44.4912 99.1747 44.8378 98.4799C45.1843 97.7852 45.4071 97.2145 45.5062 96.7679C45.6052 96.1228 45.7785 95.5273 46.026 94.9814C46.3231 94.3859 46.7439 93.6415 47.2885 92.7483C47.8826 91.8054 48.3777 90.9122 48.7737 90.0686C50.3085 87.9843 51.2244 86.4956 51.5215 85.6023C51.8186 84.7587 52.5859 84.0888 53.8237 83.5925C55.0614 83.0467 56.2001 82.7737 57.2398 82.7737C58.7251 82.7737 60.2351 83.1956 61.7699 84.0392C62.1164 84.2377 62.562 84.7091 63.1066 85.4535C63.6512 86.1482 64.0473 86.4956 64.2948 86.4956C64.5919 86.446 65.3345 85.8257 66.5227 84.6347C67.711 83.3941 68.7011 82.6497 69.4933 82.4016C69.7408 82.3519 70.2607 82.0294 71.0528 81.4339C71.8945 80.8384 72.5381 80.5406 72.9837 80.5406C74.1224 80.5406 75.1373 80.8632 76.0285 81.5083C76.9691 82.1534 77.4395 82.9971 77.4395 84.0392C77.4395 84.2377 77.4147 84.9076 77.3652 86.049C77.3157 87.1407 77.2662 87.9099 77.2167 88.3565C77.1672 88.7535 77.0682 89.349 76.9196 90.143C76.7711 90.937 76.5483 91.6565 76.2513 92.3017C75.9542 93.1453 75.7562 94.8821 75.6572 97.5122C75.5581 100.093 75.2858 101.631 74.8403 102.127C73.9986 103.467 73.5778 106.842 73.5778 112.251C73.5778 112.3 73.5778 112.424 73.5778 112.623C73.6273 112.772 73.652 112.896 73.652 112.995C73.652 113.342 73.5778 113.864 73.4293 114.558C73.3302 115.253 73.2807 115.774 73.2807 116.121C73.2807 117.015 73.3797 118.206 73.5778 119.694C73.7758 121.233 73.8748 122.2 73.8748 122.597C73.8748 122.697 73.8501 122.821 73.8006 122.97C73.8006 123.119 73.8006 123.218 73.8006 123.267C73.8006 123.416 73.9243 123.913 74.1719 124.756C74.4194 125.649 74.6422 126.096 74.8403 126.096C74.9888 126.096 75.1621 125.922 75.3601 125.575C75.5581 125.228 75.7809 124.781 76.0285 124.235C76.276 123.689 76.4741 123.317 76.6226 123.119C76.9691 122.523 77.3157 121.357 77.6623 119.62C78.0088 117.933 78.2811 116.767 78.4792 116.121C78.6277 115.724 78.8257 115.005 79.0733 113.963C79.3703 112.871 79.6426 111.953 79.8902 111.209C80.1872 110.464 80.4843 109.943 80.7813 109.645C80.9794 109.497 81.2269 108.579 81.524 106.891C81.8705 105.154 82.2914 103.963 82.7865 103.318C83.0835 102.971 83.6281 102.103 84.4203 100.713C85.2124 99.3235 85.955 98.3062 86.6482 97.6611C87.2423 97.6611 87.5393 98.2566 87.5393 99.4476C87.5393 100.49 87.3165 101.706 86.871 103.095ZM62.4382 88.2821C61.9432 87.8354 61.3243 87.6121 60.5817 87.6121C59.9875 87.6121 59.4182 87.7858 58.8736 88.1332C54.7643 91.061 51.7443 96.2468 49.8134 103.69C49.7639 103.74 49.7392 103.839 49.7392 103.988C49.7392 104.336 49.8382 104.509 50.0362 104.509C50.3333 104.509 51.0017 103.839 52.0413 102.499C53.081 101.11 53.9474 99.8694 54.6406 98.7777C55.8288 96.8919 57.0418 95.4032 58.2795 94.3115C58.5765 94.0137 59.0221 93.443 59.6162 92.5994C60.2598 91.7062 60.854 91.1107 61.3986 90.8129L62.5125 88.5798V88.5054C62.463 88.4061 62.4382 88.3317 62.4382 88.2821Z" fill="#78A8EF"/>
    <path d="M116.452 101.606C116.501 101.755 116.6 101.978 116.749 102.276C116.897 102.574 117.021 102.822 117.12 103.021C116.823 103.219 116.377 103.492 115.783 103.839C115.239 104.137 114.719 104.435 114.224 104.733C113.729 105.03 113.308 105.353 112.961 105.7C112.268 105.7 111.278 106.345 109.991 107.636C108.703 108.876 108.06 110.291 108.06 111.879C108.06 111.978 108.06 112.077 108.06 112.176C108.109 112.276 108.134 112.35 108.134 112.4C108.134 112.648 108.085 112.871 107.986 113.07C106.847 114.806 106.278 116.246 106.278 117.387C106.278 117.635 106.278 117.982 106.278 118.429C106.327 118.826 106.352 119.124 106.352 119.322C106.352 121.605 105.98 123.788 105.238 125.873C105.04 126.22 104.867 126.791 104.718 127.585C104.619 128.428 104.446 129.024 104.198 129.371C104 129.619 103.852 130.116 103.753 130.86C103.703 131.604 103.579 132.051 103.381 132.2C102.936 132.547 102.639 133.143 102.49 133.986C102.342 134.88 102.218 135.376 102.119 135.475C101.723 135.674 101.475 135.922 101.376 136.219C101.277 136.517 101.203 136.865 101.153 137.262C101.153 137.708 101.104 138.055 101.005 138.304C101.054 138.254 101.104 138.229 101.153 138.229L99.074 141.356C99.074 142.249 98.9749 142.819 98.7769 143.068C98.6284 143.316 98.1828 143.564 97.4402 143.812C97.4402 145.053 97.0936 146.095 96.4005 146.938C95.7569 147.832 94.94 148.477 93.9498 148.874C92.9596 149.271 92.0684 149.544 91.2763 149.692C90.5337 149.841 89.9148 149.916 89.4197 149.916C88.38 149.916 87.068 149.345 85.4837 148.204C83.949 147.112 83.1816 145.797 83.1816 144.259C83.1816 143.415 83.2558 142.199 83.4044 140.611C83.6024 139.023 83.7014 137.882 83.7014 137.187C83.7014 136.443 84.0727 135.103 84.8154 133.167C85.6075 131.232 86.0531 129.743 86.1521 128.701C86.2016 128.007 86.5977 127.088 87.3403 125.947C88.083 124.806 88.4543 124.185 88.4543 124.086C88.6028 123.094 89.4445 121.679 90.9792 119.843C93.1081 117.064 94.9647 114.782 96.549 112.995C96.747 112.797 97.1431 112.548 97.7372 112.251C98.3313 111.903 98.7274 111.531 98.9254 111.134C99.173 110.539 99.6433 109.943 100.336 109.348C101.03 108.703 101.673 108.182 102.267 107.785C102.911 107.338 103.48 106.792 103.975 106.147C104.47 105.452 104.718 104.733 104.718 103.988C104.718 103.641 104.891 102.748 105.238 101.309C105.584 99.8694 105.758 98.9514 105.758 98.5544C105.758 98.4055 105.733 98.1822 105.683 97.8844C105.634 97.537 105.609 97.2641 105.609 97.0656C105.609 96.6686 105.683 95.9987 105.832 95.0558C105.98 94.113 106.055 93.443 106.055 93.046C106.055 92.8971 105.906 92.8227 105.609 92.8227C105.213 92.8723 104.668 93.2197 103.975 93.8648C103.332 94.51 102.762 94.9069 102.267 95.0558C102.02 95.1551 101.599 95.4776 101.005 96.0235C100.411 96.5694 100.114 97.0408 100.114 97.4378C100.114 98.4303 99.4205 98.9513 98.0343 99.001C97.9848 99.2491 97.861 99.6213 97.663 100.118C97.4649 100.614 97.1431 101.184 96.6975 101.83C96.252 102.425 95.8311 102.723 95.435 102.723C95.138 102.723 94.6924 103.244 94.0983 104.286C93.5042 105.328 93.1576 106.172 93.0586 106.817C92.9101 107.76 92.3902 108.504 91.4991 109.05C90.6079 109.546 89.6672 109.794 88.6771 109.794C87.7859 109.794 87.0928 109.745 86.5977 109.645C86.1026 109.546 85.459 109.273 84.6668 108.827C83.8747 108.38 83.2806 107.536 82.8845 106.296C82.4884 105.055 82.2904 103.442 82.2904 101.457C82.2904 100.614 82.4637 99.522 82.8102 98.1822C83.2063 96.8423 83.4044 95.8746 83.4044 95.2791C83.7014 94.7333 84.0727 93.9393 84.5183 92.8972C85.0134 91.855 85.4095 91.0859 85.7065 90.5896C86.0036 90.0437 86.5482 89.349 87.3403 88.5054C88.182 87.6121 89.2217 86.7437 90.4594 85.9001C93.2319 83.9151 95.5341 82.9226 97.3659 82.9226C99.1482 82.9226 100.733 83.2452 102.119 83.8903C103.555 84.5354 104.272 85.4287 104.272 86.57C104.272 87.5625 103.876 88.0588 103.084 88.0588C102.688 88.0588 102.02 87.8106 101.079 87.3144C100.188 86.7685 99.5443 86.4956 99.1482 86.4956C98.7522 86.4956 98.3313 86.57 97.8857 86.7189C97.3907 86.967 96.648 87.4136 95.6578 88.0588C94.7172 88.7039 93.5785 89.5971 92.2417 90.7385C90.905 91.8798 89.7415 93.2693 88.7513 94.9069C87.8107 96.4949 87.3403 98.0829 87.3403 99.6709C87.3403 99.7205 87.3403 99.8446 87.3403 100.043C87.3898 100.242 87.4146 100.39 87.4146 100.49C87.4146 100.787 87.3403 101.259 87.1918 101.904C87.0433 102.549 86.969 103.07 86.969 103.467C86.969 104.708 87.2413 105.328 87.7859 105.328C88.083 105.328 88.5781 104.981 89.2712 104.286C90.0138 103.542 90.8555 102.673 91.7961 101.681C92.7863 100.688 93.5537 99.9687 94.0983 99.522C95.8311 99.0258 97.0193 97.934 97.663 96.2468C97.861 95.8498 98.1085 95.5769 98.4056 95.428C99.3958 94.9814 100.188 94.113 100.782 92.8227C100.931 92.525 101.327 92.2024 101.97 91.855C102.614 91.5077 103.01 91.0859 103.158 90.5896C103.158 90.3415 103.456 90.0437 104.05 89.6964C104.693 89.349 105.065 89.0512 105.164 88.8031C105.362 88.2076 105.832 87.6618 106.575 87.1655C107.317 86.6693 108.01 86.4211 108.654 86.4211C110.139 86.4211 111.154 86.6693 111.699 87.1655C112.243 87.6121 112.516 88.4558 112.516 89.6964C112.516 90.7881 112.293 92.3017 111.847 94.237C111.402 96.1228 111.129 97.4626 111.03 98.2566C110.981 98.604 110.808 99.1002 110.511 99.7453C110.213 100.39 110.065 100.763 110.065 100.862C110.065 101.358 110.56 101.606 111.55 101.606C111.798 101.606 112.318 101.457 113.11 101.16C113.902 100.862 114.471 100.713 114.818 100.713C115.461 100.713 116.006 101.011 116.452 101.606ZM103.158 122.374C103.257 122.176 103.307 122.027 103.307 121.928C103.307 121.58 103.084 121.233 102.639 120.885C102.243 120.538 102.045 120.265 102.045 120.067L102.861 117.312C102.812 117.213 102.787 117.04 102.787 116.791C102.787 116.543 102.96 115.898 103.307 114.856C103.307 114.509 103.134 114.335 102.787 114.335C102.688 114.335 102.614 114.36 102.564 114.409C101.525 115.253 100.312 116.642 98.9254 118.578C97.5887 120.464 96.4747 121.779 95.5836 122.523C95.138 122.92 94.6924 123.59 94.2468 124.533C93.8508 125.525 93.5042 126.195 93.2071 126.543C92.3655 127.634 91.4248 129.57 90.3851 132.349C89.3454 135.128 88.8256 137.336 88.8256 138.974C88.7761 139.222 88.6276 139.643 88.38 140.239C88.182 140.834 88.083 141.306 88.083 141.653C88.083 144.184 88.5533 145.45 89.494 145.45C90.3851 145.45 91.103 145.201 91.6476 144.705C91.8456 144.407 92.3902 143.862 93.2814 143.068C94.1726 142.274 94.9152 141.48 95.5093 140.686C96.1529 139.941 96.4747 139.271 96.4747 138.676C96.4747 138.428 96.7965 137.733 97.4402 136.592C98.0838 135.45 98.4551 134.582 98.5541 133.986C98.5541 133.937 98.8759 133.54 99.5195 132.795C100.213 132.051 100.559 131.555 100.559 131.307C100.559 131.207 100.485 131.083 100.336 130.934C100.237 130.835 100.064 130.711 99.8166 130.562C99.6186 130.463 99.47 130.389 99.371 130.339C99.4205 130.289 99.6433 129.793 100.039 128.85C100.435 127.907 100.832 126.865 101.228 125.724C101.673 124.632 101.896 123.937 101.896 123.64C101.896 123.491 101.871 123.317 101.822 123.119C101.822 122.97 101.822 122.87 101.822 122.821C101.822 122.672 101.921 122.449 102.119 122.151C102.218 122.151 102.342 122.225 102.49 122.374C102.688 122.523 102.812 122.597 102.861 122.597C102.911 122.597 103.01 122.523 103.158 122.374Z" fill="#78A8EF"/>
    <path d="M120.778 92.9716C121.818 91.0362 122.461 89.6219 122.709 88.7287C122.907 88.034 123.377 87.2896 124.12 86.4956C124.912 85.652 125.655 84.982 126.348 84.4858C127.041 83.9895 127.388 83.791 127.388 83.8903C127.635 83.5925 127.907 83.394 128.204 83.2948C128.551 83.1459 128.972 83.0715 129.467 83.0715C129.962 83.0219 130.309 82.9722 130.507 82.9226C131.051 82.9226 131.893 83.1707 133.032 83.667C134.22 84.1632 135.136 84.4362 135.779 84.4858C135.878 84.5354 136.101 84.6843 136.448 84.9324C136.844 85.1309 137.141 85.3046 137.339 85.4535C137.586 85.6023 137.883 85.8257 138.23 86.1234C138.626 86.4211 138.923 86.7189 139.121 87.0166C139.319 87.3144 139.492 87.6866 139.641 88.1332C139.839 88.5302 139.938 88.9768 139.938 89.4731C139.938 90.8129 139.27 92.3761 137.933 94.1626C136.596 95.8994 135.111 97.3386 133.477 98.4799C133.081 98.7777 132.561 99.2491 131.918 99.8942C131.323 100.49 130.729 100.986 130.135 101.383C129.541 101.78 128.873 102.028 128.13 102.127C126.892 102.276 126.1 102.797 125.754 103.69C125.407 104.534 125.234 106.246 125.234 108.827C125.234 112.151 126.051 113.814 127.685 113.814C128.18 113.814 129.566 113.07 131.843 111.581C134.121 110.042 135.68 108.752 136.522 107.71C137.017 107.512 137.71 106.991 138.601 106.147C139.542 105.303 140.309 104.881 140.903 104.881C141.25 104.881 141.547 105.006 141.795 105.254C142.092 105.502 142.24 105.775 142.24 106.072C142.24 106.519 141.696 107.338 140.606 108.529C139.567 109.72 138.75 110.415 138.156 110.613C137.809 110.712 137.413 110.985 136.968 111.432C136.571 111.879 136.225 112.151 135.928 112.251C135.878 112.3 135.631 112.648 135.185 113.293C134.74 113.888 134.344 114.31 133.997 114.558C133.799 114.707 133.452 115.104 132.957 115.749C132.462 116.394 131.893 116.965 131.249 117.461C130.606 117.908 129.838 118.131 128.947 118.131C128.749 118.131 128.378 118.106 127.833 118.057C127.338 117.958 126.942 117.908 126.645 117.908C126.546 117.908 126.397 117.933 126.199 117.982C126.001 117.982 125.853 117.982 125.754 117.982C124.863 117.982 123.897 117.635 122.857 116.94C121.867 116.196 121.372 115.476 121.372 114.782C121.372 114.484 121.174 114.261 120.778 114.112C120.432 113.913 120.258 113.615 120.258 113.218C120.258 112.921 120.035 112.4 119.59 111.655C119.144 110.861 118.921 110.241 118.921 109.794L119.367 108.306C119.615 107.313 119.738 106.544 119.738 105.998C119.738 105.75 119.54 105.254 119.144 104.509C118.798 103.765 118.624 103.293 118.624 103.095C118.624 102.698 118.649 102.152 118.699 101.457C118.798 100.763 118.847 100.217 118.847 99.8198C118.847 99.7205 118.822 99.5717 118.773 99.3732C118.773 99.1747 118.773 99.0258 118.773 98.9265C118.872 98.728 119.021 98.4055 119.219 97.9589C119.466 97.4626 119.664 97.0656 119.813 96.7679C119.961 96.4701 120.085 96.1228 120.184 95.7258C120.332 95.2791 120.407 94.9069 120.407 94.6092C120.407 94.5596 120.382 94.4851 120.332 94.3859C120.332 94.2866 120.332 94.2122 120.332 94.1626C120.332 94.0137 120.407 93.8152 120.555 93.5671C120.753 93.319 120.852 93.1453 120.852 93.046L120.778 92.9716ZM126.199 98.0333L126.793 97.7355C127.189 97.4874 127.66 97.1897 128.204 96.8423C128.749 96.4949 129.343 96.0979 129.987 95.6513C130.63 95.1551 131.224 94.6836 131.769 94.237C132.314 93.7904 132.759 93.319 133.106 92.8227C133.502 92.3265 133.7 91.9047 133.7 91.5573C133.7 91.1603 133.601 90.5648 133.403 89.7708C133.205 88.9768 132.933 88.5798 132.586 88.5798C132.19 88.5798 131.695 88.8776 131.101 89.4731C130.507 90.0686 129.888 90.7881 129.244 91.6317C128.601 92.4257 128.155 92.922 127.907 93.1205L127.388 93.9393C127.09 94.4851 126.769 95.1303 126.422 95.8746C126.076 96.5694 125.902 97.0656 125.902 97.3634C125.902 97.5122 126.001 97.7355 126.199 98.0333ZM120.778 92.9716L120.927 93.046C120.828 93.046 120.778 93.0212 120.778 92.9716Z" fill="#78A8EF"/>
    <path d="M186.706 89.5475C186.805 89.3986 186.978 89.1257 187.225 88.7287C187.522 88.2821 187.77 87.9595 187.968 87.761C188.166 87.5129 188.414 87.364 188.711 87.3144C189.107 87.2151 189.429 86.8181 189.676 86.1234C189.973 85.4287 190.32 85.0068 190.716 84.858C191.161 84.6595 191.656 84.2625 192.201 83.667C192.795 83.0219 193.414 82.476 194.058 82.0294C194.751 81.5331 195.543 81.285 196.434 81.285C196.583 81.285 196.855 81.3346 197.251 81.4339C198.637 81.9798 199.528 82.5752 199.924 83.2204C200.321 83.8655 200.519 85.0565 200.519 86.7933C200.519 87.4881 200.345 89.1753 199.999 91.855C199.553 95.031 199.033 97.0656 198.439 97.9589C198.439 98.4551 198.315 99.1995 198.068 100.192C197.82 101.135 197.697 101.879 197.697 102.425C197.697 102.624 197.746 102.971 197.845 103.467C197.697 104.261 197.622 105.452 197.622 107.04C197.622 111.159 197.895 113.218 198.439 113.218C198.786 113.218 199.256 113.045 199.85 112.697C200.444 112.35 201.113 111.903 201.855 111.357C202.647 110.762 203.143 110.39 203.341 110.241C203.539 110.142 203.984 109.869 204.677 109.422C205.37 108.926 205.89 108.579 206.237 108.38C206.633 108.132 207.128 107.834 207.722 107.487C208.366 107.139 208.935 106.891 209.43 106.742C209.925 106.594 210.396 106.519 210.841 106.519C211.336 106.519 211.584 106.643 211.584 106.891C211.584 107.388 211.089 107.909 210.099 108.454C209.356 108.951 208.613 109.695 207.871 110.688C207.128 111.63 206.336 112.747 205.494 114.037C204.702 115.327 204.182 116.146 203.935 116.494C203.687 116.841 203.192 117.288 202.449 117.833C201.707 118.379 201.212 118.876 200.964 119.322C198.934 120.464 197.672 121.034 197.177 121.034C195.295 121.034 193.86 120.29 192.869 118.801C191.929 117.312 191.211 114.955 190.716 111.73C190.716 111.482 190.79 111.184 190.939 110.836C191.087 110.489 191.161 110.241 191.161 110.092C191.161 109.943 191.112 109.769 191.013 109.571C190.963 109.323 190.939 109.124 190.939 108.976C190.939 108.727 191.038 108.405 191.236 108.008C191.434 107.611 191.533 107.313 191.533 107.115C191.533 106.916 191.483 106.643 191.384 106.296C191.335 105.948 191.31 105.675 191.31 105.477C191.31 105.229 191.335 104.857 191.384 104.36C191.483 103.815 191.533 103.492 191.533 103.393C192.176 100.266 192.622 97.0408 192.869 93.716C192.919 93.1701 193.117 92.3265 193.464 91.1851C193.81 89.9941 193.983 89.0761 193.983 88.4309C193.983 87.7858 193.81 87.4633 193.464 87.4633C192.968 87.4633 192.201 88.0836 191.161 89.3242C190.122 90.5152 189.478 91.4332 189.23 92.0783C188.587 93.5671 187.993 94.3611 187.448 94.4603C187.151 94.6092 186.681 95.5273 186.037 97.2145C185.394 98.9017 184.874 100.018 184.478 100.564C184.28 100.763 184.057 101.184 183.809 101.83C183.562 102.475 183.339 102.847 183.141 102.946C182.794 103.194 182.126 104.236 181.136 106.072C180.195 107.909 179.056 108.827 177.72 108.827C176.779 108.827 176.012 108.554 175.417 108.008C174.823 107.462 174.403 106.668 174.155 105.626C173.907 104.534 173.734 103.542 173.635 102.648C173.586 101.755 173.561 100.663 173.561 99.3732C173.561 98.9762 173.561 98.4055 173.561 97.6611C173.61 96.9167 173.635 96.3709 173.635 96.0235C173.635 94.237 173.363 93.3438 172.818 93.3438C172.422 93.3438 171.135 94.2866 168.957 96.1724C166.778 98.0085 165.689 99.4476 165.689 100.49C165.689 100.589 165.714 100.763 165.763 101.011C165.862 101.259 165.912 101.433 165.912 101.532C165.912 101.78 165.763 102.003 165.466 102.202C165.169 102.4 165.021 102.549 165.021 102.648C165.021 102.996 164.971 103.566 164.872 104.36C164.823 105.105 164.798 105.675 164.798 106.072C164.798 106.172 164.798 106.345 164.798 106.594C164.847 106.842 164.872 107.04 164.872 107.189C164.872 107.536 164.748 107.958 164.501 108.454C164.204 108.901 163.981 109.521 163.832 110.315C163.684 111.109 163.56 111.63 163.461 111.879C163.313 112.176 163.015 112.722 162.57 113.516C162.124 114.261 161.852 114.881 161.753 115.377C161.357 116.965 160.317 118.305 158.634 119.397C156.951 120.538 155.564 121.109 154.475 121.109C152.99 121.109 151.529 120.464 150.094 119.173C149.945 118.876 149.45 118.454 148.608 117.908C147.767 117.362 147.247 116.692 147.049 115.898C147.049 113.02 147.791 110.514 149.277 108.38C150.762 106.197 152.817 104.063 155.441 101.978C158.164 99.8446 159.748 98.4551 160.193 97.81C160.689 97.1649 160.936 95.9243 160.936 94.0881C160.936 93.9393 160.911 93.5671 160.862 92.9716C160.812 92.3265 160.763 91.7062 160.713 91.1107C160.664 90.5152 160.59 89.8204 160.491 89.0264C160.441 88.1828 160.342 87.4384 160.193 86.7933C160.094 86.0986 159.946 85.4535 159.748 84.858C159.55 84.2625 159.327 83.791 159.079 83.4437C158.832 83.0963 158.535 82.9226 158.188 82.9226C156.852 82.9226 155.564 83.5429 154.327 84.7835C153.089 85.9745 152.123 87.2896 151.43 88.7287C150.688 90.1678 149.92 91.5077 149.128 92.7483C148.287 93.9393 147.544 94.5348 146.9 94.5348C146.851 94.5348 146.529 94.3363 145.935 93.9393C145.291 93.5423 144.648 93.046 144.004 92.4505C143.36 91.855 143.039 91.3588 143.039 90.9618C143.039 90.5648 143.534 89.6964 144.524 88.3565C145.465 86.967 146.331 85.8753 147.123 85.0813C148.212 83.1956 149.772 81.6324 151.802 80.3918C153.832 79.1015 155.837 78.4564 157.817 78.4564C159.995 78.4564 161.802 79.1511 163.238 80.5406C164.724 81.8805 165.516 83.4437 165.615 85.2302C165.615 85.9249 165.788 87.3392 166.135 89.4731C166.481 91.5573 166.803 92.5994 167.1 92.5994C167.694 92.5498 169.031 91.8054 171.11 90.3663C173.239 88.8776 174.774 88.1332 175.715 88.1332C177.447 88.1332 178.561 88.555 179.056 89.3986C179.551 90.2422 179.799 91.5077 179.799 93.1949C179.799 93.6415 179.725 94.2866 179.576 95.1303C179.477 95.9739 179.428 96.619 179.428 97.0656C179.428 97.7107 179.576 98.0333 179.873 98.0333C179.972 98.0333 180.22 97.7852 180.616 97.2889C181.012 96.7927 181.433 96.2964 181.878 95.8002C182.324 95.2543 182.596 94.9318 182.695 94.8325C182.992 94.5844 183.289 94.1626 183.586 93.5671C183.884 92.922 184.23 92.4753 184.626 92.2272C184.923 92.0783 185.295 91.6317 185.74 90.8874C186.235 90.143 186.582 89.6716 186.78 89.4731V89.6964C186.78 89.6467 186.755 89.5971 186.706 89.5475ZM159.822 105.105C159.179 105.105 158.659 105.303 158.263 105.7C158.114 105.849 157.644 106.296 156.852 107.04C156.059 107.735 155.391 108.38 154.846 108.976C154.302 109.521 153.757 110.241 153.213 111.134C152.718 111.978 152.47 112.747 152.47 113.442C152.47 114.236 152.643 114.633 152.99 114.633C153.138 114.633 153.336 114.608 153.584 114.558C153.832 114.459 154.104 114.36 154.401 114.261C154.698 114.161 154.896 114.087 154.995 114.037C155.738 113.839 156.728 112.921 157.966 111.283C159.253 109.645 159.896 108.033 159.896 106.445C159.896 106.296 159.872 106.072 159.822 105.775C159.822 105.477 159.822 105.254 159.822 105.105Z" fill="#78A8EF"/>
    <path d="M239.813 101.606C239.863 101.755 239.962 101.978 240.11 102.276C240.259 102.574 240.383 102.822 240.482 103.021C240.185 103.219 239.739 103.492 239.145 103.839C238.6 104.137 238.08 104.435 237.585 104.733C237.09 105.03 236.669 105.353 236.323 105.7C235.63 105.7 234.64 106.345 233.352 107.636C232.065 108.876 231.421 110.291 231.421 111.879C231.421 111.978 231.421 112.077 231.421 112.176C231.471 112.276 231.496 112.35 231.496 112.4C231.496 112.648 231.446 112.871 231.347 113.07C230.209 114.806 229.639 116.246 229.639 117.387C229.639 117.635 229.639 117.982 229.639 118.429C229.689 118.826 229.713 119.124 229.713 119.322C229.713 121.605 229.342 123.788 228.599 125.873C228.401 126.22 228.228 126.791 228.08 127.585C227.981 128.428 227.807 129.024 227.56 129.371C227.362 129.619 227.213 130.116 227.114 130.86C227.065 131.604 226.941 132.051 226.743 132.2C226.297 132.547 226 133.143 225.852 133.986C225.703 134.88 225.579 135.376 225.48 135.475C225.084 135.674 224.837 135.922 224.738 136.219C224.639 136.517 224.564 136.865 224.515 137.262C224.515 137.708 224.465 138.055 224.366 138.304C224.416 138.254 224.465 138.229 224.515 138.229L222.436 141.356C222.436 142.249 222.337 142.819 222.139 143.068C221.99 143.316 221.544 143.564 220.802 143.812C220.802 145.053 220.455 146.095 219.762 146.938C219.118 147.832 218.302 148.477 217.311 148.874C216.321 149.271 215.43 149.544 214.638 149.692C213.895 149.841 213.276 149.916 212.781 149.916C211.742 149.916 210.43 149.345 208.845 148.204C207.311 147.112 206.543 145.797 206.543 144.259C206.543 143.415 206.617 142.199 206.766 140.611C206.964 139.023 207.063 137.882 207.063 137.187C207.063 136.443 207.434 135.103 208.177 133.167C208.969 131.232 209.415 129.743 209.514 128.701C209.563 128.007 209.959 127.088 210.702 125.947C211.445 124.806 211.816 124.185 211.816 124.086C211.964 123.094 212.806 121.679 214.341 119.843C216.47 117.064 218.326 114.782 219.911 112.995C220.109 112.797 220.505 112.548 221.099 112.251C221.693 111.903 222.089 111.531 222.287 111.134C222.535 110.539 223.005 109.943 223.698 109.348C224.391 108.703 225.035 108.182 225.629 107.785C226.273 107.338 226.842 106.792 227.337 106.147C227.832 105.452 228.08 104.733 228.08 103.988C228.08 103.641 228.253 102.748 228.599 101.309C228.946 99.8694 229.119 98.9514 229.119 98.5544C229.119 98.4055 229.095 98.1822 229.045 97.8844C228.996 97.537 228.971 97.2641 228.971 97.0656C228.971 96.6686 229.045 95.9987 229.194 95.0558C229.342 94.113 229.416 93.443 229.416 93.046C229.416 92.8971 229.268 92.8227 228.971 92.8227C228.575 92.8723 228.03 93.2197 227.337 93.8648C226.693 94.51 226.124 94.9069 225.629 95.0558C225.381 95.1551 224.961 95.4776 224.366 96.0235C223.772 96.5694 223.475 97.0408 223.475 97.4378C223.475 98.4303 222.782 98.9513 221.396 99.001C221.346 99.2491 221.223 99.6213 221.025 100.118C220.827 100.614 220.505 101.184 220.059 101.83C219.614 102.425 219.193 102.723 218.797 102.723C218.5 102.723 218.054 103.244 217.46 104.286C216.866 105.328 216.519 106.172 216.42 106.817C216.272 107.76 215.752 108.504 214.861 109.05C213.97 109.546 213.029 109.794 212.039 109.794C211.148 109.794 210.454 109.745 209.959 109.645C209.464 109.546 208.821 109.273 208.028 108.827C207.236 108.38 206.642 107.536 206.246 106.296C205.85 105.055 205.652 103.442 205.652 101.457C205.652 100.614 205.825 99.522 206.172 98.1822C206.568 96.8423 206.766 95.8746 206.766 95.2791C207.063 94.7333 207.434 93.9393 207.88 92.8972C208.375 91.855 208.771 91.0859 209.068 90.5896C209.365 90.0437 209.91 89.349 210.702 88.5054C211.544 87.6121 212.583 86.7437 213.821 85.9001C216.594 83.9151 218.896 82.9226 220.728 82.9226C222.51 82.9226 224.094 83.2452 225.48 83.8903C226.916 84.5354 227.634 85.4287 227.634 86.57C227.634 87.5625 227.238 88.0588 226.446 88.0588C226.05 88.0588 225.381 87.8106 224.441 87.3144C223.55 86.7685 222.906 86.4956 222.51 86.4956C222.114 86.4956 221.693 86.57 221.247 86.7189C220.752 86.967 220.01 87.4136 219.019 88.0588C218.079 88.7039 216.94 89.5971 215.603 90.7385C214.267 91.8798 213.103 93.2693 212.113 94.9069C211.172 96.4949 210.702 98.0829 210.702 99.6709C210.702 99.7205 210.702 99.8446 210.702 100.043C210.751 100.242 210.776 100.39 210.776 100.49C210.776 100.787 210.702 101.259 210.553 101.904C210.405 102.549 210.331 103.07 210.331 103.467C210.331 104.708 210.603 105.328 211.148 105.328C211.445 105.328 211.94 104.981 212.633 104.286C213.375 103.542 214.217 102.673 215.158 101.681C216.148 100.688 216.915 99.9687 217.46 99.522C219.193 99.0258 220.381 97.934 221.025 96.2468C221.223 95.8498 221.47 95.5769 221.767 95.428C222.757 94.9814 223.55 94.113 224.144 92.8227C224.292 92.525 224.688 92.2024 225.332 91.855C225.975 91.5077 226.372 91.0859 226.52 90.5896C226.52 90.3415 226.817 90.0437 227.411 89.6964C228.055 89.349 228.426 89.0512 228.525 88.8031C228.723 88.2076 229.194 87.6618 229.936 87.1655C230.679 86.6693 231.372 86.4211 232.016 86.4211C233.501 86.4211 234.516 86.6693 235.06 87.1655C235.605 87.6121 235.877 88.4558 235.877 89.6964C235.877 90.7881 235.655 92.3017 235.209 94.237C234.763 96.1228 234.491 97.4626 234.392 98.2566C234.343 98.604 234.169 99.1002 233.872 99.7453C233.575 100.39 233.427 100.763 233.427 100.862C233.427 101.358 233.922 101.606 234.912 101.606C235.159 101.606 235.679 101.457 236.471 101.16C237.264 100.862 237.833 100.713 238.179 100.713C238.823 100.713 239.368 101.011 239.813 101.606ZM226.52 122.374C226.619 122.176 226.669 122.027 226.669 121.928C226.669 121.58 226.446 121.233 226 120.885C225.604 120.538 225.406 120.265 225.406 120.067L226.223 117.312C226.174 117.213 226.149 117.04 226.149 116.791C226.149 116.543 226.322 115.898 226.669 114.856C226.669 114.509 226.495 114.335 226.149 114.335C226.05 114.335 225.975 114.36 225.926 114.409C224.886 115.253 223.673 116.642 222.287 118.578C220.95 120.464 219.836 121.779 218.945 122.523C218.5 122.92 218.054 123.59 217.608 124.533C217.212 125.525 216.866 126.195 216.569 126.543C215.727 127.634 214.786 129.57 213.747 132.349C212.707 135.128 212.187 137.336 212.187 138.974C212.138 139.222 211.989 139.643 211.742 140.239C211.544 140.834 211.445 141.306 211.445 141.653C211.445 144.184 211.915 145.45 212.856 145.45C213.747 145.45 214.465 145.201 215.009 144.705C215.207 144.407 215.752 143.862 216.643 143.068C217.534 142.274 218.277 141.48 218.871 140.686C219.515 139.941 219.836 139.271 219.836 138.676C219.836 138.428 220.158 137.733 220.802 136.592C221.445 135.45 221.817 134.582 221.916 133.986C221.916 133.937 222.238 133.54 222.881 132.795C223.574 132.051 223.921 131.555 223.921 131.307C223.921 131.207 223.847 131.083 223.698 130.934C223.599 130.835 223.426 130.711 223.178 130.562C222.98 130.463 222.832 130.389 222.733 130.339C222.782 130.289 223.005 129.793 223.401 128.85C223.797 127.907 224.193 126.865 224.589 125.724C225.035 124.632 225.258 123.937 225.258 123.64C225.258 123.491 225.233 123.317 225.183 123.119C225.183 122.97 225.183 122.87 225.183 122.821C225.183 122.672 225.282 122.449 225.48 122.151C225.579 122.151 225.703 122.225 225.852 122.374C226.05 122.523 226.174 122.597 226.223 122.597C226.273 122.597 226.372 122.523 226.52 122.374Z" fill="#78A8EF"/>
    <path d="M264.042 136.443C263.399 137.088 262.928 138.229 262.631 139.867C262.334 141.504 261.938 142.671 261.443 143.365C261.443 145.201 260.552 147.087 258.77 149.023C257.037 151.008 255.131 152 253.051 152C252.012 152 251.195 151.851 250.601 151.553C250.007 151.305 249.437 150.908 248.893 150.362C248.397 149.866 247.977 149.519 247.63 149.32C246.343 148.576 245.699 146.715 245.699 143.738C245.699 139.916 246.467 136.691 248.001 134.061C248.199 133.813 248.472 133.068 248.818 131.828C249.214 130.587 249.487 129.768 249.635 129.371C250.625 127.188 251.838 124.93 253.274 122.597C253.373 122.449 253.571 122.2 253.868 121.853C254.165 121.506 254.388 121.233 254.537 121.034C254.735 120.737 255.032 120.166 255.428 119.322C255.873 118.479 256.269 117.809 256.616 117.312C256.963 116.767 257.334 116.419 257.73 116.27C258.176 116.022 258.646 115.526 259.141 114.782C259.686 114.037 260.131 113.516 260.478 113.218C262.111 111.879 263.275 109.323 263.968 105.551C264.018 105.105 264.29 104.534 264.785 103.839C265.28 103.095 265.528 102.524 265.528 102.127C265.528 101.83 265.478 101.681 265.379 101.681C265.33 101.681 265.156 101.78 264.859 101.978C264.612 102.127 264.438 102.202 264.339 102.202C264.141 102.202 264.042 102.103 264.042 101.904C264.042 100.713 264.29 99.6461 264.785 98.7032C265.28 97.7107 265.528 96.9664 265.528 96.4701C265.528 93.1453 265.082 91.4829 264.191 91.4829C263.696 91.4829 263.275 91.7806 262.928 92.3761C262.582 92.922 262.334 93.1949 262.186 93.1949C260.75 94.2866 259.933 95.2791 259.735 96.1724L259.215 96.6934C257.928 98.2814 257.012 99.2243 256.467 99.522C256.319 99.6213 255.972 100.167 255.428 101.16C254.883 102.103 254.561 102.872 254.462 103.467C254.413 103.864 254.24 104.236 253.942 104.584C253.645 104.931 253.15 105.403 252.457 105.998C251.814 106.544 251.442 106.866 251.343 106.966C246.095 106.469 243.471 102.772 243.471 95.8746C243.471 95.3288 243.521 94.5596 243.62 93.5671C243.62 92.9716 243.719 91.7558 243.917 89.9197C244.115 88.0836 244.536 86.0242 245.179 83.7414C245.872 81.4091 246.714 80.2429 247.704 80.2429C249.041 80.2429 250.13 80.7391 250.972 81.7316C251.814 82.7241 252.234 83.6918 252.234 84.6347C252.234 85.8257 252.012 87.6369 251.566 90.0686C251.12 92.4505 250.898 94.1874 250.898 95.2791C250.898 95.9242 251.071 96.2468 251.418 96.2468C251.863 96.2468 252.655 95.7754 253.794 94.8325C254.933 93.84 255.799 92.9964 256.393 92.3017C257.284 91.2099 258.547 90.2919 260.181 89.5475C260.577 89.349 260.824 89.0264 260.923 88.5798C261.072 88.0836 261.295 87.7858 261.592 87.6866C261.938 87.5377 262.211 87.1655 262.409 86.57C262.656 85.9745 262.953 85.5527 263.3 85.3046C263.399 85.255 263.671 85.0068 264.117 84.5602C264.612 84.1136 265.033 83.7414 265.379 83.4437C265.775 83.0963 266.27 82.7737 266.864 82.476C267.458 82.1783 268.028 82.0294 268.572 82.0294C269.513 82.0294 270.553 82.3768 271.691 83.0715C272.88 83.7166 273.474 84.3865 273.474 85.0813C273.474 85.1309 273.4 86.4211 273.251 88.952C273.102 89.5475 272.88 91.061 272.583 93.4926C272.286 95.9242 271.89 97.5867 271.394 98.4799C270.949 99.3235 270.726 100.688 270.726 102.574C270.726 103.07 270.949 103.318 271.394 103.318C271.642 103.318 271.989 103.194 272.434 102.946C272.929 102.698 273.499 102.375 274.142 101.978C274.786 101.581 275.281 101.309 275.627 101.16C277.014 99.919 278.326 99.1002 279.563 98.7032C280.752 98.2566 281.47 97.8348 281.717 97.4378C281.816 97.2889 282.608 96.9167 284.093 96.3212C285.579 95.7258 286.544 95.428 286.99 95.428C287.732 95.428 288.574 95.6265 289.515 96.0235C290.505 96.3709 291 96.9416 291 97.7355C291 98.6288 290.629 99.125 289.886 99.2243C289.341 99.2243 288.846 99.2739 288.401 99.3732C288.005 99.4724 287.708 99.5717 287.51 99.6709C287.312 99.7702 286.99 99.9686 286.544 100.266C286.099 100.515 285.703 100.738 285.356 100.936C281.544 102.971 278.623 104.708 276.593 106.147C275.751 106.643 274.811 107.313 273.771 108.157C272.731 109 272.038 109.521 271.691 109.72C270.503 110.514 269.538 111.432 268.795 112.474C268.102 113.516 267.31 115.228 266.419 117.61C266.369 117.759 266.146 117.933 265.75 118.131C265.404 118.33 265.231 118.578 265.231 118.876C265.231 119.372 265.33 119.645 265.528 119.694C265.775 119.694 265.998 119.595 266.196 119.397C266.394 120.042 266.493 120.761 266.493 121.555C266.493 121.952 266.443 122.548 266.344 123.342C266.295 123.788 265.825 124.185 264.933 124.533C264.042 124.88 263.597 125.376 263.597 126.022C263.597 126.121 263.622 126.27 263.671 126.468C263.721 126.667 263.745 126.816 263.745 126.915C263.894 126.816 264.042 126.493 264.191 125.947C264.339 125.401 264.686 125.128 265.231 125.128C265.775 125.128 266.047 125.426 266.047 126.022C266.047 126.319 265.973 126.691 265.825 127.138C265.726 127.585 265.676 127.882 265.676 128.031L265.156 128.552C264.81 128.85 264.636 129.173 264.636 129.52C264.636 129.57 264.636 129.669 264.636 129.818C264.686 129.967 264.711 130.091 264.711 130.19C264.711 130.24 264.686 130.314 264.636 130.413C264.636 130.513 264.636 130.612 264.636 130.711C264.636 130.91 264.711 131.207 264.859 131.604C265.008 132.051 265.082 132.373 265.082 132.572L264.859 133.54C264.76 134.185 264.612 134.83 264.414 135.475C264.216 136.17 263.993 136.517 263.745 136.517C263.696 136.517 263.622 136.492 263.522 136.443C263.473 136.443 263.423 136.443 263.374 136.443C263.225 136.443 263.077 136.517 262.928 136.666L262.854 136.815C262.953 136.716 263.349 136.592 264.042 136.443ZM263.671 132.87C263.176 132.919 262.854 132.994 262.706 133.093C262.607 133.242 262.557 133.54 262.557 133.986C262.557 134.036 262.607 134.11 262.706 134.21C263.052 134.21 263.3 133.986 263.448 133.54C263.646 133.093 263.77 132.845 263.82 132.795C263.82 132.696 263.795 132.646 263.745 132.646C263.646 132.646 263.597 132.671 263.597 132.721L263.671 132.795V132.87ZM250.749 143.812C250.749 145.45 251.343 146.268 252.531 146.268C252.928 146.268 253.398 146.045 253.942 145.598C254.487 145.152 254.883 144.879 255.131 144.78C255.725 144.531 256.269 144.085 256.765 143.44C257.309 142.844 257.829 142.1 258.324 141.207C258.869 140.363 259.314 139.743 259.661 139.346C259.611 139.246 259.487 139.098 259.289 138.899C259.141 138.701 259.067 138.527 259.067 138.378C259.067 137.882 259.265 137.336 259.661 136.74C260.106 136.195 260.329 135.698 260.329 135.252C260.329 135.152 260.304 135.004 260.255 134.805C260.255 134.607 260.255 134.483 260.255 134.433C260.255 134.036 260.453 133.341 260.849 132.349C261.295 131.356 261.517 130.513 261.517 129.818C261.517 129.669 261.493 129.47 261.443 129.222C261.394 128.974 261.369 128.801 261.369 128.701C261.369 128.106 261.567 126.816 261.963 124.831C262.359 122.846 262.557 121.357 262.557 120.364C262.557 119.67 262.334 119.322 261.889 119.322C261.641 119.322 260.948 120.116 259.809 121.704C258.671 123.292 257.878 124.533 257.433 125.426C257.334 125.625 257.185 125.848 256.987 126.096C254.314 129.222 252.952 131.828 252.903 133.912C252.903 134.11 252.804 134.358 252.606 134.656C252.16 135.152 251.541 138.204 250.749 143.812ZM263.597 129.52C263.547 129.57 263.473 129.619 263.374 129.669C263.324 129.768 263.25 129.818 263.151 129.818C263.102 129.867 263.052 129.917 263.003 129.967C262.953 130.066 262.928 130.14 262.928 130.19C262.928 130.388 263.077 130.488 263.374 130.488C263.869 130.339 264.117 130.116 264.117 129.818C263.919 129.719 263.745 129.619 263.597 129.52ZM263.894 122.076C263.844 122.027 263.77 121.977 263.671 121.928C263.622 121.878 263.572 121.853 263.522 121.853C263.324 121.853 263.225 121.952 263.225 122.151C263.225 122.25 263.3 122.3 263.448 122.3C263.547 122.3 263.622 122.275 263.671 122.225C263.77 122.126 263.844 122.076 263.894 122.076ZM261.146 137.708C260.948 137.708 260.849 137.783 260.849 137.931C260.849 138.031 260.899 138.08 260.998 138.08C261.097 138.08 261.146 137.956 261.146 137.708ZM258.473 143.291L258.398 143.216C258.349 143.167 258.324 143.117 258.324 143.068C258.225 143.167 258.175 143.241 258.175 143.291C258.175 143.44 258.225 143.514 258.324 143.514C258.423 143.514 258.473 143.44 258.473 143.291ZM265.676 117.536C265.676 117.288 265.627 117.164 265.528 117.164C265.429 117.213 265.379 117.263 265.379 117.312C265.379 117.461 265.478 117.536 265.676 117.536ZM260.923 135.326L260.998 135.549L261.072 135.475C261.121 135.425 261.171 135.401 261.22 135.401L261.072 135.252L260.923 135.326ZM262.854 136.666V136.815L262.928 136.666H262.854Z" fill="#78A8EF"/>
</svg>
