<svg width="209" height="34" viewBox="0 0 209 34" fill="none" xmlns="http://www.w3.org/2000/svg">
    <path d="M10.4368 11.0528C10.6194 9.78108 10.7107 7.9857 10.7107 5.66667C10.7107 5.47965 10.7472 5.20847 10.8203 4.85313C10.8933 4.4978 10.9298 4.23597 10.9298 4.06766C10.9298 3.93674 10.9116 3.74037 10.875 3.47855C10.8568 3.19802 10.8476 2.76788 10.8476 2.18812C10.8476 0.729373 10.9572 0 11.1764 0C12.7469 0 13.5322 0.89769 13.5322 2.69307C13.5322 2.88009 13.5139 3.18867 13.4774 3.61881C13.4591 4.03025 13.45 4.34818 13.45 4.57261C13.45 4.68482 13.4591 4.84378 13.4774 5.0495C13.4956 5.25522 13.5048 5.40484 13.5048 5.49835C13.5048 5.70407 13.4865 6.0033 13.45 6.39604C13.4317 6.78878 13.4226 7.07866 13.4226 7.26568C13.4226 7.41529 13.4317 7.64906 13.45 7.967C13.4683 8.28493 13.4774 8.52805 13.4774 8.69637C13.4774 8.90209 13.4683 9.20132 13.45 9.59406C13.45 9.9868 13.45 10.286 13.45 10.4917C13.45 10.6227 13.4774 10.819 13.5322 11.0809C13.6052 11.324 13.6417 11.5016 13.6417 11.6139C13.6417 11.6513 13.6326 11.7167 13.6143 11.8102C13.6143 11.9037 13.6143 11.9692 13.6143 12.0066C13.6143 12.2497 13.6417 12.6144 13.6965 13.1007C13.7696 13.5869 13.8061 13.9516 13.8061 14.1947C13.8974 14.6436 13.9431 15.2888 13.9431 16.1304C13.9431 16.9719 13.9705 17.5891 14.0252 17.9818C14.007 18.1315 13.9979 18.3559 13.9979 18.6551C13.9979 19.0292 14.0252 19.5622 14.08 20.2541C14.1531 20.9461 14.1896 21.4417 14.1896 21.7409C14.2261 23.0688 14.2626 23.8823 14.2992 24.1815C14.007 24.2376 13.7513 24.4714 13.5322 24.8828C13.4226 24.8828 13.3039 24.8361 13.1761 24.7426C13.0665 24.6491 12.9934 24.593 12.9569 24.5743C12.9387 24.5743 12.893 24.6678 12.8199 24.8548C12.7652 25.0605 12.6556 25.2569 12.4912 25.4439C12.3451 25.6496 12.1534 25.7525 11.916 25.7525C11.5325 25.7525 11.3407 25.5093 11.3407 25.0231C11.3407 24.8735 11.2494 24.593 11.0668 24.1815C10.8842 23.7701 10.7929 23.4241 10.7929 23.1436C10.7929 22.9939 10.802 22.7882 10.8203 22.5264C10.8568 22.2646 10.875 22.0589 10.875 21.9092C10.875 21.7222 10.8659 21.582 10.8476 21.4884C10.9024 21.3762 10.9298 21.2734 10.9298 21.1799C10.9298 21.0677 10.8842 20.918 10.7929 20.731C10.7198 20.544 10.6833 20.3944 10.6833 20.2822C10.6833 20.1887 10.7198 20.0671 10.7929 19.9175C10.8842 19.7492 10.9298 19.6276 10.9298 19.5528C10.9298 19.4406 10.8476 19.2068 10.6833 18.8515C10.5372 18.4961 10.4641 18.2156 10.4641 18.0099C10.4641 17.8229 10.4915 17.5517 10.5463 17.1964C10.6011 16.841 10.6376 16.6073 10.6559 16.495C10.5828 16.4015 10.5463 16.2706 10.5463 16.1023C10.5463 16.0649 10.5463 16.0088 10.5463 15.934C10.5646 15.8592 10.5737 15.8031 10.5737 15.7657C10.5737 15.7096 10.5646 15.6254 10.5463 15.5132C10.5281 15.401 10.5189 15.3168 10.5189 15.2607C10.5189 15.2046 10.5189 15.1018 10.5189 14.9521C10.5372 14.8025 10.5463 14.6997 10.5463 14.6436C10.5098 14.363 10.4002 14.0171 10.2176 13.6056C10.0533 13.1755 9.88889 12.9604 9.72453 12.9604C8.95753 12.9791 7.79789 13.1661 6.24562 13.5215C4.71161 13.8581 3.88068 14.0358 3.75285 14.0545C3.46066 14.1106 3.31456 14.5033 3.31456 15.2327C3.31456 15.7002 3.27804 16.1865 3.20499 16.6914C3.13194 17.1964 3.09542 17.5611 3.09542 17.7855C3.09542 17.8977 3.12281 18.066 3.17759 18.2904C3.25064 18.4961 3.28717 18.6458 3.28717 18.7393C3.28717 18.8328 3.24151 19.0105 3.1502 19.2723C3.05889 19.5154 3.01324 19.6931 3.01324 19.8053C3.01324 19.8801 3.06802 19.9549 3.17759 20.0297C3.28717 20.0858 3.34195 20.1606 3.34195 20.2541C3.34195 20.3102 3.32369 20.4131 3.28717 20.5627C3.28717 20.731 3.415 20.89 3.67067 21.0396C3.67067 21.0583 3.65241 21.1892 3.61588 21.4323C3.59762 21.6568 3.58849 21.8251 3.58849 21.9373C3.58849 22.0682 3.60675 22.2552 3.64328 22.4983C3.69806 22.7415 3.72546 22.9191 3.72546 23.0314C3.72546 23.1062 3.71632 23.2277 3.69806 23.396C3.6798 23.5831 3.67067 23.714 3.67067 23.7888C3.63415 23.7888 3.58849 23.7701 3.5337 23.7327C3.49718 23.6953 3.46066 23.6766 3.42413 23.6766C3.33282 23.6766 3.18673 23.8168 2.98584 24.0974C2.78496 24.3779 2.62973 24.5182 2.52016 24.5182C2.46537 24.5182 2.39233 24.4994 2.30102 24.462C2.22797 24.4246 2.17318 24.4059 2.13666 24.4059C2.02709 24.4059 1.89012 24.462 1.72576 24.5743C1.5614 24.7052 1.43357 24.7706 1.34226 24.7706C1.26921 24.7706 1.1779 24.7519 1.06833 24.7145C0.593516 24.4714 0.292193 24.2563 0.164358 24.0693C0.0547861 23.8823 0 23.4521 0 22.7789C0 22.6854 0.027393 22.5545 0.0821791 22.3861C0.136965 22.1991 0.164358 22.0682 0.164358 21.9934C0.164358 21.8999 0.136965 21.7783 0.0821791 21.6287C0.0456551 21.4791 0.0273931 21.3669 0.0273931 21.2921C0.0273931 21.2173 0.0547861 21.1238 0.109572 21.0115C0.164358 20.8993 0.191751 20.8058 0.191751 20.731C0.191751 20.6749 0.173489 20.5908 0.136965 20.4785C0.100441 20.3476 0.0821791 20.2541 0.0821791 20.198C0.0821791 20.0297 0.109572 19.7959 0.164358 19.4967C0.237406 19.1788 0.27393 18.945 0.27393 18.7954C0.27393 18.758 0.2648 18.7019 0.246538 18.6271C0.246538 18.5523 0.246538 18.4961 0.246538 18.4587C0.246538 18.3839 0.283062 18.2343 0.35611 18.0099C0.44742 17.7855 0.493075 17.6078 0.493075 17.4769C0.493075 17.3647 0.456551 17.187 0.383503 16.9439C0.310455 16.7008 0.27393 16.5231 0.27393 16.4109C0.27393 16.2239 0.283062 15.9433 0.301324 15.5693C0.319586 15.1953 0.328717 14.9147 0.328717 14.7277C0.328717 14.5781 0.365241 14.363 0.438289 14.0825C0.511337 13.7833 0.547861 13.5589 0.547861 13.4092C0.547861 13.0913 0.584385 12.6144 0.657433 11.9785C0.730481 11.324 0.767006 10.8471 0.767006 10.5479C0.767006 10.4917 0.757875 10.3982 0.739612 10.2673C0.739612 10.1364 0.739612 10.0336 0.739612 9.95874C0.739612 9.65952 0.785268 9.16392 0.876578 8.47195C0.98615 7.77998 1.04094 7.29373 1.04094 7.0132C1.04094 6.9571 1.02267 6.86359 0.98615 6.73267C0.967888 6.60176 0.958757 6.4989 0.958757 6.42409C0.958757 6.23707 0.98615 5.95654 1.04094 5.58251C1.11398 5.20847 1.15051 4.92794 1.15051 4.74092C1.15051 4.4604 1.1779 4.0209 1.23269 3.42244C1.28747 2.80528 1.31487 2.33773 1.31487 2.0198C1.31487 1.94499 1.2966 1.82343 1.26008 1.65512C1.24182 1.4681 1.23269 1.32783 1.23269 1.23432C1.23269 1.0099 1.35139 0.878988 1.5888 0.841583C2.75757 0.841583 3.34195 1.4681 3.34195 2.72112C3.34195 2.79593 3.33282 2.89879 3.31456 3.0297C3.31456 3.16062 3.31456 3.25412 3.31456 3.31023C3.31456 3.53465 3.35108 3.87129 3.42413 4.32013C3.49718 4.76898 3.5337 5.12431 3.5337 5.38614C3.5337 5.74147 3.50631 6.29318 3.45152 7.04125C3.415 7.78933 3.39674 8.32233 3.39674 8.64026C3.39674 8.69637 3.42413 8.78988 3.47892 8.92079C3.5337 9.0517 3.5611 9.15456 3.5611 9.22937C3.5611 9.28548 3.55197 9.36964 3.5337 9.48185C3.5337 9.57536 3.5337 9.64081 3.5337 9.67822C3.5337 9.75302 3.5337 9.84653 3.5337 9.95874C3.55197 10.071 3.5611 10.1551 3.5611 10.2112C3.5611 10.3047 3.5337 10.4543 3.47892 10.6601C3.42413 10.8658 3.39674 11.0248 3.39674 11.137C3.39674 11.6045 3.38761 11.8757 3.36935 11.9505C3.36935 12.0627 3.45152 12.1188 3.61588 12.1188C3.67067 12.1188 3.71632 12.1095 3.75285 12.0908C5.46948 11.7728 7.69745 11.4268 10.4368 11.0528ZM1.75316 17.6452C1.75316 17.5143 1.73489 17.4488 1.69837 17.4488C1.62532 17.4488 1.5888 17.4769 1.5888 17.533C1.5888 17.5891 1.62532 17.6546 1.69837 17.7294C1.69837 17.7107 1.7075 17.7013 1.72576 17.7013L1.75316 17.6452ZM13.7787 21.1799C13.8518 21.1051 13.8883 21.0583 13.8883 21.0396C13.8883 20.9461 13.8426 20.8993 13.7513 20.8993C13.6417 20.8993 13.587 20.9461 13.587 21.0396C13.587 21.0957 13.6509 21.1425 13.7787 21.1799ZM13.7787 21.7409C13.7787 21.6848 13.7604 21.6568 13.7239 21.6568C13.6509 21.6568 13.6143 21.6755 13.6143 21.7129L13.6965 21.8251C13.7331 21.8251 13.7604 21.797 13.7787 21.7409ZM1.64358 19.7492L1.67098 19.8333L1.69837 19.7772L1.64358 19.7492Z" fill="#78A8EF"/>
    <path d="M29.3818 21.1799C29.1444 22.115 28.5783 22.7041 27.6835 22.9472C27.6469 22.9285 27.5191 22.8443 27.3 22.6947C27.0991 22.5638 26.9621 22.4609 26.8891 22.3861C26.816 22.3113 26.7247 22.1991 26.6151 22.0495C26.5238 21.8999 26.4782 21.7503 26.4782 21.6007C26.4782 21.4323 26.4143 21.2734 26.2864 21.1238C26.1586 20.9741 26.0947 20.8339 26.0947 20.703C26.0947 20.6095 26.0947 20.4598 26.0947 20.2541C26.1129 20.0297 26.1221 19.8707 26.1221 19.7772C26.1038 19.665 26.0764 19.4967 26.0399 19.2723C26.0216 19.0479 25.9942 18.8421 25.9577 18.6551C25.9394 18.4681 25.9303 18.3091 25.9303 18.1782C25.9303 18.1034 25.9394 17.9912 25.9577 17.8416C25.976 17.6733 25.9851 17.5517 25.9851 17.4769C25.9668 17.3834 25.9394 17.2431 25.9029 17.0561C25.8664 16.8691 25.8481 16.7382 25.8481 16.6634C25.8481 16.5886 25.8664 16.4763 25.9029 16.3267C25.9577 16.1584 25.9851 16.0462 25.9851 15.9901C25.9851 15.934 25.9668 15.8405 25.9303 15.7096C25.912 15.5787 25.9029 15.4758 25.9029 15.401C25.9029 15.214 25.9303 14.8867 25.9851 14.4191C26.0399 13.9516 26.0673 13.6056 26.0673 13.3812C26.0673 13.1194 26.0125 12.9604 25.9029 12.9043C25.8664 12.9043 25.8299 12.9136 25.7933 12.9323C25.7568 12.9323 25.7203 12.9323 25.6838 12.9323C25.6838 12.9697 25.5742 13.1381 25.3551 13.4373C25.1359 13.7178 24.8985 14.0358 24.6428 14.3911C24.4054 14.7464 24.2593 14.9989 24.2045 15.1485C23.8758 16.0275 23.6932 16.467 23.6567 16.467C23.4375 16.5605 23.2549 16.7943 23.1088 17.1683C22.981 17.5237 22.8988 17.72 22.8623 17.7574C22.6797 17.9257 22.4149 18.3278 22.0679 18.9637C21.7392 19.5996 21.3648 20.1513 20.9448 20.6188C20.5247 21.0677 20.0317 21.2921 19.4655 21.2921C18.9725 21.2921 18.5159 21.1238 18.0959 20.7871C17.6941 20.4318 17.4659 19.9549 17.4111 19.3564C17.3928 19.1507 17.3198 18.8421 17.1919 18.4307C17.0823 18.0193 17.0276 17.7107 17.0276 17.5049C17.0276 16.3641 17.1189 15.3542 17.3015 14.4752C17.3198 14.4378 17.3471 14.2321 17.3837 13.8581C17.4202 13.4653 17.4567 12.9323 17.4932 12.2591C17.548 11.5671 17.5754 10.9219 17.5754 10.3234C17.5754 10.2486 17.5572 10.1364 17.5206 9.9868C17.5024 9.81848 17.4932 9.69692 17.4932 9.62211C17.4932 9.5473 17.5298 9.4725 17.6028 9.39769C17.6941 9.30418 17.7854 9.25742 17.8767 9.25742C18.2603 9.29483 18.589 9.39769 18.8629 9.56601C19.1551 9.73432 19.3012 9.97745 19.3012 10.2954C18.9907 13.8861 18.8355 16.0649 18.8355 16.8317C18.8355 18.3839 18.9907 19.1601 19.3012 19.1601C19.4838 19.1601 19.776 18.8889 20.1778 18.3465C20.5795 17.7855 21.0726 17.0281 21.657 16.0743C22.2414 15.1018 22.6157 14.4939 22.7801 14.2508C22.8349 14.176 22.9627 14.0451 23.1636 13.8581C23.3828 13.6524 23.5106 13.456 23.5471 13.269C23.5836 13.1381 23.6475 13.0072 23.7389 12.8762C23.8302 12.7266 23.9124 12.6144 23.9854 12.5396C24.0767 12.4461 24.1863 12.3339 24.3141 12.203C24.4602 12.0534 24.5515 11.9505 24.588 11.8944C24.6063 11.8757 24.7981 11.6326 25.1633 11.165C25.5285 10.6788 25.8481 10.2954 26.1221 10.0149C26.4142 9.71562 26.6517 9.56601 26.8343 9.56601C26.9073 9.56601 27.0443 9.55665 27.2452 9.53795C27.4643 9.51925 27.6287 9.5099 27.7382 9.5099C28.3226 9.5099 28.7518 9.69692 29.0257 10.071C29.3179 10.4263 29.464 10.8938 29.464 11.4736C29.464 11.8476 29.4001 12.3806 29.2723 13.0726C29.1444 13.7646 29.0805 14.2415 29.0805 14.5033C29.0805 14.5594 29.0805 14.6623 29.0805 14.8119C29.0988 14.9428 29.1079 15.0457 29.1079 15.1205C29.1079 15.3823 29.0714 15.7657 28.9983 16.2706C28.9253 16.7756 28.8888 17.1496 28.8888 17.3927C28.907 17.5798 28.9435 17.9818 28.9983 18.599C29.0714 19.2162 29.1079 19.6744 29.1079 19.9736C29.1079 20.011 29.0988 20.0484 29.0805 20.0858C29.0805 20.1232 29.0805 20.1513 29.0805 20.17C29.0805 20.4692 29.1809 20.8058 29.3818 21.1799Z" fill="#78A8EF"/>
    <path d="M34.4207 16.1865C34.4937 16.2426 34.585 16.2706 34.6946 16.2706C34.8042 16.2706 34.9594 16.0462 35.1603 15.5974C35.3977 14.9989 35.7173 14.3069 36.119 13.5215C36.539 12.7173 37.023 11.8757 37.5709 10.9967C38.137 10.099 38.7396 9.35093 39.3788 8.75247C40.0362 8.15401 40.6297 7.85478 41.1593 7.85478C41.6159 7.85478 42.109 8.0231 42.6386 8.35973C43.1682 8.69637 43.433 9.13586 43.433 9.67822C43.2321 10.8003 42.949 11.3614 42.5838 11.3614C42.3464 11.3614 42.0724 11.0248 41.762 10.3515C41.4698 9.67822 41.2415 9.34158 41.0772 9.34158C41.0224 9.34158 40.9767 9.35093 40.9402 9.36964C39.7714 9.91199 38.694 11.0528 37.7078 12.7921C37.4339 13.11 37.1691 13.5308 36.9134 14.0545C36.6578 14.5781 36.5299 14.9708 36.5299 15.2327C36.5299 15.3449 36.5664 15.401 36.6395 15.401H36.6669L36.6943 15.3729C36.7856 15.3355 36.9226 15.2701 37.1052 15.1766C37.3061 15.0831 37.4613 15.0083 37.5709 14.9521C37.6987 14.896 37.8357 14.8493 37.9818 14.8119C38.1461 14.7558 38.2831 14.7277 38.3926 14.7277C40.1458 14.7277 41.0224 15.5974 41.0224 17.3366C41.0224 17.6359 40.9859 18.0847 40.9128 18.6832C40.858 19.2816 40.8306 19.7305 40.8306 20.0297C40.8306 20.4598 40.8398 20.7778 40.858 20.9835C40.858 21.1331 40.8032 21.3014 40.6937 21.4884C40.5841 21.6755 40.5293 21.8064 40.5293 21.8812C40.5293 21.956 40.5658 22.0402 40.6389 22.1337C40.7119 22.2085 40.7484 22.2739 40.7484 22.33C40.7484 22.3487 40.7302 22.3768 40.6937 22.4142C40.6754 22.4703 40.6663 22.5171 40.6663 22.5545C40.6663 22.6106 40.6845 22.676 40.7211 22.7508C40.7576 22.8256 40.7758 22.8911 40.7758 22.9472C40.7758 23.0033 40.7302 23.1155 40.6389 23.2838C40.5476 23.4521 40.5019 23.5831 40.5019 23.6766C40.5019 23.8262 40.5384 24.0319 40.6115 24.2937C40.6845 24.5743 40.7211 24.78 40.7211 24.9109C40.7211 25.0044 40.7028 25.1353 40.6663 25.3036C40.6297 25.4719 40.6115 25.6029 40.6115 25.6964C40.6115 25.9395 40.7028 26.2668 40.8854 26.6782C40.8854 26.7156 40.9767 26.7811 41.1593 26.8746C41.3602 26.9681 41.4607 27.1084 41.4607 27.2954C41.4607 27.5759 41.3694 27.8097 41.1867 27.9967C41.0224 28.1837 40.8124 28.2772 40.5567 28.2772C40.1001 28.2772 39.7075 28.0996 39.3788 27.7442C39.0501 27.4076 38.8035 27.0242 38.6392 26.5941C38.4931 26.1639 38.3744 25.5935 38.2831 24.8828C38.21 24.1722 38.1644 23.6298 38.1461 23.2558C38.1461 22.8817 38.1461 22.4048 38.1461 21.8251C38.1461 20.1793 38.1918 18.3933 38.2831 16.467C38.2831 16.4296 38.2557 16.3922 38.2009 16.3548C38.1461 16.2987 38.1005 16.2706 38.0639 16.2706C37.443 16.4763 36.8678 16.8223 36.3382 17.3086C35.8268 17.7948 35.4799 18.3185 35.2972 18.8795C35.279 18.9169 35.2151 19.1133 35.1055 19.4686C34.9959 19.8053 34.9229 20.0297 34.8863 20.1419C34.8498 20.2354 34.7676 20.4318 34.6398 20.731C34.5302 21.0115 34.4298 21.2173 34.3385 21.3482C34.2472 21.4604 34.1285 21.6007 33.9824 21.769C33.8545 21.9373 33.7084 22.0589 33.5441 22.1337C33.3797 22.1898 33.2062 22.2178 33.0236 22.2178C32.6584 22.2178 32.3388 21.8905 32.0649 21.236C31.7909 20.5627 31.654 19.8333 31.654 19.0479C31.654 18.973 31.654 18.8608 31.654 18.7112C31.6722 18.5616 31.6813 18.4494 31.6813 18.3746C31.6813 18.2811 31.6722 18.1408 31.654 17.9538C31.654 17.7668 31.654 17.6265 31.654 17.533C31.654 17.346 31.727 16.626 31.8731 15.3729C31.9096 15.2233 31.9827 15.055 32.0922 14.868C32.2018 14.681 32.2566 14.522 32.2566 14.3911C32.2566 14.2041 32.2109 13.9983 32.1196 13.7739C32.0466 13.5495 32.0101 13.3812 32.0101 13.269C32.0101 13.2503 32.0375 13.0726 32.0922 12.736C32.1288 12.3619 32.1744 11.7915 32.2292 11.0248C32.3023 10.2393 32.357 9.65952 32.3936 9.28548C32.3936 8.91144 32.7771 8.72442 33.5441 8.72442C33.7632 8.72442 34.0372 8.80858 34.3659 8.9769C34.7128 9.12651 34.8863 9.32288 34.8863 9.56601C34.8863 9.82783 34.8681 10.2299 34.8315 10.7723C34.8133 11.2959 34.8042 11.698 34.8042 11.9785C34.8042 12.1282 34.7494 12.3152 34.6398 12.5396C34.5485 12.7453 34.5028 12.9136 34.5028 13.0446C34.5028 13.1568 34.512 13.3251 34.5302 13.5495C34.5667 13.7739 34.585 13.9422 34.585 14.0545C34.585 14.0919 34.5759 14.1667 34.5576 14.2789C34.5576 14.3911 34.5576 14.4752 34.5576 14.5314C34.5576 14.5875 34.5667 14.681 34.585 14.8119C34.6215 14.9428 34.6398 15.0457 34.6398 15.1205C34.6398 15.1953 34.6124 15.2888 34.5576 15.401C34.5211 15.5132 34.5028 15.5974 34.5028 15.6535C34.5028 15.7096 34.5028 15.7844 34.5028 15.8779C34.5211 15.9714 34.5302 16.0369 34.5302 16.0743C34.5302 16.093 34.512 16.1304 34.4754 16.1865C34.4389 16.2239 34.4207 16.2613 34.4207 16.2987L34.448 16.3267C34.448 16.308 34.4389 16.2893 34.4207 16.2706C34.4207 16.2332 34.4207 16.2052 34.4207 16.1865ZM34.448 17.0281L34.3933 16.9158C34.3933 16.9345 34.375 16.9626 34.3385 17C34.3385 17.0748 34.3567 17.1122 34.3933 17.1122C34.4298 17.1122 34.448 17.0842 34.448 17.0281ZM34.0098 17.8135V17.7855C34.028 17.7668 34.0372 17.7481 34.0372 17.7294C34.0372 17.7107 34.0189 17.7013 33.9824 17.7013C33.9641 17.7013 33.955 17.7294 33.955 17.7855C33.9732 17.7855 33.9915 17.7948 34.0098 17.8135Z" fill="#78A8EF"/>
    <path d="M57.7165 11.2772C57.8991 11.4268 57.9905 11.5952 57.9905 11.7822C57.9905 11.9692 57.89 12.1375 57.6891 12.2871C57.4882 12.4367 57.2234 12.5116 56.8947 12.5116C56.7852 12.5116 56.6208 12.4928 56.4017 12.4554C55.379 12.7734 54.4385 13.1942 53.5802 13.7178C53.4523 13.8113 53.3428 13.9235 53.2514 14.0545C53.1784 14.1854 53.1327 14.3069 53.1145 14.4191C53.0962 14.5127 53.078 14.6529 53.0597 14.8399C53.0597 15.027 53.0597 15.1485 53.0597 15.2046C53.0414 15.3916 52.9684 15.6535 52.8406 15.9901C52.731 16.3267 52.6762 16.6073 52.6762 16.8317C52.6762 16.9813 52.594 17.159 52.4297 17.3647C52.2836 17.5704 52.2105 17.7574 52.2105 17.9257C52.2105 17.9631 52.2105 18.0099 52.2105 18.066C52.2288 18.1221 52.2379 18.1595 52.2379 18.1782C52.2379 18.5149 52.0553 18.945 51.69 19.4686C51.5805 19.8427 51.2152 20.4037 50.5943 21.1518C49.9917 21.8999 49.4986 22.2739 49.1151 22.2739C49.0603 22.2739 48.969 22.3113 48.8412 22.3861C48.7133 22.4609 48.5672 22.5545 48.4029 22.6667C48.2385 22.7976 48.1016 22.8911 47.992 22.9472C46.9693 22.7041 46.2571 22.3861 45.8553 21.9934C45.417 21.4884 45.0427 20.8432 44.7322 20.0578C44.4218 19.2536 44.2665 18.5523 44.2665 17.9538C44.2665 17.7294 44.3031 17.4114 44.3761 17C44.4491 16.5699 44.4857 16.2613 44.4857 16.0743C44.4857 15.9246 44.5861 15.588 44.787 15.0644C44.9879 14.522 45.0883 14.1386 45.0883 13.9142C45.0883 13.7646 44.9514 13.3718 44.6774 12.736C44.4218 12.1001 44.2939 11.6232 44.2939 11.3053C44.2939 9.97745 44.5222 9.12651 44.9788 8.75247C45.4536 8.35974 46.2023 8.16337 47.225 8.16337H48.4851C49.0147 8.16337 49.7817 8.49065 50.7861 9.14521C51.8088 9.78108 52.4297 10.5946 52.6488 11.5858C52.7766 12.1843 52.9958 12.4835 53.3062 12.4835C53.3793 12.4835 53.4341 12.4741 53.4706 12.4554C53.635 12.3993 53.8998 12.3058 54.265 12.1749C54.6485 12.0253 54.9407 11.9131 55.1416 11.8383C55.3607 11.7635 55.6255 11.6793 55.936 11.5858C56.2464 11.4923 56.5477 11.4268 56.8399 11.3894C57.1321 11.3333 57.4243 11.2959 57.7165 11.2772ZM51.6353 15.401C51.6353 15.3636 51.6261 15.3075 51.6079 15.2327C51.6079 15.1392 51.5987 15.0737 51.5805 15.0363C51.5805 14.9802 51.5713 14.9241 51.5531 14.868C51.5348 14.8119 51.5074 14.7745 51.4709 14.7558C51.4344 14.7184 51.3887 14.6997 51.3339 14.6997C51.2609 14.6997 51.1513 14.7184 51.0052 14.7558C49.6538 15.2607 48.7133 15.5132 48.1837 15.5132C47.6176 15.5132 47.3346 16.6634 47.3346 18.9637C47.3346 19.3564 47.4259 19.7305 47.6085 20.0858C47.8094 20.4411 48.0559 20.6188 48.3481 20.6188C48.7681 20.6188 49.1881 20.3383 49.6082 19.7772C50.0465 19.1975 50.43 18.5897 50.7587 17.9538C51.0874 17.2992 51.2792 16.9439 51.3339 16.8878C51.4253 16.7382 51.5257 16.2426 51.6353 15.401ZM45.8553 11.2211C45.9284 11.8196 46.0379 12.1188 46.184 12.1188C46.2936 12.1188 46.4123 12.0253 46.5402 11.8383C46.6863 11.6326 46.8232 11.5297 46.9511 11.5297L47.1702 11.5858C47.3163 11.6232 47.4989 11.6793 47.7181 11.7541C47.9372 11.8289 48.1563 11.9131 48.3755 12.0066C48.5946 12.1001 48.7773 12.2217 48.9233 12.3713C49.0877 12.5022 49.1699 12.6425 49.1699 12.7921C49.1699 12.8669 49.1425 12.9604 49.0877 13.0726C49.0512 13.1848 48.9873 13.3157 48.896 13.4653C48.8229 13.5963 48.7772 13.6898 48.759 13.7459C48.759 13.8581 48.7955 13.9422 48.8686 13.9983C48.9416 14.0358 49.0055 14.0545 49.0603 14.0545C49.5169 14.0545 50.0191 13.9516 50.5669 13.7459C51.1331 13.5215 51.4161 13.2503 51.4161 12.9323C51.4161 12.1469 50.9961 11.3146 50.156 10.4356C49.3342 9.55665 48.5216 9.11716 47.7181 9.11716C47.1519 9.11716 46.6954 9.33223 46.3484 9.76238C46.0197 10.1925 45.8553 10.6788 45.8553 11.2211Z" fill="#78A8EF"/>
    <path d="M56.517 16.0743C56.1335 16.0369 55.7865 15.8966 55.4761 15.6535C55.1474 15.3916 54.983 15.1298 54.983 14.868C54.983 14.0264 55.5217 12.8482 56.5992 11.3333C57.2931 10.3234 57.8136 9.68757 58.1606 9.42574C58.2336 9.36964 58.3249 9.25743 58.4345 9.08911C58.5441 8.90209 58.6445 8.77118 58.7358 8.69637C59.2654 8.28493 59.6581 7.99505 59.9137 7.82673C60.1694 7.63971 60.5438 7.44334 61.0369 7.23762C61.5299 7.0132 62.0047 6.90099 62.4613 6.90099C63.0092 6.90099 63.484 7.12541 63.8857 7.57426C64.2875 8.0044 64.4884 8.4813 64.4884 9.00495C64.4884 9.21067 64.4336 9.5099 64.324 9.90264C64.2327 10.2954 64.1871 10.5946 64.1871 10.8003C64.1871 10.8377 64.1871 10.8845 64.1871 10.9406C64.2053 10.9967 64.2145 11.0435 64.2145 11.0809C64.2145 11.1931 64.1779 11.2866 64.1049 11.3614C63.8675 11.6793 63.7488 12.1749 63.7488 12.8482C63.7488 12.9417 63.6575 13.2596 63.4748 13.802C63.2922 14.3256 63.2009 14.709 63.2009 14.9521L63.0913 15.3449C63.0366 15.6067 62.9635 15.8872 62.8722 16.1865C62.7809 16.467 62.6987 16.6447 62.6257 16.7195C62.5526 16.7943 62.4978 16.9345 62.4613 17.1403C62.4248 17.3273 62.3882 17.5611 62.3517 17.8416C62.3335 18.1221 62.3152 18.3278 62.2969 18.4587C62.2787 18.571 62.2148 18.7486 62.1052 18.9917C62.0139 19.2162 61.9682 19.4032 61.9682 19.5528C61.9682 19.852 62.0321 20.0017 62.16 20.0017C62.2513 20.0017 62.3517 19.9362 62.4613 19.8053C62.5709 19.6744 62.6896 19.4873 62.8174 19.2442C62.9635 19.0011 63.0457 18.8702 63.0639 18.8515C63.1735 18.7019 63.3653 18.4587 63.6392 18.1221C63.9314 17.7668 64.1414 17.4862 64.2692 17.2805C64.324 17.0935 64.5888 16.7943 65.0636 16.3828C65.5384 15.9714 65.9311 15.7657 66.2415 15.7657C66.5703 15.7657 66.7346 15.9246 66.7346 16.2426C66.7346 16.5044 66.2233 17.2151 65.2006 18.3746C65.1093 18.4868 65.0362 18.6458 64.9815 18.8515C64.9267 19.0385 64.881 19.2068 64.8445 19.3564C64.8262 19.506 64.808 19.5902 64.7897 19.6089C64.5888 19.8146 64.4701 20.2074 64.4336 20.7871C64.3971 21.0864 64.2418 21.3856 63.9679 21.6848C63.7122 21.984 63.5844 22.2272 63.5844 22.4142C63.5844 22.7321 63.3835 23.0407 62.9818 23.3399C62.58 23.6579 62.1782 23.8168 61.7765 23.8168C61.7034 23.8168 61.5938 23.7701 61.4478 23.6766C61.3017 23.6018 61.1921 23.5644 61.119 23.5644C60.7538 23.5644 60.4799 23.3773 60.2972 23.0033C60.1146 22.648 60.0233 22.2552 60.0233 21.8251C60.0233 21.5633 60.0324 21.1799 60.0507 20.6749C60.0872 20.17 60.1055 19.7959 60.1055 19.5528C60.1055 19.4032 60.0872 19.1881 60.0507 18.9076C60.0142 18.6084 59.9959 18.4026 59.9959 18.2904C59.9959 18.2343 60.0233 18.1502 60.0781 18.038C60.1329 17.9257 60.1603 17.8322 60.1603 17.7574C60.1603 17.72 60.1511 17.6639 60.1329 17.5891C60.1329 17.5143 60.1329 17.4675 60.1329 17.4488C60.1329 17.2618 60.2333 17.0655 60.4342 16.8597C60.6351 16.6353 60.7355 16.4763 60.7355 16.3828C60.7355 16.3454 60.7173 16.2893 60.6807 16.2145C60.6442 16.121 60.626 16.0462 60.626 15.9901C60.626 15.6722 60.7081 15.401 60.8725 15.1766C61.0369 14.9521 61.119 14.7932 61.119 14.6997C61.119 14.6436 61.0916 14.5594 61.0369 14.4472C61.0003 14.335 60.9821 14.2415 60.9821 14.1667C60.9821 13.8674 61.1282 13.3718 61.4204 12.6799C61.7126 11.9692 61.8586 11.5578 61.8586 11.4455C61.8586 11.4081 61.8404 11.352 61.8039 11.2772C61.7673 11.1837 61.7491 11.1089 61.7491 11.0528C61.7491 11.0154 61.8313 10.2393 61.9956 8.72442C61.9956 8.4626 61.9226 8.33168 61.7765 8.33168C61.2834 8.78053 60.9182 9.09846 60.6807 9.28548C60.5346 9.32288 60.3612 9.42574 60.1603 9.59406C59.9777 9.74367 59.8224 9.89329 59.6946 10.0429C59.5668 10.1925 59.3933 10.4076 59.1741 10.6881C58.955 10.9686 58.8089 11.1463 58.7358 11.2211C58.6445 11.3333 58.5624 11.511 58.4893 11.7541C58.4345 11.9785 58.3706 12.1469 58.2976 12.2591C58.0236 12.6144 57.7314 13.2877 57.421 14.2789C57.1105 15.2514 56.8092 15.8498 56.517 16.0743Z" fill="#78A8EF"/>
    <path d="M78.2489 15.7937C78.2672 15.8498 78.3037 15.934 78.3585 16.0462C78.4133 16.1584 78.4589 16.2519 78.4954 16.3267C78.3859 16.4015 78.2215 16.5044 78.0024 16.6353C77.8015 16.7475 77.6097 16.8597 77.4271 16.9719C77.2445 17.0842 77.0893 17.2057 76.9614 17.3366C76.7057 17.3366 76.3405 17.5798 75.8657 18.066C75.3909 18.5336 75.1535 19.0666 75.1535 19.665C75.1535 19.7024 75.1535 19.7398 75.1535 19.7772C75.1717 19.8146 75.1809 19.8427 75.1809 19.8614C75.1809 19.9549 75.1626 20.0391 75.1261 20.1139C74.7061 20.7684 74.496 21.3108 74.496 21.7409C74.496 21.8344 74.496 21.9653 74.496 22.1337C74.5143 22.2833 74.5234 22.3955 74.5234 22.4703C74.5234 23.3306 74.3865 24.1535 74.1125 24.9389C74.0395 25.0699 73.9756 25.2849 73.9208 25.5842C73.8843 25.9021 73.8204 26.1265 73.729 26.2574C73.656 26.3509 73.6012 26.538 73.5647 26.8185C73.5464 27.099 73.5008 27.2673 73.4277 27.3234C73.2634 27.4543 73.1538 27.6788 73.099 27.9967C73.0442 28.3333 72.9986 28.5204 72.962 28.5578C72.8159 28.6326 72.7246 28.7261 72.6881 28.8383C72.6516 28.9505 72.6242 29.0814 72.6059 29.231C72.6059 29.3993 72.5877 29.5303 72.5511 29.6238C72.5694 29.6051 72.5877 29.5957 72.6059 29.5957L71.8389 30.7739C71.8389 31.1106 71.8024 31.3256 71.7294 31.4191C71.6746 31.5126 71.5102 31.6062 71.2363 31.6997C71.2363 32.1672 71.1084 32.56 70.8528 32.8779C70.6154 33.2145 70.314 33.4576 69.9488 33.6073C69.5836 33.7569 69.2548 33.8597 68.9627 33.9158C68.6887 33.9719 68.4604 34 68.2778 34C67.8943 34 67.4104 33.7849 66.826 33.3548C66.2599 32.9433 65.9768 32.4477 65.9768 31.868C65.9768 31.5501 66.0042 31.0919 66.059 30.4934C66.132 29.8949 66.1686 29.4648 66.1686 29.203C66.1686 28.9224 66.3055 28.4175 66.5795 27.6881C66.8716 26.9587 67.036 26.3977 67.0725 26.005C67.0908 25.7431 67.2369 25.3971 67.5108 24.967C67.7847 24.5369 67.9217 24.3031 67.9217 24.2657C67.9765 23.8916 68.287 23.3586 68.8531 22.6667C69.6383 21.6194 70.3232 20.7591 70.9076 20.0858C70.9806 20.011 71.1267 19.9175 71.3458 19.8053C71.565 19.6744 71.7111 19.5341 71.7841 19.3845C71.8754 19.1601 72.0489 18.9356 72.3046 18.7112C72.5603 18.4681 72.7977 18.2717 73.0168 18.1221C73.2542 17.9538 73.4642 17.7481 73.6469 17.5049C73.8295 17.2431 73.9208 16.9719 73.9208 16.6914C73.9208 16.5605 73.9847 16.2239 74.1125 15.6815C74.2404 15.1392 74.3043 14.7932 74.3043 14.6436C74.3043 14.5875 74.2952 14.5033 74.2769 14.3911C74.2586 14.2602 74.2495 14.1573 74.2495 14.0825C74.2495 13.9329 74.2769 13.6804 74.3317 13.3251C74.3865 12.9697 74.4139 12.7173 74.4139 12.5677C74.4139 12.5116 74.3591 12.4835 74.2495 12.4835C74.1034 12.5022 73.9025 12.6331 73.6469 12.8762C73.4095 13.1194 73.1994 13.269 73.0168 13.3251C72.9255 13.3625 72.7703 13.484 72.5511 13.6898C72.332 13.8955 72.2224 14.0732 72.2224 14.2228C72.2224 14.5968 71.9668 14.7932 71.4554 14.8119C71.4372 14.9054 71.3915 15.0457 71.3185 15.2327C71.2454 15.4197 71.1267 15.6348 70.9623 15.8779C70.798 16.1023 70.6428 16.2145 70.4967 16.2145C70.3871 16.2145 70.2227 16.4109 70.0036 16.8036C69.7844 17.1964 69.6566 17.5143 69.6201 17.7574C69.5653 18.1128 69.3735 18.3933 69.0448 18.599C68.7161 18.786 68.3691 18.8795 68.0039 18.8795C67.6752 18.8795 67.4195 18.8608 67.2369 18.8234C67.0543 18.786 66.8169 18.6832 66.5247 18.5148C66.2325 18.3465 66.0133 18.0286 65.8672 17.5611C65.7211 17.0935 65.6481 16.4857 65.6481 15.7376C65.6481 15.4197 65.712 15.0082 65.8398 14.5033C65.9859 13.9983 66.059 13.6337 66.059 13.4092C66.1686 13.2035 66.3055 12.9043 66.4699 12.5116C66.6525 12.1188 66.7986 11.8289 66.9082 11.6419C67.0177 11.4362 67.2186 11.1744 67.5108 10.8564C67.8213 10.5198 68.2048 10.1925 68.6613 9.87459C69.684 9.12651 70.5332 8.75247 71.2089 8.75247C71.8663 8.75247 72.4507 8.87404 72.962 9.11716C73.4916 9.36029 73.7564 9.69692 73.7564 10.1271C73.7564 10.5011 73.6103 10.6881 73.3181 10.6881C73.172 10.6881 72.9255 10.5946 72.5785 10.4076C72.2498 10.2019 72.0124 10.099 71.8663 10.099C71.7202 10.099 71.565 10.1271 71.4006 10.1832C71.218 10.2767 70.9441 10.445 70.5788 10.6881C70.2319 10.9312 69.8118 11.2679 69.3188 11.698C68.8257 12.1282 68.3965 12.6518 68.0313 13.269C67.6843 13.8674 67.5108 14.4659 67.5108 15.0644C67.5108 15.0831 67.5108 15.1298 67.5108 15.2046C67.5291 15.2794 67.5382 15.3355 67.5382 15.3729C67.5382 15.4851 67.5108 15.6628 67.456 15.9059C67.4012 16.1491 67.3739 16.3454 67.3739 16.495C67.3739 16.9626 67.4743 17.1964 67.6752 17.1964C67.7847 17.1964 67.9674 17.0655 68.223 16.8036C68.497 16.5231 68.8074 16.1958 69.1544 15.8218C69.5196 15.4477 69.8027 15.1766 70.0036 15.0083C70.6428 14.8212 71.081 14.4098 71.3185 13.7739C71.3915 13.6243 71.4828 13.5215 71.5924 13.4653C71.9576 13.297 72.2498 12.9697 72.469 12.4835C72.5237 12.3713 72.6698 12.2497 72.9072 12.1188C73.1447 11.9879 73.2908 11.8289 73.3455 11.6419C73.3455 11.5484 73.4551 11.4362 73.6743 11.3053C73.9117 11.1744 74.0486 11.0622 74.0851 10.9686C74.1582 10.7442 74.3317 10.5385 74.6056 10.3515C74.8796 10.1645 75.1352 10.071 75.3726 10.071C75.9205 10.071 76.2949 10.1645 76.4957 10.3515C76.6966 10.5198 76.7971 10.8377 76.7971 11.3053C76.7971 11.7167 76.7149 12.2871 76.5505 13.0165C76.3862 13.7272 76.2857 14.2321 76.2492 14.5314C76.2309 14.6623 76.167 14.8493 76.0574 15.0924C75.9479 15.3355 75.8931 15.4758 75.8931 15.5132C75.8931 15.7002 76.0757 15.7937 76.441 15.7937C76.5323 15.7937 76.724 15.7376 77.0162 15.6254C77.3084 15.5132 77.5184 15.4571 77.6463 15.4571C77.8837 15.4571 78.0845 15.5693 78.2489 15.7937ZM73.3455 23.6205C73.3821 23.5457 73.4003 23.4895 73.4003 23.4521C73.4003 23.3212 73.3181 23.1903 73.1538 23.0594C73.0077 22.9285 72.9346 22.8256 72.9346 22.7508L73.236 21.7129C73.2177 21.6755 73.2086 21.61 73.2086 21.5165C73.2086 21.423 73.2725 21.1799 73.4003 20.7871C73.4003 20.6562 73.3364 20.5908 73.2086 20.5908C73.172 20.5908 73.1447 20.6001 73.1264 20.6188C72.7429 20.9367 72.2955 21.4604 71.7841 22.1898C71.2911 22.9004 70.8802 23.396 70.5514 23.6766C70.3871 23.8262 70.2227 24.0787 70.0584 24.434C69.9123 24.808 69.7844 25.0605 69.6749 25.1914C69.3644 25.6029 69.0174 26.3322 68.6339 27.3795C68.2504 28.4268 68.0587 29.2591 68.0587 29.8762C68.0404 29.9697 67.9856 30.1287 67.8943 30.3531C67.8213 30.5776 67.7848 30.7552 67.7848 30.8861C67.7848 31.8399 67.9582 32.3168 68.3052 32.3168C68.6339 32.3168 68.8987 32.2233 69.0996 32.0363C69.1727 31.9241 69.3735 31.7184 69.7023 31.4191C70.031 31.1199 70.3049 30.8207 70.524 30.5215C70.7615 30.2409 70.8802 29.9884 70.8802 29.764C70.8802 29.6705 70.9989 29.4087 71.2363 28.9785C71.4737 28.5484 71.6106 28.2211 71.6472 27.9967C71.6472 27.978 71.7659 27.8284 72.0033 27.5479C72.2589 27.2673 72.3868 27.0803 72.3868 26.9868C72.3868 26.9494 72.3594 26.9026 72.3046 26.8465C72.2681 26.8091 72.2042 26.7624 72.1129 26.7063C72.0398 26.6689 71.985 26.6408 71.9485 26.6221C71.9668 26.6034 72.0489 26.4164 72.195 26.0611C72.3411 25.7057 72.4872 25.313 72.6333 24.8828C72.7977 24.4714 72.8799 24.2096 72.8799 24.0974C72.8799 24.0413 72.8707 23.9758 72.8525 23.901C72.8525 23.8449 72.8525 23.8075 72.8525 23.7888C72.8525 23.7327 72.889 23.6485 72.962 23.5363C72.9986 23.5363 73.0442 23.5644 73.099 23.6205C73.1721 23.6766 73.2177 23.7046 73.236 23.7046C73.2542 23.7046 73.2908 23.6766 73.3455 23.6205Z" fill="#78A8EF"/>
    <path d="M95.2123 16.3548C95.1027 16.7288 94.9201 17.2525 94.6644 17.9257C94.4087 18.5803 94.2352 19.0292 94.1439 19.2723C94.0344 19.5528 93.8883 20.1045 93.7056 20.9274C93.5413 21.7503 93.3861 22.2739 93.24 22.4983L93.1852 22.6386C93.1487 22.7508 93.103 22.8911 93.0482 23.0594C92.9934 23.2464 92.9386 23.4521 92.8839 23.6766C92.8291 23.901 92.7834 24.1628 92.7469 24.462C92.7104 24.7613 92.6921 25.0699 92.6921 25.3878C92.6921 25.5561 92.6647 25.7057 92.6099 25.8366C92.5734 25.9862 92.5369 26.0985 92.5003 26.1733C92.4638 26.2668 92.3908 26.3977 92.2812 26.566C92.1716 26.753 92.0986 26.8839 92.0621 26.9587C91.8977 27.258 91.4685 27.4076 90.7746 27.4076C90.5006 27.4076 90.2998 27.3702 90.1719 27.2954C90.0441 27.2206 89.9163 27.1084 89.7884 26.9587C89.6606 26.8091 89.5328 26.6969 89.4049 26.6221C89.2771 26.5473 89.1858 26.407 89.131 26.2013C89.0762 25.9956 89.0214 25.874 88.9666 25.8366C88.7658 25.6309 88.6471 25.1634 88.6105 24.434C88.6105 24.3218 88.6197 24.1722 88.6379 23.9851C88.6562 23.7981 88.6653 23.6579 88.6653 23.5644C88.6653 23.4521 88.5923 23.3025 88.4462 23.1155C88.3001 22.9285 88.227 22.7695 88.227 22.6386C88.227 21.1986 88.2818 19.7772 88.3914 18.3746C88.4097 18.1502 88.4279 17.7855 88.4462 17.2805C88.4644 16.7756 88.4827 16.3641 88.501 16.0462C88.5375 15.7283 88.5923 15.3916 88.6653 15.0363C88.7384 14.681 88.8388 14.4191 88.9666 14.2508C89.0397 14.176 89.0762 14.0732 89.0762 13.9422C89.0762 13.8861 89.0671 13.7926 89.0488 13.6617C89.0306 13.5121 89.0214 13.3999 89.0214 13.3251C89.0214 13.2316 89.0306 13.0913 89.0488 12.9043C89.0853 12.6986 89.1036 12.5396 89.1036 12.4274C89.1036 12.39 89.0945 12.3245 89.0762 12.231C89.058 12.1375 89.0488 12.0627 89.0488 12.0066C89.0488 11.8757 89.1219 11.7448 89.268 11.6139C89.4141 11.4829 89.4871 11.3894 89.4871 11.3333C89.4688 11.1837 89.3958 10.8845 89.268 10.4356C88.8297 10.4917 88.5466 10.6601 88.4188 10.9406C88.291 11.2024 88.1357 11.3427 87.9531 11.3614C87.8801 11.3801 87.7887 11.5017 87.6792 11.7261C87.5696 11.9505 87.46 12.0908 87.3505 12.1469C87.2044 12.2217 87.0491 12.3713 86.8848 12.5957C86.7204 12.8014 86.483 12.9978 86.1725 13.1848C86.1178 13.2783 86.0538 13.5402 85.9808 13.9703C85.926 14.4004 85.7525 14.6436 85.4603 14.6997C85.3508 14.7745 85.2686 14.8493 85.2138 14.9241C85.1773 14.9802 85.1499 15.027 85.1316 15.0644C85.1133 15.1018 85.0951 15.1672 85.0768 15.2607C85.0586 15.3355 85.0403 15.401 85.022 15.4571C84.9855 15.5506 84.8485 15.775 84.6111 16.1304C84.3737 16.4857 84.2368 16.7756 84.2002 17C84.182 17.0748 84.1089 17.2244 83.9811 17.4488C83.8898 17.6359 83.7528 17.9444 83.5702 18.3746C83.3876 18.8047 83.2415 19.1227 83.1319 19.3284C83.0223 19.5154 82.858 19.7492 82.6388 20.0297C82.438 20.2915 82.1914 20.4785 81.8992 20.5908C81.6253 20.703 81.2966 20.7591 80.9131 20.7591C80.3835 20.7591 79.9361 20.5253 79.5708 20.0578C79.2238 19.5715 79.0504 18.8795 79.0504 17.9818C79.0504 17.7013 79.0777 17.4114 79.1325 17.1122C79.1873 16.7943 79.2512 16.4576 79.3243 16.1023C79.3973 15.7283 79.4521 15.4384 79.4886 15.2327C79.5069 15.0831 79.58 14.8773 79.7078 14.6155C79.8356 14.3537 79.9178 14.1386 79.9543 13.9703C79.9908 13.7272 80.0548 13.5028 80.1461 13.297C80.2557 13.0726 80.4109 12.7921 80.6118 12.4554C80.8309 12.1001 81.0135 11.7635 81.1596 11.4455C81.7257 10.6601 82.0636 10.099 82.1732 9.76238C82.2827 9.44444 82.5658 9.19197 83.0223 9.00495C83.4789 8.79923 83.8989 8.69637 84.2824 8.69637C84.8303 8.69637 85.3873 8.85534 85.9534 9.17327C86.0812 9.24807 86.2456 9.42574 86.4465 9.70627C86.6474 9.9681 86.7935 10.099 86.8848 10.099C86.9943 10.0803 87.2683 9.84653 87.7066 9.39769C88.1448 8.93014 88.5101 8.64961 88.8023 8.5561C88.8936 8.5374 89.0853 8.41584 89.3775 8.19142C89.688 7.967 89.9254 7.85478 90.0897 7.85478C90.5098 7.85478 90.8842 7.97635 91.2129 8.21947C91.5598 8.4626 91.7333 8.78053 91.7333 9.17327C91.7333 9.24807 91.7242 9.50055 91.7059 9.93069C91.6877 10.3421 91.6694 10.632 91.6512 10.8003C91.6329 10.9499 91.5964 11.1744 91.5416 11.4736C91.4868 11.7728 91.4046 12.044 91.2951 12.2871C91.1855 12.6051 91.1124 13.2596 91.0759 14.2508C91.0394 15.2233 90.9389 15.8031 90.7746 15.9901C90.4641 16.495 90.3089 17.7668 90.3089 19.8053C90.3089 19.824 90.3089 19.8707 90.3089 19.9455C90.3272 20.0016 90.3363 20.0484 90.3363 20.0858C90.3363 20.2167 90.3089 20.4131 90.2541 20.6749C90.2176 20.9367 90.1993 21.1331 90.1993 21.264C90.1993 21.6007 90.2359 22.0495 90.3089 22.6106C90.382 23.1903 90.4185 23.555 90.4185 23.7046C90.4185 23.742 90.4093 23.7888 90.3911 23.8449C90.3911 23.901 90.3911 23.9384 90.3911 23.9571C90.3911 24.0132 90.4367 24.2002 90.528 24.5182C90.6194 24.8548 90.7015 25.0231 90.7746 25.0231C90.8294 25.0231 90.8933 24.9576 90.9663 24.8267C91.0394 24.6958 91.1216 24.5275 91.2129 24.3218C91.3042 24.1161 91.3772 23.9758 91.432 23.901C91.5599 23.6766 91.6877 23.2371 91.8155 22.5825C91.9434 21.9466 92.0438 21.5071 92.1168 21.264C92.1716 21.1144 92.2447 20.8432 92.336 20.4505C92.4456 20.0391 92.546 19.6931 92.6373 19.4125C92.7469 19.132 92.8564 18.9356 92.966 18.8234C93.0391 18.7673 93.1304 18.4213 93.24 17.7855C93.3678 17.1309 93.523 16.6821 93.7056 16.4389C93.8152 16.308 94.0161 15.9807 94.3083 15.4571C94.6005 14.9334 94.8744 14.5501 95.1301 14.3069C95.3492 14.3069 95.4588 14.5314 95.4588 14.9802C95.4588 15.3729 95.3766 15.8311 95.2123 16.3548ZM86.1999 10.7723C86.0173 10.604 85.789 10.5198 85.5151 10.5198C85.296 10.5198 85.086 10.5853 84.8851 10.7162C83.3693 11.8196 82.2553 13.7739 81.5431 16.5792C81.5249 16.5979 81.5157 16.6353 81.5157 16.6914C81.5157 16.8223 81.5523 16.8878 81.6253 16.8878C81.7349 16.8878 81.9814 16.6353 82.3649 16.1304C82.7484 15.6067 83.068 15.1392 83.3237 14.7277C83.762 14.0171 84.2094 13.456 84.6659 13.0446C84.7755 12.9323 84.9399 12.7173 85.159 12.3993C85.3964 12.0627 85.6156 11.8383 85.8164 11.7261L86.2273 10.8845V10.8564C86.2091 10.819 86.1999 10.791 86.1999 10.7723Z" fill="#78A8EF"/>
    <path d="M112.068 20.198C112.068 20.2167 112.077 20.2915 112.095 20.4224C112.113 20.5347 112.123 20.6188 112.123 20.6749C112.141 20.731 112.159 20.8245 112.177 20.9554C112.196 21.0864 112.223 21.1892 112.26 21.264C112.296 21.3201 112.333 21.3856 112.369 21.4604C112.424 21.5352 112.479 21.5913 112.533 21.6287C112.606 21.6661 112.689 21.6848 112.78 21.6848C112.908 21.6848 113.127 21.582 113.437 21.3762C113.766 21.1518 113.985 21.0396 114.095 21.0396C114.15 21.0396 114.204 21.0677 114.259 21.1238C114.314 21.1612 114.341 21.2079 114.341 21.264C114.341 21.4697 114.323 21.6661 114.287 21.8531C114.268 22.0215 114.214 22.1898 114.122 22.3581C114.049 22.5264 113.985 22.6573 113.93 22.7508C113.876 22.8443 113.775 22.9846 113.629 23.1716C113.501 23.3773 113.41 23.5176 113.355 23.5924C113.3 23.6111 113.227 23.6111 113.136 23.5924C113.045 23.5924 112.963 23.6018 112.89 23.6205C112.835 23.6392 112.789 23.6859 112.753 23.7607C112.278 24.1348 111.776 24.3218 111.246 24.3218C110.57 24.3218 110.205 24.1815 110.15 23.901C110.132 23.6953 109.977 23.4428 109.685 23.1436C109.411 22.8443 109.265 22.5732 109.246 22.33C109.228 22.1804 109.128 21.9653 108.945 21.6848C108.781 21.4043 108.698 21.1892 108.698 21.0396C108.698 20.9461 108.726 20.8619 108.781 20.7871C108.689 20.4879 108.625 20.1326 108.589 19.7211C108.571 19.3097 108.552 19.0479 108.534 18.9356C108.534 18.8421 108.58 18.7206 108.671 18.571C108.762 18.4213 108.808 18.3091 108.808 18.2343C108.808 18.1782 108.726 18.1221 108.561 18.066C108.415 18.0099 108.342 17.9444 108.342 17.8696C108.342 17.8135 108.351 17.7387 108.37 17.6452C108.406 17.533 108.424 17.4582 108.424 17.4208C108.424 17.3086 108.388 17.1216 108.315 16.8597C108.242 16.5979 108.205 16.4015 108.205 16.2706C108.205 15.6161 107.922 15.2888 107.356 15.2888C107.046 15.2888 106.397 15.3542 105.411 15.4851C103.749 15.7844 102.918 16.0369 102.918 16.2426C102.918 16.3174 102.918 16.4389 102.918 16.6073C102.937 16.7756 102.946 16.9065 102.946 17C102.946 17.1122 102.928 17.2992 102.891 17.5611C102.855 17.8229 102.836 18.0193 102.836 18.1502C102.836 18.225 102.845 18.3278 102.864 18.4587C102.9 18.5897 102.918 18.6925 102.918 18.7673C102.918 18.9356 102.772 19.1227 102.48 19.3284C102.206 19.5341 101.969 19.637 101.768 19.637C101.622 19.637 101.485 19.5996 101.357 19.5248C101.248 19.4312 101.156 19.291 101.083 19.104C101.01 18.9169 100.946 18.7299 100.891 18.5429C100.837 18.3559 100.791 18.1128 100.754 17.8135C100.736 17.5143 100.718 17.2618 100.7 17.0561C100.7 16.8317 100.691 16.5512 100.672 16.2145C100.672 15.8779 100.663 15.6161 100.645 15.429C100.645 15.2981 100.663 15.0831 100.7 14.7838C100.754 14.4846 100.782 14.2602 100.782 14.1106C100.782 14.0545 100.764 13.9609 100.727 13.83C100.691 13.6804 100.672 13.5682 100.672 13.4934C100.672 13.3812 100.754 12.6144 100.919 11.1931C100.974 10.8564 101.403 10.6881 102.206 10.6881C102.444 10.6881 102.654 10.7629 102.836 10.9125C103.037 11.0622 103.138 11.2585 103.138 11.5016C103.138 11.8009 103.11 12.2217 103.055 12.764C103.019 13.2877 103.001 13.6804 103.001 13.9422C103.001 14.0919 103.046 14.2415 103.138 14.3911C103.229 14.522 103.348 14.5875 103.494 14.5875C104.133 14.5875 105.119 14.5033 106.452 14.335C107.785 14.148 108.452 13.9329 108.452 13.6898C108.452 13.6337 108.443 13.5402 108.424 13.4092C108.406 13.2783 108.397 13.1755 108.397 13.1007C108.397 12.9884 108.434 12.8388 108.507 12.6518C108.58 12.4461 108.616 12.2965 108.616 12.203C108.616 12.1469 108.598 12.0721 108.561 11.9785C108.543 11.8663 108.534 11.7822 108.534 11.7261C108.534 11.5017 108.589 11.1837 108.698 10.7723C108.826 10.3608 108.89 10.0523 108.89 9.84653C108.89 9.71562 108.881 9.51925 108.863 9.25742C108.845 8.9956 108.835 8.78988 108.835 8.64026C108.835 8.13531 109.045 7.88284 109.465 7.88284C110.342 7.88284 110.917 8.15402 111.191 8.69637C111.483 9.22002 111.629 9.92134 111.629 10.8003C111.629 11.1557 111.648 11.6606 111.684 12.3152C111.739 12.9697 111.766 13.456 111.766 13.7739C111.766 13.9609 111.721 14.2508 111.629 14.6436C111.556 15.0363 111.52 15.3262 111.52 15.5132C111.52 15.6067 111.456 15.7283 111.328 15.8779C111.2 16.0275 111.136 16.1678 111.136 16.2987C111.136 16.3361 111.209 16.4015 111.356 16.495C111.52 16.5699 111.602 16.7008 111.602 16.8878C111.602 16.9065 111.584 16.9532 111.547 17.0281C111.511 17.0842 111.493 17.1403 111.493 17.1964C111.493 17.5891 111.547 18.0193 111.657 18.4868C111.766 18.9356 111.821 19.2068 111.821 19.3003C111.821 19.3377 111.803 19.4125 111.766 19.5248C111.748 19.637 111.739 19.7211 111.739 19.7772C111.739 19.8707 111.849 20.011 112.068 20.198ZM111.246 14.3911L111.301 14.4472V14.3911C111.282 14.3911 111.264 14.4004 111.246 14.4191C111.264 14.4378 111.282 14.4472 111.301 14.4472C111.337 14.4472 111.356 14.4191 111.356 14.363C111.337 14.3443 111.319 14.335 111.301 14.335L111.246 14.3911Z" fill="#78A8EF"/>
    <path d="M115.129 12.5396C115.513 11.8102 115.75 11.2772 115.842 10.9406C115.915 10.6788 116.088 10.3982 116.362 10.099C116.654 9.78108 116.928 9.5286 117.184 9.34158C117.44 9.15456 117.567 9.07976 117.567 9.11716C117.659 9.00495 117.759 8.93014 117.869 8.89274C117.997 8.83663 118.152 8.80858 118.334 8.80858C118.517 8.78988 118.645 8.77118 118.718 8.75247C118.919 8.75247 119.229 8.84598 119.649 9.033C120.087 9.22002 120.425 9.32288 120.663 9.34158C120.699 9.36028 120.781 9.41639 120.909 9.5099C121.055 9.58471 121.165 9.65016 121.238 9.70627C121.329 9.76238 121.439 9.84653 121.567 9.95874C121.713 10.071 121.822 10.1832 121.895 10.2954C121.968 10.4076 122.032 10.5479 122.087 10.7162C122.16 10.8658 122.197 11.0341 122.197 11.2211C122.197 11.7261 121.95 12.3152 121.457 12.9884C120.964 13.643 120.416 14.1854 119.814 14.6155C119.667 14.7277 119.476 14.9054 119.238 15.1485C119.019 15.3729 118.8 15.56 118.581 15.7096C118.362 15.8592 118.115 15.9527 117.841 15.9901C117.385 16.0462 117.093 16.2426 116.965 16.5792C116.837 16.8971 116.773 17.5424 116.773 18.5148C116.773 19.7679 117.074 20.3944 117.677 20.3944C117.86 20.3944 118.371 20.1139 119.211 19.5528C120.051 18.973 120.626 18.4868 120.937 18.0941C121.119 18.0193 121.375 17.8229 121.704 17.5049C122.051 17.187 122.334 17.0281 122.553 17.0281C122.681 17.0281 122.79 17.0748 122.882 17.1683C122.991 17.2618 123.046 17.3647 123.046 17.4769C123.046 17.6452 122.845 17.9538 122.443 18.4026C122.06 18.8515 121.758 19.1133 121.539 19.1881C121.411 19.2255 121.265 19.3284 121.101 19.4967C120.955 19.665 120.827 19.7679 120.718 19.8053C120.699 19.824 120.608 19.9549 120.444 20.198C120.279 20.4224 120.133 20.5814 120.005 20.6749C119.932 20.731 119.804 20.8806 119.622 21.1238C119.439 21.3669 119.229 21.582 118.992 21.769C118.754 21.9373 118.471 22.0215 118.143 22.0215C118.07 22.0215 117.933 22.0121 117.732 21.9934C117.549 21.956 117.403 21.9373 117.293 21.9373C117.257 21.9373 117.202 21.9466 117.129 21.9653C117.056 21.9653 117.001 21.9653 116.965 21.9653C116.636 21.9653 116.28 21.8344 115.896 21.5726C115.531 21.2921 115.349 21.0209 115.349 20.7591C115.349 20.6469 115.275 20.5627 115.129 20.5066C115.002 20.4318 114.938 20.3196 114.938 20.17C114.938 20.0578 114.855 19.8614 114.691 19.5809C114.527 19.2816 114.445 19.0479 114.445 18.8795L114.609 18.3185C114.7 17.9444 114.746 17.6546 114.746 17.4488C114.746 17.3553 114.673 17.1683 114.527 16.8878C114.399 16.6073 114.335 16.4296 114.335 16.3548C114.335 16.2052 114.344 15.9994 114.362 15.7376C114.399 15.4758 114.417 15.2701 114.417 15.1205C114.417 15.0831 114.408 15.027 114.39 14.9521C114.39 14.8773 114.39 14.8212 114.39 14.7838C114.426 14.709 114.481 14.5875 114.554 14.4191C114.645 14.2321 114.718 14.0825 114.773 13.9703C114.828 13.8581 114.874 13.7272 114.91 13.5776C114.965 13.4092 114.992 13.269 114.992 13.1568C114.992 13.1381 114.983 13.11 114.965 13.0726C114.965 13.0352 114.965 13.0071 114.965 12.9884C114.965 12.9323 114.992 12.8575 115.047 12.764C115.12 12.6705 115.157 12.6051 115.157 12.5677L115.129 12.5396ZM117.129 14.4472L117.348 14.335C117.494 14.2415 117.668 14.1293 117.869 13.9983C118.07 13.8674 118.289 13.7178 118.526 13.5495C118.763 13.3625 118.983 13.1848 119.184 13.0165C119.384 12.8482 119.549 12.6705 119.677 12.4835C119.823 12.2965 119.896 12.1375 119.896 12.0066C119.896 11.857 119.859 11.6326 119.786 11.3333C119.713 11.0341 119.613 10.8845 119.485 10.8845C119.339 10.8845 119.156 10.9967 118.937 11.2211C118.718 11.4455 118.49 11.7167 118.252 12.0347C118.015 12.3339 117.85 12.5209 117.759 12.5957L117.567 12.9043C117.458 13.11 117.339 13.3531 117.211 13.6337C117.083 13.8955 117.019 14.0825 117.019 14.1947C117.019 14.2508 117.056 14.335 117.129 14.4472ZM115.129 12.5396L115.184 12.5677C115.148 12.5677 115.129 12.5583 115.129 12.5396Z" fill="#78A8EF"/>
    <path d="M131.809 12.6799C131.809 12.549 131.827 12.3619 131.864 12.1188C131.918 11.8757 131.946 11.698 131.946 11.5858C131.946 11.5297 131.927 11.4455 131.891 11.3333C131.873 11.2211 131.864 11.137 131.864 11.0809C131.864 10.9873 131.882 10.8658 131.918 10.7162C131.918 10.6975 131.927 10.6133 131.946 10.4637C131.964 10.2954 131.973 10.1645 131.973 10.071C131.991 9.97745 132.019 9.85589 132.055 9.70627C132.11 9.53795 132.165 9.40704 132.22 9.31353C132.274 9.22002 132.347 9.13586 132.439 9.06106C132.53 8.98625 132.631 8.94884 132.74 8.94884C133.251 8.94884 133.635 9.07976 133.891 9.34158C134.146 9.60341 134.274 9.94004 134.274 10.3515C134.274 10.445 134.247 10.604 134.192 10.8284C134.155 11.0341 134.137 11.1931 134.137 11.3053C134.137 11.7728 134.11 12.4554 134.055 13.3531C134.018 14.2321 134 14.8867 134 15.3168C134 15.3729 134 15.4384 134 15.5132C134.018 15.588 134.028 15.6535 134.028 15.7096C134.028 15.8405 134 16.0556 133.945 16.3548C133.909 16.6353 133.891 16.8317 133.891 16.9439C133.891 17.0187 133.918 17.1309 133.973 17.2805C134.028 17.4301 134.073 17.5049 134.11 17.5049C134.256 17.5049 134.42 17.3647 134.603 17.0842C134.804 16.7849 134.932 16.6073 134.986 16.5512C135.096 16.4389 135.279 16.093 135.534 15.5132C135.808 14.9334 135.945 14.5781 135.945 14.4472C135.945 14.2976 136.064 14.1106 136.301 13.8861C136.557 13.6617 136.685 13.3812 136.685 13.0446C136.685 13.0259 136.676 12.9884 136.657 12.9323C136.657 12.8762 136.657 12.8295 136.657 12.7921C136.895 12.0253 137.479 11.0809 138.41 9.95874C138.666 9.65952 139.068 9.29483 139.616 8.86469C140.164 8.43454 140.602 8.21947 140.931 8.21947C141.004 8.21947 141.095 8.24752 141.205 8.30363C141.332 8.34103 141.433 8.38779 141.506 8.44389L141.643 8.5C142.136 8.5 142.565 8.83663 142.93 9.5099C143.296 10.1645 143.478 10.9125 143.478 11.7541C143.478 11.8289 143.46 11.9505 143.423 12.1188C143.387 12.2871 143.369 12.418 143.369 12.5116C143.369 12.6799 143.369 12.923 143.369 13.2409C143.387 13.5589 143.396 13.7926 143.396 13.9422C143.396 14.0171 143.369 14.1293 143.314 14.2789C143.259 14.4098 143.232 14.522 143.232 14.6155C143.232 14.6903 143.241 14.8212 143.259 15.0083C143.277 15.1766 143.286 15.2981 143.286 15.3729C143.286 15.56 143.232 15.8779 143.122 16.3267C143.031 16.7756 142.985 17.1122 142.985 17.3366C142.985 17.4301 143.012 17.5611 143.067 17.7294C143.122 17.8977 143.149 18.0286 143.149 18.1221C143.149 18.1782 143.14 18.2437 143.122 18.3185C143.122 18.3933 143.122 18.4494 143.122 18.4868V18.4587L143.286 19.0759C143.396 19.4873 143.469 19.6931 143.506 19.6931C143.615 19.6931 143.752 19.5061 143.916 19.132C144.081 18.758 144.245 18.3559 144.41 17.9257C144.574 17.4769 144.683 17.2057 144.738 17.1122C144.848 16.9626 145.003 16.654 145.204 16.1865C145.405 15.7002 145.615 15.3449 145.834 15.1205C146.053 14.896 146.364 14.7838 146.765 14.7838C147.021 14.7838 147.149 14.9054 147.149 15.1485C147.112 15.242 146.893 15.6254 146.491 16.2987C146.108 16.9719 145.916 17.533 145.916 17.9818L145.834 18.8234C145.834 18.9543 145.779 19.1414 145.67 19.3845C145.56 19.6089 145.505 19.7959 145.505 19.9455C145.505 20.1139 145.414 20.3757 145.231 20.731C145.049 21.0864 144.957 21.3949 144.957 21.6568C144.957 21.8999 144.775 22.115 144.41 22.302C144.063 22.4703 143.716 22.5545 143.369 22.5545C142.693 22.5545 142.109 22.1991 141.615 21.4884C141.141 20.7591 140.794 19.9175 140.575 18.9637C140.374 18.0099 140.273 17.0468 140.273 16.0743C140.273 15.4571 140.337 14.5127 140.465 13.2409C140.593 11.9505 140.657 10.978 140.657 10.3234C140.657 10.0803 140.575 9.95874 140.41 9.95874C140.374 9.95874 140.218 10.0803 139.944 10.3234C139.689 10.5479 139.506 10.6788 139.397 10.7162C139.159 10.7536 138.904 11.137 138.63 11.8663C138.356 12.577 138.073 12.951 137.78 12.9884C137.744 12.9884 137.653 13.2129 137.506 13.6617C137.36 14.0919 137.214 14.5501 137.068 15.0363C136.922 15.5038 136.813 15.775 136.739 15.8498V15.7937C136.758 15.775 136.767 15.7563 136.767 15.7376C136.767 15.7189 136.721 15.7096 136.63 15.7096L136.767 15.8498C136.639 15.9246 136.52 15.9994 136.411 16.0743C136.338 16.1491 136.21 16.3454 136.027 16.6634C135.845 16.9813 135.744 17.2338 135.726 17.4208C135.069 18.3559 134.658 19.3658 134.493 20.4505C134.365 20.6001 134.228 20.8619 134.082 21.236C133.955 21.5913 133.808 21.8625 133.644 22.0495C133.48 22.2365 133.242 22.33 132.932 22.33H132.877C132.841 22.33 132.767 22.3207 132.658 22.302C132.567 22.2646 132.475 22.2272 132.384 22.1898C132.293 22.1337 132.183 22.0682 132.055 21.9934C131.946 21.8999 131.845 21.797 131.754 21.6848C131.681 21.5539 131.608 21.3949 131.535 21.2079C131.48 21.0022 131.443 20.7778 131.425 20.5347C131.425 20.2541 131.398 19.824 131.343 19.2442C131.288 18.6645 131.261 18.225 131.261 17.9257C131.261 17.6452 131.352 17.3834 131.535 17.1403C131.498 17.2525 131.48 17.3366 131.48 17.3927C131.48 17.374 131.489 17.3366 131.507 17.2805C131.526 17.2244 131.535 17.1777 131.535 17.1403C131.425 17.0842 131.37 16.9906 131.37 16.8597C131.37 16.7849 131.37 16.7195 131.37 16.6634C131.389 16.6073 131.398 16.5699 131.398 16.5512L131.261 16.7756L131.288 16.8036C131.343 16.8036 131.37 16.6166 131.37 16.2426C131.37 16.1304 131.361 15.9059 131.343 15.5693C131.343 15.214 131.343 14.9334 131.343 14.7277C131.343 13.456 131.498 12.7734 131.809 12.6799ZM133.945 15.3449L133.836 14.896C133.763 15.0082 133.726 15.1766 133.726 15.401C133.726 15.6067 133.763 15.7376 133.836 15.7937C133.909 15.7563 133.945 15.6067 133.945 15.3449Z" fill="#78A8EF"/>
    <path d="M159.504 11.2772C159.687 11.4268 159.778 11.5952 159.778 11.7822C159.778 11.9692 159.678 12.1375 159.477 12.2871C159.276 12.4367 159.011 12.5116 158.682 12.5116C158.573 12.5116 158.408 12.4928 158.189 12.4554C157.167 12.7734 156.226 13.1942 155.368 13.7178C155.24 13.8113 155.13 13.9235 155.039 14.0545C154.966 14.1854 154.92 14.3069 154.902 14.4191C154.884 14.5127 154.866 14.6529 154.847 14.8399C154.847 15.027 154.847 15.1485 154.847 15.2046C154.829 15.3916 154.756 15.6535 154.628 15.9901C154.519 16.3267 154.464 16.6073 154.464 16.8317C154.464 16.9813 154.382 17.159 154.217 17.3647C154.071 17.5704 153.998 17.7574 153.998 17.9257C153.998 17.9631 153.998 18.0099 153.998 18.066C154.016 18.1221 154.026 18.1595 154.026 18.1782C154.026 18.5149 153.843 18.945 153.478 19.4686C153.368 19.8427 153.003 20.4037 152.382 21.1518C151.779 21.8999 151.286 22.2739 150.903 22.2739C150.848 22.2739 150.757 22.3113 150.629 22.3861C150.501 22.4609 150.355 22.5545 150.191 22.6667C150.026 22.7976 149.889 22.8911 149.78 22.9472C148.757 22.7041 148.045 22.3861 147.643 21.9934C147.205 21.4884 146.83 20.8432 146.52 20.0578C146.209 19.2536 146.054 18.5523 146.054 17.9538C146.054 17.7294 146.091 17.4114 146.164 17C146.237 16.5699 146.273 16.2613 146.273 16.0743C146.273 15.9246 146.374 15.588 146.575 15.0644C146.776 14.522 146.876 14.1386 146.876 13.9142C146.876 13.7646 146.739 13.3718 146.465 12.736C146.209 12.1001 146.082 11.6232 146.082 11.3053C146.082 9.97745 146.31 9.12651 146.766 8.75247C147.241 8.35974 147.99 8.16337 149.013 8.16337H150.273C150.802 8.16337 151.569 8.49065 152.574 9.14521C153.596 9.78108 154.217 10.5946 154.436 11.5858C154.564 12.1843 154.783 12.4835 155.094 12.4835C155.167 12.4835 155.222 12.4741 155.258 12.4554C155.423 12.3993 155.687 12.3058 156.053 12.1749C156.436 12.0253 156.728 11.9131 156.929 11.8383C157.148 11.7635 157.413 11.6793 157.724 11.5858C158.034 11.4923 158.335 11.4268 158.628 11.3894C158.92 11.3333 159.212 11.2959 159.504 11.2772ZM153.423 15.401C153.423 15.3636 153.414 15.3075 153.396 15.2327C153.396 15.1392 153.386 15.0737 153.368 15.0363C153.368 14.9802 153.359 14.9241 153.341 14.868C153.322 14.8119 153.295 14.7745 153.259 14.7558C153.222 14.7184 153.176 14.6997 153.122 14.6997C153.049 14.6997 152.939 14.7184 152.793 14.7558C151.441 15.2607 150.501 15.5132 149.971 15.5132C149.405 15.5132 149.122 16.6634 149.122 18.9637C149.122 19.3564 149.214 19.7305 149.396 20.0858C149.597 20.4411 149.844 20.6188 150.136 20.6188C150.556 20.6188 150.976 20.3383 151.396 19.7772C151.834 19.1975 152.218 18.5897 152.546 17.9538C152.875 17.2992 153.067 16.9439 153.122 16.8878C153.213 16.7382 153.313 16.2426 153.423 15.401ZM147.643 11.2211C147.716 11.8196 147.826 12.1188 147.972 12.1188C148.081 12.1188 148.2 12.0253 148.328 11.8383C148.474 11.6326 148.611 11.5297 148.739 11.5297L148.958 11.5858C149.104 11.6232 149.287 11.6793 149.506 11.7541C149.725 11.8289 149.944 11.9131 150.163 12.0066C150.382 12.1001 150.565 12.2217 150.711 12.3713C150.875 12.5022 150.958 12.6425 150.958 12.7921C150.958 12.8669 150.93 12.9604 150.875 13.0726C150.839 13.1848 150.775 13.3157 150.684 13.4653C150.611 13.5963 150.565 13.6898 150.547 13.7459C150.547 13.8581 150.583 13.9422 150.656 13.9983C150.729 14.0358 150.793 14.0545 150.848 14.0545C151.305 14.0545 151.807 13.9516 152.355 13.7459C152.921 13.5215 153.204 13.2503 153.204 12.9323C153.204 12.1469 152.784 11.3146 151.944 10.4356C151.122 9.55665 150.309 9.11716 149.506 9.11716C148.94 9.11716 148.483 9.33223 148.136 9.76238C147.807 10.1925 147.643 10.6788 147.643 11.2211Z" fill="#78A8EF"/>
    <path d="M156.256 32.2327C156.073 31.8399 155.982 31.2695 155.982 30.5215C155.982 29.1001 156.064 28.2772 156.228 28.0528C156.356 27.8658 156.456 27.5292 156.529 27.0429C156.603 26.5567 156.73 26.2481 156.913 26.1172C156.986 26.0611 157.123 25.6029 157.324 24.7426C157.525 23.901 157.762 23.4428 158.036 23.368C158.273 23.2745 158.438 23.0688 158.529 22.7508C158.584 22.5077 158.812 22.2178 159.214 21.8812C159.616 21.5446 159.853 21.2921 159.926 21.1238C159.981 20.9928 160.145 20.8058 160.419 20.5627C160.711 20.3009 160.894 20.0671 160.967 19.8614C161.022 19.8053 161.241 19.637 161.625 19.3564C162.026 19.0759 162.382 18.8047 162.693 18.5429C163.003 18.2811 163.159 18.0941 163.159 17.9818C163.104 17.1964 162.967 16.8036 162.748 16.8036C162.51 16.9719 162.273 17.2992 162.035 17.7855C161.798 18.253 161.561 18.5523 161.323 18.6832C161.232 18.7206 161.131 18.8515 161.022 19.0759C160.912 19.3003 160.766 19.4125 160.584 19.4125C160.036 19.4125 159.597 19.2536 159.269 18.9356C158.958 18.6177 158.803 18.3372 158.803 18.0941C158.803 17.7948 158.958 17.2525 159.269 16.467C159.415 16.1117 159.661 15.8031 160.008 15.5413C160.374 15.2794 160.721 15.027 161.049 14.7838C161.378 14.5407 161.597 14.2415 161.707 13.8861L161.871 13.6337C161.981 13.4653 162.081 13.2596 162.172 13.0165C162.282 12.7734 162.337 12.5303 162.337 12.2871C162.319 12.2123 162.309 12.0814 162.309 11.8944C162.309 11.7635 162.319 11.5484 162.337 11.2492C162.373 10.9499 162.392 10.7255 162.392 10.5759C162.392 9.99615 162.227 9.70627 161.899 9.70627C161.515 9.76238 161.314 9.79043 161.296 9.79043C160.949 9.79043 160.657 9.99615 160.419 10.4076C160.182 10.8003 159.999 11.2398 159.871 11.7261C159.762 12.2123 159.588 12.6612 159.351 13.0726C159.132 13.4653 158.867 13.6617 158.557 13.6617C158.21 13.6617 157.853 13.5682 157.488 13.3812C157.123 13.1755 156.94 12.923 156.94 12.6238C156.94 11.9879 157.16 11.3053 157.598 10.5759C158.054 9.84653 158.584 9.20132 159.187 8.64026C159.387 8.60286 159.671 8.5374 160.036 8.44389C160.419 8.35038 160.739 8.28493 160.995 8.24753C161.25 8.21012 161.524 8.19142 161.816 8.19142C162.62 8.19142 163.305 8.45324 163.871 8.9769C163.962 9.0517 164.035 9.15456 164.09 9.28548C164.145 9.41639 164.181 9.5286 164.2 9.62211C164.218 9.71562 164.236 9.77173 164.254 9.79043C164.51 10.071 164.638 10.4263 164.638 10.8564C164.638 11.0809 164.62 11.324 164.583 11.5858C164.546 11.8289 164.501 12.0347 164.446 12.203C164.41 12.3713 164.346 12.6144 164.254 12.9323C164.181 13.2316 164.126 13.456 164.09 13.6056C164.072 13.6617 164.008 13.7646 163.898 13.9142C163.807 14.0451 163.761 14.1854 163.761 14.335C163.761 14.4659 163.843 14.6155 164.008 14.7838C164.227 14.896 164.446 15.1018 164.665 15.401C164.884 15.7002 165.067 15.9714 165.213 16.2145C165.377 16.4576 165.496 16.5792 165.569 16.5792C165.715 16.5792 165.989 16.5044 166.391 16.3548C166.811 16.2052 167.103 16.1304 167.268 16.1304C167.322 16.1304 167.405 16.1397 167.514 16.1584C167.624 16.1771 167.697 16.1865 167.733 16.1865C167.806 16.1865 167.898 16.1771 168.007 16.1584C168.117 16.1397 168.208 16.1304 168.281 16.1304C168.573 16.1304 168.719 16.2893 168.719 16.6073C168.628 16.8878 168.409 17.1403 168.062 17.3647C167.715 17.5704 167.359 17.7387 166.994 17.8696C166.628 18.0005 166.3 18.2063 166.007 18.4868C165.715 18.7673 165.569 19.1133 165.569 19.5248C165.569 19.5622 165.569 19.6183 165.569 19.6931C165.587 19.7492 165.597 19.7959 165.597 19.8333C165.597 20.3383 165.496 21.1331 165.295 22.2178C165.113 23.3025 165.012 23.8916 164.994 23.9851C164.976 24.0787 164.921 24.2189 164.83 24.4059C164.757 24.593 164.72 24.7239 164.72 24.7987C164.72 24.8361 164.72 24.8828 164.72 24.9389C164.738 25.0137 164.747 25.0605 164.747 25.0792C164.747 25.3971 164.592 25.8647 164.282 26.4818C163.99 27.099 163.843 27.4637 163.843 27.5759C163.843 27.819 163.597 28.352 163.104 29.1749C162.611 30.0165 162.3 30.6243 162.172 30.9983C162.118 31.0919 161.981 31.2695 161.762 31.5314C161.542 31.7932 161.405 32.0082 161.351 32.1766C161.332 32.2327 161.223 32.3168 161.022 32.429C160.839 32.5413 160.721 32.6628 160.666 32.7937C160.538 33.0556 160.291 33.2613 159.926 33.4109C159.561 33.5605 159.26 33.6353 159.022 33.6353C158.785 33.6353 158.575 33.6166 158.392 33.5792C158.21 33.5418 158.018 33.467 157.817 33.3548C157.616 33.2426 157.461 33.1491 157.351 33.0743C157.242 32.9994 157.059 32.8592 156.803 32.6535C156.548 32.4664 156.365 32.3262 156.256 32.2327ZM157.981 30.269V30.5776C157.981 31.2695 158.182 31.6155 158.584 31.6155C158.657 31.6155 158.894 31.5033 159.296 31.2789C159.698 31.0545 160.154 30.6898 160.666 30.1848C161.177 29.6986 161.515 29.1749 161.679 28.6139C161.716 28.5204 161.789 28.3894 161.899 28.2211C162.026 28.0528 162.09 27.8938 162.09 27.7442C162.09 27.7068 162.081 27.6601 162.063 27.604C162.063 27.5479 162.063 27.5105 162.063 27.4917C162.063 27.4169 162.172 27.1271 162.392 26.6221C162.629 26.1359 162.766 25.7618 162.802 25.5C162.821 25.3878 162.885 25.2475 162.994 25.0792C163.122 24.9109 163.186 24.7706 163.186 24.6584C163.186 24.621 163.177 24.5743 163.159 24.5182C163.159 24.462 163.159 24.4153 163.159 24.3779C163.159 24.06 163.204 23.5831 163.296 22.9472C163.387 22.3113 163.433 21.8438 163.433 21.5446C163.433 20.9648 163.332 20.6749 163.131 20.6749C163.058 20.6749 162.547 21.1612 161.597 22.1337C161.415 22.4142 161.131 22.8163 160.748 23.3399C160.364 23.8823 160.027 24.3779 159.734 24.8267C159.461 25.2943 159.251 25.7431 159.104 26.1733C159.05 26.3603 158.913 26.725 158.694 27.2673C158.474 27.8284 158.31 28.2959 158.2 28.67C158.091 29.044 158.036 29.3713 158.036 29.6518C158.036 29.7079 158.027 29.7547 158.009 29.7921C158.009 29.8482 158 29.9136 157.981 29.9884C157.981 30.0633 157.981 30.1568 157.981 30.269Z" fill="#78A8EF"/>
    <path d="M179.689 15.7937C179.707 15.8498 179.744 15.934 179.798 16.0462C179.853 16.1584 179.899 16.2519 179.935 16.3267C179.826 16.4015 179.661 16.5044 179.442 16.6353C179.241 16.7475 179.05 16.8597 178.867 16.9719C178.684 17.0842 178.529 17.2057 178.401 17.3366C178.146 17.3366 177.78 17.5798 177.306 18.066C176.831 18.5336 176.593 19.0666 176.593 19.665C176.593 19.7024 176.593 19.7398 176.593 19.7772C176.612 19.8146 176.621 19.8427 176.621 19.8614C176.621 19.9549 176.603 20.0391 176.566 20.1139C176.146 20.7684 175.936 21.3108 175.936 21.7409C175.936 21.8344 175.936 21.9653 175.936 22.1337C175.954 22.2833 175.963 22.3955 175.963 22.4703C175.963 23.3306 175.826 24.1535 175.552 24.9389C175.479 25.0699 175.415 25.2849 175.361 25.5842C175.324 25.9021 175.26 26.1265 175.169 26.2574C175.096 26.3509 175.041 26.538 175.005 26.8185C174.986 27.099 174.941 27.2673 174.868 27.3234C174.703 27.4543 174.594 27.6788 174.539 27.9967C174.484 28.3333 174.438 28.5204 174.402 28.5578C174.256 28.6326 174.165 28.7261 174.128 28.8383C174.091 28.9505 174.064 29.0814 174.046 29.231C174.046 29.3993 174.028 29.5303 173.991 29.6238C174.009 29.6051 174.028 29.5957 174.046 29.5957L173.279 30.7739C173.279 31.1106 173.242 31.3256 173.169 31.4191C173.114 31.5126 172.95 31.6062 172.676 31.6997C172.676 32.1672 172.548 32.56 172.293 32.8779C172.055 33.2145 171.754 33.4576 171.389 33.6073C171.023 33.7569 170.695 33.8597 170.403 33.9158C170.129 33.9719 169.9 34 169.718 34C169.334 34 168.85 33.7849 168.266 33.3548C167.7 32.9433 167.417 32.4477 167.417 31.868C167.417 31.5501 167.444 31.0919 167.499 30.4934C167.572 29.8949 167.608 29.4648 167.608 29.203C167.608 28.9224 167.745 28.4175 168.019 27.6881C168.312 26.9587 168.476 26.3977 168.512 26.005C168.531 25.7431 168.677 25.3971 168.951 24.967C169.225 24.5369 169.362 24.3031 169.362 24.2657C169.416 23.8916 169.727 23.3586 170.293 22.6667C171.078 21.6194 171.763 20.7591 172.347 20.0858C172.421 20.011 172.567 19.9175 172.786 19.8053C173.005 19.6744 173.151 19.5341 173.224 19.3845C173.315 19.1601 173.489 18.9356 173.744 18.7112C174 18.4681 174.238 18.2717 174.457 18.1221C174.694 17.9538 174.904 17.7481 175.087 17.5049C175.269 17.2431 175.361 16.9719 175.361 16.6914C175.361 16.5605 175.425 16.2239 175.552 15.6815C175.68 15.1392 175.744 14.7932 175.744 14.6436C175.744 14.5875 175.735 14.5033 175.717 14.3911C175.699 14.2602 175.689 14.1573 175.689 14.0825C175.689 13.9329 175.717 13.6804 175.772 13.3251C175.826 12.9697 175.854 12.7173 175.854 12.5677C175.854 12.5116 175.799 12.4835 175.689 12.4835C175.543 12.5022 175.342 12.6331 175.087 12.8762C174.849 13.1194 174.639 13.269 174.457 13.3251C174.365 13.3625 174.21 13.484 173.991 13.6898C173.772 13.8955 173.662 14.0732 173.662 14.2228C173.662 14.5968 173.407 14.7932 172.895 14.8119C172.877 14.9054 172.831 15.0457 172.758 15.2327C172.685 15.4197 172.567 15.6348 172.402 15.8779C172.238 16.1023 172.083 16.2145 171.937 16.2145C171.827 16.2145 171.663 16.4109 171.443 16.8036C171.224 17.1964 171.097 17.5143 171.06 17.7574C171.005 18.1128 170.813 18.3933 170.485 18.599C170.156 18.786 169.809 18.8795 169.444 18.8795C169.115 18.8795 168.859 18.8608 168.677 18.8234C168.494 18.786 168.257 18.6832 167.965 18.5148C167.672 18.3465 167.453 18.0286 167.307 17.5611C167.161 17.0935 167.088 16.4857 167.088 15.7376C167.088 15.4197 167.152 15.0082 167.28 14.5033C167.426 13.9983 167.499 13.6337 167.499 13.4092C167.608 13.2035 167.745 12.9043 167.91 12.5116C168.092 12.1188 168.238 11.8289 168.348 11.6419C168.458 11.4362 168.659 11.1744 168.951 10.8564C169.261 10.5198 169.645 10.1925 170.101 9.87459C171.124 9.12651 171.973 8.75247 172.649 8.75247C173.306 8.75247 173.891 8.87404 174.402 9.11716C174.932 9.36029 175.196 9.69692 175.196 10.1271C175.196 10.5011 175.05 10.6881 174.758 10.6881C174.612 10.6881 174.365 10.5946 174.018 10.4076C173.69 10.2019 173.452 10.099 173.306 10.099C173.16 10.099 173.005 10.1271 172.841 10.1832C172.658 10.2767 172.384 10.445 172.019 10.6881C171.672 10.9312 171.252 11.2679 170.759 11.698C170.266 12.1282 169.836 12.6518 169.471 13.269C169.124 13.8674 168.951 14.4659 168.951 15.0644C168.951 15.0831 168.951 15.1298 168.951 15.2046C168.969 15.2794 168.978 15.3355 168.978 15.3729C168.978 15.4851 168.951 15.6628 168.896 15.9059C168.841 16.1491 168.814 16.3454 168.814 16.495C168.814 16.9626 168.914 17.1964 169.115 17.1964C169.225 17.1964 169.407 17.0655 169.663 16.8036C169.937 16.5231 170.247 16.1958 170.594 15.8218C170.96 15.4477 171.243 15.1766 171.443 15.0083C172.083 14.8212 172.521 14.4098 172.758 13.7739C172.831 13.6243 172.923 13.5215 173.032 13.4653C173.398 13.297 173.69 12.9697 173.909 12.4835C173.964 12.3713 174.11 12.2497 174.347 12.1188C174.585 11.9879 174.731 11.8289 174.785 11.6419C174.785 11.5484 174.895 11.4362 175.114 11.3053C175.352 11.1744 175.489 11.0622 175.525 10.9686C175.598 10.7442 175.772 10.5385 176.046 10.3515C176.319 10.1645 176.575 10.071 176.813 10.071C177.36 10.071 177.735 10.1645 177.936 10.3515C178.137 10.5198 178.237 10.8377 178.237 11.3053C178.237 11.7167 178.155 12.2871 177.99 13.0165C177.826 13.7272 177.726 14.2321 177.689 14.5314C177.671 14.6623 177.607 14.8493 177.497 15.0924C177.388 15.3355 177.333 15.4758 177.333 15.5132C177.333 15.7002 177.516 15.7937 177.881 15.7937C177.972 15.7937 178.164 15.7376 178.456 15.6254C178.748 15.5132 178.958 15.4571 179.086 15.4571C179.324 15.4571 179.524 15.5693 179.689 15.7937ZM174.785 23.6205C174.822 23.5457 174.84 23.4895 174.84 23.4521C174.84 23.3212 174.758 23.1903 174.594 23.0594C174.448 22.9285 174.375 22.8256 174.375 22.7508L174.676 21.7129C174.658 21.6755 174.648 21.61 174.648 21.5165C174.648 21.423 174.712 21.1799 174.84 20.7871C174.84 20.6562 174.776 20.5908 174.648 20.5908C174.612 20.5908 174.585 20.6001 174.566 20.6188C174.183 20.9367 173.735 21.4604 173.224 22.1898C172.731 22.9004 172.32 23.396 171.991 23.6766C171.827 23.8262 171.663 24.0787 171.498 24.434C171.352 24.808 171.224 25.0605 171.115 25.1914C170.804 25.6029 170.457 26.3322 170.074 27.3795C169.69 28.4268 169.499 29.2591 169.499 29.8762C169.48 29.9697 169.426 30.1287 169.334 30.3531C169.261 30.5776 169.225 30.7552 169.225 30.8861C169.225 31.8399 169.398 32.3168 169.745 32.3168C170.074 32.3168 170.339 32.2233 170.54 32.0363C170.613 31.9241 170.813 31.7184 171.142 31.4191C171.471 31.1199 171.745 30.8207 171.964 30.5215C172.201 30.2409 172.32 29.9884 172.32 29.764C172.32 29.6705 172.439 29.4087 172.676 28.9785C172.914 28.5484 173.051 28.2211 173.087 27.9967C173.087 27.978 173.206 27.8284 173.443 27.5479C173.699 27.2673 173.827 27.0803 173.827 26.9868C173.827 26.9494 173.799 26.9026 173.744 26.8465C173.708 26.8091 173.644 26.7624 173.553 26.7063C173.48 26.6689 173.425 26.6408 173.388 26.6221C173.407 26.6034 173.489 26.4164 173.635 26.0611C173.781 25.7057 173.927 25.313 174.073 24.8828C174.238 24.4714 174.32 24.2096 174.32 24.0974C174.32 24.0413 174.311 23.9758 174.292 23.901C174.292 23.8449 174.292 23.8075 174.292 23.7888C174.292 23.7327 174.329 23.6485 174.402 23.5363C174.438 23.5363 174.484 23.5644 174.539 23.6205C174.612 23.6766 174.658 23.7046 174.676 23.7046C174.694 23.7046 174.731 23.6766 174.785 23.6205Z" fill="#78A8EF"/>
    <path d="M192.187 20.198C192.187 20.2167 192.196 20.2915 192.214 20.4224C192.233 20.5347 192.242 20.6188 192.242 20.6749C192.26 20.731 192.278 20.8245 192.297 20.9554C192.315 21.0864 192.342 21.1892 192.379 21.264C192.415 21.3201 192.452 21.3856 192.488 21.4604C192.543 21.5352 192.598 21.5913 192.653 21.6287C192.726 21.6661 192.808 21.6848 192.899 21.6848C193.027 21.6848 193.246 21.582 193.557 21.3762C193.885 21.1518 194.105 21.0396 194.214 21.0396C194.269 21.0396 194.324 21.0677 194.379 21.1238C194.433 21.1612 194.461 21.2079 194.461 21.264C194.461 21.4697 194.442 21.6661 194.406 21.8531C194.388 22.0215 194.333 22.1898 194.242 22.3581C194.169 22.5264 194.105 22.6573 194.05 22.7508C193.995 22.8443 193.895 22.9846 193.749 23.1716C193.621 23.3773 193.529 23.5176 193.475 23.5924C193.42 23.6111 193.347 23.6111 193.255 23.5924C193.164 23.5924 193.082 23.6018 193.009 23.6205C192.954 23.6392 192.908 23.6859 192.872 23.7607C192.397 24.1348 191.895 24.3218 191.365 24.3218C190.69 24.3218 190.324 24.1815 190.27 23.901C190.251 23.6953 190.096 23.4428 189.804 23.1436C189.53 22.8443 189.384 22.5732 189.366 22.33C189.347 22.1804 189.247 21.9653 189.064 21.6848C188.9 21.4043 188.818 21.1892 188.818 21.0396C188.818 20.9461 188.845 20.8619 188.9 20.7871C188.809 20.4879 188.745 20.1326 188.708 19.7211C188.69 19.3097 188.672 19.0479 188.653 18.9356C188.653 18.8421 188.699 18.7206 188.79 18.571C188.882 18.4213 188.927 18.3091 188.927 18.2343C188.927 18.1782 188.845 18.1221 188.681 18.066C188.535 18.0099 188.462 17.9444 188.462 17.8696C188.462 17.8135 188.471 17.7387 188.489 17.6452C188.526 17.533 188.544 17.4582 188.544 17.4208C188.544 17.3086 188.507 17.1216 188.434 16.8597C188.361 16.5979 188.325 16.4015 188.325 16.2706C188.325 15.6161 188.042 15.2888 187.475 15.2888C187.165 15.2888 186.517 15.3542 185.531 15.4851C183.869 15.7844 183.038 16.0369 183.038 16.2426C183.038 16.3174 183.038 16.4389 183.038 16.6073C183.056 16.7756 183.065 16.9065 183.065 17C183.065 17.1122 183.047 17.2992 183.01 17.5611C182.974 17.8229 182.956 18.0193 182.956 18.1502C182.956 18.225 182.965 18.3278 182.983 18.4587C183.02 18.5897 183.038 18.6925 183.038 18.7673C183.038 18.9356 182.892 19.1227 182.6 19.3284C182.326 19.5341 182.088 19.637 181.887 19.637C181.741 19.637 181.604 19.5996 181.476 19.5248C181.367 19.4312 181.276 19.291 181.202 19.104C181.129 18.9169 181.066 18.7299 181.011 18.5429C180.956 18.3559 180.91 18.1128 180.874 17.8135C180.855 17.5143 180.837 17.2618 180.819 17.0561C180.819 16.8317 180.81 16.5512 180.792 16.2145C180.792 15.8779 180.782 15.6161 180.764 15.429C180.764 15.2981 180.782 15.0831 180.819 14.7838C180.874 14.4846 180.901 14.2602 180.901 14.1106C180.901 14.0545 180.883 13.9609 180.846 13.83C180.81 13.6804 180.792 13.5682 180.792 13.4934C180.792 13.3812 180.874 12.6144 181.038 11.1931C181.093 10.8564 181.522 10.6881 182.326 10.6881C182.563 10.6881 182.773 10.7629 182.956 10.9125C183.157 11.0622 183.257 11.2585 183.257 11.5016C183.257 11.8009 183.23 12.2217 183.175 12.764C183.138 13.2877 183.12 13.6804 183.12 13.9422C183.12 14.0919 183.166 14.2415 183.257 14.3911C183.348 14.522 183.467 14.5875 183.613 14.5875C184.252 14.5875 185.238 14.5033 186.572 14.335C187.905 14.148 188.571 13.9329 188.571 13.6898C188.571 13.6337 188.562 13.5402 188.544 13.4092C188.526 13.2783 188.516 13.1755 188.516 13.1007C188.516 12.9884 188.553 12.8388 188.626 12.6518C188.699 12.4461 188.736 12.2965 188.736 12.203C188.736 12.1469 188.717 12.0721 188.681 11.9785C188.663 11.8663 188.653 11.7822 188.653 11.7261C188.653 11.5017 188.708 11.1837 188.818 10.7723C188.946 10.3608 189.009 10.0523 189.009 9.84653C189.009 9.71562 189 9.51925 188.982 9.25742C188.964 8.9956 188.955 8.78988 188.955 8.64026C188.955 8.13531 189.165 7.88284 189.585 7.88284C190.461 7.88284 191.037 8.15402 191.311 8.69637C191.603 9.22002 191.749 9.92134 191.749 10.8003C191.749 11.1557 191.767 11.6606 191.804 12.3152C191.858 12.9697 191.886 13.456 191.886 13.7739C191.886 13.9609 191.84 14.2508 191.749 14.6436C191.676 15.0363 191.639 15.3262 191.639 15.5132C191.639 15.6067 191.575 15.7283 191.447 15.8779C191.32 16.0275 191.256 16.1678 191.256 16.2987C191.256 16.3361 191.329 16.4015 191.475 16.495C191.639 16.5699 191.721 16.7008 191.721 16.8878C191.721 16.9065 191.703 16.9532 191.667 17.0281C191.63 17.0842 191.612 17.1403 191.612 17.1964C191.612 17.5891 191.667 18.0193 191.776 18.4868C191.886 18.9356 191.941 19.2068 191.941 19.3003C191.941 19.3377 191.922 19.4125 191.886 19.5248C191.868 19.637 191.858 19.7211 191.858 19.7772C191.858 19.8707 191.968 20.011 192.187 20.198ZM191.365 14.3911L191.42 14.4472V14.3911C191.402 14.3911 191.384 14.4004 191.365 14.4191C191.384 14.4378 191.402 14.4472 191.42 14.4472C191.457 14.4472 191.475 14.4191 191.475 14.363C191.457 14.3443 191.438 14.335 191.42 14.335L191.365 14.3911Z" fill="#78A8EF"/>
    <path d="M208.726 11.2772C208.909 11.4268 209 11.5952 209 11.7822C209 11.9692 208.9 12.1375 208.699 12.2871C208.498 12.4367 208.233 12.5116 207.904 12.5116C207.795 12.5116 207.63 12.4928 207.411 12.4554C206.389 12.7734 205.448 13.1942 204.59 13.7178C204.462 13.8113 204.352 13.9235 204.261 14.0545C204.188 14.1854 204.142 14.3069 204.124 14.4191C204.106 14.5127 204.088 14.6529 204.069 14.8399C204.069 15.027 204.069 15.1485 204.069 15.2046C204.051 15.3916 203.978 15.6535 203.85 15.9901C203.741 16.3267 203.686 16.6073 203.686 16.8317C203.686 16.9813 203.604 17.159 203.439 17.3647C203.293 17.5704 203.22 17.7574 203.22 17.9257C203.22 17.9631 203.22 18.0099 203.22 18.066C203.238 18.1221 203.247 18.1595 203.247 18.1782C203.247 18.5149 203.065 18.945 202.7 19.4686C202.59 19.8427 202.225 20.4037 201.604 21.1518C201.001 21.8999 200.508 22.2739 200.125 22.2739C200.07 22.2739 199.979 22.3113 199.851 22.3861C199.723 22.4609 199.577 22.5545 199.412 22.6667C199.248 22.7976 199.111 22.8911 199.002 22.9472C197.979 22.7041 197.267 22.3861 196.865 21.9934C196.427 21.4884 196.052 20.8432 195.742 20.0578C195.431 19.2536 195.276 18.5523 195.276 17.9538C195.276 17.7294 195.313 17.4114 195.386 17C195.459 16.5699 195.495 16.2613 195.495 16.0743C195.495 15.9246 195.596 15.588 195.797 15.0644C195.997 14.522 196.098 14.1386 196.098 13.9142C196.098 13.7646 195.961 13.3718 195.687 12.736C195.431 12.1001 195.303 11.6232 195.303 11.3053C195.303 9.97745 195.532 9.12651 195.988 8.75247C196.463 8.35974 197.212 8.16337 198.235 8.16337H199.495C200.024 8.16337 200.791 8.49065 201.796 9.14521C202.818 9.78108 203.439 10.5946 203.658 11.5858C203.786 12.1843 204.005 12.4835 204.316 12.4835C204.389 12.4835 204.444 12.4741 204.48 12.4554C204.645 12.3993 204.909 12.3058 205.275 12.1749C205.658 12.0253 205.95 11.9131 206.151 11.8383C206.37 11.7635 206.635 11.6793 206.946 11.5858C207.256 11.4923 207.557 11.4268 207.849 11.3894C208.142 11.3333 208.434 11.2959 208.726 11.2772ZM202.645 15.401C202.645 15.3636 202.636 15.3075 202.617 15.2327C202.617 15.1392 202.608 15.0737 202.59 15.0363C202.59 14.9802 202.581 14.9241 202.563 14.868C202.544 14.8119 202.517 14.7745 202.48 14.7558C202.444 14.7184 202.398 14.6997 202.343 14.6997C202.27 14.6997 202.161 14.7184 202.015 14.7558C200.663 15.2607 199.723 15.5132 199.193 15.5132C198.627 15.5132 198.344 16.6634 198.344 18.9637C198.344 19.3564 198.435 19.7305 198.618 20.0858C198.819 20.4411 199.065 20.6188 199.358 20.6188C199.778 20.6188 200.198 20.3383 200.618 19.7772C201.056 19.1975 201.44 18.5897 201.768 17.9538C202.097 17.2992 202.289 16.9439 202.343 16.8878C202.435 16.7382 202.535 16.2426 202.645 15.401ZM196.865 11.2211C196.938 11.8196 197.048 12.1188 197.194 12.1188C197.303 12.1188 197.422 12.0253 197.55 11.8383C197.696 11.6326 197.833 11.5297 197.961 11.5297L198.18 11.5858C198.326 11.6232 198.508 11.6793 198.728 11.7541C198.947 11.8289 199.166 11.9131 199.385 12.0066C199.604 12.1001 199.787 12.2217 199.933 12.3713C200.097 12.5022 200.179 12.6425 200.179 12.7921C200.179 12.8669 200.152 12.9604 200.097 13.0726C200.061 13.1848 199.997 13.3157 199.906 13.4653C199.832 13.5963 199.787 13.6898 199.769 13.7459C199.769 13.8581 199.805 13.9422 199.878 13.9983C199.951 14.0358 200.015 14.0545 200.07 14.0545C200.526 14.0545 201.029 13.9516 201.576 13.7459C202.143 13.5215 202.426 13.2503 202.426 12.9323C202.426 12.1469 202.006 11.3146 201.166 10.4356C200.344 9.55665 199.531 9.11716 198.728 9.11716C198.161 9.11716 197.705 9.33223 197.358 9.76238C197.029 10.1925 196.865 10.6788 196.865 11.2211Z" fill="#78A8EF"/>
</svg>
