<svg width="378" height="33" viewBox="0 0 378 33" fill="none" xmlns="http://www.w3.org/2000/svg">
    <path d="M24.1197 27H18.8797V16.04H5.99969V27H0.759688V0.439999H5.99969V11.36H18.8797V0.439999H24.1197V27ZM44.2909 8H49.3309V27H44.2909V14.96L35.1309 27H30.0909V8H35.1309V20.04L44.2909 8ZM55.0909 8H60.1309V15.36L67.8909 8H74.8909L64.6509 17.52L74.8509 27H67.8909L60.1309 20.08V27H55.0909V8ZM79.47 10.36C81.4433 8.44 83.91 7.48 86.87 7.48C89.83 7.48 92.2833 8.44 94.23 10.36C96.2033 12.2533 97.19 14.64 97.19 17.52C97.19 20.3733 96.2033 22.76 94.23 24.68C92.2833 26.5733 89.83 27.52 86.87 27.52C83.91 27.52 81.4433 26.5733 79.47 24.68C77.5233 22.76 76.55 20.3733 76.55 17.52C76.55 14.64 77.5233 12.2533 79.47 10.36ZM90.63 13.64C89.6433 12.6267 88.39 12.12 86.87 12.12C85.35 12.12 84.0833 12.6267 83.07 13.64C82.0833 14.6533 81.59 15.9467 81.59 17.52C81.59 19.0933 82.0833 20.3867 83.07 21.4C84.0833 22.3867 85.35 22.88 86.87 22.88C88.39 22.88 89.6433 22.3867 90.63 21.4C91.6433 20.3867 92.15 19.0933 92.15 17.52C92.15 15.9467 91.6433 14.6533 90.63 13.64ZM116.968 8V12.4H106.928V27H101.888V8H116.968ZM142.058 32.04H137.298V27H122.898V32.04H118.138V22.6H120.698C121.871 21.24 122.458 19.0133 122.458 15.92V8H138.858V22.6H142.058V32.04ZM127.497 12.4V15.88C127.497 18.7333 127.138 20.9733 126.418 22.6H133.818V12.4H127.497ZM154.46 7.48C157.367 7.48 159.687 8.16 161.42 9.52C163.18 10.88 164.06 12.7733 164.06 15.2V27H159.02V25.56C157.713 26.8667 155.66 27.52 152.86 27.52C150.513 27.52 148.673 26.96 147.34 25.84C146.033 24.72 145.38 23.1333 145.38 21.08C145.38 18.8933 146.22 17.3467 147.9 16.44C149.607 15.5067 151.753 15.04 154.34 15.04H159.02C159.02 14 158.607 13.2267 157.78 12.72C156.953 12.2133 155.887 11.96 154.58 11.96C152.26 11.96 150.78 12.72 150.14 14.24H144.94C145.447 12.0267 146.58 10.3467 148.34 9.2C150.127 8.05333 152.167 7.48 154.46 7.48ZM159.02 19.6V18.8H154.34C151.727 18.8 150.42 19.5733 150.42 21.12C150.42 21.8133 150.713 22.3867 151.3 22.84C151.913 23.2667 152.767 23.48 153.86 23.48C155.3 23.48 156.513 23.1467 157.5 22.48C158.513 21.7867 159.02 20.8267 159.02 19.6ZM192.064 8H197.104V27H192.064V19.6H182.904V27H177.864V8H182.904V15.2H192.064V8ZM215.984 21.24H221.424C220.678 23.16 219.451 24.6933 217.744 25.84C216.038 26.96 214.144 27.52 212.064 27.52C209.104 27.52 206.651 26.5733 204.704 24.68C202.758 22.76 201.784 20.36 201.784 17.48C201.784 14.6267 202.731 12.2533 204.624 10.36C206.518 8.44 208.931 7.48 211.864 7.48C214.771 7.48 217.144 8.42667 218.984 10.32C220.824 12.2133 221.744 14.5733 221.744 17.4C221.744 18.28 221.718 18.8667 221.664 19.16H207.024C207.291 20.3067 207.878 21.2133 208.784 21.88C209.718 22.5467 210.811 22.88 212.064 22.88C213.798 22.88 215.104 22.3333 215.984 21.24ZM207.144 15.4H216.384C216.224 14.3067 215.731 13.44 214.904 12.8C214.078 12.1333 213.064 11.8 211.864 11.8C210.691 11.8 209.651 12.1333 208.744 12.8C207.838 13.4667 207.304 14.3333 207.144 15.4ZM234.818 8H253.778V27H248.738V12.4H239.858V27H234.818V8ZM261.384 10.36C263.357 8.44 265.824 7.48 268.784 7.48C271.744 7.48 274.197 8.44 276.144 10.36C278.117 12.2533 279.104 14.64 279.104 17.52C279.104 20.3733 278.117 22.76 276.144 24.68C274.197 26.5733 271.744 27.52 268.784 27.52C265.824 27.52 263.357 26.5733 261.384 24.68C259.437 22.76 258.464 20.3733 258.464 17.52C258.464 14.64 259.437 12.2533 261.384 10.36ZM272.544 13.64C271.557 12.6267 270.304 12.12 268.784 12.12C267.264 12.12 265.997 12.6267 264.984 13.64C263.997 14.6533 263.504 15.9467 263.504 17.52C263.504 19.0933 263.997 20.3867 264.984 21.4C265.997 22.3867 267.264 22.88 268.784 22.88C270.304 22.88 271.557 22.3867 272.544 21.4C273.557 20.3867 274.064 19.0933 274.064 17.52C274.064 15.9467 273.557 14.6533 272.544 13.64ZM299.522 17.4C300.829 18.3067 301.482 19.5867 301.482 21.24C301.482 23.1067 300.655 24.6267 299.002 25.8C297.375 26.9467 295.175 27.52 292.402 27.52C286.802 27.52 283.522 25.3467 282.562 21H287.922C288.535 22.5733 290.082 23.36 292.562 23.36C293.655 23.36 294.562 23.1467 295.282 22.72C296.002 22.2933 296.362 21.76 296.362 21.12C296.362 20.56 296.149 20.1333 295.722 19.84C295.295 19.5467 294.722 19.4 294.002 19.4H289.602V15.56H293.842C294.562 15.56 295.135 15.4 295.562 15.08C296.015 14.76 296.242 14.3333 296.242 13.8C296.242 13.16 295.909 12.64 295.242 12.24C294.575 11.84 293.695 11.64 292.602 11.64C290.362 11.64 288.869 12.2933 288.122 13.6H282.762C283.269 11.68 284.335 10.1867 285.962 9.12C287.615 8.02667 289.789 7.48 292.482 7.48C293.895 7.48 295.229 7.68 296.482 8.08C297.762 8.45333 298.882 9.13333 299.842 10.12C300.802 11.1067 301.282 12.32 301.282 13.76C301.282 15.3067 300.695 16.52 299.522 17.4ZM328.62 32.04H323.86V27H309.46V32.04H304.7V22.6H307.26C308.433 21.24 309.02 19.0133 309.02 15.92V8H325.42V22.6H328.62V32.04ZM314.06 12.4V15.88C314.06 18.7333 313.7 20.9733 312.98 22.6H320.38V12.4H314.06ZM347.143 8H352.183V27H347.143V19.6H337.983V27H332.943V8H337.983V15.2H347.143V8ZM359.783 10.36C361.756 8.44 364.223 7.48 367.183 7.48C370.143 7.48 372.596 8.44 374.543 10.36C376.516 12.2533 377.503 14.64 377.503 17.52C377.503 20.3733 376.516 22.76 374.543 24.68C372.596 26.5733 370.143 27.52 367.183 27.52C364.223 27.52 361.756 26.5733 359.783 24.68C357.836 22.76 356.863 20.3733 356.863 17.52C356.863 14.64 357.836 12.2533 359.783 10.36ZM370.943 13.64C369.956 12.6267 368.703 12.12 367.183 12.12C365.663 12.12 364.396 12.6267 363.383 13.64C362.396 14.6533 361.903 15.9467 361.903 17.52C361.903 19.0933 362.396 20.3867 363.383 21.4C364.396 22.3867 365.663 22.88 367.183 22.88C368.703 22.88 369.956 22.3867 370.943 21.4C371.956 20.3867 372.463 19.0933 372.463 17.52C372.463 15.9467 371.956 14.6533 370.943 13.64Z" fill="#78A8EF"/>
</svg>
