<svg width="405" height="136" viewBox="0 0 405 136" fill="none" xmlns="http://www.w3.org/2000/svg">
    <path d="M330.533 42.1934C327.639 40.9952 320.332 39.4736 315.787 36.6392C311.242 33.8048 295.246 23.83 287.816 19.1969C276.199 13.1668 255.263 -0.456131 243.247 1.11638C235.539 2.12522 209.147 4.53602 196.955 6.24089L88.5688 46.6976L1.08419 78.9436M330.533 42.1934C336.851 44.7166 349.967 50.5487 351.892 53.6914C354.298 57.6199 353.32 62.1087 350.046 63.466C346.771 64.8233 338.49 64.1511 334.759 63.6453C334.56 63.5974 334.351 63.5472 334.134 63.4948M330.533 42.1934C330.698 42.9031 333.912 35.8021 339.368 31.9203C344.823 28.0384 348.103 32.5119 348.597 34.6407C348.992 36.3437 345.313 44.1255 343.424 47.8036C338.931 50.4652 331.739 57.3917 338.909 63.8049M276.271 48.4179C280.196 47.1567 289.115 49.2787 297.724 51.9786M297.724 51.9786C307.433 55.0237 316.746 58.804 318.048 59.2947C319.932 60.0041 329.183 62.2995 334.134 63.4948M297.724 51.9786C304.658 56.7216 314.743 63.5013 324.305 69.7028M401.396 93.0594C403.667 92.533 403.395 89.8544 402.975 88.5809C402.574 87.9262 400.985 86.1261 397.838 84.1639C394.692 82.2016 387.755 83.1368 384.68 83.8497L372.998 85.0627C367.284 85.1413 354.893 85.2844 351.043 85.2279C349.553 85.2061 343.653 81.8777 336.041 77.1643M401.396 93.0594C399.622 93.4706 392.849 95.8016 387.61 97.6459M401.396 93.0594C398.425 92.3073 391.509 92.1716 387.61 97.6459M54.8087 134.905L104.953 106.082C137.221 89.379 202.617 55.1754 206.064 51.9835C209.512 48.7916 227.78 56.4201 236.483 60.6333L286.687 90.1187C296.449 94.4158 319.682 95.7025 335.582 101.262M287.227 84.3856C298.774 87.2828 322.99 93.8094 327.477 96.7379C331.963 99.6665 334.75 100.974 335.582 101.262M335.582 101.262C340.356 102.931 344.609 104.527 347.905 105.835L368.375 102.211L383.713 99.0283C384.796 98.6409 386.143 98.1625 387.61 97.6459M381.95 83.3611L392.314 74.0419M402.678 64.7228C404.604 62.2822 405.563 57.1747 393.988 56.2692C392.358 56.9213 389.412 58.3682 386.169 60.4981C385.413 60.9945 384.641 61.5279 383.866 62.0971M402.678 64.7228C399.82 64.762 393.868 66.3912 392.913 72.5944L392.314 74.0419M402.678 64.7228L392.314 74.0419M336.041 77.1643C338.724 79.8705 346.724 79.8239 350.39 79.4623C357.34 77.7263 372.625 72.8117 378.166 67.0407C378.288 66.9138 378.411 66.7879 378.534 66.663M336.041 77.1643C333.683 75.7042 331.161 74.1112 328.555 72.4424M383.866 62.0971C386.493 59.0815 391.419 52.6029 390.106 50.8135M383.866 62.0971C382.052 63.4295 380.219 64.9575 378.534 66.663M390.106 50.8135C388.466 48.5767 385.458 43.6662 377.164 48.2061C368.871 52.746 367.893 58.2065 362.546 60.9418C357.198 63.677 342.928 76.4687 328.555 72.4424M390.106 50.8135C385.696 54.1334 377.208 61.9512 378.534 66.663M328.555 72.4424C327.158 71.548 325.737 70.6319 324.305 69.7028M324.305 69.7028C327.664 67.765 334.334 63.8105 334.134 63.4948" stroke="#78A8EF"/>
</svg>
