<svg width="228" height="100" viewBox="0 0 228 100" fill="none" xmlns="http://www.w3.org/2000/svg">
    <path d="M39.2048 84.379C38.2033 84.6864 36.4093 85.6699 37.2453 87.1451C39.3355 86.8408 43.8816 87.4562 45.3447 92.3526C41.9907 90.6109 37.8857 88.2752 37.2453 87.1451C36.4093 85.6699 38.2033 84.6864 39.2048 84.379C42.1659 84.5546 50.0736 85.4328 58.0162 87.5403C65.9587 89.6478 73.5181 87.1012 76.3049 85.5645L85.7106 76.8709L60.3676 75.5537C55.0987 75.0269 43.0977 73.2355 37.2453 70.2849C31.3929 67.3344 25.8366 64.8405 23.79 63.9623C20.7419 63.1281 14.3582 60.5903 13.2086 57.1129C12.0591 53.6354 19.7839 53.2051 23.79 53.4247C26.966 54.1578 31.6082 55.2995 35.939 56.5011C33.7618 54.9488 29.2767 51.1855 28.7541 48.5511C23.5487 47.4119 13.295 45.1038 10.9879 44.3522C10.8054 44.2927 10.6726 44.243 10.596 44.2043C9.28963 43.5457 1.97412 42.6237 1.05968 38.4086C0.328129 35.0366 6.50277 33.4911 9.68153 33.1398C16.1697 34.1058 31.1056 35.4581 38.9436 33.1398C43.0325 31.9304 51.4468 28.0875 60.1063 23.8775C55.4035 24.1709 45.6582 24.5816 44.2996 23.8775C42.6013 22.9973 30.3218 21.9436 30.8443 16.9382C31.2328 13.2162 38.3479 13.3028 42.6013 13.8976C38.8391 16.1018 33.1957 16.8431 30.8443 16.9382C30.3218 21.9436 42.6013 22.9973 44.2996 23.8775C45.6582 24.5816 55.4035 24.1709 60.1063 23.8775C51.4468 28.0875 43.0325 31.9304 38.9436 33.1398C31.1056 35.4581 16.1697 34.1058 9.68153 33.1398C6.50277 33.4911 0.328129 35.0366 1.05968 38.4086C4.6739 38.2438 11.7195 39.2017 10.9879 44.3522C13.295 45.1038 23.5487 47.4119 28.7541 48.5511C29.2767 51.1855 33.7618 54.9488 35.939 56.5011C31.6082 55.2995 26.966 54.1578 23.79 53.4247C19.7839 53.2051 12.0591 53.6354 13.2086 57.1129C16.997 57.2885 24.417 58.9043 23.79 63.9623C25.8366 64.8405 31.3929 67.3344 37.2453 70.2849C43.0977 73.2355 55.0987 75.0269 60.3676 75.5537L85.7106 76.8709L76.3049 85.5645C73.5181 87.1012 65.9587 89.6478 58.0162 87.5403C50.0736 85.4328 42.1659 84.5546 39.2048 84.379Z" fill="#78A8EF"/>
    <path d="M201.322 66.8603C197.838 64.5771 189.8 60.406 185.515 61.9866C181.23 63.5673 172.495 67.2115 168.663 68.836C161.609 69.4068 146.847 71.3387 144.235 74.5C141.622 77.6613 123.464 80.12 114.711 80.9543C108.572 82.6666 98.1318 87.1451 93.2874 91.4919C89.6167 94.7856 75.6518 98.2975 68.3363 99C63.4157 98.6926 52.4773 97.2086 48.088 93.7312C47.3237 93.3613 46.3693 92.8847 45.3447 92.3526M37.2453 87.1451C36.4093 85.6699 38.2033 84.6864 39.2048 84.379C42.1659 84.5546 50.0736 85.4328 58.0162 87.5403C65.9587 89.6478 73.5181 87.1012 76.3049 85.5645L85.7106 76.8709M37.2453 87.1451C37.8857 88.2752 41.9907 90.6109 45.3447 92.3526M37.2453 87.1451C39.3355 86.8408 43.8816 87.4562 45.3447 92.3526M85.7106 76.8709H92.5036M85.7106 76.8709L60.3676 75.5537C55.0987 75.0269 43.0977 73.2355 37.2453 70.2849C31.3929 67.3344 25.8366 64.8405 23.79 63.9623M23.79 63.9623C20.7419 63.1281 14.3582 60.5903 13.2086 57.1129M23.79 63.9623C24.417 58.9043 16.997 57.2885 13.2086 57.1129M13.2086 57.1129C12.0591 53.6354 19.7839 53.2051 23.79 53.4247C26.966 54.1578 31.6082 55.2995 35.939 56.5011M88.9765 57.6399C75.6953 59.3961 48.7673 62.4608 47.3042 60.6694C46.4839 59.6651 41.4649 58.0343 35.939 56.5011M35.939 56.5011C33.7618 54.9488 29.2767 51.1855 28.7541 48.5511M28.7541 48.5511C33.0651 48.7268 41.8698 48.9726 42.6013 48.5511C43.3329 48.1296 71.036 41.1748 84.7962 37.75M28.7541 48.5511C23.5487 47.4119 13.295 45.1038 10.9879 44.3522M1.05968 38.4086C1.97412 42.6237 9.28963 43.5457 10.596 44.2043C10.6726 44.243 10.8054 44.2927 10.9879 44.3522M1.05968 38.4086C0.328129 35.0366 6.50277 33.4911 9.68153 33.1398C16.1697 34.1058 31.1056 35.4581 38.9436 33.1398C43.0325 31.9304 51.4468 28.0875 60.1063 23.8775M1.05968 38.4086C4.6739 38.2438 11.7195 39.2017 10.9879 44.3522M81.3997 13.1183C76.1926 15.8485 68.0464 20.0173 60.1063 23.8775M60.1063 23.8775C55.4035 24.1709 45.6582 24.5816 44.2996 23.8775C42.6013 22.9973 30.3218 21.9436 30.8443 16.9382M30.8443 16.9382C31.2328 13.2162 38.3479 13.3028 42.6013 13.8976M30.8443 16.9382C33.1957 16.8431 38.8391 16.1018 42.6013 13.8976M93.0262 46.0483C95.3776 45.4336 100.42 44.7311 101.779 46.8386M90.936 24.4461C93.2439 24.0071 98.1209 23.6822 99.166 25.8951M42.6013 13.8976C42.924 13.9427 43.2302 13.9908 43.5158 14.0403C45.7366 13.6891 51.4584 12.328 56.5792 9.69356C61.7001 7.05915 82.14 3.50269 91.7198 2.05376C92.5472 1.6147 94.4944 1.00002 96.9452 1C99.1498 0.999986 142.972 4.0734 164.614 5.47837C180.246 10.0447 212.034 18.387 214.124 15.2257C218.435 14.5232 227.246 13.1183 228 13.1183" stroke="#78A8EF"/>
</svg>
