<svg width="262" height="120" viewBox="0 0 270 120" fill="none" xmlns="http://www.w3.org/2000/svg">
<path d="M258.973 72.9362C258.845 72.3989 258.305 72.0672 257.768 72.1952L249.013 74.2812C248.476 74.4092 248.144 74.9485 248.272 75.4858C248.4 76.023 248.94 76.3548 249.477 76.2267L257.259 74.3725L259.113 82.1547C259.241 82.6919 259.781 83.0237 260.318 82.8956C260.855 82.7676 261.187 82.2283 261.059 81.6911L258.973 72.9362ZM1.14656 0.866124C1.05413 1.55031 0.96742 2.23129 0.886375 2.90905L2.87223 3.14651C2.95206 2.47893 3.03748 1.80805 3.12856 1.13388L1.14656 0.866124ZM0.467769 6.9372C0.350666 8.26712 0.255875 9.58427 0.183032 10.8887L2.17992 11.0002C2.25156 9.71739 2.34481 8.42155 2.46006 7.11263L0.467769 6.9372ZM0.0286605 14.822C-0.0020591 16.1925 -0.00799036 17.5485 0.0104168 18.89L2.01023 18.8626C1.99216 17.5455 1.99797 16.2136 2.02816 14.8668L0.0286605 14.822ZM0.138202 22.8712C0.205419 24.1953 0.296943 25.5047 0.412309 26.7995L2.40442 26.622C2.29133 25.3528 2.20157 24.0687 2.13563 22.7698L0.138202 22.8712ZM0.855255 30.8393C1.02895 32.1698 1.22851 33.4841 1.45339 34.7824L3.42404 34.441C3.20395 33.1704 3.00855 31.8835 2.83843 30.5804L0.855255 30.8393ZM2.21369 38.6764C2.50289 40.0048 2.81935 41.3155 3.16243 42.6088L5.09557 42.096C4.76021 40.8318 4.45077 39.5502 4.16792 38.2509L2.21369 38.6764ZM4.27091 46.436C4.67365 47.7167 5.1033 48.9793 5.55918 50.2239L7.43716 49.536C6.99195 48.3205 6.57227 47.0873 6.17879 45.836L4.27091 46.436ZM7.03179 53.9679C7.54932 55.1973 8.09328 56.408 8.66292 57.6003L10.4675 56.7381C9.91144 55.5742 9.3804 54.3922 8.87511 53.1919L7.03179 53.9679ZM10.4829 61.1864C11.118 62.3668 11.7791 63.528 12.4654 64.6699L14.1796 63.6397C13.5095 62.5247 12.8642 61.3912 12.2442 60.2389L10.4829 61.1864ZM14.6045 68.0462C15.3478 69.1606 16.1161 70.2557 16.9084 71.3314L18.5187 70.1453C17.7447 69.0944 16.9943 68.0248 16.2683 66.9364L14.6045 68.0462ZM19.3569 74.5008C20.1963 75.5375 21.0588 76.5551 21.9438 77.5536L23.4405 76.2271C22.5751 75.2505 21.7318 74.2557 20.9114 73.2423L19.3569 74.5008ZM24.6645 80.4915C25.5925 81.4512 26.5422 82.3919 27.5125 83.314L28.8902 81.8641C27.9399 80.9612 27.0103 80.0403 26.1021 79.1012L24.6645 80.4915ZM30.4608 86.0029C31.4634 86.8808 32.4856 87.7405 33.5267 88.582L34.7839 87.0266C33.763 86.2014 32.7609 85.3586 31.7783 84.4982L30.4608 86.0029ZM36.6833 91.0357C37.7457 91.8299 38.8256 92.6066 39.9222 93.366L41.0608 91.7217C39.9837 90.9759 38.9234 90.2133 37.8808 89.4338L36.6833 91.0357ZM43.2618 95.5921C44.3748 96.3063 45.5033 97.0037 46.6466 97.6846L47.6699 95.9662C46.5454 95.2966 45.4358 94.6108 44.342 93.9089L43.2618 95.5921ZM50.111 99.6725C51.2766 100.317 52.4561 100.945 53.6489 101.557L54.5618 99.7772C53.387 99.1745 52.2257 98.5562 51.0785 97.9221L50.111 99.6725ZM57.2098 103.317C58.4091 103.888 59.6207 104.444 60.8439 104.985L61.6522 103.155C60.4461 102.622 59.2518 102.075 58.0698 101.512L57.2098 103.317ZM64.5182 106.548C65.741 107.049 66.9742 107.535 68.2174 108.007L68.9267 106.137C67.6996 105.671 66.4826 105.191 65.2762 104.697L64.5182 106.548ZM71.9759 109.378C73.2246 109.816 74.4824 110.239 75.7487 110.649L76.3643 108.746C75.1132 108.341 73.8708 107.923 72.6376 107.49L71.9759 109.378ZM79.5491 111.829C80.8239 112.208 82.1064 112.574 83.3961 112.926L83.923 110.997C82.6478 110.649 81.3799 110.287 80.1199 109.912L79.5491 111.829ZM87.2409 113.931C88.5256 114.251 89.8166 114.559 91.1136 114.853L91.5564 112.903C90.2732 112.612 88.9959 112.308 87.7252 111.99L87.2409 113.931ZM95.0213 115.698C96.3155 115.964 97.6148 116.217 98.9188 116.457L99.2815 114.49C97.9905 114.252 96.7043 114.002 95.4234 113.739L95.0213 115.698ZM102.841 117.14C104.153 117.356 105.468 117.558 106.787 117.749L107.073 115.769C105.766 115.581 104.464 115.38 103.165 115.167L102.841 117.14ZM110.724 118.279C112.039 118.444 113.358 118.597 114.679 118.738L114.891 116.749C113.582 116.609 112.276 116.458 110.973 116.295L110.724 118.279ZM118.646 119.124C119.966 119.241 121.287 119.345 122.61 119.438L122.751 117.443C121.439 117.351 120.13 117.247 118.822 117.132L118.646 119.124ZM126.583 119.682C127.908 119.752 129.234 119.81 130.56 119.857L130.631 117.858C129.316 117.812 128.002 117.754 126.688 117.685L126.583 119.682ZM134.54 119.963C135.867 119.986 137.193 119.999 138.519 120L138.52 118C137.206 117.999 135.891 117.987 134.576 117.963L134.54 119.963ZM142.496 119.969C143.826 119.948 145.154 119.915 146.481 119.871L146.414 117.872C145.099 117.915 143.782 117.948 142.464 117.969L142.496 119.969ZM150.454 119.704C151.779 119.638 153.103 119.56 154.423 119.471L154.289 117.475C152.98 117.564 151.668 117.641 150.353 117.707L150.454 119.704ZM158.401 119.168C159.723 119.056 161.042 118.933 162.357 118.799L162.154 116.809C160.851 116.942 159.543 117.064 158.232 117.176L158.401 119.168ZM166.311 118.361C167.636 118.202 168.956 118.032 170.27 117.851L169.997 115.87C168.695 116.049 167.387 116.218 166.074 116.375L166.311 118.361ZM174.197 117.275C175.514 117.069 176.825 116.852 178.129 116.625L177.784 114.654C176.492 114.88 175.194 115.095 173.889 115.298L174.197 117.275ZM182.054 115.901C183.356 115.648 184.65 115.384 185.936 115.109L185.517 113.153C184.244 113.426 182.962 113.687 181.673 113.937L182.054 115.901ZM189.837 114.234C191.137 113.929 192.429 113.613 193.71 113.284L193.214 111.347C191.946 111.672 190.668 111.985 189.38 112.287L189.837 114.234ZM197.525 112.265C198.824 111.904 200.112 111.53 201.388 111.144L200.809 109.23C199.547 109.611 198.274 109.981 196.989 110.338L197.525 112.265ZM205.182 109.951C206.449 109.537 207.703 109.11 208.944 108.672L208.278 106.786C207.052 107.219 205.812 107.641 204.56 108.05L205.182 109.951ZM212.711 107.288C213.952 106.814 215.178 106.328 216.389 105.83L215.628 103.98C214.433 104.472 213.223 104.952 211.998 105.42L212.711 107.288ZM220.082 104.249C221.307 103.704 222.514 103.146 223.703 102.575L222.837 100.772C221.666 101.335 220.477 101.885 219.269 102.422L220.082 104.249ZM227.258 100.799C228.46 100.174 229.641 99.5359 230.8 98.8833L229.818 97.1407C228.68 97.7819 227.519 98.4098 226.336 99.024L227.258 100.799ZM234.208 96.8835C235.371 96.1727 236.508 95.4467 237.619 94.7056L236.509 93.0418C235.421 93.7678 234.306 94.4796 233.165 95.1771L234.208 96.8835ZM240.883 92.4291C241.979 91.6295 243.045 90.8138 244.08 89.9823L242.828 88.423C241.817 89.2346 240.776 90.0315 239.704 90.8135L240.883 92.4291ZM247.139 87.3977C248.15 86.4977 249.127 85.5807 250.066 84.6468L248.657 83.2283C247.744 84.1353 246.794 85.0272 245.81 85.9035L247.139 87.3977ZM252.835 81.7266C253.736 80.7156 254.595 79.6863 255.411 78.6391L253.833 77.41C253.045 78.4213 252.214 79.4167 251.341 80.396L252.835 81.7266ZM257.775 75.3689C258.146 74.8145 258.505 74.2555 258.852 73.6919L257.148 72.644C256.815 73.1857 256.47 73.7234 256.113 74.2571L257.775 75.3689Z" fill="#78A8EF"/>
</svg>
