<svg width="464" height="135" viewBox="0 0 464 135" fill="none" xmlns="http://www.w3.org/2000/svg">
    <path d="M458.078 134.171C457.766 134.627 457.143 134.743 456.688 134.43L449.266 129.339C448.811 129.027 448.695 128.404 449.007 127.949C449.32 127.493 449.942 127.377 450.398 127.69L456.995 132.215L461.52 125.618C461.832 125.163 462.455 125.047 462.91 125.359C463.366 125.672 463.482 126.294 463.169 126.75L458.078 134.171ZM0.74081 53.9259C1.25447 53.5162 1.77279 53.1087 2.29571 52.7035L3.52073 54.2844C3.00516 54.6839 2.49424 55.0856 1.988 55.4894L0.74081 53.9259ZM5.4881 50.2996C6.57038 49.5074 7.67065 48.7243 8.7885 47.9503L9.927 49.5947C8.82326 50.3589 7.73726 51.1318 6.66941 51.9135L5.4881 50.2996ZM12.1662 45.6743C13.2667 44.9524 14.3828 44.2389 15.5143 43.5337L16.5721 45.2311C15.4536 45.9282 14.3505 46.6334 13.2632 47.3466L12.1662 45.6743ZM18.954 41.4433C20.1156 40.7549 21.2922 40.0748 22.4833 39.4032L23.4657 41.1453C22.2868 41.81 21.1227 42.4829 19.9737 43.1639L18.954 41.4433ZM25.9884 37.4732C27.1548 36.8461 28.3342 36.2267 29.5262 35.6151L30.4393 37.3945C29.2584 38.0004 28.0904 38.6139 26.9355 39.2348L25.9884 37.4732ZM33.1401 33.8032C34.3536 33.2087 35.5794 32.622 36.8171 32.0429L37.6646 33.8545C36.4375 34.4285 35.2226 35.0101 34.02 35.5993L33.1401 33.8032ZM40.4243 30.3922C41.6376 29.8491 42.8618 29.3132 44.0964 28.7844L44.8838 30.6229C43.6589 31.1475 42.4447 31.6791 41.2414 32.2177L40.4243 30.3922ZM47.8317 27.2197C49.0738 26.7108 50.3258 26.2089 51.5877 25.7141L52.3178 27.576C51.0653 28.0672 49.8226 28.5653 48.59 29.0704L47.8317 27.2197ZM55.3005 24.289C56.5472 23.8207 57.8028 23.359 59.0673 22.9041L59.7444 24.786C58.4886 25.2378 57.2417 25.6962 56.0038 26.1612L55.3005 24.289ZM62.8866 21.5595C64.153 21.1233 65.4277 20.6937 66.7105 20.2706L67.3369 22.17C66.0624 22.5903 64.796 23.0172 63.5379 23.4505L62.8866 21.5595ZM70.4992 19.0477C71.7697 18.6463 73.0476 18.2513 74.3329 17.8626L74.9118 19.777C73.6343 20.1633 72.3642 20.5559 71.1017 20.9548L70.4992 19.0477ZM78.2101 16.7156C79.4984 16.3429 80.7936 15.9764 82.0955 15.6162L82.6288 17.5437C81.3344 17.9019 80.0466 18.2663 78.7659 18.6368L78.2101 16.7156ZM85.9392 14.5759C87.2267 14.2352 88.5205 13.9004 89.8202 13.5718L90.3106 15.5107C89.0179 15.8376 87.7312 16.1705 86.4509 16.5093L85.9392 14.5759ZM93.7373 12.6038C95.0452 12.2881 96.3589 11.9783 97.6781 11.6746L98.1268 13.6237C96.8144 13.9258 95.5076 14.2339 94.2066 14.5479L93.7373 12.6038ZM101.562 10.8014C102.862 10.5161 104.167 10.2365 105.477 9.96276L105.887 11.9205C104.583 12.1929 103.285 12.471 101.991 12.7549L101.562 10.8014ZM109.422 9.15885C110.742 8.89668 112.066 8.64031 113.395 8.38975L113.765 10.3551C112.443 10.6045 111.125 10.8596 109.812 11.1205L109.422 9.15885ZM117.325 7.66798C118.635 7.43396 119.948 7.20551 121.265 6.98267L121.599 8.95465C120.288 9.17647 118.98 9.40385 117.677 9.63677L117.325 7.66798ZM125.229 6.33093C126.554 6.11929 127.883 5.91326 129.216 5.71285L129.513 7.69061C128.187 7.89012 126.864 8.09522 125.544 8.3059L125.229 6.33093ZM133.194 5.13271C134.511 4.94677 135.83 4.76627 137.153 4.59122L137.415 6.57393C136.098 6.74822 134.784 6.92793 133.474 7.11305L133.194 5.13271ZM141.13 4.08244C142.459 3.91831 143.791 3.75965 145.126 3.60647L145.354 5.59342C144.025 5.74595 142.699 5.90394 141.376 6.06736L141.13 4.08244ZM149.138 3.16336C150.461 3.023 151.786 2.88799 153.114 2.75834L153.309 4.74887C151.986 4.87798 150.667 5.01243 149.349 5.15219L149.138 3.16336ZM157.102 2.38569C158.434 2.26683 159.768 2.15335 161.104 2.04524L161.265 4.03872C159.934 4.14639 158.606 4.2594 157.28 4.37777L157.102 2.38569ZM165.118 1.73708C166.452 1.64016 167.788 1.54859 169.126 1.46237L169.255 3.45823C167.922 3.5441 166.591 3.6353 165.262 3.73182L165.118 1.73708ZM173.122 1.22109C174.456 1.14597 175.791 1.07617 177.128 1.01168L177.224 3.00936C175.893 3.07358 174.563 3.14311 173.235 3.21793L173.122 1.22109ZM181.142 0.834218C182.481 0.780395 183.822 0.731908 185.164 0.68877L185.228 2.68774C183.892 2.7307 182.556 2.779 181.222 2.8326L181.142 0.834218ZM189.171 0.575923C190.506 0.543636 191.842 0.516644 193.18 0.49496L193.212 2.4947C191.88 2.5163 190.549 2.54318 189.219 2.57534L189.171 0.575923ZM197.193 0.44584C198.531 0.434782 199.871 0.429044 201.21 0.428637L201.211 2.42864C199.876 2.42904 198.543 2.43476 197.21 2.44577L197.193 0.44584ZM205.227 0.443404C206.564 0.45364 207.902 0.469194 209.239 0.490078L209.208 2.48983C207.876 2.46903 206.544 2.45354 205.212 2.44335L205.227 0.443404ZM213.251 0.56873C214.589 0.600285 215.926 0.637181 217.264 0.679431L217.2 2.67843C215.868 2.63635 214.536 2.5996 213.204 2.56817L213.251 0.56873ZM221.275 0.822255C222.613 0.875265 223.95 0.933649 225.287 0.997419L225.192 2.99515C223.86 2.93163 222.528 2.87348 221.196 2.82069L221.275 0.822255ZM229.298 1.20499C230.634 1.27958 231.97 1.35957 233.305 1.44498L233.177 3.4409C231.848 3.35584 230.517 3.27617 229.186 3.20188L229.298 1.20499ZM237.307 1.71746C238.64 1.81372 239.973 1.91542 241.304 2.02256L241.144 4.01611C239.818 3.90942 238.491 3.80814 237.163 3.71226L237.307 1.71746ZM245.312 2.36192C246.647 2.48054 247.981 2.60466 249.313 2.7343L249.12 4.7249C247.793 4.5958 246.465 4.4722 245.135 4.35407L245.312 2.36192ZM253.305 3.13977C254.634 3.28046 255.962 3.42667 257.288 3.57842L257.06 5.56545C255.74 5.41434 254.418 5.26875 253.095 5.12866L253.305 3.13977ZM261.275 4.05216C262.608 4.21639 263.939 4.38627 265.268 4.5618L265.006 6.54458C263.683 6.36981 262.357 6.20067 261.03 6.03715L261.275 4.05216ZM269.248 5.1054C270.572 5.29226 271.895 5.4848 273.214 5.68302L272.917 7.66084C271.603 7.4635 270.287 7.27182 268.968 7.08578L269.248 5.1054ZM277.166 6.29476C278.495 6.50659 279.821 6.72425 281.144 6.94774L280.811 8.91981C279.494 8.69735 278.174 8.48069 276.851 8.26982L277.166 6.29476ZM285.11 7.63645C286.428 7.87188 287.744 8.11316 289.057 8.36032L288.687 10.3258C287.38 10.0798 286.071 9.83965 284.758 9.60533L285.11 7.63645ZM292.985 9.11942C294.3 9.37996 295.611 9.64646 296.918 9.91893L296.51 11.8769C295.209 11.6057 293.904 11.3405 292.596 11.0812L292.985 9.11942ZM300.864 10.7618C302.175 11.0488 303.483 11.3419 304.786 11.6411L304.339 13.5904C303.042 13.2927 301.741 13.0011 300.436 12.7155L300.864 10.7618ZM308.685 12.5572C309.981 12.8686 311.273 13.1862 312.56 13.5099L312.072 15.4495C310.792 15.1275 309.507 14.8116 308.218 14.5018L308.685 12.5572ZM316.478 14.5178C317.779 14.8602 319.076 15.209 320.368 15.5641L319.838 17.4926C318.553 17.1394 317.263 16.7925 315.969 16.452L316.478 14.5178ZM324.23 16.6488C325.512 17.0168 326.789 17.3912 328.061 17.772L327.488 19.688C326.223 19.3094 324.953 18.9371 323.678 18.5713L324.23 16.6488ZM331.913 18.9499C333.202 19.3522 334.484 19.7612 335.761 20.177L335.142 22.0787C333.873 21.6655 332.598 21.2589 331.317 20.859L331.913 18.9499ZM339.573 21.4444C340.838 21.8737 342.097 22.3097 343.35 22.7524L342.683 24.6381C341.439 24.1982 340.188 23.7649 338.931 23.3384L339.573 21.4444ZM347.123 24.1137C348.393 24.5812 349.656 25.0558 350.912 25.5376L350.196 27.405C348.948 26.9265 347.694 26.455 346.432 25.9906L347.123 24.1137ZM354.66 27.0043C355.902 27.5003 357.136 28.0035 358.364 28.5139L357.596 30.3606C356.377 29.8539 355.151 29.3542 353.918 28.8616L354.66 27.0043ZM362.046 30.0761C363.29 30.6149 364.527 31.1612 365.755 31.7152L364.933 33.5383C363.714 32.9886 362.486 32.4463 361.251 31.9115L362.046 30.0761ZM369.415 33.3999C370.627 33.9691 371.83 34.5459 373.024 35.1304L372.145 36.9268C370.96 36.3471 369.767 35.7748 368.565 35.2101L369.415 33.3999ZM376.599 36.9157C377.809 37.5325 379.009 38.1574 380.2 38.7905L379.261 40.5565C378.081 39.9289 376.89 39.3092 375.69 38.6976L376.599 36.9157ZM383.743 40.714C384.915 41.3633 386.076 42.0208 387.227 42.6865L386.226 44.4178C385.085 43.7583 383.934 43.1067 382.774 42.4632L383.743 40.714ZM390.673 44.7222C391.836 45.4242 392.988 46.1348 394.129 46.8542L393.062 48.5459C391.932 47.8336 390.791 47.1298 389.639 46.4345L390.673 44.7222ZM397.517 49.0385C398.634 49.7753 399.741 50.5208 400.835 51.2751L399.7 52.9218C398.617 52.1755 397.522 51.4376 396.416 50.7083L397.517 49.0385ZM404.12 53.5917C405.22 54.3858 406.308 55.1893 407.382 56.002L406.176 57.5971C405.113 56.7935 404.038 55.999 402.949 55.2135L404.12 53.5917ZM410.566 58.4683C411.614 59.2998 412.648 60.1406 413.669 60.9908L412.388 62.5275C411.38 61.6876 410.358 60.8568 409.323 60.035L410.566 58.4683ZM416.743 63.6172C417.761 64.5095 418.765 65.4118 419.753 66.3239L418.397 67.7937C417.421 66.8933 416.431 66.0026 415.425 65.1215L416.743 63.6172ZM422.673 69.0904C423.632 70.0238 424.575 70.9673 425.503 71.9208L424.07 73.3155C423.155 72.3752 422.224 71.4446 421.278 70.5236L422.673 69.0904ZM428.294 74.8717C429.207 75.8659 430.104 76.8705 430.983 77.8856L429.471 79.195C428.605 78.1949 427.721 77.2048 426.821 76.2249L428.294 74.8717ZM433.569 80.9625C434.42 82.0069 435.253 83.0621 436.068 84.1279L434.48 85.3428C433.677 84.2935 432.857 83.2546 432.018 82.226L433.569 80.9625ZM438.475 87.3816C439.259 88.4771 440.023 89.5835 440.769 90.7008L439.105 91.8107C438.372 90.7117 437.62 89.6231 436.849 88.5452L438.475 87.3816ZM442.947 94.0862C443.658 95.2322 444.349 96.3893 445.019 97.5575L443.285 98.5531C442.626 97.4047 441.946 96.2671 441.248 95.1403L442.947 94.0862ZM446.97 101.095C447.599 102.286 448.208 103.487 448.796 104.7L446.997 105.573C446.419 104.381 445.821 103.2 445.202 102.031L446.97 101.095ZM450.492 108.36C451.034 109.588 451.556 110.826 452.055 112.076L450.198 112.819C449.707 111.591 449.195 110.374 448.662 109.168L450.492 108.36ZM453.49 115.859C453.946 117.13 454.38 118.411 454.792 119.704L452.886 120.311C452.482 119.041 452.055 117.782 451.608 116.535L453.49 115.859ZM455.94 123.543C456.302 124.834 456.641 126.135 456.959 127.447L455.015 127.917C454.703 126.628 454.369 125.35 454.015 124.082L455.94 123.543ZM457.844 131.414C457.981 132.081 458.111 132.75 458.237 133.423L456.27 133.789C456.147 133.128 456.019 132.47 455.885 131.815L457.844 131.414Z" fill="#78A8EF"/>
</svg>
