<svg width="147" height="53" viewBox="0 0 147 53" fill="none" xmlns="http://www.w3.org/2000/svg">
    <path d="M105.905 14.2256C98.8938 4.95403 83.9183 2.13287 74.3957 10.3659C73.5593 11.0891 72.7845 11.8328 72.0716 12.5946M105.905 14.2256C112.916 23.4971 112 37.6586 101.259 45.8919C90.5183 54.1252 76.6762 50.0758 70.0132 39.7765C63.9354 30.382 64.6687 20.5057 72.0716 12.5946M105.905 14.2256L146 2M48.4352 13.7832C43.8002 8.82362 37.1113 6.22349 30.3781 6.81179C23.4693 7.41544 16.9767 11.6872 13.2729 17.7027M48.4352 13.7832C51.7397 17.3192 54.0002 22.0544 54.4885 27.6885C55.6619 41.2252 44.8627 50.8346 32.6521 50.9973C20.4414 51.1599 12.1199 44.05 10.2955 31.5498C9.56398 26.5375 10.7937 21.7294 13.2729 17.7027M48.4352 13.7832L72.0716 12.5946M13.2729 17.7027L1 16" stroke="#78A8EF" stroke-width="3"/>
</svg>
