<svg width="388" height="373" viewBox="0 0 388 373" fill="none" xmlns="http://www.w3.org/2000/svg"> <path d="M292.263 216.237L365.787 228.048M301.771 246.682L333.11 267.855M129.402 183.701L33.6499 169.413M110.793 149.93L75.6845 130.516M217.85 278.114L226.041 341.008M271.227 132.028L330.492 85.9419M266.862 100.953L277.174 72.7323M183.835 115.15L159.79 48.3453M146.858 258.761L111.411 291.911M243.702 207.36L265.497 263.823L211.771 229.727L178.249 276.189L182.577 219.06L138.614 217.462L173.325 186.325L136.136 130.192L195.125 156.851L234.319 89.0626L237.327 159.785L297.062 168.146L243.702 207.36Z" stroke="#78A8EF" stroke-width="3"/> </svg>