<svg width="159" height="171" viewBox="0 0 159 171" fill="none" xmlns="http://www.w3.org/2000/svg">
<path d="M106.571 77.4257C80.6039 74.9964 69.5202 93.4485 84.6425 101.303M143.602 110.305C140.365 116.928 132.557 122.965 116.757 125.882C101.788 128.644 93.0127 125.615 88.2807 120.55M143.602 110.305C148.261 119.726 149.905 140.012 119.75 144.695C112.318 145.849 106.503 145.602 101.992 144.419M143.602 110.305C147.254 102.832 144.281 93.6298 141.159 88.2499M88.2807 120.55C83.1417 115.051 82.9851 106.805 84.6425 101.303M88.2807 120.55C86.6034 128.43 88.2008 140.802 101.992 144.419M36.8711 82.1803C39.2842 81.5857 41.4168 80.7693 43.3055 79.7632M102.697 144.001C102.462 144.142 102.228 144.281 101.992 144.419M43.3055 79.7632C68.742 66.2134 48.9949 16.2643 75.6953 12.0424C103.118 7.70634 91.9235 63.7724 91.9235 63.7724C106.864 57.7101 136.646 54.0352 142.225 72.9984C143.972 78.936 143.374 84.0105 141.159 88.2499M43.3055 79.7632C43.3055 79.7632 38.3242 71.4146 30.548 72.7098C2.28465 77.4171 30.2993 165.769 50.8931 165.879C66.1359 165.96 67.2712 153.087 67.2712 153.087M67.2712 153.087C62.6108 152.579 58.4888 151.229 54.8937 149.094M67.2712 153.087C77.3375 154.182 90.6032 151.076 101.992 144.419M141.159 88.2499C132.256 105.297 100.641 109.612 84.6425 101.303" stroke="#266EF1" stroke-opacity="0.6" stroke-width="2"/>
</svg>
