<svg width="205" height="162" viewBox="0 0 205 162" fill="none" xmlns="http://www.w3.org/2000/svg">
    <path d="M165.061 71.7599L165.704 73.226H163.775M165.061 71.7599L163.775 73.226M165.061 71.7599L166.657 70.1663M163.775 73.226H151.041M166.657 70.1663L173.357 63.4732L169.049 60.5408M166.657 70.1663L179.917 76.1583M151.041 73.226C151.504 72.7161 151.234 71.3986 151.041 70.8037M151.041 73.226H144.352M169.049 60.5408L165.061 60.2223L163.775 57.7362M169.049 60.5408C176.402 50.9793 191.095 30.8234 191.043 26.6928C190.979 21.5295 193.166 21.0197 187.828 15.1552C183.557 10.4636 177.345 12.0954 174.772 13.4978L148.404 44.4775M163.775 57.7362C162.66 57.7575 160.328 57.8764 159.916 58.1824C159.402 58.5649 157.987 56.9713 157.279 57.3537C156.713 57.6596 156.057 57.1412 155.8 56.8438C155.371 56.8863 154.398 57.0477 153.935 57.3537C153.472 57.6596 151.813 56.8863 151.041 56.4613C150.162 56.4825 148.031 56.6908 146.539 57.3537C146.37 57.4291 146.198 57.483 146.025 57.5189M163.775 57.7362L151.041 70.8037M148.404 44.4775L146.025 57.5189M148.404 44.4775C151.17 32.0262 154.565 6.16726 146.025 2.34263C137.484 -1.48202 132.09 3.76624 130.461 6.86845C128.339 12.9879 123.824 29.2298 122.744 45.2424C121.663 61.2548 120.064 70.5699 119.399 73.226M146.025 57.5189C144.674 57.799 143.27 56.9699 142.68 56.4613H134.384C133.998 56.0576 132.429 55.3521 129.239 55.7601C127.76 57.9275 124.763 64.4548 124.609 73.226M151.041 70.8037C150.548 70.2301 149.228 69.0188 147.89 68.7638C146.552 68.509 144.974 71.6324 144.352 73.226M124.609 73.226H144.352M124.609 73.226H119.399M119.399 73.226H115.669M115.669 73.226C116.956 73.226 116.184 66.3416 115.991 63.0269C115.798 59.7122 111.939 55.314 110.46 54.2303M115.669 73.226H98.6908M125.959 22.1669C125.788 22.1669 125.355 21.9885 124.995 21.2747C124.634 20.5607 123.301 20.9771 122.679 21.2747C122.186 20.5947 120.776 19.324 119.078 19.681C116.956 20.1272 118.563 20.8284 116.762 21.7846C116.591 22.5495 116.325 24.2706 116.634 25.0355C117.02 25.9917 113.161 21.402 111.618 21.7846C110.383 22.0905 109.602 22.762 109.367 23.0594C108.338 22.2307 105.894 20.6117 104.35 20.7647C102.807 20.9176 100.706 20.8284 99.8484 20.7647C99.6769 20.1697 99.0766 18.9798 98.0476 18.9798C96.7614 18.9798 95.6037 18.9161 93.8672 20.7647C92.4781 22.2435 89.7299 21.6783 88.5294 21.2109C87.9719 21.0197 86.5356 20.8921 85.2495 21.9121C83.9632 22.932 80.6833 22.507 79.2042 22.1669C78.3465 22.4007 76.4129 22.6004 75.5382 21.5295C74.4449 20.1909 73.9304 21.0197 72.0654 19.5535C70.5733 18.3806 70.1574 20.0422 70.136 21.0197C70.0288 23.9943 69.8015 30.0841 69.7502 30.6449C69.6987 31.2059 68.0565 30.8787 67.2419 30.6449C66.9203 30.6024 65.8657 31.2314 64.2193 34.0871C62.5729 36.9429 60.6178 39.9516 59.846 41.0991M59.846 41.0991L98.4334 37.2105H98.9479M59.846 41.0991H57.7237L35.9217 49.0032M98.9479 37.2105L100.136 43.3938M98.9479 37.2105L90.8447 41.8525M35.9217 49.0032L40.2693 71.8237M35.9217 49.0032L84.9269 45.2424M35.9217 49.0032L90.8447 41.8525M100.136 43.3938L100.749 46.581M100.136 43.3938L97.0464 58.4374L94.4205 58.8835L93.1076 54.2303M90.8447 41.8525L84.9269 45.2424M90.8447 41.8525L93.1076 54.2303M100.749 46.581L104.286 43.3938C104.888 43.782 105.779 44.4358 106.566 45.1786M100.749 46.581C100.706 49.0032 100.453 54.0135 99.7841 54.6764M100.749 46.581C101.113 46.9848 101.894 47.7922 102.099 47.7922C102.305 47.7922 101.842 49.067 101.585 49.7044C102.356 49.8744 104.016 50.2144 104.479 50.2144C104.942 50.2144 106.472 48.5996 107.18 47.7922L106.344 46.9635L106.566 45.1786M106.566 45.1786C107.459 46.0216 108.219 46.979 108.273 47.7922C108.402 49.7044 108.981 53.1466 110.46 54.2303M99.7841 54.6764C99.1151 55.3394 98.9051 57.4599 98.8837 58.4374C98.0262 60.7109 95.2179 65.7934 90.8447 67.9353M99.7841 54.6764C100.02 55.5263 100.543 57.239 100.749 57.2899C100.954 57.3411 101.092 57.0563 101.135 56.9076C101.585 56.7163 102.498 56.3849 102.549 56.5888C102.601 56.7929 102.699 57.6087 102.742 57.9911C103.171 58.1824 104.041 58.6541 104.093 59.011C104.144 59.3681 104.372 59.6272 104.479 59.7122C104.607 59.5424 104.878 59.1385 104.929 58.8835C104.981 58.6287 105.808 58.1824 106.215 57.9911M110.46 54.2303C110.074 54.9314 109.238 56.3211 108.981 56.2702C108.659 56.2064 108.273 55.4415 107.823 55.6326C107.463 55.7856 106.601 57.2687 106.215 57.9911M106.215 57.9911C104.908 62.9844 101.572 73.0221 98.6908 73.226M98.6908 73.226H44.6299M90.8447 67.9353C85.378 70.6124 81.1978 72.7798 79.3326 72.0787M90.8447 67.9353L84.9269 45.2424M79.3326 72.0787C79.5257 72.376 79.8344 73.0092 79.5255 73.1622M79.3326 72.0787C77.9656 67.4668 72.3026 58.3434 60.5871 58.7444C48.8717 59.1454 42.3492 68.6084 40.5523 73.2897L40.4879 72.9709L40.2693 71.8237M84.9269 45.2424L93.1076 54.2303M40.2693 71.8237L38.044 73.226H43.418M44.6299 73.226C47.9627 68.8604 50.7906 69.8722 50.9926 69.8722C51.1946 69.8722 53.4165 69.8722 54.1234 69.8722C54.689 69.8722 55.8404 69.0702 56.3453 68.6692C58.7692 68.3484 63.0783 70.8079 64.9299 72.0777C65.0982 72.2782 65.3137 72.4185 64.8289 71.3759C64.3441 70.3333 60.4524 67.7334 58.5672 66.5639C58.7355 65.9289 59.8802 64.0977 63.112 61.8521C66.3438 59.6065 68.4985 60.3819 69.1717 61.0501C69.3064 60.8973 68.8687 60.4025 66.0409 59.6466C63.213 58.8907 58.8029 62.4059 56.9513 64.2581C56.6281 64.7393 56.0761 63.7904 55.8404 63.2556C55.3354 63.0551 55.6384 57.3409 55.6384 56.8396C55.6384 56.4386 56.1096 56.2046 56.3453 56.1378C56.0221 55.9774 55.4026 56.2046 55.1334 56.3383C53.9214 57.0601 53.7532 61.1169 53.8204 63.0551C53.6857 62.7879 53.2953 62.1529 52.8105 61.7519C52.3257 61.3509 51.3966 62.0526 50.9926 62.4536C51.6323 63.6901 52.4671 65.9825 50.6896 65.2607C48.9121 64.5388 45.1686 65.7619 43.5189 66.4637L44.6299 66.7644L49.4777 67.7669C50.7233 68.1679 52.4671 68.9098 49.4777 68.6692C46.4882 68.4286 44.1922 71.6067 43.418 73.226M44.6299 73.226H43.418M39.8447 69.6562L24.217 76.7319M24.217 76.7319C23.8954 76.8807 23.2779 77.5351 23.3809 78.9629C23.4522 79.953 24.5995 85.4337 25.6822 90.437M24.217 76.7319C72.9015 76.8594 171.402 77.1017 175.93 77.0507C180.457 76.9996 180.475 76.4344 179.917 76.1583M25.6822 90.437C25.8179 91.0638 25.9527 91.6833 26.084 92.2854M25.6822 90.437L3.37957 112.237L1 124.604M179.917 76.1583C180.56 76.4131 181.769 77.3439 181.461 79.0267C181.255 80.1459 180.128 85.2183 179.056 89.9907M26.084 92.2854C26.4162 93.8086 26.7279 95.2211 26.9822 96.365L4.60151 118.739L4.98737 112.237L26.084 92.2854ZM1 124.604L39.909 83.3613C40.6594 82.5964 42.6488 81.4235 44.6038 82.8514C46.5589 84.2792 45.7614 87.2709 45.1183 88.5884L33.7349 99.7986M1 124.604C2.029 126.134 4.087 127.578 4.98737 128.11L32.0629 101.446M33.7349 99.7986H170.978M33.7349 99.7986L32.0629 101.446M32.0629 101.446C34.8069 118.514 40.3592 153.416 40.6165 156.476C40.8737 159.536 41.8384 160.598 42.2886 160.747C82.3552 160.938 162.553 161.206 162.81 160.747C163.067 160.288 169.45 120.992 172.609 101.401M179.056 89.9907C178.891 90.7253 178.727 91.4529 178.568 92.1579M179.056 89.9907L201.526 112.429L203.97 124.413M178.568 92.1579C178.207 93.7589 177.871 95.243 177.602 96.4288L200.369 118.803L199.79 112.429L178.568 92.1579ZM203.97 124.413C204.077 124.625 203.958 124.769 202.619 123.648C201.282 122.526 175.737 95.7701 163.132 82.5326C162.146 82.2351 159.865 82.265 158.63 84.7636C157.395 87.2625 160.645 90.2245 162.424 91.393L170.978 99.7986M203.97 124.413C204.022 124.667 201.205 126.984 199.79 128.11L172.609 101.401M170.978 99.7986L172.609 101.401M145.189 59.6484C144.181 60.8809 142.603 63.6388 144.352 64.8117C146.102 65.9847 147.782 63.8555 148.404 62.6445C148.511 62.1344 148.018 60.8214 145.189 59.6484ZM138.114 58.5649C137.471 58.7349 136.313 59.6103 136.828 61.7521C137.343 63.8938 138.586 61.9646 139.143 60.7321C139.358 60.2223 139.452 59.0748 138.114 58.5649ZM130.976 63.7282C130.247 64.2593 129.008 65.6149 129.882 66.7879C130.757 67.9608 131.704 66.2565 132.069 65.258C132.176 64.833 132.107 63.9321 130.976 63.7282ZM135.477 68.7638C134.877 69.1889 133.96 70.536 135.092 72.5248C135.477 72.9284 136.429 73.4682 137.15 72.3973C138.05 71.0587 137.343 68.9551 135.477 68.7638Z" stroke="#3D7EF6"/>
</svg>
