<svg width="183" height="158" viewBox="0 0 183 158" fill="none" xmlns="http://www.w3.org/2000/svg">
<path d="M44.7623 20.4741C69.9195 0.751663 128.915 -21.1403 163.642 49.0717C164.077 53.3083 164.483 59.1495 164.604 65.3427M44.7623 20.4741C41.6038 20.4741 29.9646 43.1549 24.5398 54.4953C22.0752 50.7999 19.7673 48.3227 17.6339 46.7832M44.7623 20.4741C35.884 19.3236 16.6474 19.3893 10.7281 28.8561C4.80874 38.3229 6.94628 43.8792 8.75496 45.4741M86.9978 61.3982C87.0609 58.0535 86.2101 54.1053 84.2264 49.0717C79.0963 36.0548 65.6463 32.8006 59.5625 32.8006C54.4653 33.9511 42.7911 39.2104 36.8718 51.0439C30.9524 62.8774 40.6535 75.3683 46.244 80.1345C52.6566 83.4216 67.4549 88.0235 75.3474 80.1345C79.073 76.4105 82.1655 73.3898 84.2264 70.1958M86.9978 61.3982C90.1846 60.4121 97.7421 59.8204 102.478 65.3427C106.259 61.0695 116.783 52.9175 128.621 54.4953C140.46 56.0731 147.695 66.9862 149.832 72.2455C150.654 79.3128 150.72 94.1375 144.406 96.8986C140.46 101.172 129.115 108.436 115.303 103.308C101.491 98.1806 99.0247 80.4632 99.5179 72.2455C96.7591 69.2872 90.3928 64.2579 86.9978 67.808C83.6029 71.358 83.7356 70.8791 84.2264 70.1958M86.9978 61.3982C86.934 64.7823 85.9345 67.5485 84.2264 70.1958M62.027 89.5027C59.5613 93.4472 57.4907 100.153 68.9348 95.4195C69.9213 104.13 77.1232 118.495 98.0381 106.267C99.1891 108.7 102.774 112.5 107.904 108.239M42.7911 103.308C42.2607 102.248 41.963 100.381 43.302 98.8709M47.2306 96.8986C45.2702 97.3185 44.0385 98.0406 43.302 98.8709M43.302 98.8709C46.5585 104.519 51.963 111.513 59.0692 117.446M114.316 118.593C115.404 118.412 117.06 118.461 118.262 119.267M119.742 123.031C119.919 121.083 119.242 119.924 118.262 119.267M118.262 119.267L117.769 120.073L115.303 123.031C107.687 127.426 100.414 129.532 93.5986 129.968M59.0692 117.446C59.5625 120.951 61.7329 128.948 66.4684 132.892M59.0692 117.446C61.3633 119.361 63.8347 121.166 66.4684 122.779M93.5986 129.968C91.7899 131.764 86.8901 135.653 81.76 136.837M93.5986 129.968C91.1697 130.123 88.7989 130.066 86.4916 129.825M66.4684 122.779C67.6194 126.314 72.2891 132.892 81.76 130.92L86.4916 129.825M66.4684 122.779C72.3813 126.4 79.1123 129.054 86.4916 129.825M8.75496 45.4741C5.41354 47.1294 3.0487 51.1204 1.84805 54.4953C-2.09817 82.8957 10.3976 87.6948 17.1388 86.5443C15.9878 87.3661 14.3764 92.1652 17.1388 104.788C19.9012 117.41 41.3094 133.385 51.6682 139.795C51.6682 141.11 53.74 145.613 62.027 153.108C70.3141 160.602 83.2379 155.573 88.664 152.122L122.7 150.149C137.498 152.615 146.871 126.975 148.351 129.441C149.83 131.906 157.723 130.92 161.669 131.413C165.615 131.906 179.92 115.142 180.907 109.718C181.517 106.364 180.618 102.821 178.442 99.6725M8.75496 45.4741C9.66962 45.0209 10.6575 44.7428 11.7146 44.7002M26.0197 26.8838C21.5802 30.5437 12.5039 39.2308 11.7146 44.7002M11.7146 44.7002C13.4968 44.6284 15.4761 45.2261 17.6339 46.7832M32.4323 28.8561C28.486 32.5898 20.0017 41.4025 17.6339 46.7832M164.604 65.3427C164.849 77.8896 163.923 91.8809 159.696 96.8986C153.543 104.202 161.481 96.2221 168.083 94.2189M164.604 65.3427C170.696 71.5881 182.093 86.643 178.936 96.8986L178.442 99.6725M178.442 99.6725C177.516 98.3325 176.359 97.0641 174.989 95.912M166.11 80.6276C167.59 84.1004 170.057 91.6807 168.083 94.2189M168.083 94.2189C169.95 93.6526 171.71 93.564 173.014 94.4333C173.715 94.9 174.374 95.3943 174.989 95.912M172.03 80.1345C173.675 80.2986 176.569 83.6837 174.989 95.912M49.2037 56.9606C51.1768 53.3448 57.4907 47.198 66.9617 51.5369M67.4549 56.4676C67.744 57.1279 68.0931 57.9976 68.4415 58.9735M69.9213 67.808C70.5124 65.7402 69.4804 61.8842 68.4415 58.9735M53.1499 58.4398C55.123 62.8774 60.9437 69.9775 68.4415 62.8774M68.4415 58.9735C67.4549 56.166 63.2128 51.3397 54.1365 54.4953M123.689 68.7941C128.457 71.0951 137.007 77.6692 133.061 85.5582M110.37 78.6553C111.248 77.3392 113.241 75.4329 116.289 74.1817M126.648 73.2317C125.971 73.1139 125.313 73.0302 124.675 72.9772M116.289 74.1817C116.289 80.4392 119.348 90.9819 131.581 83.0929C131.745 80.1292 130.594 73.9569 124.675 72.9772M116.289 74.1817C118.525 73.2641 121.328 72.6989 124.675 72.9772M160.191 105.774C163.808 102.199 171.635 95.9748 174.003 99.6725C176.371 103.37 176.305 107.91 175.976 109.718C174.332 112.901 170.649 119.267 169.07 119.267C167.097 119.267 155.752 126.975 155.752 120.566C155.752 115.438 158.711 108.568 160.191 105.774ZM11.7146 47.5924C8.75496 51.2082 3.23026 59.5245 4.80874 63.8635C6.78185 69.2872 9.24824 82.5998 13.6877 80.6276C18.1272 78.6553 24.0466 62.8774 23.06 61.3982C22.0734 59.919 17.1407 47.0994 11.7146 47.5924Z" stroke="#78A8EF" stroke-width="2"/>
</svg>
