<svg width="154" height="135" viewBox="0 0 154 135" fill="none" xmlns="http://www.w3.org/2000/svg">
<rect width="154" height="135" fill="#1E1E1E"/>
<g id="&#208;&#190; &#208;&#189;&#208;&#176;&#209;&#129;" clip-path="url(#clip0_0_1)">
<rect width="1440" height="9173" transform="translate(-1037 -1585)" fill="white"/>
<g id="Group 207">
<path id="Vector 1251" d="M115.904 35.192L139.404 11.692C97.0039 -8.30801 85.0706 25.692 84.4039 45.192L30.4039 102.692C26.9044 122.6 39.9023 138.6 60.4039 123.692L112.904 72.692C162.504 70.292 155.571 35.3587 145.904 18.192L122.404 41.692L115.904 35.192Z" stroke="#78A8EF"/>
<path id="Vector 1252" d="M51.3359 81.1003L46.2859 76.4296C26.8162 77.7041 -8.20143 69.2088 7.48585 25.0311L33.2049 46.0793L39.0268 38.9655L13.3077 17.9173C29.4287 6.59245 63.5001 -3.77823 70.8174 45.3377L77.3359 52.1003M79.3359 106.1L108.868 124.448C129.025 125.952 143.654 111.428 126.782 92.5094L106.336 79.1003" stroke="#78A8EF"/>
</g>
</g>
<defs>
<clipPath id="clip0_0_1">
<rect width="1440" height="9173" fill="white" transform="translate(-1037 -1585)"/>
</clipPath>
</defs>
</svg>
