<svg width="272" height="270" viewBox="0 0 272 270" fill="none" xmlns="http://www.w3.org/2000/svg">
<path d="M194.04 112.141C222.502 127.002 235.271 155.6 227.83 173.644C220.15 192.269 195.606 204.632 159.865 194.538C141.858 220.81 118.973 234.116 99.5416 226.016C80.1104 217.916 70.9647 194.931 77.1211 159.872C46.4796 143.739 34.8887 113.524 45.3887 93.0254C55.8887 72.5266 78.0589 66.5381 110.847 77.6578C127.669 47.366 150.455 35.5421 174.034 45.371C197.614 55.1999 204.25 86.9033 194.04 112.141Z" stroke="#266EF1" stroke-opacity="0.42" stroke-width="2"/>
<path d="M168.704 149.505C161.304 167.449 142.866 177.318 124.78 169.778C106.693 162.239 94.095 144.296 103.206 122.203C110.605 104.259 127.245 96.426 149.353 103.364C169.061 109.549 177.1 129.145 168.704 149.505Z" stroke="#266EF1" stroke-opacity="0.42" stroke-width="2"/>
</svg>
