<svg width="194" height="45" viewBox="0 0 194 45" fill="none" xmlns="http://www.w3.org/2000/svg">
    <g clip-path="url(#clip0_246_396)">
        <path fill-rule="evenodd" clip-rule="evenodd" d="M131.55 22.3397C141.753 18.4718 141.393 0.652344 125.278 0.652344L68.0146 0.663994L67.5621 7.25526C67.5621 7.25526 76.0632 11.2222 77.3247 11.8019C77.2438 13.2203 76.249 30.4193 76.1831 31.5378C75.2062 32.1116 65.959 37.6455 65.959 37.6455L65.5215 44.6708H122.905C140.872 44.6708 142.745 26.4523 131.55 22.3426V22.3397ZM107.793 32.6824H101.198C101.279 31.2523 101.489 27.5824 101.564 26.2834H108.282C112.785 26.2834 112.471 32.6737 107.796 32.6824H107.793ZM108.671 16.7912C108.671 16.7912 102.394 16.7883 102.073 16.7883C102.145 15.4164 102.31 12.2708 102.376 11.0125C102.453 11.0125 108.977 11.0125 108.977 11.0125C113.169 11.0125 113.193 16.7941 108.671 16.7941V16.7912Z" fill="black"/>
        <path fill-rule="evenodd" clip-rule="evenodd" d="M45.6905 0H20.415C7.512 0 1.05752 10.0718 0.530139 17.6913C0.530139 17.7233 0.0926489 24.3 0.0926489 24.3C-0.875224 31.9485 5.73508 45.0029 18.3054 45.0029H43.3742C55.5191 45.0553 63.304 37.8961 64.4337 25.3602L64.8892 18.8563C65.3896 12.0728 61.6679 0 45.6905 0ZM36.5032 29.0243C36.4073 31.2524 35.023 33.6087 32.4849 33.6437H29.9439C27.8763 33.6146 27.0043 31.9864 27.1212 29.1349C27.1212 29.1524 27.9931 14.3534 27.9931 14.3534C28.0621 12.067 29.818 9.93204 31.6998 9.93204H34.2169C36.2815 9.92039 37.543 11.5689 37.543 14.0913L36.5002 29.0243H36.5032Z" fill="black"/>
        <path d="M144.351 1.23826L143.902 7.8004C143.902 7.8004 154.114 12.9674 155.351 13.582C155.267 14.9363 154.377 29.6625 154.308 30.8247C153.236 31.3868 142.481 37.1043 142.481 37.1043L142.143 44.0771H191.453L191.894 37.3286C191.894 37.3286 182.389 31.2354 181.346 30.58C181.409 29.3742 182.167 14.6159 182.233 13.3839C183.375 12.8421 193.665 7.86448 193.665 7.86448L194 1.23535H144.351V1.23826Z" fill="black"/>
        <path d="M190.419 30.1019L189.583 28.1825H188.873V30.1019H188.412V25.998H189.499C190.195 25.998 190.752 26.0854 190.752 26.8951V27.1893C190.752 27.6757 190.536 27.9815 190.069 28.1068L190.935 30.099H190.416L190.419 30.1019ZM190.287 26.9476C190.287 26.3213 189.85 26.3825 189.356 26.3825H188.873V27.7864H189.341C189.841 27.7864 190.284 27.8417 190.284 27.1602V26.9505L190.287 26.9476Z" fill="black"/>
        <path d="M192.903 28.0226C192.903 29.8488 191.381 31.3255 189.502 31.3255C187.623 31.3255 186.101 29.8459 186.101 28.0226C186.101 26.1993 187.623 24.7168 189.502 24.7168C191.381 24.7168 192.903 26.1964 192.903 28.0226Z" stroke="black" stroke-width="1.52"/>
        <path d="M191.783 3.28809C191.732 4.31624 191.651 5.91527 191.618 6.55605C190.737 6.97546 180.018 12.0755 180.018 12.0755L179.009 31.6599C179.009 31.6599 188.897 37.8842 189.712 38.3997C189.667 39.0726 189.541 41.024 189.475 42.0289H144.354C144.408 40.9425 144.501 39.0085 144.531 38.3619C145.364 37.925 156.514 32.091 156.514 32.091L157.706 12.3696C157.706 12.3696 147.063 7.07449 146.098 6.59391C146.146 5.88323 146.257 4.24343 146.323 3.29391H191.78L191.783 3.28809Z" fill="#FF7E21"/>
        <path fill-rule="evenodd" clip-rule="evenodd" d="M128.865 23.3041L126.072 22.5847L128.787 21.6264C139.988 17.7672 138.81 2.70312 125.311 2.70312C125.311 2.70312 71.6287 2.71478 69.9867 2.71478C69.9207 3.65846 69.8129 5.26623 69.7619 5.99439C70.7568 6.44876 79.6804 10.5323 79.6804 10.5323L78.3979 32.7293C78.3979 32.7293 68.7461 38.3973 67.997 38.8371C67.958 39.4488 67.8322 41.4963 67.7603 42.6148H122.902C138.295 42.6148 140.95 26.4439 128.862 23.3012L128.865 23.3041ZM107.8 34.5876H99.1277L99.709 24.3789H108.279C115.417 24.3789 115.06 34.5701 107.8 34.5876ZM108.767 18.6963L100.015 18.6905L100.512 9.10215H108.833C116.091 9.10215 115.453 18.6963 108.764 18.6963H108.767Z" fill="#FF7E21"/>
        <path fill-rule="evenodd" clip-rule="evenodd" d="M45.6849 2.05078H20.4153C10.7665 2.05078 3.68878 8.41195 2.80481 17.8547C2.80481 17.8547 2.37032 24.4314 2.37032 24.4459C1.51032 32.3683 7.79101 42.9527 18.3058 42.9527H43.3775C58.3241 43.0197 61.5604 31.8469 62.1597 25.1799C62.1597 25.1799 62.6121 18.7197 62.6121 18.7255C63.1575 12.5828 60.0591 2.05078 45.6879 2.05078H45.6849ZM39.584 14.3566C39.584 14.3566 38.5412 29.1498 38.5442 29.1323C38.3884 32.744 35.7964 35.5022 32.5002 35.5488H29.9292C26.4653 35.4993 24.931 32.6246 25.0779 29.045C25.0779 29.045 25.9499 14.2459 25.9499 14.2721C26.0487 10.9488 28.7366 8.03039 31.7002 8.03039H34.2112C36.989 8.01874 39.7008 10.2149 39.584 14.3217V14.3566Z" fill="#FF7E21"/>
    </g>
    <defs>
        <clipPath id="clip0_246_396">
            <rect width="194" height="45" fill="white"/>
        </clipPath>
    </defs>
</svg>
