<svg width="201" height="201" viewBox="0 0 201 201" fill="none" xmlns="http://www.w3.org/2000/svg">
<path id="Vector" d="M47.1553 106.6C50.7674 106.163 54.5687 106.011 58.3531 106.78C60.23 107.178 62.0547 107.792 63.7906 108.609C65.4895 109.419 67.1129 110.379 68.6416 111.477C71.8389 113.796 74.5806 116.57 77.1398 119.373C77.7815 120.064 78.4104 120.763 79.031 121.464L80.8767 123.571L78.2844 125.799C75.416 122.462 72.5792 118.96 70.3725 114.961C68.1621 110.989 66.6001 106.483 66.3758 101.777C66.3185 100.595 66.3507 99.4094 66.4721 98.2317C66.5858 97.0387 66.809 95.8587 67.1386 94.7066C67.2106 94.4134 67.3136 94.1321 67.408 93.8473C67.5078 93.5648 67.5916 93.2745 67.7062 92.9986C67.9327 92.4456 68.1501 91.886 68.4202 91.3567C68.9321 90.2913 69.5216 89.2648 70.1838 88.2857C70.8327 87.322 71.5345 86.395 72.286 85.5091C73.0361 84.6405 73.8029 83.7889 74.6014 82.9906C76.1871 81.3728 77.8458 79.8906 79.4821 78.4299L81.9363 81.7392L80.3015 82.7747C78.5283 83.9046 76.6989 84.9841 74.8225 86.0225C72.9127 87.1018 70.9245 88.0362 68.8748 88.8178C66.7165 89.6458 64.4405 90.1261 62.1316 90.2408C60.9258 90.2804 59.7195 90.1792 58.5371 89.9392C57.355 89.6934 56.2081 89.3016 55.1226 88.7729C52.9909 87.7473 51.1965 86.3848 49.5366 85.0303C47.8646 83.6687 46.2642 82.2214 44.7417 80.6944C43.2124 79.1763 41.7734 77.5698 40.4321 75.8832C39.7645 75.0384 39.1126 74.1818 38.4899 73.3044L38.0233 72.6462C37.8694 72.4259 37.7261 72.1978 37.5589 71.9867C37.236 71.5563 36.9329 71.1119 36.619 70.6746L39.7532 68.801C41.6687 72.2403 43.6034 75.7474 45.1922 79.5077C45.3831 79.9817 45.5825 80.4527 45.7659 80.9302L46.2815 82.3832L46.7494 83.8606L47.1631 85.3623C47.6888 87.3993 48.0164 89.4822 48.1413 91.5822C48.3394 95.5772 47.6204 99.5645 46.0395 103.239C45.4423 104.68 44.635 106.026 43.6438 107.231C43.2762 107.662 42.8747 108.064 42.4432 108.431C42.2494 108.593 42.0623 108.738 41.882 108.868L41.7481 108.963L41.6284 109.022C41.5438 109.063 41.4622 109.102 41.3836 109.141C40.4029 109.603 39.8032 109.777 40.0424 108.643C40.0797 108.483 40.1268 108.325 40.1835 108.171C40.2115 108.088 40.2594 107.983 40.2832 107.906C40.3047 107.833 40.3272 107.757 40.3506 107.678C40.4453 107.364 40.5865 107.024 40.7332 106.635C40.8744 106.244 41.0677 105.832 41.2463 105.363C41.3424 105.133 41.4428 104.893 41.5475 104.643C41.6452 104.39 41.7502 104.129 41.8624 103.861C42.4307 102.452 42.9062 101.008 43.2858 99.5376C43.6826 98.0494 43.9641 96.5328 44.1277 95.0013C44.3402 92.8979 44.2838 90.776 43.9599 88.6869C43.6215 86.5584 43.0871 84.4658 42.3637 82.4356C40.9625 78.3061 38.9308 74.3331 36.8537 70.3479L36.8525 70.3457C36.6806 70.0154 36.6414 69.6319 36.743 69.2737C36.8446 68.9155 37.0793 68.6097 37.3991 68.419C37.7188 68.2282 38.0994 68.1669 38.4629 68.2476C38.8264 68.3283 39.1452 68.545 39.3542 68.8532C39.7607 69.4535 40.1425 70.0719 40.5855 70.6472C41.0243 71.2251 41.4697 71.7975 41.9298 72.3578C42.8449 73.4827 43.8119 74.5627 44.7993 75.6201C46.7688 77.7362 48.8985 79.6975 51.1693 81.4865C52.689 82.7321 54.3206 83.8343 56.0434 84.7792C56.836 85.197 57.668 85.5354 58.5272 85.7893C59.3519 86.0163 60.1964 86.1639 61.0493 86.23C61.8381 86.2745 62.6293 86.252 63.4143 86.1627C64.2276 86.0575 65.0329 85.8973 65.8247 85.6833C67.4684 85.2156 69.0647 84.5952 70.5929 83.8302C73.7373 82.2852 76.782 80.343 79.8816 78.4459L79.8998 78.4348C80.2881 78.1971 80.7516 78.114 81.1983 78.2021C81.6449 78.2901 82.0422 78.5429 82.3112 78.9101C82.5803 79.2774 82.7015 79.7324 82.6507 80.1848C82.6 80.6373 82.381 81.0541 82.0373 81.3527C79.9382 83.1759 77.8851 84.9885 76.049 86.9367C74.2291 88.8899 72.5843 90.9583 71.4407 93.2501C70.9509 94.2247 70.5535 95.243 70.2538 96.2917C69.9673 97.351 69.78 98.4346 69.6943 99.5285C69.5577 101.764 69.7727 104.007 70.3315 106.176C70.8931 108.38 71.7235 110.507 72.8038 112.508C73.898 114.546 75.1387 116.501 76.516 118.358C77.8398 120.178 79.2813 121.936 80.7576 123.68L80.7673 123.691C81.032 124.004 81.1619 124.409 81.1285 124.817C81.095 125.226 80.901 125.604 80.5889 125.87C80.2768 126.136 79.8722 126.267 79.4636 126.234C79.0551 126.202 78.6761 126.009 78.4096 125.698C76.0222 122.907 73.6314 120.157 71.0023 117.72C69.7135 116.495 68.3479 115.352 66.9139 114.3C65.4971 113.272 63.9867 112.38 62.4027 111.635C62.0041 111.465 61.6122 111.275 61.2085 111.12L59.9879 110.681C59.1638 110.425 58.327 110.212 57.4808 110.042C55.7558 109.732 54.0035 109.6 52.2515 109.648C51.3653 109.666 50.4747 109.72 49.5821 109.8C49.1358 109.84 48.6891 109.886 48.2419 109.939L47.5707 110.021L47.2367 110.065L46.9263 110.117C46.5144 110.174 46.0912 110.28 45.6711 110.369C45.2499 110.486 44.8263 110.583 44.4063 110.721C43.5621 110.968 42.73 111.283 41.9041 111.606C40.3098 112.244 38.7672 113.004 37.2899 113.879C35.8599 114.73 34.5476 115.719 33.6731 116.866L32.4845 115.784L32.4265 115.699L32.4278 115.698L32.4358 115.693L32.4464 115.686L32.4678 115.672L32.5108 115.643C32.5389 115.626 32.5678 115.607 32.6064 115.579L32.8226 115.425L33.2597 115.108C33.5522 114.894 33.8431 114.682 34.1323 114.471C34.7149 114.049 35.2904 113.633 35.8587 113.223C37.0002 112.404 38.1251 111.621 39.225 110.856C39.5951 110.59 39.985 110.352 40.3914 110.146C40.5455 110.06 40.6622 110.046 40.7969 109.956C40.8831 109.896 40.9858 109.863 41.0913 109.862L41.1412 109.456C41.1882 109.595 41.1794 109.676 41.2071 109.673C41.2282 109.674 41.2829 109.589 41.2783 109.43C41.2778 109.411 41.2731 109.392 41.2644 109.375C41.2558 109.358 41.2434 109.343 41.2283 109.331C41.2131 109.319 41.1956 109.311 41.1768 109.306C41.1581 109.302 41.1387 109.302 41.1199 109.306C41.1011 109.31 41.0835 109.319 41.0683 109.33C41.0531 109.342 41.0407 109.357 41.032 109.374C41.0232 109.391 41.0184 109.41 41.0178 109.429C41.0172 109.448 41.0208 109.468 41.0285 109.485L41.2182 109.921C41.2532 110.001 41.229 110.176 41.1296 110.418C41.072 110.604 40.9937 110.782 40.896 110.95C40.5939 111.466 40.2314 111.944 39.8162 112.374C38.9236 113.316 38.0048 114.234 37.0633 115.153C36.5926 115.611 36.1156 116.069 35.6323 116.525L34.8975 117.21L34.5164 117.557L34.3163 117.734C34.2406 117.801 34.1239 117.894 34.0277 117.97C33.6833 118.244 33.254 118.389 32.814 118.38C32.374 118.371 31.9511 118.208 31.6187 117.919C31.2862 117.631 31.0651 117.235 30.9936 116.801C30.9221 116.367 31.0048 115.921 31.2273 115.542L31.299 115.421C31.8853 114.463 32.6075 113.595 33.4431 112.844C33.8374 112.507 34.2304 112.15 34.6407 111.855C34.8448 111.703 35.0474 111.543 35.2541 111.398L35.8788 110.976C37.5562 109.886 39.3449 108.978 41.2147 108.267C42.1536 107.899 43.1104 107.578 44.0813 107.306L44.8221 107.106L45.5849 106.933C45.8342 106.871 46.1064 106.831 46.3702 106.784L46.768 106.717L47.1295 106.667C47.1374 106.644 47.1449 106.624 47.1553 106.6Z" fill="#78A8EF"/>
<path id="Vector_2" d="M123.822 65.8222C126.359 66.5778 128.762 67.7253 130.943 69.2231C131.214 69.4122 131.491 69.5923 131.756 69.7894L132.527 70.4137C132.781 70.6253 133.046 70.8231 133.29 71.0468L134.007 71.7335C134.242 71.9669 134.493 72.1822 134.713 72.4311L135.37 73.1771L135.697 73.5506C135.806 73.6733 135.915 73.7978 136.024 73.942C136.242 74.2222 136.456 74.5195 136.659 74.8417C137.03 75.417 137.313 76.0445 137.499 76.7034C137.6 77.0918 137.656 77.4907 137.664 77.892C137.665 78.3255 137.603 78.7568 137.481 79.1728L137.472 79.2023C137.371 79.5463 137.168 79.8516 136.89 80.0782C136.612 80.3047 136.272 80.4419 135.915 80.4718C135.557 80.5016 135.199 80.4227 134.888 80.2453C134.576 80.068 134.325 79.8005 134.168 79.478C133.442 77.9833 132.802 76.4484 132.251 74.881C131.314 72.2705 130.737 69.5444 130.537 66.778C130.335 63.948 130.639 61.1046 131.434 58.3811C132.269 55.6242 133.647 53.062 135.486 50.8447C137.381 48.5756 139.799 46.8011 142.532 45.6744C142.935 45.512 143.379 45.479 143.802 45.5799C144.225 45.6808 144.607 45.9106 144.893 46.2376C145.18 46.5646 145.358 46.9726 145.403 47.4052C145.448 47.8379 145.357 48.2737 145.144 48.6526L145.122 48.6899C144.594 49.6005 143.926 50.4223 143.142 51.125C142.418 51.7667 141.632 52.3348 140.796 52.8207C140 53.2944 139.205 53.6905 138.431 54.058C137.659 54.4219 136.92 54.7673 136.102 55.1182C134.936 55.6382 133.717 56.0294 132.466 56.2849C131.776 56.4166 131.075 56.4802 130.372 56.4745C129.653 56.4653 128.937 56.3781 128.236 56.2146C126.918 55.8851 125.661 55.3455 124.514 54.6165C123.454 53.9439 122.46 53.1722 121.545 52.3117C117.962 49.0026 115.301 44.8188 113.824 40.1709L113.822 40.1641C113.693 39.7587 113.686 39.3246 113.802 38.9154C113.917 38.5061 114.149 38.1394 114.47 37.8606C114.791 37.5817 115.187 37.4029 115.608 37.346C116.03 37.2892 116.459 37.3568 116.842 37.5406C118.067 38.1512 119.116 39.0635 119.891 40.1916C120.573 41.1789 121.111 42.258 121.49 43.3967C121.683 43.9391 121.818 44.4691 121.964 44.9991C122.089 45.5342 122.219 46.0689 122.306 46.6109C122.501 47.6899 122.614 48.782 122.645 49.8779C122.8 54.2835 121.678 58.64 119.414 62.4225C117.962 64.8108 116.033 66.874 113.747 68.4833C112.855 69.1214 111.86 69.6017 110.805 69.9032C110.589 69.9613 110.383 70.01 110.187 70.048C109.986 70.0794 109.796 70.1019 109.615 70.1157C109.289 70.1469 108.959 70.1377 108.635 70.0883C107.784 69.9621 107.629 69.5089 107.99 68.9054C108.357 68.3059 109.229 67.5387 110.445 66.5429L111.025 66.0611L111.6 65.5573C111.98 65.2122 112.373 64.8741 112.746 64.511C113.498 63.795 114.206 63.0349 114.867 62.2345C116.134 60.6775 117.123 58.9134 117.791 57.02C119.143 53.1992 119.206 49.0406 117.972 45.1802C117.701 44.294 117.302 43.4517 116.79 42.6797C116.376 42.0359 115.789 41.5226 115.096 41.1992L117.687 38.9408C118.161 40.282 118.759 41.5758 119.475 42.8052C120.79 45.0791 122.578 47.1272 124.325 48.9411C125.562 50.2387 126.942 51.3279 128.394 51.9059C129.085 52.1887 129.823 52.3396 130.57 52.3508C131.365 52.335 132.154 52.2006 132.91 51.952C133.772 51.6694 134.617 51.3352 135.44 50.9512C136.322 50.551 137.201 50.1537 137.998 49.7344C139.606 48.8993 140.948 47.9199 141.661 46.6999L143.978 49.3959L143.388 49.6444L143.091 49.7665L142.805 49.9116L142.23 50.2003L141.676 50.5298C140.424 51.294 139.298 52.2476 138.338 53.3565C137.363 54.4885 136.541 55.7437 135.893 57.09C135.239 58.4418 134.754 59.8694 134.45 61.3401C134.147 62.8299 134.007 64.3484 134.033 65.8686C134.081 70.0078 135.252 74.1698 137.12 77.9781L134.305 78.2375C134.359 78.0513 134.363 77.8538 134.315 77.6657C134.244 77.3709 134.128 77.0889 133.97 76.8295C133.778 76.505 133.561 76.196 133.321 75.9054L132.478 74.9592C132.195 74.644 131.895 74.345 131.579 74.0635L131.117 73.6256C130.966 73.4762 130.788 73.3564 130.626 73.22C130.29 72.9587 129.968 72.6802 129.623 72.4304L128.561 71.7149C127.107 70.8042 125.555 70.0586 123.935 69.4921C122.3 68.9468 120.612 68.5748 118.899 68.3822C116.755 68.1686 114.594 68.1959 112.456 68.4634C112.326 68.477 112.195 68.4855 112.066 68.5022L111.683 68.5686L110.917 68.693C110.4 68.7534 109.911 68.8905 109.41 68.9937L108.662 69.1503C108.422 69.2093 108.188 69.274 107.963 69.3533C107.502 69.4878 107.093 69.7572 106.787 70.1266C106.717 70.2245 106.661 70.325 106.614 70.4C106.613 70.4016 106.613 70.4033 106.612 70.4051C106.612 70.4069 106.612 70.4088 106.612 70.4106L106.619 70.4374C106.646 70.5329 106.708 70.6147 106.793 70.6664C106.87 70.7141 106.957 70.7455 107.046 70.7586C107.209 70.782 107.374 70.7548 107.52 70.6807C107.59 70.6468 107.652 70.5985 107.702 70.539C107.75 70.4915 107.795 70.4406 107.836 70.3866C107.903 70.293 107.954 70.2281 108.007 70.2274C108.058 70.2259 108.115 70.2894 108.142 70.445C108.153 70.5444 108.145 70.6448 108.12 70.7415C108.104 70.88 108.052 71.012 107.969 71.1236C107.777 71.4039 107.491 71.6069 107.164 71.6963C106.921 71.7624 106.666 71.7647 106.422 71.7029C106.247 71.6574 106.081 71.5803 105.933 71.4755C105.759 71.3498 105.613 71.1906 105.502 71.0073C105.417 70.8686 105.375 70.7084 105.379 70.5459L105.388 70.1375C105.393 69.923 105.423 69.7098 105.48 69.5028C105.511 69.3874 105.551 69.2744 105.599 69.1648C105.655 69.0554 105.718 68.95 105.789 68.8493C106.125 68.3793 106.549 67.9785 107.037 67.6687C107.414 67.4205 107.812 67.2042 108.225 67.022L109.352 66.5074L109.638 66.3812L109.931 66.2779L110.522 66.073C112.116 65.5237 113.77 65.1651 115.449 65.0045C118.256 64.7914 121.079 65.0868 123.782 65.8766C123.795 65.8589 123.807 65.8426 123.822 65.8222Z" fill="#78A8EF"/>
<path id="Vector_3" d="M116.237 123.277L117.71 123.165L119.188 123.149L119.557 123.147L119.927 123.168L120.665 123.212C120.911 123.228 121.157 123.238 121.403 123.26L122.138 123.355C123.118 123.476 124.09 123.653 125.05 123.884L126.476 124.283C126.949 124.423 127.406 124.607 127.87 124.769C129.703 125.464 131.456 126.354 133.1 127.423C134.721 128.503 136.23 129.744 137.603 131.127C137.956 131.502 138.324 131.864 138.661 132.254L139.653 133.441L140.571 134.687C140.878 135.101 141.136 135.551 141.42 135.981C142.507 137.74 143.397 139.613 144.074 141.566L144.517 142.962C144.644 143.364 144.622 143.797 144.454 144.184C144.287 144.57 143.986 144.883 143.606 145.065C143.226 145.247 142.794 145.285 142.388 145.174C141.982 145.062 141.63 144.807 141.397 144.456L141.353 144.388C138.842 140.599 136.241 136.7 134.365 132.294C133.404 130.072 132.703 127.746 132.275 125.362C131.83 122.917 131.786 120.414 132.143 117.954C132.546 115.485 133.362 113.102 134.558 110.905C135.727 108.784 137.114 106.791 138.698 104.96C139.473 104.052 140.276 103.183 141.1 102.339C141.929 101.495 142.796 100.66 143.742 99.8722C144.702 99.0571 145.733 98.3281 146.821 97.6938C147.963 97.029 149.185 96.5133 150.459 96.1594C150.878 96.0428 151.323 96.0586 151.734 96.2046C152.144 96.3506 152.499 96.6196 152.751 96.975C153.003 97.3303 153.138 97.7547 153.14 98.1902C153.141 98.6257 153.009 99.051 152.759 99.4081L152.731 99.4479C151.49 101.156 149.961 102.633 148.211 103.814C146.352 105.064 144.391 106.153 142.347 107.069C140.353 108.028 138.301 108.857 136.201 109.553C135.114 109.908 134.006 110.197 132.883 110.417C131.731 110.652 130.562 110.791 129.388 110.833C128.185 110.879 126.98 110.808 125.79 110.622C124.602 110.429 123.436 110.118 122.309 109.694C120.15 108.862 118.109 107.753 116.237 106.393C112.61 103.801 109.375 100.701 106.63 97.1881C106.29 96.7486 105.955 96.3054 105.631 95.8532C105.468 95.6288 105.306 95.4023 105.15 95.1727C104.991 94.9416 104.839 94.7311 104.656 94.4439C104.241 93.8203 103.922 93.1387 103.707 92.4215C103.57 91.9445 103.508 91.4489 103.525 90.9529C103.548 90.3644 103.701 89.7883 103.971 89.2653L103.983 89.2433C104.117 88.9895 104.299 88.7646 104.52 88.5813C104.741 88.3981 104.996 88.2601 105.27 88.1753C105.544 88.0905 105.832 88.0606 106.118 88.0872C106.404 88.1137 106.681 88.1963 106.935 88.3302C107.209 88.4761 107.449 88.6775 107.641 88.9217C113.076 95.9424 116.051 104.556 116.108 113.434C116.119 115.498 115.874 117.556 115.378 119.56C115.119 120.577 114.778 121.572 114.358 122.535C113.937 123.502 113.427 124.428 112.835 125.3C111.909 126.704 110.678 127.881 109.233 128.742C108.314 129.305 107.273 129.638 106.198 129.714C105.003 129.737 104.924 129.257 105.541 128.599C105.842 128.244 106.317 127.833 106.888 127.275C107.579 126.604 108.226 125.889 108.824 125.134C109.733 123.96 110.466 122.66 111 121.274C111.55 119.826 111.931 118.318 112.134 116.782C112.415 114.546 112.429 112.285 112.176 110.045C111.951 107.779 111.503 105.54 110.84 103.361C109.521 98.9966 107.382 94.9241 104.538 91.3613L107.474 91.0863C107.475 91.0872 107.482 91.0895 107.475 91.0865L107.459 91.0803C107.462 91.0818 107.465 91.083 107.468 91.0839C107.477 91.0867 107.484 91.0879 107.479 91.0865L107.482 91.0909C107.482 91.1168 107.484 91.1427 107.489 91.168C107.521 91.3386 107.578 91.5034 107.658 91.6573C107.779 91.9018 107.918 92.1366 108.075 92.3597L108.679 93.1989C109.515 94.3292 110.412 95.4122 111.35 96.4568C113.233 98.5362 115.322 100.419 117.586 102.075C119.177 103.262 120.895 104.27 122.708 105.08C123.567 105.457 124.454 105.765 125.361 106.003C125.797 106.117 126.239 106.209 126.685 106.279C126.908 106.31 127.126 106.356 127.349 106.38L128.017 106.451C129.964 106.583 131.919 106.39 133.803 105.879C135.802 105.347 137.752 104.649 139.633 103.791C141.548 102.976 143.405 102.029 145.188 100.956C146.849 99.9661 148.302 98.6647 149.47 97.1235L151.48 100.032C149.635 100.52 147.879 101.565 146.249 102.9C145.431 103.562 144.64 104.296 143.858 105.063C143.078 105.834 142.317 106.623 141.592 107.431C140.022 109.14 138.674 111.04 137.581 113.086C136.516 115.072 135.844 117.245 135.602 119.485C135.397 121.757 135.564 124.047 136.096 126.265C136.637 128.539 137.426 130.747 138.449 132.849C140.033 136.177 142.072 139.348 144.145 142.557L141.295 143.841C139.657 137.659 135.199 132.241 129.498 129.212C129.137 129.032 128.787 128.827 128.417 128.665L127.307 128.182C126.935 128.026 126.549 127.908 126.171 127.768C125.98 127.703 125.792 127.627 125.599 127.571L125.016 127.411C124.24 127.194 123.453 127.016 122.659 126.877C121.857 126.78 121.058 126.652 120.247 126.633C119.843 126.601 119.438 126.59 119.032 126.599C118.627 126.609 118.221 126.603 117.816 126.624L116.601 126.723C116.195 126.75 115.795 126.834 115.392 126.886C113.779 127.131 112.196 127.542 110.668 128.115C107.022 129.469 103.704 131.58 100.932 134.31L100.061 133.069C102.35 132.384 104.485 131.259 106.344 129.758C107.399 128.905 107.95 128.495 108.107 128.74C108.17 128.852 108.144 129.136 107.964 129.56C107.855 129.817 107.727 130.066 107.581 130.304C107.498 130.446 107.404 130.596 107.294 130.75C107.24 130.827 107.186 130.909 107.123 130.988C107.058 131.064 106.991 131.142 106.92 131.222C105.279 133.064 103.261 134.533 101.004 135.53C100.629 135.694 100.211 135.728 99.815 135.626C99.4191 135.525 99.0686 135.294 98.8193 134.97C98.57 134.646 98.4362 134.248 98.4392 133.839C98.4423 133.431 98.5819 133.035 98.836 132.715L98.9371 132.588C100.524 130.61 102.408 128.89 104.522 127.49C106.253 126.333 108.128 125.407 110.099 124.735C112.078 124.05 114.126 123.583 116.207 123.343C116.216 123.32 116.225 123.3 116.237 123.277Z" fill="#78A8EF"/>
</svg>
