<svg width="46" height="171" viewBox="0 0 46 171" fill="none" xmlns="http://www.w3.org/2000/svg">
<path d="M1.75861 169.051C1.21625 168.947 0.86108 168.423 0.965315 167.88L2.66392 159.042C2.76815 158.5 3.29231 158.145 3.83467 158.249C4.37703 158.353 4.7322 158.877 4.62797 159.42L3.1181 167.276L10.9743 168.786C11.5167 168.89 11.8719 169.414 11.7676 169.957C11.6634 170.499 11.1392 170.854 10.5969 170.75L1.75861 169.051ZM1.3864 167.241C1.94532 166.863 2.49856 166.478 3.04612 166.087L4.20817 167.715C3.64737 168.115 3.08075 168.509 2.50828 168.897L1.3864 167.241ZM6.26453 163.669C7.32245 162.834 8.35743 161.975 9.36952 161.093L10.6831 162.602C9.64699 163.504 8.58735 164.383 7.50406 165.239L6.26453 163.669ZM12.3456 158.374C13.3169 157.444 14.2652 156.492 15.1905 155.519L16.6397 156.897C15.6932 157.892 14.723 158.867 13.7291 159.819L12.3456 158.374ZM17.9029 152.533C18.7843 151.518 19.6426 150.482 20.478 149.428L22.0455 150.67C21.1918 151.748 20.3145 152.806 19.4135 153.844L17.9029 152.533ZM22.9148 146.212C23.7034 145.122 24.4693 144.015 25.2123 142.892L26.8805 143.995C26.1221 145.142 25.3402 146.272 24.5348 147.384L22.9148 146.212ZM27.3688 139.479C28.0638 138.328 28.7363 137.161 29.3863 135.98L31.1385 136.944C30.4758 138.149 29.79 139.339 29.081 140.513L27.3688 139.479ZM31.2652 132.401C31.867 131.199 32.4465 129.983 33.004 128.755L34.8251 129.582C34.2573 130.833 33.6669 132.071 33.0537 133.296L31.2652 132.401ZM34.6067 125.044C35.1178 123.799 35.607 122.542 36.0744 121.274L37.9508 121.966C37.4752 123.256 36.9773 124.535 36.457 125.803L34.6067 125.044ZM37.4065 117.458C37.828 116.179 38.2279 114.891 38.6064 113.595L40.5262 114.156C40.1414 115.473 39.7347 116.783 39.306 118.084L37.4065 117.458ZM39.6757 109.691C40.0099 108.386 40.3228 107.074 40.6146 105.756L42.5673 106.188C42.2709 107.528 41.9529 108.861 41.6132 110.187L39.6757 109.691ZM41.4253 101.791C41.6742 100.466 41.9021 99.1352 42.109 97.8007L44.0854 98.1071C43.8752 99.4624 43.6438 100.814 43.3909 102.16L41.4253 101.791ZM42.6664 93.7915C42.8312 92.4524 42.9753 91.1102 43.0986 89.7661L45.0902 89.9487C44.965 91.3134 44.8188 92.6761 44.6514 94.0359L42.6664 93.7915ZM43.4062 85.7289C43.4881 84.3815 43.5493 83.0329 43.5898 81.6843L45.5889 81.7444C45.5477 83.1134 45.4857 84.4823 45.4026 85.8502L43.4062 85.7289ZM43.6495 77.6351C43.6488 76.2846 43.6274 74.935 43.5854 73.5872L45.5844 73.5249C45.627 74.8931 45.6488 76.2631 45.6495 77.634L43.6495 77.6351ZM43.3973 69.5431C43.3137 68.1939 43.2094 66.8475 43.0845 65.505L45.0759 65.3197C45.2027 66.6828 45.3086 68.0497 45.3934 69.4195L43.3973 69.5431ZM42.6467 61.4813C42.4796 60.1404 42.2916 58.8043 42.083 57.4742L44.0588 57.1642C44.2708 58.5153 44.4616 59.8722 44.6314 61.2339L42.6467 61.4813ZM41.3912 53.4837C41.1388 52.1555 40.8655 50.8344 40.5712 49.5215L42.5228 49.084C42.8218 50.4185 43.0996 51.7609 43.356 53.1103L41.3912 53.4837ZM39.6216 45.5922C39.2815 44.2819 38.9202 42.981 38.5377 41.6904L40.4552 41.122C40.8443 42.4347 41.2117 43.7576 41.5574 45.0898L39.6216 45.5922ZM37.3204 37.8333C36.8911 36.5526 36.4403 35.2837 35.9681 34.0275L37.8402 33.3237C38.321 34.6027 38.7799 35.8945 39.2167 37.1978L37.3204 37.8333ZM34.4745 30.2687C33.9516 29.0215 33.4066 27.7886 32.8397 26.5712L34.6528 25.727C35.2307 26.9681 35.7861 28.2246 36.3189 29.4953L34.4745 30.2687ZM31.063 22.9463C30.4446 21.7464 29.8038 20.5635 29.1408 19.3988L30.8788 18.4094C31.5558 19.5985 32.2098 20.8058 32.8408 22.03L31.063 22.9463ZM27.0669 15.9317C26.349 14.7889 25.6084 13.6661 24.8451 12.5644L26.489 11.4254C27.2697 12.5522 28.0269 13.7001 28.7604 14.8679L27.0669 15.9317ZM22.4739 9.3066C21.6555 8.23605 20.8139 7.18842 19.9494 6.16492L21.4772 4.87433C22.3631 5.92303 23.2249 6.99599 24.0628 8.0919L22.4739 9.3066ZM17.2721 3.15241C16.8138 2.66245 16.3498 2.17892 15.8799 1.70198L17.3047 0.298402C17.7868 0.787748 18.2628 1.28375 18.7328 1.78623L17.2721 3.15241Z" fill="#404040"/>
</svg>
