<svg width="195" height="201" viewBox="0 0 195 201" fill="none" xmlns="http://www.w3.org/2000/svg">
<path d="M51.6037 151.414L56.6004 35.5976M51.6037 151.414L137.147 121.762M51.6037 151.414L165.774 148.51M51.6037 151.414L86.7801 67.0276M56.6004 35.5976L100.305 21.8887M56.6004 35.5976L86.7801 67.0276M137.147 121.762L86.7801 67.0276M137.147 121.762L150.316 58.7485M137.147 121.762L180.187 106.64M137.147 121.762L165.774 148.51M100.305 21.8887L86.7801 67.0276M100.305 21.8887L150.316 58.7485M86.7801 67.0276L150.316 58.7485M150.316 58.7485L180.187 106.64M180.187 106.64L165.774 148.51" stroke="#78A8EF" stroke-width="3"/>
</svg>
