<svg width="511" height="287" viewBox="0 0 511 287" fill="none" xmlns="http://www.w3.org/2000/svg">
<path d="M93.9009 252.1L93.8559 252.025C93.6894 251.555 93.6192 251.085 93.6453 250.615C93.6672 250.147 93.759 249.72 93.9206 249.333C94.0797 248.942 94.3037 248.555 94.5926 248.173C94.8789 247.785 95.1799 247.447 95.4953 247.156C95.8125 246.858 96.1632 246.569 96.5473 246.289C96.6362 246.219 96.8232 246.098 97.1083 245.928C97.2131 245.866 97.359 245.781 97.5459 245.675C97.7304 245.565 97.8499 245.494 97.9044 245.461C98.0343 245.384 98.171 245.308 98.3143 245.234C98.4552 245.155 98.5814 245.086 98.6929 245.025C98.8086 244.961 98.9511 244.89 99.1204 244.812C99.2897 244.734 99.4209 244.672 99.5139 244.628C99.6112 244.582 99.7553 244.518 99.9464 244.438C100.142 244.356 100.279 244.3 100.358 244.27C100.434 244.235 100.58 244.176 100.798 244.092C101.016 244.001 101.153 243.945 101.209 243.923C101.264 243.902 101.412 243.845 101.652 243.752C101.895 243.653 102.037 243.597 102.08 243.582C102.784 243.304 103.433 242.987 104.029 242.632C105.161 241.956 106.149 241.116 106.994 240.111C107.051 240.036 107.099 239.988 107.137 239.965C107.238 239.905 107.342 239.889 107.449 239.916C107.553 239.939 107.645 239.992 107.723 240.076C107.76 240.1 107.799 240.145 107.839 240.212C107.914 240.338 107.947 240.474 107.938 240.622C107.93 240.769 107.866 240.901 107.748 241.017C106.614 242.194 105.565 243.071 104.601 243.647C104.269 243.845 103.958 244.008 103.665 244.137C103.568 244.184 103.482 244.221 103.407 244.248C103.334 244.269 103.257 244.296 103.174 244.328C103.193 244.533 103.271 244.839 103.407 245.247C103.542 245.655 103.646 245.929 103.718 246.068C103.758 246.174 103.843 246.397 103.971 246.735C104.099 247.074 104.213 247.359 104.311 247.59C104.413 247.819 104.521 248.037 104.632 248.243C104.881 248.697 105.078 249.046 105.223 249.289C105.632 249.955 106.025 250.542 106.403 251.05C106.78 251.558 107.094 251.942 107.346 252.202C107.599 252.454 107.819 252.656 108.005 252.806C108.192 252.956 108.337 253.057 108.442 253.108L108.602 253.192C108.661 253.27 108.696 253.32 108.709 253.341C108.734 253.383 108.752 253.423 108.764 253.462C108.777 253.494 108.785 253.521 108.786 253.542C108.785 253.56 108.783 253.575 108.78 253.589C108.777 253.602 108.773 253.616 108.77 253.629L108.755 253.647C108.65 253.851 108.473 254.028 108.226 254.175C108.218 254.18 108.203 254.189 108.182 254.202C108.159 254.21 108.143 254.217 108.134 254.222C107.969 254.298 107.841 254.306 107.749 254.247C106.658 253.63 105.596 252.456 104.562 250.725C104.079 249.916 103.643 249.061 103.253 248.162C103.024 247.645 102.83 247.172 102.671 246.744C102.512 246.316 102.402 245.983 102.34 245.747C102.281 245.504 102.237 245.303 102.21 245.143C102.18 244.979 102.167 244.867 102.171 244.807L102.182 244.724C100.711 245.204 99.6278 245.624 98.932 245.982L98.366 246.32C98.3451 246.333 98.309 246.349 98.2579 246.368C98.2085 246.38 98.167 246.397 98.1335 246.417C98.1041 246.434 98.0873 246.458 98.0831 246.489C98.0719 246.604 98.0791 246.787 98.1045 247.039C98.1299 247.292 98.1845 247.64 98.2681 248.085C98.3534 248.523 98.5181 249.056 98.7621 249.684C99.0103 250.309 99.3192 250.941 99.6889 251.579L99.8804 251.899C101.014 253.798 102.232 255.309 103.534 256.432C103.554 256.447 103.576 256.474 103.599 256.512C103.654 256.604 103.654 256.715 103.6 256.844C103.544 256.968 103.445 257.084 103.305 257.191C103.242 257.239 103.199 257.271 103.174 257.286C103.061 257.354 102.953 257.398 102.852 257.419C102.752 257.433 102.662 257.424 102.581 257.393C102.504 257.359 102.443 257.33 102.4 257.305C102.361 257.277 102.313 257.24 102.257 257.194C101.973 256.937 101.424 256.281 100.612 255.225C100.109 254.592 99.6137 253.867 99.1255 253.05C98.9803 252.806 98.8748 252.625 98.8089 252.505C98.617 252.165 98.4377 251.831 98.2709 251.504C98.1083 251.175 97.9695 250.871 97.8545 250.592C97.7438 250.312 97.643 250.048 97.5522 249.8C97.4632 249.547 97.3908 249.311 97.3352 249.094C97.2795 248.877 97.2322 248.684 97.1932 248.513C97.1542 248.343 97.1257 248.181 97.1076 248.027C97.0895 247.873 97.0751 247.754 97.0644 247.669C97.0554 247.578 97.0476 247.489 97.0411 247.402C97.0387 247.312 97.0384 247.264 97.0401 247.257C95.1472 248.649 94.3954 250.133 94.7848 251.709C94.8113 251.858 94.682 252.018 94.3969 252.188L94.3277 252.229C94.2447 252.262 94.1652 252.267 94.089 252.244C94.0087 252.224 93.946 252.176 93.9009 252.1ZM108.906 250.571C108.448 249.803 108.19 248.814 108.132 247.603L108.128 247.512L108.126 247.479C108.12 247.46 108.116 247.428 108.112 247.385C108.113 247.339 108.112 247.308 108.109 247.293C108.193 246.481 108.571 245.8 109.244 245.251C109.196 245.171 109.148 245.086 109.1 244.995C109.051 244.905 109.026 244.857 109.023 244.853C109.018 244.834 109.003 244.805 108.981 244.768C108.971 244.751 108.955 244.729 108.933 244.702C108.916 244.673 108.902 244.65 108.892 244.633C108.832 244.532 108.802 244.439 108.802 244.354C108.802 244.269 108.856 244.177 108.962 244.079C109.016 244.036 109.078 243.993 109.15 243.95C109.267 243.88 109.369 243.836 109.455 243.819C109.554 243.794 109.665 243.819 109.789 243.893C109.91 243.962 110.012 244.066 110.095 244.205C110.122 244.251 110.142 244.288 110.152 244.315C110.203 244.467 110.257 244.6 110.314 244.714C110.929 244.534 111.512 244.559 112.063 244.787C112.961 245.138 113.634 245.689 114.082 246.439C114.563 247.244 114.716 248.176 114.541 249.236C114.449 249.797 114.266 250.304 113.991 250.759C113.716 251.213 113.367 251.566 112.944 251.819C112.323 252.19 111.643 252.274 110.903 252.073C110.025 251.83 109.359 251.329 108.906 250.571ZM109.95 249.99C110.04 250.141 110.118 250.262 110.184 250.354C110.247 250.441 110.339 250.534 110.461 250.632C110.579 250.726 110.71 250.793 110.853 250.832C111.152 250.904 111.445 250.928 111.732 250.905C112.024 250.878 112.27 250.805 112.472 250.685C113.029 250.352 113.352 249.784 113.441 248.98C113.526 248.207 113.416 247.567 113.114 247.06C112.948 246.783 112.733 246.528 112.468 246.294C112.205 246.053 111.924 245.902 111.626 245.841C111.381 245.783 111.094 245.798 110.766 245.886C111.213 247.035 111.409 247.648 111.354 247.727C111.313 247.774 111.27 247.811 111.224 247.839C111.102 247.911 110.97 247.947 110.828 247.947C110.686 247.947 110.578 247.886 110.506 247.764L110.479 247.72C110.368 247.429 110.141 246.958 109.799 246.309C109.645 246.413 109.526 246.532 109.442 246.668C109.359 246.797 109.303 246.978 109.272 247.213C109.27 247.219 109.273 247.238 109.279 247.268C109.284 247.294 109.285 247.31 109.283 247.317C109.276 247.344 109.274 247.382 109.275 247.432C109.272 247.531 109.271 247.583 109.274 247.587C109.296 247.966 109.364 248.381 109.478 248.83C109.595 249.272 109.752 249.659 109.95 249.99ZM116.224 246.525C115.958 246.081 115.632 245.397 115.246 244.473C114.863 243.547 114.605 242.962 114.471 242.718C114.348 242.513 114.414 242.334 114.67 242.181C114.825 242.088 114.999 242.05 115.19 242.066C115.38 242.079 115.526 242.153 115.631 242.29L115.713 242.428C115.859 242.671 116.072 243.215 116.354 244.059C116.636 244.902 116.885 245.505 117.1 245.865C117.468 246.481 117.899 246.765 118.392 246.714C118.589 246.682 118.746 246.631 118.864 246.561C119.107 246.416 119.286 246.178 119.402 245.847C119.521 245.514 119.58 245.127 119.577 244.685C119.579 244.24 119.561 243.819 119.522 243.421C119.488 243.021 119.44 242.592 119.377 242.134C119.318 241.674 119.284 241.351 119.275 241.163C119.269 240.791 119.371 240.543 119.58 240.418C119.727 240.33 119.897 240.314 120.089 240.37C120.286 240.423 120.424 240.517 120.504 240.651C120.634 240.869 120.781 241.196 120.946 241.633C121.114 242.067 121.252 242.374 121.359 242.554C121.732 243.179 122.146 243.591 122.601 243.792C123.057 243.992 123.578 243.917 124.165 243.566C124.186 243.554 124.22 243.536 124.269 243.513C124.315 243.485 124.351 243.464 124.376 243.449C124.502 243.374 124.602 243.299 124.678 243.226C124.682 243.223 124.688 243.214 124.695 243.198C124.703 243.182 124.709 243.173 124.713 243.171C124.835 243.098 124.969 243.095 125.116 243.16C125.265 243.219 125.381 243.318 125.464 243.456C125.611 243.703 125.596 243.912 125.418 244.08C125.152 244.33 124.862 244.549 124.548 244.737C124.267 244.904 123.99 245.021 123.717 245.088C123.441 245.15 123.194 245.17 122.975 245.147C122.754 245.119 122.54 245.06 122.331 244.968C122.125 244.87 121.947 244.763 121.798 244.647C121.649 244.531 121.506 244.395 121.367 244.239C121.226 244.079 121.117 243.944 121.041 243.836C120.965 243.728 120.894 243.617 120.826 243.504L120.717 243.322C120.67 243.805 120.678 244.295 120.742 244.791C120.745 245.187 120.7 245.555 120.607 245.895C120.515 246.235 120.39 246.522 120.235 246.757C120.077 246.988 119.92 247.182 119.763 247.338C119.607 247.487 119.446 247.612 119.278 247.712C119.224 247.745 119.156 247.78 119.076 247.816C118.993 247.849 118.941 247.871 118.92 247.884C117.928 248.328 117.03 247.875 116.224 246.525ZM115.176 239.013C114.98 238.686 114.864 238.334 114.827 237.958C114.798 237.748 114.855 237.6 114.998 237.515C115.086 237.463 115.183 237.453 115.288 237.487C115.391 237.516 115.475 237.586 115.54 237.695C115.555 237.72 115.574 237.771 115.598 237.848C115.632 237.981 115.692 238.121 115.78 238.268C115.908 238.482 116.067 238.634 116.258 238.725C116.448 238.816 116.632 238.809 116.808 238.704C116.879 238.661 116.965 238.581 117.066 238.464C117.406 238.005 117.594 237.501 117.629 236.95C117.635 236.799 117.701 236.686 117.827 236.611C117.94 236.543 118.069 236.526 118.214 236.559C118.361 236.585 118.469 236.657 118.539 236.774C118.577 236.837 118.592 236.939 118.585 237.079C118.56 237.629 118.464 238.096 118.296 238.481C118.125 238.861 117.84 239.17 117.442 239.408C117.429 239.416 117.404 239.425 117.365 239.437C117.331 239.446 117.307 239.454 117.295 239.462C116.827 239.707 116.41 239.785 116.045 239.697C115.68 239.601 115.391 239.373 115.176 239.013ZM125.263 244.062L125.244 244.031C125.141 243.859 125.111 243.681 125.155 243.496C125.191 243.309 125.256 243.165 125.349 243.064L125.485 242.906C125.483 242.77 125.483 242.589 125.483 242.361C125.488 242.131 125.519 241.706 125.575 241.086C125.636 240.464 125.724 239.897 125.839 239.385C126.038 238.538 126.222 237.859 126.39 237.35L126.445 237.171C126.48 237.048 126.514 236.929 126.547 236.812C126.58 236.696 126.595 236.636 126.592 236.632C126.352 236.354 126.043 236.164 125.663 236.061C125.28 235.953 124.928 235.945 124.606 236.035C124.399 236.096 124.245 236.043 124.144 235.875C124.072 235.754 124.054 235.614 124.09 235.456C124.128 235.291 124.216 235.167 124.355 235.084L124.436 235.036C124.671 234.952 124.914 234.912 125.166 234.915C125.42 234.912 125.657 234.941 125.876 235.003C126.095 235.066 126.328 235.16 126.574 235.286C126.824 235.41 127.042 235.533 127.229 235.654C127.415 235.776 127.617 235.92 127.836 236.085C127.889 236.127 128.504 236.628 129.679 237.587C129.717 237.621 129.844 237.749 130.062 237.972C130.282 238.187 130.478 238.358 130.649 238.483C130.821 238.608 130.979 238.678 131.125 238.694C131.288 238.767 131.425 238.83 131.536 238.883C131.541 238.891 131.552 238.891 131.569 238.881C131.728 238.814 131.916 238.756 132.131 238.707C132.677 238.574 133.072 238.711 133.315 239.118C133.47 239.378 133.571 239.747 133.617 240.225C133.668 240.701 133.697 241.187 133.704 241.684C133.713 242.184 133.742 242.528 133.791 242.715C133.855 242.966 133.768 243.163 133.529 243.306C133.404 243.381 133.27 243.41 133.128 243.392C132.989 243.378 132.886 243.315 132.819 243.202C132.781 243.139 132.756 243.068 132.744 242.99C132.73 242.805 132.717 242.537 132.706 242.185C132.702 241.835 132.69 241.515 132.671 241.225C132.658 240.937 132.631 240.669 132.591 240.42C132.583 240.368 132.575 240.299 132.569 240.212C132.562 240.124 132.554 240.053 132.543 239.997C132.539 239.942 132.527 239.898 132.507 239.865C132.449 239.768 132.331 239.756 132.152 239.829C131.825 239.956 131.428 240.159 130.963 240.437L130.768 240.553C130.625 240.638 130.415 240.767 130.137 240.939C129.862 241.108 129.654 241.235 129.511 241.321C129.205 241.503 128.972 241.637 128.812 241.721C128.458 241.91 128.196 242.055 128.024 242.158C127.747 242.323 127.235 242.685 126.489 243.245C126.364 243.445 126.345 243.618 126.433 243.765L126.451 243.796C126.526 243.882 126.835 244.181 127.379 244.692C127.93 245.205 128.221 245.483 128.253 245.527L128.283 245.577C128.388 245.753 128.348 245.897 128.164 246.007C128.113 246.037 128.036 246.069 127.931 246.103C127.739 246.161 127.295 245.909 126.6 245.345C125.905 244.782 125.46 244.354 125.263 244.062ZM126.566 241.945L126.606 241.955C126.944 241.645 127.358 241.344 127.849 241.051C128 240.961 128.227 240.831 128.529 240.662C128.836 240.49 129.065 240.359 129.216 240.269L129.474 240.115C129.841 239.873 130.121 239.688 130.313 239.562C130.274 239.517 130.253 239.49 130.248 239.482L130.078 239.37C129.966 239.277 129.822 239.173 129.644 239.057C129.469 238.935 129.325 238.827 129.213 238.735C129.108 238.644 128.958 238.517 128.764 238.355C128.572 238.185 128.396 238.034 128.238 237.901C128.08 237.762 127.93 237.633 127.785 237.515C127.622 237.385 127.517 237.299 127.47 237.259C127.465 237.251 127.454 237.251 127.437 237.261L127.425 237.269C127.311 237.468 127.208 237.725 127.118 238.041C127.025 238.352 126.963 238.591 126.932 238.758C126.901 238.924 126.857 239.18 126.802 239.526C126.64 240.397 126.562 241.196 126.571 241.925L126.566 241.945ZM132.838 235.905C132.567 235.452 132.378 234.963 132.268 234.437C132.163 233.908 132.154 233.373 132.24 232.833C132.327 232.292 132.518 231.808 132.815 231.381C133.089 230.983 133.428 230.665 133.83 230.424C134.283 230.154 134.728 230.042 135.165 230.088C135.6 230.13 135.945 230.365 136.2 230.792C136.318 230.989 136.409 231.242 136.473 231.55C136.61 232.208 136.541 232.849 136.266 233.474C135.988 234.095 135.568 234.573 135.007 234.909C134.646 235.124 134.217 235.252 133.718 235.294L133.797 235.426C134.183 236.072 134.669 236.381 135.256 236.355C135.683 236.356 136.104 236.232 136.519 235.984C137.224 235.564 137.797 234.877 138.241 233.924C138.311 233.775 138.392 233.672 138.484 233.617C138.605 233.544 138.734 233.536 138.869 233.592C139.005 233.647 139.113 233.742 139.193 233.876C139.336 234.115 139.347 234.358 139.228 234.606C138.978 235.13 138.66 235.627 138.275 236.096C137.894 236.563 137.477 236.931 137.024 237.201C136.538 237.492 136.029 237.639 135.497 237.644C134.967 237.642 134.44 237.459 133.916 237.096C133.482 236.78 133.123 236.383 132.838 235.905ZM130.497 230.385L130.467 230.334C130.412 230.214 130.411 230.083 130.464 229.944C130.517 229.804 130.606 229.696 130.732 229.621C130.74 229.616 130.752 229.612 130.767 229.609C130.787 229.603 130.8 229.598 130.809 229.593C130.953 229.529 131.099 229.516 131.246 229.553C131.393 229.59 131.503 229.67 131.576 229.791C131.581 229.8 131.585 229.812 131.588 229.827C131.589 229.838 131.592 229.847 131.597 229.856C131.655 229.98 131.66 230.108 131.613 230.239C131.57 230.367 131.485 230.468 131.359 230.543C131.351 230.548 131.335 230.555 131.312 230.563C131.288 230.572 131.27 230.58 131.258 230.587C131.109 230.653 130.964 230.666 130.82 230.626C130.677 230.587 130.569 230.506 130.497 230.385ZM133.385 234.393C133.596 234.346 133.771 234.296 133.909 234.242C134.02 234.209 134.179 234.132 134.384 234.009C134.795 233.764 135.086 233.437 135.257 233.027C135.428 232.618 135.445 232.195 135.31 231.759C135.303 231.729 135.282 231.684 135.247 231.626C135.145 231.454 134.987 231.337 134.774 231.277C134.566 231.213 134.376 231.233 134.204 231.336L134.2 231.372C133.938 231.552 133.732 231.822 133.584 232.184C133.438 232.538 133.352 232.908 133.326 233.293C133.305 233.715 133.324 234.082 133.385 234.393ZM133.712 228.269L133.682 228.218C133.629 228.091 133.625 227.962 133.673 227.831C133.722 227.694 133.809 227.588 133.935 227.513L134.01 227.468C134.154 227.404 134.3 227.397 134.448 227.445C134.598 227.486 134.711 227.57 134.786 227.696L134.812 227.74C134.865 227.867 134.869 227.996 134.821 228.126C134.774 228.257 134.69 228.359 134.568 228.431C134.56 228.436 134.545 228.445 134.524 228.457C134.501 228.466 134.485 228.472 134.476 228.477C134.328 228.543 134.182 228.556 134.039 228.517C133.896 228.477 133.787 228.394 133.712 228.269ZM139.739 230.948C139.679 230.847 139.595 230.687 139.487 230.468C139.372 230.2 139.245 229.844 139.104 229.399C138.966 228.948 138.854 228.622 138.769 228.422C138.752 228.404 138.686 228.361 138.572 228.293C138.459 228.218 138.392 228.164 138.372 228.13C138.305 228.017 138.3 227.886 138.359 227.737C138.422 227.586 138.515 227.474 138.636 227.401C138.653 227.391 138.791 227.337 139.051 227.239C139.311 227.14 139.454 227.089 139.48 227.085C139.655 227.026 139.779 226.981 139.851 226.949C139.889 226.937 139.941 226.929 140.007 226.924C140.494 226.769 140.935 226.597 141.328 226.408C141.723 226.212 142.186 225.955 142.719 225.637L142.857 225.555C142.909 225.489 142.984 225.439 143.082 225.403C143.342 225.248 143.592 225.081 143.833 224.904C144.495 224.412 145.064 223.913 145.541 223.406C146.019 222.893 146.495 222.285 146.968 221.582C146.978 221.57 146.991 221.548 147.006 221.516C147.025 221.482 147.04 221.459 147.05 221.447C147.1 221.36 147.174 221.288 147.27 221.231C147.492 221.098 147.715 221.104 147.938 221.25C148.044 221.34 148.109 221.406 148.134 221.448C148.264 221.666 148.248 221.897 148.087 222.142C147.861 222.487 147.71 222.711 147.635 222.813C147.672 222.904 147.67 223.01 147.629 223.132C147.359 223.89 147.558 224.846 148.225 226.001C148.24 226.026 148.295 226.124 148.391 226.294C148.485 226.46 148.566 226.601 148.636 226.719C149.185 227.637 149.585 228.103 149.838 228.117C150.08 228.132 150.242 228.208 150.325 228.346C150.415 228.497 150.413 228.669 150.318 228.863C150.227 229.053 150.099 229.198 149.936 229.295L149.842 229.352C149.746 229.392 149.652 229.396 149.56 229.366C149.468 229.336 149.392 229.27 149.332 229.17C149.315 229.14 149.294 229.087 149.271 229.01L149.196 228.884C149.113 228.746 148.929 228.543 148.644 228.275C148.361 228.001 148.176 227.801 148.09 227.676C147.898 227.41 147.711 227.126 147.531 226.824C147.373 226.56 147.234 226.299 147.114 226.041C146.786 225.282 146.606 224.618 146.574 224.051C146.104 224.56 145.677 224.982 145.293 225.32C144.913 225.655 144.464 225.989 143.946 226.321C144.039 227.181 144.186 227.781 144.389 228.12L144.596 228.466C144.606 228.483 144.619 228.506 144.637 228.535C144.659 228.562 144.674 228.584 144.684 228.601C144.74 228.693 144.828 228.859 144.948 229.1C145.074 229.338 145.171 229.516 145.241 229.633C145.532 230.12 145.834 230.383 146.148 230.423C146.205 230.423 146.282 230.442 146.379 230.481C146.482 230.539 146.558 230.61 146.608 230.694C146.723 230.887 146.723 231.1 146.607 231.334C146.535 231.462 146.456 231.553 146.368 231.605C146.179 231.718 145.978 231.715 145.766 231.598C145.486 231.452 145.206 231.227 144.927 230.921C144.648 230.616 144.426 230.339 144.261 230.091C144.097 229.836 143.879 229.48 143.606 229.023L143.508 228.86C143.458 228.776 143.414 228.692 143.374 228.607C143.333 228.518 143.297 228.42 143.267 228.313C143.235 228.201 143.209 228.111 143.191 228.042C143.17 227.97 143.148 227.866 143.125 227.732C143.104 227.591 143.088 227.498 143.078 227.453C143.072 227.405 143.059 227.302 143.038 227.144C143.018 226.986 143.005 226.894 143.001 226.868C142.948 226.893 142.826 226.961 142.635 227.069C142.446 227.171 142.312 227.242 142.234 227.283C142.156 227.324 142.031 227.39 141.858 227.482C141.687 227.567 141.548 227.633 141.439 227.681C141.335 227.726 141.209 227.781 141.061 227.847C140.91 227.909 140.771 227.961 140.642 228.003C140.512 228.041 140.384 228.075 140.259 228.104C140.058 228.758 140.248 229.572 140.829 230.545C140.882 230.633 140.979 230.776 141.121 230.976C141.153 231.02 141.238 231.139 141.378 231.335C141.517 231.53 141.614 231.663 141.667 231.733C141.725 231.801 141.812 231.905 141.93 232.045C142.05 232.179 142.165 232.292 142.277 232.384C142.391 232.47 142.512 232.548 142.64 232.62C142.727 232.67 142.799 232.744 142.857 232.84C142.929 232.99 142.928 233.15 142.853 233.32C142.782 233.487 142.672 233.616 142.521 233.706L142.483 233.729C142.196 233.877 141.967 233.807 141.794 233.517L141.692 233.348C141.58 233.159 141.37 232.912 141.062 232.606C140.756 232.294 140.555 232.076 140.458 231.952C140.159 231.585 139.92 231.25 139.739 230.948ZM156.559 216.887C156.477 216.748 156.459 216.6 156.506 216.441C156.551 216.277 156.636 216.158 156.762 216.083C156.93 215.983 157.098 215.993 157.267 216.114C157.727 216.38 158.241 216.989 158.809 217.94L159.083 218.399C159.353 218.204 159.811 217.913 160.457 217.528C160.905 217.26 161.17 217.108 161.25 217.071C160.824 216.177 160.507 215.354 160.297 214.603C160.257 214.479 160.261 214.366 160.308 214.264C160.353 214.158 160.425 214.075 160.526 214.015C160.673 213.927 160.82 213.879 160.968 213.87C161.121 213.859 161.233 213.914 161.306 214.035C161.323 214.065 161.344 214.118 161.367 214.195C161.721 215.303 162.03 216.125 162.294 216.661C162.392 216.626 162.505 216.581 162.632 216.528C162.761 216.468 162.861 216.425 162.931 216.4C163.003 216.368 163.096 216.347 163.209 216.337C163.322 216.326 163.442 216.337 163.569 216.369C163.65 216.389 163.736 216.477 163.829 216.632C163.954 216.842 163.968 216.998 163.871 217.102C163.83 217.149 163.741 217.213 163.603 217.296C163.498 217.358 163.375 217.42 163.235 217.481C163.097 217.535 162.987 217.575 162.906 217.601L162.778 217.643C162.995 218.026 163.157 218.307 163.265 218.487C164.291 220.206 165.319 221.423 166.35 222.139C166.42 222.199 166.475 222.263 166.515 222.33C166.6 222.473 166.619 222.629 166.573 222.799C166.531 222.966 166.447 223.088 166.321 223.163C166.157 223.26 165.991 223.249 165.822 223.128C164.563 222.247 163.368 220.86 162.236 218.965C162.139 218.801 161.981 218.518 161.762 218.113L160.284 218.996L159.636 219.383C160.225 220.436 160.732 221.379 161.155 222.212C161.225 222.358 161.234 222.506 161.182 222.657C161.132 222.801 161.043 222.91 160.918 222.985C160.796 223.058 160.67 223.085 160.539 223.066C160.41 223.041 160.307 222.963 160.23 222.833L160.2 222.783C160.037 222.453 159.704 221.848 159.2 220.966C158.7 220.081 158.277 219.35 157.932 218.771C157.862 218.654 157.786 218.531 157.704 218.404C157.622 218.276 157.579 218.208 157.574 218.2C157.54 218.152 157.465 218.037 157.351 217.855C157.234 217.669 157.124 217.508 157.019 217.371C156.919 217.232 156.829 217.138 156.749 217.089C156.675 217.042 156.612 216.975 156.559 216.887ZM166.641 216.898C166.518 216.692 166.439 216.475 166.405 216.245C166.358 215.767 166.474 215.309 166.752 214.87C167.027 214.426 167.392 214.069 167.844 213.799C167.974 213.722 168.08 213.664 168.16 213.628C168.458 213.489 168.828 213.413 169.27 213.4C168.975 212.945 168.683 212.585 168.394 212.319C168.187 212.136 167.933 212.043 167.631 212.041C167.326 212.036 167.042 212.112 166.777 212.269C166.501 212.435 166.314 212.651 166.218 212.919C166.159 213.068 166.069 213.179 165.948 213.251C165.801 213.339 165.64 213.364 165.464 213.327C165.292 213.287 165.168 213.202 165.09 213.072C165.01 212.938 164.999 212.797 165.058 212.648C165.276 212.051 165.681 211.576 166.272 211.223C166.696 210.97 167.14 210.839 167.606 210.828C168.076 210.815 168.514 210.945 168.923 211.219C169.489 211.614 170.019 212.227 170.515 213.057C170.743 213.439 170.989 213.923 171.254 214.51C171.396 214.528 171.596 214.576 171.853 214.655C172.276 214.83 172.655 214.916 172.989 214.915C173.322 214.91 173.694 214.813 174.104 214.625C174.363 214.516 174.559 214.572 174.692 214.795C174.779 214.941 174.805 215.108 174.769 215.295C174.739 215.483 174.642 215.626 174.479 215.724L174.403 215.769C174.371 215.782 174.294 215.814 174.171 215.865C174.047 215.916 173.96 215.951 173.909 215.97C173.861 215.993 173.78 216.025 173.667 216.064C173.558 216.1 173.468 216.126 173.396 216.14C173.328 216.158 173.243 216.174 173.144 216.188C173.051 216.204 172.96 216.21 172.872 216.205C172.785 216.201 172.698 216.19 172.614 216.172C172.451 216.138 172.204 216.053 171.872 215.915C171.544 215.776 171.296 215.694 171.128 215.669C171.081 215.657 171.028 215.669 170.969 215.704C170.864 215.766 170.743 215.944 170.605 216.237C170.469 216.523 170.38 216.693 170.338 216.746C169.994 217.19 169.629 217.536 169.243 217.784L169.205 217.806C168.798 218.049 168.336 218.07 167.817 217.868C167.298 217.665 166.906 217.342 166.641 216.898ZM167.785 216.385C167.847 216.49 167.906 216.56 167.962 216.595C168.337 216.758 168.68 216.746 168.99 216.561C169.271 216.393 169.504 216.126 169.689 215.76C169.878 215.391 169.977 215.105 169.986 214.9C169.738 214.685 169.479 214.569 169.208 214.554C168.935 214.535 168.679 214.597 168.44 214.74C168.13 214.925 167.906 215.184 167.769 215.516C167.629 215.844 167.635 216.134 167.785 216.385ZM177.855 204.691C177.79 204.582 177.758 204.448 177.759 204.288C177.757 204.124 177.803 204.014 177.895 203.959C177.929 203.939 178.002 203.929 178.116 203.929C178.75 203.915 179.446 203.732 180.204 203.382C180.376 203.308 180.575 203.203 180.801 203.068C181.346 202.743 181.916 202.317 182.512 201.791C183.105 201.26 183.627 200.658 184.079 199.985C184.125 199.901 184.194 199.831 184.286 199.776C184.408 199.703 184.534 199.69 184.664 199.738C184.799 199.782 184.903 199.865 184.975 199.987C185.043 200.1 185.071 200.223 185.059 200.355C185.047 200.487 184.989 200.61 184.886 200.723C184.747 200.862 184.541 201.083 184.265 201.384C183.987 201.68 183.797 201.885 183.694 201.998C183.658 202.167 183.647 202.339 183.66 202.513C183.677 202.684 183.725 202.864 183.802 203.051C183.877 203.233 183.948 203.39 184.015 203.521C184.083 203.645 184.177 203.808 184.297 204.009C184.322 204.051 184.363 204.114 184.42 204.2C184.474 204.281 184.513 204.341 184.535 204.379C184.716 204.652 185.031 204.99 185.481 205.392C185.934 205.787 186.303 206.03 186.59 206.12C186.834 206.214 186.989 206.317 187.057 206.43C187.079 206.468 187.092 206.498 187.093 206.519C187.13 206.685 187.117 206.812 187.056 206.9C186.995 206.988 186.882 207.08 186.719 207.178C186.673 207.206 186.585 207.221 186.456 207.224C186.327 207.227 186.219 207.218 186.132 207.196C185.689 207.062 185.288 206.844 184.93 206.54C184.574 206.229 184.162 205.768 183.693 205.154C183.16 204.261 182.853 203.543 182.773 202.999C182.46 203.294 181.975 203.638 181.317 204.031C180.801 204.339 180.42 204.535 180.175 204.619C180.166 204.624 180.164 204.634 180.167 204.649C180.172 204.658 180.18 204.67 180.19 204.687C180.197 204.7 180.201 204.712 180.202 204.722C180.281 204.988 180.36 205.211 180.439 205.391C180.648 205.864 180.857 206.291 181.067 206.671C181.276 207.059 181.439 207.351 181.557 207.548C181.74 207.836 181.924 208.096 182.108 208.328C182.296 208.557 182.446 208.728 182.56 208.842C182.674 208.957 182.733 209.018 182.738 209.026C182.818 209.16 182.823 209.311 182.752 209.478C182.686 209.643 182.581 209.768 182.439 209.853C182.099 210.056 181.842 210.036 181.669 209.793L181.62 209.711C181.583 209.659 181.536 209.59 181.48 209.505C181.42 209.415 181.355 209.315 181.283 209.204C181.211 209.093 181.128 208.964 181.034 208.815C180.941 208.66 180.85 208.507 180.76 208.356L180.576 208.048C179.757 206.592 179.292 205.565 179.179 204.966C179.104 204.983 179.033 204.994 178.968 204.999C178.903 205.004 178.832 205.003 178.755 204.998C178.682 204.991 178.624 204.985 178.583 204.981C178.538 204.974 178.468 204.962 178.373 204.945C178.275 204.923 178.204 204.909 178.159 204.901C178.026 204.879 177.925 204.808 177.855 204.691ZM187.423 203.686C186.965 202.919 186.707 201.93 186.649 200.719L186.646 200.627L186.643 200.595C186.638 200.575 186.633 200.544 186.63 200.5C186.631 200.454 186.63 200.424 186.626 200.409C186.71 199.597 187.088 198.916 187.761 198.366C187.714 198.287 187.666 198.202 187.617 198.111C187.569 198.02 187.543 197.973 187.541 197.969C187.535 197.95 187.521 197.921 187.498 197.883C187.488 197.867 187.472 197.845 187.451 197.818C187.433 197.789 187.419 197.766 187.409 197.749C187.349 197.648 187.319 197.555 187.32 197.47C187.32 197.384 187.373 197.293 187.48 197.195C187.533 197.152 187.596 197.109 187.667 197.066C187.785 196.996 187.886 196.952 187.973 196.935C188.072 196.91 188.183 196.934 188.307 197.008C188.428 197.078 188.53 197.182 188.612 197.32C188.64 197.367 188.659 197.403 188.67 197.431C188.721 197.583 188.774 197.716 188.831 197.83C189.446 197.65 190.029 197.674 190.581 197.902C191.479 198.254 192.151 198.804 192.6 199.555C193.08 200.36 193.233 201.292 193.058 202.352C192.967 202.913 192.784 203.42 192.509 203.874C192.234 204.328 191.885 204.682 191.461 204.935C190.841 205.305 190.161 205.39 189.421 205.189C188.542 204.946 187.876 204.445 187.423 203.686ZM188.467 203.106C188.557 203.257 188.635 203.378 188.701 203.469C188.765 203.556 188.857 203.649 188.978 203.747C189.097 203.841 189.228 203.908 189.371 203.948C189.67 204.02 189.963 204.044 190.25 204.02C190.541 203.994 190.788 203.921 190.989 203.801C191.547 203.468 191.87 202.899 191.959 202.096C192.043 201.323 191.934 200.683 191.631 200.176C191.466 199.899 191.251 199.644 190.986 199.409C190.723 199.168 190.442 199.018 190.144 198.957C189.899 198.898 189.612 198.913 189.283 199.001C189.731 200.15 189.927 200.764 189.871 200.843C189.831 200.89 189.788 200.927 189.741 200.954C189.62 201.027 189.488 201.063 189.346 201.063C189.203 201.062 189.096 201.001 189.023 200.88L188.997 200.836C188.885 200.544 188.659 200.074 188.317 199.425C188.162 199.529 188.043 199.648 187.959 199.784C187.877 199.912 187.82 200.094 187.79 200.328C187.788 200.335 187.79 200.353 187.797 200.384C187.801 200.41 187.802 200.426 187.801 200.433C187.794 200.459 187.791 200.498 187.793 200.548C187.789 200.647 187.789 200.698 187.791 200.703C187.813 201.082 187.881 201.496 187.996 201.945C188.112 202.388 188.269 202.775 188.467 203.106ZM195.068 203.975C194.968 203.807 194.933 203.624 194.962 203.425C194.989 203.232 195.09 203.083 195.267 202.978C195.342 202.933 195.41 202.904 195.47 202.891C195.5 202.884 195.547 202.862 195.61 202.824C195.769 202.729 195.921 202.556 196.067 202.304C196.216 202.05 196.33 201.817 196.409 201.605C196.489 201.387 196.58 201.111 196.682 200.777C196.784 200.443 196.844 200.248 196.861 200.192C197.444 198.587 197.81 197.59 197.958 197.2C198.025 197.035 198.126 196.781 198.262 196.438C198.4 196.088 198.503 195.831 198.569 195.666C198.031 195.498 197.54 195.362 197.097 195.257C196.651 195.148 196.184 195.063 195.698 195C195.209 194.934 194.761 194.926 194.353 194.976C193.945 195.026 193.596 195.138 193.307 195.311C192.863 195.576 192.576 195.986 192.446 196.541C192.416 196.662 192.348 196.753 192.244 196.816C192.135 196.881 192.012 196.9 191.877 196.873C191.737 196.848 191.636 196.783 191.573 196.679C191.523 196.595 191.508 196.493 191.527 196.373C191.677 195.471 192.095 194.814 192.783 194.404C193.114 194.206 193.5 194.067 193.94 193.986C194.385 193.902 194.847 193.876 195.327 193.908C195.811 193.938 196.27 193.991 196.702 194.068C197.133 194.141 197.575 194.238 198.028 194.36C197.764 193.784 197.539 193.25 197.353 192.758C197.169 192.259 197.022 191.79 196.913 191.349C196.807 190.906 196.772 190.532 196.806 190.227C196.84 189.922 196.949 189.715 197.134 189.605C197.209 189.56 197.291 189.534 197.378 189.527C197.6 189.491 197.769 189.569 197.885 189.762C197.942 189.859 197.967 189.966 197.958 190.085C197.951 190.197 197.905 190.296 197.819 190.381C197.824 190.39 197.825 190.401 197.822 190.414C197.845 190.548 197.875 190.675 197.913 190.795C198.041 191.258 198.158 191.62 198.263 191.882C198.546 192.612 198.856 193.345 199.193 194.082C199.293 193.84 199.421 193.463 199.575 192.95C199.729 192.437 199.887 192.024 200.047 191.712C200.12 191.578 200.221 191.384 200.349 191.131C200.481 190.876 200.568 190.708 200.61 190.626C200.652 190.544 200.72 190.42 200.815 190.256C200.912 190.084 200.989 189.961 201.047 189.887C201.105 189.813 201.184 189.711 201.284 189.583C201.388 189.453 201.494 189.336 201.603 189.231C201.712 189.12 201.842 188.994 201.991 188.854C202.195 188.67 202.42 188.504 202.667 188.357L202.837 188.255C203.206 188.035 203.53 187.892 203.81 187.828C204.087 187.759 204.428 187.743 204.831 187.781C205.017 187.806 205.153 187.89 205.238 188.033C205.32 188.171 205.343 188.328 205.306 188.504C205.27 188.673 205.185 188.798 205.051 188.878C204.963 188.931 204.863 188.948 204.75 188.93C204.525 188.916 204.368 188.91 204.279 188.913C204.189 188.915 204.08 188.937 203.952 188.98C203.821 189.018 203.672 189.087 203.504 189.187C202.825 189.593 202.296 190.15 201.918 190.86C201.624 191.405 201.412 191.841 201.284 192.168C201.152 192.491 201.021 192.863 200.891 193.282C200.76 193.701 200.597 194.148 200.403 194.622C200.382 194.663 200.353 194.729 200.316 194.819C200.28 194.903 200.252 194.965 200.231 195.006C200.627 195.117 200.957 195.207 201.22 195.277C201.488 195.345 201.807 195.416 202.176 195.491C202.545 195.567 202.866 195.619 203.14 195.649C203.411 195.675 203.714 195.691 204.047 195.696C204.384 195.7 204.691 195.679 204.965 195.634C205.242 195.583 205.53 195.508 205.829 195.409C206.13 195.303 206.418 195.168 206.695 195.002C206.976 194.835 207.213 194.651 207.406 194.45C207.601 194.243 207.827 193.954 208.084 193.585C208.178 193.466 208.258 193.387 208.325 193.347C208.48 193.254 208.639 193.239 208.801 193.301C208.965 193.357 209.094 193.462 209.186 193.617C209.266 193.751 209.297 193.898 209.278 194.057C209.264 194.214 209.188 194.353 209.05 194.475C208.944 194.573 208.772 194.729 208.537 194.944C208.308 195.16 208.133 195.321 208.014 195.426C207.899 195.529 207.74 195.658 207.537 195.813C207.339 195.966 207.139 196.102 206.937 196.223C206.451 196.513 205.966 196.715 205.482 196.827C204.851 196.971 204.254 197.023 203.69 196.984C203.127 196.946 202.453 196.836 201.668 196.656C201.374 196.582 200.911 196.44 200.28 196.231C200.509 196.652 200.684 196.965 200.807 197.17C200.844 197.233 200.901 197.333 200.977 197.47C201.051 197.602 201.109 197.704 201.151 197.775C201.416 198.22 201.693 198.526 201.982 198.695C202.077 198.741 202.15 198.805 202.2 198.889C202.298 199.053 202.307 199.24 202.229 199.452C202.155 199.661 202.032 199.817 201.86 199.92C201.738 199.992 201.609 200.019 201.472 199.998C201.334 199.978 201.206 199.901 201.087 199.767C200.889 199.561 200.552 199.057 200.074 198.257C200.026 198.177 199.806 197.785 199.414 197.081C198.885 198.415 198.449 199.588 198.104 200.601C197.806 201.445 197.586 202.014 197.444 202.31C197.1 203.021 196.625 203.615 196.017 204.091C195.996 204.115 195.959 204.143 195.905 204.175C195.729 204.281 195.566 204.309 195.418 204.261C195.273 204.217 195.156 204.122 195.068 203.975ZM207.519 191.311C207.249 190.858 207.059 190.369 206.95 189.843C206.844 189.314 206.835 188.78 206.922 188.239C207.008 187.698 207.2 187.214 207.496 186.787C207.771 186.39 208.11 186.071 208.512 185.83C208.965 185.56 209.41 185.448 209.847 185.494C210.281 185.536 210.626 185.771 210.881 186.199C210.999 186.396 211.09 186.648 211.155 186.957C211.292 187.614 211.223 188.255 210.947 188.88C210.67 189.501 210.25 189.979 209.688 190.315C209.328 190.53 208.898 190.658 208.4 190.7L208.479 190.832C208.864 191.478 209.351 191.787 209.938 191.761C210.365 191.762 210.786 191.638 211.201 191.391C211.905 190.97 212.479 190.283 212.922 189.331C212.992 189.181 213.073 189.078 213.165 189.023C213.287 188.951 213.415 188.942 213.551 188.998C213.687 189.053 213.794 189.148 213.874 189.282C214.017 189.521 214.029 189.765 213.909 190.012C213.66 190.537 213.342 191.033 212.957 191.502C212.575 191.969 212.158 192.337 211.706 192.608C211.219 192.898 210.71 193.046 210.179 193.05C209.649 193.048 209.121 192.865 208.597 192.502C208.164 192.186 207.805 191.789 207.519 191.311ZM208.066 189.799C208.278 189.752 208.452 189.702 208.591 189.648C208.702 189.615 208.86 189.538 209.066 189.415C209.477 189.17 209.768 188.843 209.938 188.434C210.109 188.024 210.127 187.602 209.991 187.165C209.985 187.135 209.964 187.09 209.929 187.032C209.826 186.86 209.669 186.744 209.456 186.683C209.248 186.62 209.058 186.639 208.886 186.742L208.882 186.778C208.619 186.958 208.414 187.228 208.266 187.59C208.119 187.944 208.033 188.314 208.007 188.7C207.986 189.122 208.006 189.488 208.066 189.799ZM215.722 189.476C214.282 187.065 213.738 185.13 214.089 183.669C214.306 182.852 214.812 182.205 215.609 181.729C215.659 181.699 215.713 181.67 215.77 181.642C215.827 181.613 215.889 181.585 215.957 181.555C216.027 181.52 216.082 181.492 216.122 181.474C216.636 181.23 217.13 181.162 217.605 181.271C218.215 181.436 218.742 181.891 219.188 182.638C219.461 183.094 219.665 183.604 219.802 184.165C219.939 184.72 219.996 185.234 219.973 185.709C219.974 185.93 219.941 186.194 219.874 186.501C219.651 187.346 219.149 188.001 218.369 188.467C217.933 188.727 217.444 188.922 216.902 189.053L216.882 189.133C217.898 190.739 218.92 192.17 219.949 193.426C220.98 194.687 222.11 195.807 223.337 196.786C223.394 196.843 223.439 196.899 223.471 196.954C223.529 197.05 223.551 197.153 223.537 197.264C223.491 197.405 223.392 197.521 223.241 197.611C223.107 197.691 222.98 197.722 222.86 197.702C222.779 197.671 222.705 197.627 222.637 197.571C221.728 196.84 220.581 195.699 219.195 194.15C217.816 192.602 216.658 191.044 215.722 189.476ZM216.256 188.056L216.336 188.077C216.843 187.962 217.272 187.8 217.624 187.589C218.261 187.209 218.655 186.698 218.806 186.056L218.834 185.988C218.91 185.647 218.925 185.283 218.881 184.894C218.69 184.251 218.482 183.741 218.257 183.364C217.962 182.869 217.64 182.584 217.293 182.507L217.213 182.486C216.951 182.42 216.697 182.461 216.45 182.609C216.215 182.749 216.004 182.967 215.815 183.261C215.631 183.553 215.495 183.876 215.405 184.231L215.39 184.291L215.385 184.311C215.25 184.847 215.25 185.324 215.387 185.743L215.577 186.448C215.847 187.157 216.074 187.693 216.256 188.056ZM221.187 182.314C221.127 182.213 221.043 182.053 220.934 181.834C220.82 181.566 220.693 181.21 220.552 180.765C220.413 180.313 220.302 179.988 220.217 179.788C220.2 179.77 220.134 179.727 220.02 179.659C219.907 179.584 219.84 179.53 219.82 179.496C219.753 179.383 219.748 179.252 219.807 179.103C219.87 178.951 219.963 178.839 220.084 178.767C220.101 178.757 220.239 178.703 220.499 178.604C220.759 178.506 220.902 178.455 220.928 178.451C221.103 178.392 221.227 178.346 221.299 178.315C221.337 178.303 221.389 178.295 221.454 178.29C221.942 178.135 222.383 177.963 222.776 177.774C223.171 177.578 223.634 177.321 224.167 177.003L224.305 176.921C224.357 176.855 224.432 176.805 224.53 176.769C224.79 176.614 225.04 176.447 225.281 176.269C225.943 175.778 226.512 175.279 226.989 174.772C227.467 174.259 227.943 173.651 228.416 172.947C228.426 172.936 228.438 172.914 228.454 172.882C228.473 172.848 228.488 172.825 228.498 172.813C228.548 172.726 228.622 172.654 228.718 172.596C228.94 172.464 229.163 172.47 229.386 172.615C229.492 172.706 229.557 172.772 229.582 172.814C229.712 173.032 229.696 173.263 229.535 173.508C229.309 173.853 229.158 174.077 229.083 174.179C229.12 174.27 229.118 174.376 229.077 174.498C228.807 175.256 229.006 176.212 229.673 177.367C229.688 177.392 229.743 177.489 229.839 177.66C229.932 177.826 230.014 177.967 230.084 178.085C230.633 179.003 231.033 179.469 231.286 179.483C231.528 179.497 231.69 179.574 231.773 179.712C231.863 179.863 231.86 180.035 231.765 180.229C231.675 180.419 231.547 180.564 231.384 180.661L231.29 180.717C231.194 180.757 231.1 180.762 231.008 180.732C230.916 180.702 230.84 180.636 230.78 180.536C230.762 180.506 230.742 180.453 230.719 180.376L230.644 180.25C230.561 180.112 230.377 179.909 230.092 179.641C229.809 179.367 229.624 179.167 229.538 179.042C229.346 178.776 229.159 178.492 228.979 178.19C228.821 177.926 228.682 177.665 228.562 177.407C228.234 176.648 228.054 175.984 228.022 175.417C227.552 175.926 227.125 176.348 226.741 176.686C226.361 177.021 225.912 177.354 225.394 177.687C225.486 178.547 225.634 179.147 225.837 179.486L226.043 179.832C226.054 179.849 226.067 179.872 226.085 179.901C226.107 179.928 226.122 179.95 226.132 179.967C226.187 180.059 226.275 180.225 226.396 180.466C226.521 180.704 226.619 180.882 226.689 180.999C226.98 181.485 227.282 181.749 227.596 181.789C227.653 181.789 227.73 181.808 227.827 181.847C227.93 181.905 228.006 181.976 228.056 182.06C228.171 182.253 228.171 182.466 228.055 182.7C227.983 182.828 227.904 182.919 227.815 182.971C227.627 183.084 227.426 183.081 227.214 182.964C226.934 182.818 226.654 182.593 226.375 182.287C226.096 181.982 225.874 181.705 225.708 181.457C225.545 181.202 225.327 180.846 225.054 180.389L224.956 180.225C224.906 180.142 224.861 180.057 224.822 179.973C224.781 179.884 224.745 179.786 224.715 179.679C224.682 179.567 224.657 179.477 224.639 179.408C224.618 179.335 224.596 179.232 224.573 179.098C224.551 178.957 224.536 178.864 224.526 178.819C224.52 178.771 224.507 178.668 224.486 178.51C224.466 178.352 224.453 178.259 224.449 178.233C224.396 178.259 224.274 178.326 224.083 178.435C223.894 178.537 223.76 178.608 223.682 178.649C223.604 178.69 223.479 178.756 223.306 178.848C223.135 178.933 222.995 178.999 222.887 179.047C222.783 179.092 222.657 179.147 222.509 179.213C222.358 179.275 222.219 179.327 222.09 179.369C221.96 179.407 221.832 179.441 221.707 179.47C221.506 180.124 221.696 180.938 222.277 181.911C222.33 181.999 222.427 182.142 222.569 182.342C222.601 182.386 222.686 182.505 222.826 182.7C222.965 182.896 223.061 183.029 223.115 183.099C223.173 183.167 223.26 183.271 223.378 183.411C223.497 183.545 223.613 183.658 223.725 183.75C223.839 183.836 223.96 183.914 224.088 183.986C224.175 184.036 224.247 184.11 224.305 184.206C224.377 184.356 224.376 184.516 224.301 184.686C224.23 184.853 224.12 184.982 223.969 185.072L223.931 185.094C223.644 185.243 223.414 185.172 223.242 184.883L223.14 184.713C223.028 184.525 222.818 184.278 222.51 183.972C222.204 183.66 222.003 183.442 221.906 183.318C221.607 182.95 221.367 182.616 221.187 182.314ZM232.119 174.549C231.824 174.055 231.57 173.515 231.358 172.931C231.149 172.344 231.002 171.73 230.914 171.089C230.829 170.44 230.821 169.822 230.891 169.235C230.961 168.647 231.148 168.094 231.453 167.577C231.76 167.052 232.177 166.632 232.706 166.317C232.735 166.299 232.778 166.276 232.835 166.248C232.896 166.217 232.942 166.193 232.971 166.175C233.284 166.023 233.607 165.978 233.94 166.041C234.277 166.101 234.574 166.236 234.831 166.447C235.091 166.655 235.311 166.908 235.488 167.206C235.604 167.399 235.69 167.581 235.746 167.751C235.976 168.49 236.02 169.325 235.878 170.258C236.346 170.319 236.855 170.584 237.402 171.053C237.95 171.523 238.414 172.076 238.794 172.713C239.102 173.229 239.31 173.73 239.419 174.217C239.528 174.704 239.507 175.131 239.357 175.499C239.133 176.077 238.793 176.502 238.336 176.774C237.988 176.982 237.586 177.109 237.129 177.154C236.677 177.196 236.224 177.166 235.769 177.062C235.316 176.951 234.871 176.796 234.434 176.597C233.998 176.391 233.602 176.146 233.246 175.864C232.889 175.582 232.605 175.286 232.391 174.976C232.325 174.884 232.234 174.742 232.119 174.549ZM233.012 173.615C233.234 173.989 233.493 174.332 233.788 174.645C234.087 174.955 234.419 175.229 234.783 175.467C235.144 175.7 235.542 175.858 235.977 175.939C236.414 176.014 236.847 175.991 237.276 175.872C237.461 175.818 237.609 175.758 237.723 175.69C238.071 175.483 238.261 175.173 238.294 174.761C238.326 174.349 238.215 173.929 237.96 173.502C237.714 173.091 237.329 172.621 236.803 172.094C236.275 171.561 235.942 171.337 235.804 171.419C235.795 171.424 235.788 171.44 235.781 171.467C235.709 171.613 235.628 171.72 235.539 171.791C235.33 172.479 235.033 173.239 234.649 174.071C234.609 174.186 234.535 174.276 234.426 174.341C234.292 174.421 234.14 174.434 233.972 174.381C233.802 174.324 233.672 174.222 233.585 174.075C233.475 173.891 233.469 173.695 233.567 173.488C234.466 171.479 234.869 169.893 234.778 168.73C234.749 168.395 234.655 168.096 234.497 167.832C234.34 167.568 234.123 167.376 233.847 167.256C233.568 167.133 233.313 167.14 233.083 167.277C232.982 167.337 232.868 167.451 232.741 167.618C232.613 167.785 232.507 167.956 232.424 168.131C232.045 168.858 231.914 169.715 232.032 170.703C232.151 171.684 232.434 172.581 232.88 173.395L233.012 173.615ZM240.296 172.115C239.838 171.348 239.58 170.358 239.523 169.147L239.519 169.056L239.517 169.023C239.511 169.004 239.506 168.972 239.503 168.929C239.504 168.883 239.503 168.852 239.5 168.837C239.583 168.025 239.962 167.344 240.634 166.795C240.587 166.715 240.539 166.63 240.49 166.539C240.442 166.449 240.417 166.401 240.414 166.397C240.408 166.378 240.394 166.349 240.372 166.312C240.362 166.295 240.346 166.273 240.324 166.246C240.306 166.217 240.293 166.194 240.283 166.177C240.223 166.077 240.193 165.984 240.193 165.898C240.193 165.813 240.246 165.721 240.353 165.623C240.407 165.58 240.469 165.537 240.54 165.494C240.658 165.424 240.76 165.381 240.846 165.363C240.945 165.338 241.056 165.363 241.18 165.437C241.301 165.506 241.403 165.611 241.486 165.749C241.513 165.795 241.532 165.832 241.543 165.86C241.594 166.011 241.648 166.144 241.704 166.258C242.319 166.078 242.903 166.103 243.454 166.331C244.352 166.682 245.025 167.233 245.473 167.983C245.953 168.788 246.106 169.72 245.932 170.78C245.84 171.341 245.657 171.849 245.382 172.303C245.107 172.757 244.758 173.11 244.335 173.363C243.714 173.734 243.034 173.818 242.294 173.618C241.415 173.374 240.75 172.874 240.296 172.115ZM241.34 171.534C241.43 171.685 241.508 171.806 241.574 171.898C241.638 171.985 241.73 172.078 241.851 172.176C241.97 172.27 242.101 172.337 242.244 172.376C242.543 172.448 242.836 172.472 243.123 172.449C243.415 172.422 243.661 172.349 243.862 172.229C244.42 171.896 244.743 171.328 244.832 170.524C244.916 169.751 244.807 169.111 244.504 168.604C244.339 168.327 244.124 168.072 243.859 167.838C243.596 167.597 243.315 167.446 243.017 167.385C242.772 167.327 242.485 167.342 242.157 167.43C242.604 168.579 242.8 169.193 242.744 169.271C242.704 169.318 242.661 169.355 242.615 169.383C242.493 169.455 242.361 169.491 242.219 169.491C242.076 169.491 241.969 169.43 241.896 169.308L241.87 169.264C241.759 168.973 241.532 168.502 241.19 167.853C241.035 167.957 240.916 168.076 240.832 168.212C240.75 168.341 240.693 168.522 240.663 168.757C240.661 168.763 240.664 168.782 240.67 168.812C240.674 168.838 240.676 168.854 240.674 168.861C240.667 168.888 240.665 168.926 240.666 168.977C240.663 169.075 240.662 169.127 240.665 169.131C240.686 169.51 240.755 169.925 240.869 170.374C240.985 170.816 241.142 171.203 241.34 171.534ZM246.482 165.973C246.187 165.478 245.933 164.939 245.72 164.355C245.512 163.768 245.365 163.154 245.277 162.512C245.191 161.864 245.184 161.246 245.253 160.658C245.323 160.071 245.511 159.518 245.816 159C246.123 158.476 246.54 158.056 247.068 157.741C247.098 157.723 247.141 157.7 247.198 157.672C247.259 157.641 247.304 157.617 247.334 157.599C247.646 157.447 247.969 157.402 248.302 157.464C248.64 157.524 248.937 157.66 249.193 157.871C249.454 158.079 249.674 158.332 249.851 158.629C249.966 158.822 250.052 159.004 250.109 159.175C250.339 159.913 250.383 160.749 250.24 161.681C250.709 161.743 251.217 162.008 251.765 162.477C252.312 162.946 252.776 163.5 253.157 164.137C253.465 164.653 253.673 165.154 253.782 165.641C253.89 166.127 253.87 166.555 253.72 166.923C253.496 167.5 253.156 167.925 252.699 168.198C252.351 168.406 251.948 168.532 251.492 168.577C251.04 168.62 250.586 168.589 250.132 168.485C249.679 168.375 249.234 168.22 248.796 168.02C248.361 167.814 247.965 167.57 247.608 167.288C247.252 167.006 246.967 166.71 246.754 166.399C246.688 166.308 246.597 166.166 246.482 165.973ZM247.374 165.039C247.597 165.412 247.856 165.755 248.151 166.068C248.45 166.379 248.782 166.653 249.145 166.891C249.507 167.124 249.905 167.282 250.34 167.363C250.777 167.438 251.21 167.415 251.639 167.295C251.824 167.242 251.972 167.182 252.085 167.114C252.433 166.906 252.624 166.596 252.656 166.185C252.689 165.773 252.578 165.353 252.322 164.925C252.077 164.514 251.692 164.045 251.166 163.517C250.638 162.985 250.305 162.76 250.166 162.843C250.158 162.848 250.15 162.864 250.144 162.891C250.071 163.036 249.991 163.144 249.902 163.214C249.693 163.902 249.396 164.662 249.011 165.495C248.972 165.609 248.898 165.699 248.789 165.764C248.654 165.844 248.503 165.858 248.335 165.805C248.164 165.748 248.035 165.646 247.948 165.499C247.837 165.314 247.832 165.119 247.93 164.912C248.829 162.903 249.232 161.317 249.141 160.154C249.111 159.819 249.018 159.52 248.86 159.255C248.702 158.991 248.486 158.799 248.209 158.68C247.931 158.556 247.676 158.563 247.446 158.701C247.345 158.761 247.231 158.875 247.103 159.042C246.976 159.209 246.87 159.38 246.787 159.555C246.408 160.282 246.277 161.139 246.395 162.127C246.514 163.107 246.797 164.005 247.243 164.819L247.374 165.039ZM255.195 164.021C255.072 163.815 254.993 163.598 254.959 163.368C254.912 162.89 255.028 162.431 255.306 161.992C255.581 161.549 255.945 161.192 256.398 160.922C256.528 160.844 256.633 160.787 256.714 160.75C257.012 160.612 257.382 160.536 257.823 160.523C257.529 160.068 257.237 159.707 256.948 159.442C256.741 159.258 256.487 159.166 256.185 159.164C255.88 159.159 255.595 159.235 255.331 159.392C255.055 159.557 254.868 159.774 254.772 160.042C254.713 160.191 254.623 160.301 254.501 160.374C254.355 160.462 254.193 160.487 254.018 160.45C253.846 160.41 253.721 160.325 253.644 160.195C253.564 160.061 253.553 159.919 253.612 159.77C253.83 159.174 254.235 158.699 254.826 158.346C255.249 158.093 255.694 157.961 256.16 157.951C256.629 157.938 257.068 158.068 257.476 158.342C258.042 158.737 258.573 159.35 259.069 160.18C259.297 160.562 259.543 161.046 259.808 161.633C259.95 161.65 260.149 161.699 260.407 161.778C260.83 161.953 261.208 162.039 261.543 162.038C261.876 162.033 262.247 161.936 262.658 161.748C262.917 161.639 263.113 161.695 263.246 161.917C263.333 162.064 263.359 162.231 263.322 162.418C263.293 162.606 263.196 162.749 263.033 162.847L262.957 162.892C262.925 162.905 262.848 162.937 262.725 162.988C262.601 163.039 262.514 163.074 262.463 163.093C262.414 163.116 262.334 163.147 262.22 163.186C262.112 163.223 262.021 163.248 261.95 163.262C261.882 163.281 261.797 163.297 261.698 163.311C261.605 163.327 261.514 163.332 261.426 163.328C261.338 163.324 261.252 163.313 261.168 163.295C261.005 163.261 260.758 163.175 260.426 163.038C260.098 162.898 259.85 162.816 259.681 162.792C259.635 162.78 259.582 162.791 259.523 162.827C259.418 162.889 259.297 163.067 259.159 163.36C259.023 163.646 258.934 163.815 258.892 163.869C258.548 164.313 258.183 164.659 257.797 164.907L257.759 164.929C257.352 165.172 256.89 165.192 256.371 164.99C255.852 164.788 255.46 164.465 255.195 164.021ZM256.339 163.508C256.401 163.613 256.46 163.683 256.515 163.718C256.891 163.881 257.234 163.869 257.544 163.684C257.825 163.516 258.058 163.249 258.243 162.883C258.432 162.514 258.531 162.227 258.54 162.023C258.292 161.807 258.032 161.692 257.762 161.677C257.489 161.658 257.233 161.72 256.994 161.863C256.684 162.048 256.46 162.307 256.323 162.639C256.183 162.967 256.189 163.257 256.339 163.508ZM259.828 155.223C259.746 155.084 259.728 154.936 259.775 154.777C259.82 154.614 259.905 154.494 260.031 154.419C260.199 154.319 260.367 154.33 260.536 154.45C260.996 154.716 261.51 155.325 262.078 156.276L262.352 156.735C262.622 156.54 263.08 156.25 263.726 155.864C264.174 155.596 264.439 155.444 264.519 155.407C264.093 154.513 263.776 153.69 263.566 152.94C263.526 152.816 263.53 152.702 263.577 152.6C263.621 152.494 263.694 152.411 263.795 152.351C263.941 152.263 264.089 152.215 264.237 152.206C264.39 152.195 264.502 152.25 264.575 152.371C264.592 152.401 264.613 152.454 264.636 152.531C264.99 153.639 265.299 154.461 265.563 154.998C265.661 154.962 265.773 154.917 265.901 154.864C266.03 154.804 266.13 154.761 266.2 154.736C266.272 154.705 266.365 154.684 266.478 154.673C266.591 154.662 266.711 154.673 266.838 154.705C266.919 154.725 267.005 154.813 267.098 154.968C267.223 155.178 267.237 155.334 267.139 155.438C267.099 155.485 267.01 155.549 266.871 155.632C266.767 155.695 266.644 155.756 266.504 155.817C266.366 155.871 266.256 155.911 266.175 155.937L266.047 155.98C266.264 156.362 266.426 156.643 266.534 156.823C267.56 158.542 268.588 159.76 269.618 160.475C269.689 160.536 269.744 160.599 269.784 160.666C269.869 160.809 269.888 160.965 269.842 161.135C269.8 161.302 269.716 161.424 269.59 161.499C269.426 161.596 269.26 161.585 269.091 161.464C267.832 160.584 266.637 159.196 265.505 157.301C265.407 157.138 265.249 156.854 265.031 156.45L263.553 157.332L262.905 157.719C263.494 158.772 264.001 159.715 264.424 160.548C264.494 160.694 264.503 160.842 264.451 160.993C264.4 161.137 264.312 161.246 264.186 161.322C264.065 161.394 263.939 161.421 263.808 161.402C263.679 161.377 263.576 161.299 263.498 161.169L263.468 161.119C263.306 160.79 262.973 160.184 262.469 159.302C261.969 158.417 261.546 157.686 261.201 157.107C261.131 156.99 261.055 156.867 260.973 156.74C260.891 156.613 260.848 156.545 260.843 156.536C260.809 156.488 260.734 156.374 260.62 156.192C260.503 156.005 260.392 155.844 260.288 155.707C260.188 155.568 260.098 155.474 260.017 155.425C259.944 155.378 259.881 155.311 259.828 155.223ZM269.931 154.641C269.666 154.197 269.341 153.52 268.958 152.612C268.579 151.701 268.317 151.115 268.173 150.854C268.095 150.724 268.084 150.591 268.14 150.456C268.195 150.32 268.292 150.211 268.431 150.129C268.737 149.946 268.959 149.956 269.096 150.158C269.099 150.162 269.106 150.174 269.119 150.195C269.133 150.21 269.141 150.219 269.144 150.223L269.249 150.399C269.397 150.647 269.629 151.193 269.946 152.039C270.261 152.88 270.529 153.485 270.749 153.854C271.197 154.605 271.706 154.943 272.277 154.87C272.452 154.839 272.596 154.79 272.709 154.723C272.889 154.615 273.041 154.45 273.165 154.229C273.286 154.003 273.375 153.756 273.432 153.489C273.492 153.22 273.53 152.907 273.545 152.551C273.565 152.193 273.567 151.853 273.551 151.533C273.536 151.212 273.507 150.859 273.466 150.475C273.428 150.088 273.389 149.761 273.35 149.495C273.314 149.226 273.273 148.938 273.226 148.63C273.179 148.323 273.149 148.111 273.135 147.993C273.116 147.874 273.151 147.757 273.24 147.641C273.328 147.52 273.441 147.419 273.579 147.336C273.717 147.253 273.852 147.207 273.983 147.197C274.113 147.188 274.204 147.225 274.254 147.309C274.426 147.598 274.647 148.1 274.915 148.816C275.183 149.532 275.41 150.045 275.595 150.355C276.494 151.86 277.457 152.306 278.484 151.692C278.534 151.662 278.586 151.626 278.64 151.582C278.698 151.536 278.74 151.503 278.767 151.481C278.771 151.478 278.786 151.47 278.811 151.455C278.838 151.433 278.853 151.421 278.857 151.418L278.939 151.369C279.077 151.287 279.235 151.275 279.413 151.334C279.588 151.389 279.715 151.483 279.795 151.617C279.84 151.693 279.857 151.774 279.846 151.86C279.835 151.946 279.795 152.021 279.725 152.086C279.42 152.376 279.14 152.597 278.885 152.75C278.583 152.93 278.282 153.05 277.982 153.11C277.682 153.169 277.41 153.181 277.167 153.144C276.925 153.101 276.685 153.019 276.449 152.899C276.209 152.775 276.005 152.641 275.834 152.498C275.664 152.356 275.498 152.193 275.338 152.01C275.175 151.823 275.047 151.666 274.954 151.539C274.863 151.406 274.779 151.274 274.701 151.144L274.57 150.924C274.558 150.903 274.541 150.899 274.52 150.912C274.511 150.917 274.507 150.928 274.506 150.945C274.545 151.639 274.6 152.251 274.673 152.782C274.679 153.222 274.627 153.629 274.515 154.003C274.4 154.373 274.247 154.683 274.055 154.934C273.861 155.18 273.683 155.378 273.521 155.526C273.36 155.673 273.191 155.8 273.014 155.905C272.985 155.923 272.962 155.936 272.945 155.946C272.93 155.95 272.912 155.958 272.891 155.97C272.887 155.973 272.868 155.979 272.833 155.988C272.803 155.994 272.786 155.999 272.782 156.001C272.198 156.271 271.675 156.276 271.213 156.017C270.751 155.758 270.324 155.299 269.931 154.641ZM279.159 151.409C279.004 151.149 278.886 150.872 278.808 150.578C278.777 150.488 278.78 150.404 278.818 150.324C278.858 150.238 278.917 150.171 278.997 150.123C279.093 150.066 279.195 150.045 279.301 150.061C279.407 150.077 279.489 150.134 279.547 150.23L279.569 150.268C279.689 150.544 279.768 150.715 279.808 150.782C280.001 151.105 280.211 151.199 280.437 151.064C280.508 151.021 280.579 150.959 280.65 150.877C281.069 150.399 281.378 149.825 281.575 149.155C281.772 148.475 281.884 147.854 281.912 147.291C281.817 147.331 281.65 147.405 281.413 147.512C281.176 147.62 280.986 147.702 280.843 147.758C280.703 147.808 280.532 147.865 280.331 147.928C280.127 147.987 279.939 148.02 279.766 148.026C279.594 148.032 279.43 148.011 279.275 147.961C278.977 147.872 278.75 147.695 278.592 147.431C278.422 147.146 278.337 146.798 278.337 146.389C278.337 145.979 278.39 145.592 278.496 145.227C278.603 144.845 278.77 144.467 278.996 144.093C279.222 143.719 279.488 143.441 279.794 143.258C280.163 143.038 280.549 143.009 280.954 143.171C281.52 143.396 281.977 143.8 282.325 144.383C282.603 144.848 282.791 145.387 282.89 145.999C283.376 145.976 283.843 146.058 284.291 146.246C284.364 146.282 284.472 146.34 284.616 146.419C284.764 146.495 284.878 146.552 284.957 146.59C285.041 146.625 285.144 146.66 285.267 146.695C285.392 146.723 285.514 146.724 285.635 146.697C285.756 146.671 285.881 146.618 286.011 146.541L286.036 146.526C286.511 146.225 286.961 145.823 287.388 145.318C287.566 145.121 287.704 144.961 287.802 144.84C287.898 144.715 287.968 144.622 288.011 144.562C288.059 144.499 288.137 144.387 288.246 144.226C288.358 144.062 288.471 143.898 288.583 143.734C288.646 143.639 288.718 143.568 288.797 143.521C288.919 143.448 289.034 143.442 289.144 143.501C289.255 143.554 289.35 143.646 289.427 143.776C289.58 144.032 289.568 144.264 289.391 144.472C289.132 144.763 288.868 145.116 288.599 145.533C288.328 145.945 288.064 146.293 287.807 146.577C287.555 146.859 287.208 147.131 286.768 147.394C286.646 147.467 286.553 147.52 286.487 147.553C286.118 147.734 285.771 147.839 285.447 147.867C285.123 147.896 284.8 147.818 284.48 147.634C284.253 147.502 284.077 147.403 283.952 147.335C283.824 147.264 283.668 147.198 283.484 147.137C283.3 147.077 283.122 147.046 282.951 147.046C282.952 147.057 282.952 147.071 282.951 147.088C282.95 147.106 282.95 147.12 282.951 147.131C282.934 147.568 282.887 148 282.812 148.426C282.738 148.845 282.629 149.277 282.485 149.721C282.345 150.163 282.147 150.574 281.89 150.955C281.638 151.333 281.342 151.641 281 151.879C280.969 151.903 280.922 151.934 280.86 151.971C280.507 152.182 280.187 152.225 279.897 152.102C279.61 151.984 279.364 151.753 279.159 151.409ZM279.479 146.688C279.592 146.876 279.815 146.922 280.149 146.825C280.361 146.761 280.658 146.658 281.039 146.515C281.425 146.37 281.701 146.271 281.868 146.217C281.801 145.819 281.672 145.461 281.482 145.142C281.454 145.096 281.409 145.029 281.346 144.942C280.901 144.321 280.533 144.096 280.244 144.269L280.219 144.284C279.876 144.5 279.633 144.921 279.489 145.547C279.367 146.115 279.364 146.495 279.479 146.688ZM288.793 146.014C288.751 145.943 288.732 145.86 288.738 145.765C288.744 145.671 288.771 145.587 288.818 145.513C288.824 145.504 288.831 145.491 288.838 145.475C288.85 145.457 288.859 145.443 288.865 145.434C288.853 145.225 288.904 145.047 289.015 144.901C289.093 144.792 289.179 144.709 289.276 144.651C289.456 144.543 289.664 144.516 289.9 144.568C290.125 144.621 290.303 144.757 290.433 144.975C290.513 145.109 290.559 145.247 290.569 145.389C290.587 145.589 290.558 145.785 290.485 145.976C290.412 146.168 290.296 146.311 290.136 146.406C290.128 146.411 290.116 146.416 290.101 146.419C290.089 146.426 290.078 146.433 290.07 146.438C289.672 146.619 289.262 146.499 288.841 146.08C288.829 146.07 288.813 146.048 288.793 146.014ZM287.244 142.435C287.117 142.403 287.015 142.322 286.937 142.192C286.847 142.041 286.718 141.805 286.549 141.485C286.378 141.161 286.247 140.921 286.154 140.766L286.064 140.615C285.691 139.99 285.427 139.511 285.273 139.176C284.846 138.271 284.516 137.433 284.284 136.662C284.261 136.596 284.217 136.454 284.15 136.238C284.088 136.02 284.043 135.864 284.017 135.772C283.987 135.676 283.947 135.532 283.896 135.341C283.844 135.15 283.807 134.993 283.785 134.87C283.76 134.742 283.735 134.595 283.709 134.428C283.688 134.259 283.674 134.103 283.667 133.959C283.659 133.668 283.71 133.291 283.819 132.827C283.927 132.359 283.986 132.025 283.997 131.825C284.005 131.667 284.08 131.545 284.223 131.46C284.256 131.44 284.308 131.421 284.376 131.403C284.568 131.362 284.71 131.419 284.803 131.574C284.828 131.616 284.846 131.671 284.858 131.738C284.905 131.988 284.897 132.346 284.833 132.811C284.771 133.268 284.756 133.61 284.788 133.835C284.857 134.312 285.038 135.04 285.332 136.018C285.846 137.708 286.484 139.19 287.245 140.464C287.458 140.82 287.668 141.139 287.875 141.419L287.938 141.526C288.016 141.684 288.024 141.844 287.961 142.007C287.901 142.162 287.801 142.281 287.663 142.364C287.659 142.367 287.65 142.372 287.638 142.379C287.627 142.38 287.617 142.383 287.609 142.388C287.491 142.447 287.369 142.463 287.244 142.435Z" fill="#404040"/>
<path d="M494.855 207.126C494.558 207.591 493.94 207.728 493.474 207.431L485.884 202.594C485.419 202.297 485.282 201.679 485.579 201.213C485.876 200.747 486.494 200.61 486.96 200.907L493.706 205.207L498.006 198.461C498.303 197.996 498.921 197.859 499.386 198.156C499.852 198.452 499.989 199.071 499.692 199.536L494.855 207.126ZM493.035 206.804C492.89 206.148 492.739 205.494 492.585 204.841L494.53 204.379C494.688 205.041 494.84 205.706 494.988 206.372L493.035 206.804ZM491.598 200.948C491.249 199.657 490.882 198.373 490.497 197.097L492.411 196.518C492.803 197.814 493.175 199.117 493.529 200.428L491.598 200.948ZM489.277 193.268C488.851 191.999 488.408 190.739 487.946 189.486L489.823 188.795C490.291 190.065 490.741 191.345 491.173 192.632L489.277 193.268ZM486.502 185.738C486.003 184.496 485.485 183.263 484.95 182.037L486.783 181.237C487.326 182.48 487.851 183.732 488.358 184.992L486.502 185.738ZM483.292 178.382C482.721 177.171 482.134 175.969 481.529 174.775L483.314 173.871C483.927 175.082 484.523 176.302 485.101 177.53L483.292 178.382ZM479.666 171.219C479.028 170.042 478.374 168.875 477.704 167.716L479.435 166.714C480.115 167.889 480.778 169.073 481.424 170.266L479.666 171.219ZM475.646 164.266C474.945 163.126 474.229 161.996 473.497 160.874L475.172 159.781C475.914 160.918 476.64 162.063 477.35 163.218L475.646 164.266ZM471.258 157.538C470.497 156.437 469.722 155.346 468.933 154.263L470.549 153.085C471.348 154.181 472.133 155.287 472.904 156.402L471.258 157.538ZM466.524 151.048C465.708 149.986 464.878 148.934 464.034 147.892L465.588 146.633C466.443 147.689 467.283 148.754 468.11 149.828L466.524 151.048ZM461.469 144.801C460.6 143.781 459.719 142.77 458.825 141.769L460.316 140.437C461.221 141.45 462.113 142.473 462.992 143.505L461.469 144.801ZM456.114 138.806C455.198 137.829 454.27 136.861 453.33 135.903L454.757 134.502C455.708 135.471 456.647 136.45 457.573 137.439L456.114 138.806ZM450.482 133.067C449.522 132.133 448.551 131.21 447.569 130.296L448.931 128.832C449.924 129.755 450.906 130.69 451.876 131.634L450.482 133.067ZM444.593 127.588C443.593 126.698 442.582 125.819 441.561 124.949L442.858 123.427C443.89 124.305 444.911 125.194 445.922 126.094L444.593 127.588ZM438.469 122.373C437.431 121.527 436.383 120.692 435.326 119.867L436.557 118.29C437.625 119.124 438.683 119.968 439.732 120.823L438.469 122.373ZM432.128 117.425C431.055 116.622 429.972 115.831 428.881 115.05L430.045 113.423C431.148 114.212 432.241 115.012 433.326 115.823L432.128 117.425ZM425.586 112.743C424.48 111.985 423.366 111.237 422.243 110.501L423.34 108.829C424.474 109.572 425.6 110.327 426.717 111.093L425.586 112.743ZM418.858 108.329C417.722 107.615 416.579 106.913 415.428 106.222L416.458 104.508C417.62 105.205 418.775 105.915 419.922 106.635L418.858 108.329ZM411.959 104.185C410.796 103.517 409.626 102.86 408.45 102.215L409.412 100.461C410.6 101.113 411.781 101.776 412.955 102.45L411.959 104.185ZM404.903 100.313C403.715 99.6909 402.52 99.08 401.32 98.4805L402.214 96.6913C403.425 97.2965 404.631 97.9132 405.831 98.5415L404.903 100.313ZM397.703 96.7168C396.491 96.1403 395.274 95.5753 394.052 95.0222L394.877 93.2001C396.11 93.7585 397.339 94.3288 398.562 94.9108L397.703 96.7168ZM390.37 93.3979C389.137 92.8678 387.899 92.3496 386.657 91.8433L387.412 89.9912C388.666 90.5022 389.915 91.0254 391.16 91.5605L390.37 93.3979ZM382.916 90.3599C381.664 89.8772 380.408 89.4066 379.148 88.9482L379.832 87.0688C381.103 87.5315 382.371 88.0065 383.635 88.4938L382.916 90.3599ZM375.351 87.6077C374.082 87.1732 372.81 86.7511 371.535 86.3415L372.146 84.4373C373.434 84.8508 374.718 85.2769 375.999 85.7155L375.351 87.6077ZM367.688 85.1467C366.402 84.7609 365.114 84.3879 363.824 84.0277L364.362 82.1014C365.664 82.465 366.965 82.8416 368.263 83.2311L367.688 85.1467ZM359.937 82.9833C358.636 82.6474 357.334 82.3246 356.03 82.015L356.492 80.0691C357.809 80.3817 359.124 80.7077 360.437 81.0468L359.937 82.9833ZM352.11 81.1249C350.796 80.8401 349.48 80.5689 348.164 80.3112L348.548 78.3485C349.878 78.6087 351.206 78.8827 352.533 79.1702L352.11 81.1249ZM344.214 79.5791C342.889 79.3473 341.564 79.1295 340.238 78.9256L340.542 76.9488C341.881 77.1548 343.22 77.3749 344.558 77.609L344.214 79.5791ZM336.259 78.3554C334.927 78.1788 333.596 78.0163 332.265 77.8683L332.486 75.8805C333.831 76.0302 335.176 76.1943 336.522 76.3728L336.259 78.3554ZM328.261 77.4659C326.925 77.3462 325.59 77.241 324.257 77.1506L324.392 75.1552C325.74 75.2466 327.089 75.3529 328.44 75.4739L328.261 77.4659ZM320.236 76.9226C318.897 76.8617 317.56 76.8158 316.226 76.7851L316.272 74.7857C317.621 74.8167 318.973 74.8631 320.327 74.9247L320.236 76.9226ZM312.197 76.7388C310.856 76.739 309.517 76.7547 308.182 76.7861L308.135 74.7867C309.486 74.7549 310.84 74.739 312.197 74.7388L312.197 76.7388ZM304.161 76.929C302.821 76.9928 301.484 77.0728 300.151 77.169L300.006 75.1742C301.356 75.0768 302.709 74.9958 304.066 74.9312L304.161 76.929ZM296.148 77.5084C294.811 77.6388 293.479 77.7858 292.151 77.9498L291.906 75.9649C293.251 75.7988 294.6 75.6499 295.954 75.5179L296.148 77.5084ZM288.178 78.4934C286.848 78.6932 285.525 78.9102 284.207 79.1447L283.857 77.1756C285.192 76.938 286.534 76.718 287.88 76.5156L288.178 78.4934ZM280.273 79.9007C278.957 80.1726 277.647 80.4624 276.344 80.7703L275.884 78.8239C277.206 78.5116 278.534 78.2177 279.869 77.942L280.273 79.9007ZM272.457 81.7481C271.161 82.0944 269.871 82.4591 268.59 82.8424L268.017 80.9264C269.317 80.5373 270.625 80.1672 271.941 79.8158L272.457 81.7481ZM264.767 84.0499C263.495 84.4728 262.232 84.9147 260.978 85.3756L260.288 83.4985C261.562 83.0303 262.844 82.5816 264.135 82.1521L264.767 84.0499ZM257.236 86.8191C256.617 87.0693 256.001 87.3243 255.387 87.5841L254.607 85.7422C255.232 85.4782 255.858 85.219 256.487 84.9648L257.236 86.8191Z" fill="#404040"/>
<path d="M100.793 171.181C100.54 170.67 100.549 170.085 100.821 169.423C101.107 168.754 101.519 168.286 102.059 168.018C102.832 167.635 103.552 167.859 104.219 168.691C104.762 169.384 105.515 169.492 106.478 169.015C107.25 168.631 108.053 167.942 108.886 166.948C109.719 165.953 110.443 164.867 111.058 163.69C111.673 162.513 112.092 161.306 112.314 160.069C112.529 158.818 112.438 157.791 112.04 156.989L111.692 156.289C111.055 155.406 110.263 154.909 109.317 154.797C108.371 154.685 107.395 154.878 106.389 155.377C105.733 155.703 105.113 156.156 104.529 156.736C104.237 157.027 103.78 157.699 103.158 158.752C102.536 159.806 101.94 160.473 101.372 160.756C101.24 160.821 101.142 160.86 101.077 160.875C100.639 161.019 100.246 161.032 99.8972 160.915C99.5555 160.775 99.2943 160.523 99.1134 160.159C99.0339 159.999 98.9726 159.82 98.9295 159.623C98.8223 158.968 98.6715 158.316 98.477 157.668C98.2752 157.005 97.9938 156.199 97.6328 155.252C97.2792 154.283 97.0519 153.642 96.9509 153.328C96.6303 153.451 96.281 153.425 95.903 153.249C94.1513 152.428 92.9898 151.442 92.4183 150.29C92.0928 149.634 91.9494 148.924 91.9882 148.159C92.0415 147.388 92.2113 146.632 92.4974 145.89C92.7982 145.141 93.2593 144.331 93.8807 143.46C94.5021 142.588 95.1415 141.789 95.7988 141.063C96.4489 140.323 97.2412 139.521 98.1755 138.658C99.1173 137.773 99.9603 137.018 100.705 136.395C101.464 135.764 102.343 135.064 103.343 134.296C104.357 133.52 105.159 132.922 105.75 132.502C106.348 132.059 107.056 131.545 107.873 130.958C108.69 130.371 109.193 130.012 109.383 129.881C109.573 129.751 109.704 129.668 109.777 129.632C110.302 129.371 110.786 129.34 111.229 129.538C111.687 129.728 112.032 130.057 112.264 130.524C112.524 131.049 112.58 131.602 112.433 132.184C112.286 132.766 111.906 133.208 111.293 133.512L111.228 133.545C110.572 133.87 109.595 134.464 108.296 135.326C107.013 136.181 105.583 137.236 104.006 138.49C102.423 139.73 100.96 140.992 99.6165 142.276C98.2878 143.553 97.2575 144.828 96.5257 146.099C95.8084 147.363 95.6487 148.396 96.0466 149.198C96.2274 149.563 96.5285 149.877 96.9499 150.14C97.1106 149.951 97.3003 149.803 97.519 149.694C97.8398 149.535 98.1529 149.489 98.4584 149.555C98.7639 149.622 98.9999 149.823 99.1662 150.158C99.2314 150.289 99.2747 150.395 99.2963 150.475C99.5553 151.437 100.136 153.193 101.038 155.743C101.637 154.973 102.159 154.396 102.605 154.012C103.626 153.142 104.567 152.493 105.427 152.066C106.215 151.676 107.009 151.427 107.81 151.32C109.427 151.1 110.882 151.341 112.175 152.043C113.461 152.732 114.448 153.768 115.135 155.153C115.461 155.81 115.702 156.516 115.86 157.274C116.298 159.328 116.113 161.464 115.305 163.681C114.491 165.884 113.312 167.886 111.771 169.686C110.741 170.869 109.657 171.743 108.52 172.307C107.908 172.611 107.329 172.799 106.782 172.87C106.193 172.963 105.654 172.976 105.166 172.909C104.701 172.849 104.079 172.694 103.301 172.444C102.516 172.18 102.006 172.014 101.774 171.948C101.316 171.83 100.989 171.574 100.793 171.181ZM120.3 151.61C119.743 150.487 119.244 149.281 118.804 147.991C118.371 146.68 118.034 145.267 117.791 143.752C117.548 142.237 117.469 140.814 117.553 139.482C117.637 138.15 117.998 136.918 118.635 135.784C119.264 134.636 120.169 133.769 121.35 133.183C121.467 133.125 121.649 133.053 121.897 132.966C122.014 132.909 122.097 132.876 122.148 132.869C122.309 132.607 122.558 132.23 122.894 131.736C124.217 129.898 125.754 128.545 127.503 127.677C129.822 126.527 132.1 126.505 134.339 127.611C137.362 129.127 139.615 131.38 141.098 134.369C142.306 136.804 142.884 139.47 142.831 142.366C142.819 143.844 142.687 145.336 142.435 146.842C142.183 148.348 141.811 149.85 141.318 151.348C140.833 152.824 140.178 154.212 139.351 155.512C138.546 156.82 137.615 157.909 136.557 158.779C135.922 159.294 135.313 159.696 134.73 159.985C133.622 160.535 132.478 160.794 131.299 160.761C130.12 160.728 129.014 160.459 127.982 159.954C126.943 159.434 125.937 158.743 124.964 157.881C123.992 157.019 123.117 156.063 122.342 155.012C121.574 153.94 120.893 152.806 120.3 151.61ZM122.84 149.423C123.346 150.444 123.936 151.45 124.61 152.442C125.291 153.412 126.085 154.372 126.992 155.321C127.906 156.248 128.898 156.892 129.967 157.252C131.043 157.59 132.077 157.513 133.068 157.021C133.316 156.898 133.56 156.75 133.801 156.576C135.056 155.663 136.145 154.378 137.067 152.721C138.004 151.057 138.693 149.279 139.136 147.388C139.571 145.483 139.719 143.51 139.58 141.472C139.441 139.433 138.981 137.627 138.199 136.052C137.049 133.734 135.311 132.116 132.985 131.199C131.385 130.576 129.893 130.607 128.508 131.295C127.458 131.815 126.505 132.697 125.65 133.939C124.787 135.166 124.121 136.514 123.65 137.983C123.187 139.43 122.859 140.892 122.665 142.369C122.486 143.839 122.478 145.124 122.642 146.224C122.735 146.85 122.562 147.381 122.124 147.816C122.369 148.421 122.608 148.957 122.84 149.423ZM142.088 124.829C141.531 123.707 141.4 122.472 141.696 121.127C141.587 121.017 141.5 120.897 141.435 120.766C141.225 120.343 141.234 119.902 141.461 119.445C141.754 118.718 142.003 118.14 142.209 117.711C142.414 117.282 142.732 116.806 143.163 116.284C143.609 115.754 144.094 115.358 144.619 115.098L144.75 115.033C146.281 114.273 147.89 114.256 149.576 114.982C151.277 115.701 152.522 116.855 153.31 118.444C153.998 119.829 154.07 121.22 153.527 122.615C153.16 123.524 152.619 124.374 151.903 125.165C151.187 125.957 150.377 126.576 149.473 127.025C147.578 127.965 145.831 127.96 144.232 127.009C143.259 126.474 142.544 125.748 142.088 124.829ZM144.603 123.636C144.921 124.278 145.448 124.661 146.183 124.787C146.925 124.892 147.66 124.763 148.39 124.401C149.323 123.938 150.027 123.271 150.503 122.399C150.979 121.527 150.996 120.646 150.555 119.757C150.15 118.94 149.471 118.341 148.519 117.96C147.581 117.571 146.762 117.55 146.062 117.897C145.843 118.006 145.698 118.097 145.625 118.169C145.704 118.402 145.711 118.635 145.644 118.868C145.571 119.086 145.443 119.34 145.26 119.631C145.077 119.922 144.956 120.136 144.897 120.274C144.882 120.609 144.75 120.911 144.502 121.179C144.222 122.117 144.256 122.936 144.603 123.636ZM161.236 147.107C161.113 146.86 161.052 146.554 161.053 146.19C161.176 144.021 161.089 141.702 160.791 139.234C160.492 136.765 160.068 134.06 159.516 131.118C158.958 128.161 158.583 125.848 158.391 124.181C158.044 121.246 157.745 118.924 157.496 117.212C157.261 115.494 156.882 113.393 156.358 110.909C155.842 108.403 155.241 106.13 154.556 104.09C154.361 103.478 154.592 103.009 155.248 102.684C155.569 102.525 155.911 102.482 156.275 102.556C156.631 102.615 156.889 102.805 157.048 103.126L157.113 103.257C158.217 106.398 159.189 109.768 160.03 113.366C160.878 116.943 161.58 120.664 162.135 124.531C162.706 128.391 163.161 131.908 163.5 135.082C163.84 138.257 164.171 141.872 164.493 145.927C164.614 146.794 164.317 147.404 163.603 147.759C163.165 147.976 162.71 148.029 162.238 147.918C161.779 147.801 161.445 147.53 161.236 147.107ZM168.94 134.182C168.803 133.905 168.72 133.701 168.691 133.57C167.955 131.573 167.896 129.331 168.515 126.844C168.328 126.392 168.274 125.955 168.356 125.533C168.43 125.096 168.656 124.784 169.036 124.596C169.094 124.567 169.254 124.524 169.516 124.467C169.787 123.914 170.032 123.584 170.251 123.475C170.484 123.359 170.754 123.335 171.059 123.401C171.357 123.453 171.623 123.567 171.855 123.742C172.19 123.576 172.504 123.493 172.795 123.494C173.734 123.41 174.607 123.485 175.415 123.721C176.876 124.286 177.994 125.239 178.769 126.581C179.608 128.272 179.795 130.023 179.331 131.834C178.867 133.645 177.745 134.992 175.966 135.874C174.581 136.562 173.23 136.787 171.914 136.55C170.59 136.298 169.599 135.509 168.94 134.182ZM171.544 132.563C171.826 133.132 172.207 133.515 172.687 133.713C173.174 133.889 173.716 133.829 174.314 133.533C175.291 133.048 175.967 132.304 176.341 131.301C176.715 130.297 176.678 129.344 176.23 128.44L176.121 128.221C175.723 127.528 175.128 127.079 174.335 126.873C174.022 126.792 173.604 126.754 173.08 126.759C172.57 126.758 172.169 126.829 171.878 126.974C171.761 127.032 171.63 127.152 171.484 127.333C171.338 127.515 171.257 127.609 171.243 127.616C170.984 128.817 170.94 129.992 171.112 131.143C171.204 131.696 171.349 132.17 171.544 132.563Z" fill="#404040"/>
<path d="M115.26 96.3595C52.2525 128.13 30.1817 161.953 41.4363 184.274C52.6909 206.594 94.6182 208.147 156.017 177.188C217.415 146.23 241.095 111.595 229.841 89.2744C219.022 67.8188 173.484 61.1718 106.614 117.194" stroke="#65BCFF" stroke-width="3"/>
</svg>
