<svg width="707" height="369" viewBox="0 0 707 369" fill="none" xmlns="http://www.w3.org/2000/svg">
    <path d="M56.408 133.902C55.6872 135.223 55.3267 136.725 55.3267 138.407C55.3267 140.93 53.5846 143.573 50.1004 146.337C46.7364 149.1 44.8141 150.962 44.3335 151.923C43.132 154.086 40.9093 155.828 37.6654 157.15C34.4215 158.471 31.538 159.132 29.015 159.132C25.1704 159.132 21.2056 158.051 17.1207 155.888C13.1559 153.846 9.91196 151.323 7.38891 148.319C6.30761 147.117 5.40652 145.075 4.68565 142.192C3.84464 139.308 2.94355 137.266 1.98239 136.064C0.660797 134.262 0 129.877 0 122.908C0 122.428 0.120145 121.767 0.360435 120.926C0.48058 119.965 0.540652 119.304 0.540652 118.943C0.540652 118.703 0.540652 118.343 0.540652 117.862C0.420507 117.261 0.360435 116.841 0.360435 116.601C0.360435 113.357 1.68203 109.752 4.32522 105.788C6.96841 101.823 8.41014 99.48 8.65043 98.7591C10.4526 95.0346 13.6364 92.3314 18.202 90.6493C22.7675 88.9673 27.4531 88.1263 32.2589 88.1263C40.1885 88.1263 47.4572 90.0486 54.0652 93.8933C55.0264 94.494 55.8073 94.7943 56.408 94.7943C57.4893 94.7943 58.6307 92.7519 59.8322 88.667C61.1538 84.4619 61.8146 81.0378 61.8146 78.3946C61.8146 77.914 61.2138 77.4334 60.0124 76.9528C58.9311 76.4722 57.9699 76.232 57.1289 76.232C56.7685 76.232 56.1678 76.4722 55.3267 76.9528C54.4857 77.3133 53.8249 77.4935 53.3443 77.4935C52.8638 77.4935 52.263 77.3733 51.5422 77.133C51.0616 77.133 50.3407 77.1931 49.3796 77.3133C48.4184 77.3133 47.7576 77.3133 47.3972 77.3133C44.6338 77.3133 39.5878 76.0517 32.2589 73.5287C31.538 72.928 30.4567 71.7866 29.015 70.1046C27.5733 68.3024 26.3718 67.0409 25.4107 66.32C23.3682 64.8783 22.1067 62.175 21.6261 58.2102C21.1455 54.1253 20.4847 51.422 19.6437 50.1004C19.4034 49.6199 19.2833 49.3195 19.2833 49.1993C19.2833 48.9591 19.4034 48.5385 19.6437 47.9378C20.0041 47.3371 20.1843 46.8565 20.1843 46.4961C20.1843 46.2558 20.1243 45.8954 20.0041 45.4148C20.0041 44.9342 20.0041 44.5738 20.0041 44.3335C20.0041 42.291 20.5448 39.5277 21.6261 36.0435C22.7074 32.4391 23.3682 29.9762 23.6085 28.6546C23.8488 28.0538 24.6898 26.8524 26.1315 25.0502C27.5733 23.1279 28.4743 21.8063 28.8348 21.0854C29.7959 19.4034 32.1388 16.9404 35.8633 13.6965C39.5878 10.3325 42.6514 8.65044 45.0543 8.65044C45.5349 8.65044 45.9554 8.89073 46.3159 9.3713C46.7964 9.85188 47.217 10.0922 47.5774 10.0922C48.058 10.0922 48.7788 9.97203 49.74 9.73174C50.7012 9.3713 51.362 9.19109 51.7224 9.19109C52.5634 9.19109 53.885 9.3713 55.6872 9.73174C57.4893 9.97203 58.8109 10.0922 59.652 10.0922C61.4541 10.0922 62.7757 10.0321 63.6167 9.91196C64.5779 9.91196 65.9596 10.0922 67.7617 10.4526C69.5639 10.813 70.8855 10.9933 71.7265 10.9933C75.2107 10.9933 76.9528 9.13101 76.9528 5.40653C76.9528 5.04609 76.8927 4.44537 76.7726 3.60435C76.6525 2.76334 76.5924 2.16261 76.5924 1.80217C76.5924 1.44174 76.7726 1.08131 77.133 0.720871C77.4935 0.24029 77.8539 0 78.2143 0C86.5043 0 90.6493 2.46297 90.6493 7.38891C90.5292 8.22993 90.4691 9.55153 90.4691 11.3537C90.4691 12.5551 90.6493 13.6365 91.0098 14.5976C91.3702 15.5588 91.6105 16.2196 91.7306 16.58C91.9709 16.9404 92.5717 17.5412 93.5328 18.3822C94.494 19.2232 95.0346 19.7038 95.1548 19.8239C96.1159 19.8239 97.3174 20.4246 98.7591 21.6261C100.201 22.7074 101.522 23.9088 102.724 25.2304C103.925 26.552 105.367 28.2941 107.049 30.4567C108.851 32.4992 110.173 33.9409 111.014 34.782C114.979 43.072 118.643 47.217 122.007 47.217C124.05 47.217 127.474 46.7364 132.28 45.7752C137.085 44.6939 140.449 44.1533 142.372 44.1533C143.093 44.1533 144.054 44.2133 145.255 44.3335C146.577 44.4536 147.538 44.5137 148.139 44.5137C148.379 44.5137 148.679 44.5137 149.04 44.5137C149.4 44.3936 149.64 44.3335 149.761 44.3335C153.605 45.6551 155.528 47.217 155.528 49.0191C155.528 50.8213 154.627 52.203 152.824 53.1641C151.022 54.1253 148.98 54.6059 146.697 54.6059C146.337 54.6059 145.856 54.6059 145.255 54.6059C144.775 54.4857 144.414 54.4256 144.174 54.4256C143.453 54.4256 142.492 54.5458 141.29 54.7861C140.089 54.9062 139.128 54.9663 138.407 54.9663C138.047 54.9663 137.506 54.9062 136.785 54.7861C136.064 54.5458 135.584 54.4256 135.343 54.4256C135.103 54.4256 134.923 54.4857 134.803 54.6059C133.962 55.2066 132.64 55.8073 130.838 56.408C129.036 57.0088 127.534 57.6696 126.332 58.3904C125.131 59.1113 124.53 60.1926 124.53 61.6343C124.53 62.4754 125.371 64.2175 127.053 66.8606C128.014 68.4225 128.615 70.5851 128.855 73.3485C129.216 76.1118 129.817 77.9741 130.658 78.9352C130.658 80.2568 131.078 81.9388 131.919 83.9813C132.88 85.9036 133.361 87.4054 133.361 88.4867C133.361 98.6991 132.82 106.208 131.739 111.014C131.619 111.615 130.958 112.516 129.757 113.717C128.555 114.919 127.894 116.12 127.774 117.322C127.294 121.647 124.77 125.071 120.205 127.594C115.639 129.997 110.894 131.198 105.968 131.198C95.7555 131.198 84.9425 128.074 73.5287 121.827C70.7654 120.265 68.9031 119.484 67.9419 119.484C66.8606 119.484 64.9984 121.827 62.3552 126.513C59.712 131.198 58.2703 133.661 58.03 133.902V134.082C57.3091 134.082 56.7685 134.022 56.408 133.902ZM114.258 76.9528C114.498 75.9917 114.618 75.3309 114.618 74.9704C114.618 73.6488 113.957 72.3272 112.636 71.0056C112.516 70.8855 111.975 69.3837 111.014 66.5002C110.053 63.6167 108.671 62.175 106.869 62.175C106.749 62.175 106.629 62.2351 106.508 62.3552C106.388 62.3552 106.268 62.3552 106.148 62.3552C105.067 62.7157 103.325 63.4966 100.922 64.698C98.5188 65.8995 96.4163 66.8006 94.6141 67.4013C92.9321 68.002 91.2501 68.3625 89.568 68.4826C87.4054 68.4826 85.0626 69.2635 82.5396 70.8254C80.1367 72.3873 78.6349 74.5499 78.0341 77.3133C78.0341 80.5572 77.073 85.2428 75.1506 91.3702C73.3485 97.3775 72.4474 101.162 72.4474 102.724C72.4474 104.766 76.5323 107.47 84.7022 110.834C92.872 114.198 99.7804 116 105.427 116.24C110.834 116.24 113.957 111.735 114.798 102.724C114.798 102.123 114.738 101.222 114.618 100.021C114.618 98.8192 114.618 97.858 114.618 97.1372C114.618 94.7343 115.099 92.872 116.06 91.5504C116.06 89.6281 115.459 84.7622 114.258 76.9528ZM53.3443 64.3376C53.7048 64.3376 54.4857 64.3376 55.6872 64.3376C57.0088 64.2175 57.8498 64.1574 58.2102 64.1574C58.6908 64.0372 59.4717 63.9171 60.553 63.797C61.6343 63.6768 62.4153 63.4966 62.8959 63.2563C63.3764 63.016 63.9772 62.7157 64.698 62.3552C65.5391 61.9948 66.0797 61.5743 66.32 61.0937C66.6804 60.493 66.9808 59.8322 67.2211 59.1113C67.5815 58.2703 67.7617 57.3692 67.7617 56.408C67.7617 53.6447 68.7229 48.5386 70.6452 41.0896C72.6877 33.5204 73.7089 27.8736 73.7089 24.1491C73.7089 21.7462 72.2071 20.0041 69.2035 18.9228C66.32 17.8415 63.2563 17.3009 60.0124 17.3009C50.6411 17.3009 43.2522 23.9689 37.8457 37.305C37.8457 37.1849 37.7255 37.305 37.4852 37.6654C37.2449 37.9057 36.8845 38.3863 36.4039 39.1072C36.0435 39.7079 35.623 40.4288 35.1424 41.2698C34.782 41.9907 34.4215 42.9518 34.0611 44.1533C33.8208 45.2346 33.7006 46.3759 33.7006 47.5774C33.8208 48.2983 34.1812 49.3796 34.782 50.8213C35.3827 52.263 35.7431 53.2843 35.8633 53.885C36.464 57.1289 38.5064 59.712 41.9907 61.6343C45.595 63.4365 49.3796 64.3376 53.3443 64.3376ZM21.4459 148.319C23.3682 147.598 24.6297 147.238 25.2304 147.238C29.3154 146.757 33.0999 144.594 36.5841 140.75C40.1885 136.905 42.8917 132.7 44.6939 128.135C44.9342 127.654 46.2558 125.311 48.6587 121.106C51.0616 116.781 52.263 113.717 52.263 111.915C52.263 111.675 52.203 111.374 52.0828 111.014C52.0828 110.653 52.0828 110.353 52.0828 110.113C52.0828 107.95 49.2594 105.547 43.6126 102.904C38.0859 100.141 33.8208 98.7591 30.8172 98.7591C24.9301 98.7591 20.5448 100.922 17.6613 105.247C14.7778 109.572 13.3361 114.798 13.3361 120.926C13.3361 121.887 13.3962 122.608 13.5163 123.088C13.5163 123.809 13.4562 124.831 13.3361 126.152C13.3361 127.354 13.3361 128.255 13.3361 128.855C13.3361 136.425 16.0393 142.912 21.4459 148.319ZM94.4339 56.2278C94.6742 56.1077 95.5753 55.6271 97.1372 54.7861C98.6991 53.8249 99.8404 53.044 100.561 52.4433C101.282 51.8425 101.643 51.2418 101.643 50.6411C101.643 47.8778 100.021 44.1533 96.7767 39.4676C93.5328 34.782 90.9497 32.4391 89.0274 32.4391C88.1864 32.4391 87.1651 35.2625 85.9637 40.9093C84.7622 46.436 84.1615 51.3019 84.1615 55.507C84.1615 56.5883 84.7622 57.1289 85.9637 57.1289C86.9249 57.0088 88.3065 56.8886 90.1087 56.7685C92.031 56.5282 93.4728 56.348 94.4339 56.2278ZM121.106 69.9243C122.548 66.8006 123.269 64.9383 123.269 64.3376C123.269 62.175 122.548 61.0937 121.106 61.0937C120.986 61.334 120.926 61.5142 120.926 61.6343C120.926 62.4754 120.926 63.797 120.926 65.5991C121.046 67.4013 121.106 68.843 121.106 69.9243ZM58.03 133.902L57.6696 134.442C57.5494 134.803 57.3692 134.983 57.1289 134.983L56.408 133.902L56.2278 134.082C57.0688 134.082 57.6696 134.022 58.03 133.902Z" fill="#78A8EF"/>
    <path d="M247.419 96.4163C246.698 98.8192 245.496 102.183 243.814 106.508C242.132 110.714 240.991 113.597 240.39 115.159C239.669 116.961 238.708 120.505 237.507 125.792C236.425 131.078 235.404 134.442 234.443 135.884L234.083 136.785C233.842 137.506 233.542 138.407 233.182 139.488C232.821 140.69 232.461 142.011 232.1 143.453C231.74 144.895 231.439 146.577 231.199 148.499C230.959 150.421 230.839 152.404 230.839 154.446C230.839 155.528 230.659 156.489 230.298 157.33C230.058 158.291 229.818 159.012 229.577 159.492C229.337 160.093 228.856 160.934 228.135 162.015C227.415 163.217 226.934 164.058 226.694 164.538C225.612 166.461 222.789 167.422 218.224 167.422C216.421 167.422 215.1 167.182 214.259 166.701C213.418 166.22 212.577 165.5 211.736 164.538C210.895 163.577 210.054 162.856 209.213 162.376C208.372 161.895 207.771 160.994 207.41 159.673C207.05 158.351 206.69 157.57 206.329 157.33C205.008 156.008 204.227 153.005 203.986 148.319C203.986 147.598 204.046 146.637 204.167 145.435C204.287 144.234 204.347 143.333 204.347 142.732C204.347 142.011 203.866 141.05 202.905 139.849C201.944 138.647 201.463 137.626 201.463 136.785C201.463 127.534 201.824 118.403 202.545 109.392C202.665 107.95 202.785 105.607 202.905 102.363C203.025 99.1196 203.145 96.4764 203.265 94.4339C203.506 92.3914 203.866 90.2288 204.347 87.9461C204.827 85.6633 205.488 83.9813 206.329 82.9C206.81 82.4194 207.05 81.7586 207.05 80.9176C207.05 80.5572 206.99 79.9564 206.87 79.1154C206.75 78.1543 206.69 77.4334 206.69 76.9528C206.69 76.3521 206.75 75.451 206.87 74.2496C207.11 72.928 207.23 71.9067 207.23 71.1859C207.23 70.9456 207.17 70.5251 207.05 69.9243C206.93 69.3236 206.87 68.843 206.87 68.4826C206.87 67.6416 207.35 66.8006 208.312 65.9596C209.273 65.1185 209.753 64.5178 209.753 64.1574C209.633 63.1962 209.153 61.2739 208.312 58.3904C205.428 58.7509 203.566 59.8322 202.725 61.6343C201.884 63.3164 200.863 64.2175 199.661 64.3376C199.181 64.4577 198.58 65.2387 197.859 66.6804C197.138 68.1222 196.417 69.0233 195.696 69.3837C194.735 69.8643 193.714 70.8254 192.633 72.2672C191.551 73.5888 189.989 74.8503 187.947 76.0517C187.587 76.6525 187.166 78.3345 186.685 81.0978C186.325 83.8611 185.184 85.423 183.261 85.7835C182.54 86.264 182 86.7446 181.639 87.2252C181.399 87.5856 181.219 87.886 181.099 88.1263C180.979 88.3666 180.858 88.7871 180.738 89.3878C180.618 89.8684 180.498 90.2889 180.378 90.6493C180.138 91.2501 179.237 92.6918 177.675 94.9746C176.113 97.2573 175.212 99.1196 174.971 100.561C174.851 101.042 174.371 102.003 173.53 103.445C172.929 104.646 172.028 106.629 170.826 109.392C169.625 112.155 168.664 114.198 167.943 115.519C167.222 116.721 166.141 118.223 164.699 120.025C163.377 121.707 161.755 122.908 159.833 123.629C158.031 124.35 155.868 124.71 153.345 124.71C149.861 124.71 146.918 123.209 144.515 120.205C142.232 117.081 141.09 112.636 141.09 106.869C141.09 105.067 141.271 103.204 141.631 101.282C141.992 99.2397 142.412 97.0771 142.893 94.7943C143.373 92.3914 143.734 90.5292 143.974 89.2076C144.094 88.2464 144.575 86.9249 145.416 85.2428C146.257 83.5608 146.797 82.1791 147.038 81.0978C147.278 79.5359 147.698 78.0942 148.299 76.7726C149.02 75.3309 150.041 73.5287 151.363 71.3661C152.805 69.0833 154.006 66.9207 154.967 64.8783C158.692 59.8322 160.914 56.2278 161.635 54.0652C162.356 52.0228 164.218 50.4008 167.222 49.1993C170.226 47.8778 172.989 47.217 175.512 47.217C179.116 47.217 182.781 48.2382 186.505 50.2807C187.346 50.7612 188.428 51.9026 189.749 53.7048C191.071 55.3868 192.032 56.2278 192.633 56.2278C193.354 56.1077 195.156 54.6059 198.039 51.7224C200.923 48.7188 203.326 46.9166 205.248 46.3159C205.849 46.1957 207.11 45.4148 209.032 43.973C211.075 42.5313 212.637 41.8104 213.718 41.8104C216.481 41.8104 218.944 42.5914 221.107 44.1533C223.39 45.7151 224.531 47.7576 224.531 50.2807C224.531 50.7612 224.471 52.3832 224.351 55.1465C224.231 57.7897 224.111 59.652 223.99 60.7333C223.87 61.6944 223.63 63.1362 223.27 65.0585C222.909 66.9808 222.369 68.7229 221.648 70.2848C220.927 72.3272 220.446 76.5323 220.206 82.9C219.966 89.1475 219.305 92.872 218.224 94.0735C216.181 97.3174 215.16 105.487 215.16 118.583C215.16 118.703 215.16 119.004 215.16 119.484C215.28 119.845 215.34 120.145 215.34 120.385C215.34 121.226 215.16 122.488 214.799 124.17C214.559 125.852 214.439 127.113 214.439 127.954C214.439 130.117 214.679 133 215.16 136.605C215.64 140.329 215.881 142.672 215.881 143.633C215.881 143.874 215.821 144.174 215.7 144.534C215.7 144.895 215.7 145.135 215.7 145.255C215.7 145.616 216.001 146.817 216.602 148.86C217.202 151.022 217.743 152.103 218.224 152.103C218.584 152.103 219.004 151.683 219.485 150.842C219.966 150.001 220.506 148.92 221.107 147.598C221.708 146.276 222.188 145.375 222.549 144.895C223.39 143.453 224.231 140.63 225.072 136.425C225.913 132.34 226.574 129.516 227.054 127.954C227.415 126.993 227.895 125.251 228.496 122.728C229.217 120.085 229.878 117.862 230.478 116.06C231.199 114.258 231.92 112.996 232.641 112.275C233.122 111.915 233.722 109.692 234.443 105.607C235.284 101.402 236.305 98.5188 237.507 96.957C238.228 96.1159 239.549 94.0134 241.472 90.6493C243.394 87.2853 245.196 84.8223 246.878 83.2604C248.32 83.2604 249.041 84.7022 249.041 87.5856C249.041 90.1087 248.5 93.0522 247.419 96.4163ZM188.127 60.553C186.926 59.4717 185.424 58.9311 183.622 58.9311C182.18 58.9311 180.798 59.3516 179.477 60.1926C169.505 67.2812 162.176 79.8363 157.49 97.858C157.37 97.9782 157.31 98.2185 157.31 98.5789C157.31 99.4199 157.55 99.8404 158.031 99.8404C158.752 99.8404 160.374 98.2185 162.897 94.9746C165.42 91.6105 167.522 88.6069 169.204 85.9637C172.088 81.3982 175.031 77.7938 178.035 75.1506C178.756 74.4298 179.837 73.0481 181.279 71.0056C182.841 68.843 184.283 67.4013 185.604 66.6804L188.307 61.2739V61.0937C188.187 60.8534 188.127 60.6732 188.127 60.553Z" fill="#78A8EF"/>
    <path d="M252.066 78.3946C252.307 78.3946 252.667 78.3946 253.148 78.3946C253.628 78.2744 253.929 78.2143 254.049 78.2143C255.13 78.2143 256.992 76.1118 259.636 71.9067C262.279 67.5815 264.622 64.9383 266.664 63.9772C275.435 53.5246 284.145 48.2983 292.796 48.2983C294.357 48.2983 296.58 48.7788 299.464 49.74C300.064 49.8601 300.665 50.3407 301.266 51.1817C301.866 52.0228 302.467 52.4433 303.068 52.4433C304.63 52.8037 306.011 54.1854 307.213 56.5883C308.414 58.9912 309.015 60.8534 309.015 62.175C309.015 68.4225 307.693 74.4899 305.05 80.377C304.45 81.5784 303.248 83.6209 301.446 86.5043C299.764 89.2677 298.562 91.5504 297.842 93.3526C297.601 94.1936 297.181 95.0346 296.58 95.8756C295.979 96.7167 295.379 97.4375 294.778 98.0383C294.297 98.639 293.637 99.4199 292.796 100.381C291.954 101.222 291.294 101.883 290.813 102.363C290.453 102.844 289.792 103.865 288.831 105.427C287.99 106.869 287.089 108.07 286.127 109.032C285.166 109.993 284.145 110.533 283.064 110.653C281.622 110.653 280.901 111.434 280.901 112.996C280.901 114.558 277.837 116.42 271.71 118.583C265.583 120.746 261.137 121.827 258.374 121.827C257.893 121.827 257.112 121.647 256.031 121.286C254.95 120.806 254.109 120.565 253.508 120.565C251.946 120.565 250.745 122.488 249.904 126.332C249.063 130.177 248.642 133.661 248.642 136.785C248.642 137.506 248.702 138.527 248.822 139.849C249.063 141.17 249.183 142.131 249.183 142.732C249.183 143.333 249.123 144.234 249.003 145.435C249.003 146.637 249.003 147.538 249.003 148.139C249.003 149.22 249.303 150.061 249.904 150.662C250.505 151.142 250.985 151.863 251.346 152.824C251.706 153.906 251.946 154.867 252.066 155.708C252.187 156.669 252.247 157.87 252.247 159.312C252.367 160.754 252.427 161.715 252.427 162.196C252.547 162.796 252.907 163.938 253.508 165.62C254.109 167.422 254.409 168.804 254.409 169.765C254.409 169.885 254.409 170.065 254.409 170.305C254.409 171.267 254.349 171.987 254.229 172.468C254.229 173.069 253.989 173.79 253.508 174.631C253.148 175.472 252.427 176.072 251.346 176.433C250.384 176.793 249.063 176.973 247.381 176.973C245.218 176.973 243.356 175.111 241.794 171.387C240.232 167.782 239.451 163.517 239.451 158.591C239.451 157.87 239.631 156.849 239.992 155.528C240.472 154.206 240.713 153.305 240.713 152.824C238.19 147.178 236.928 143.513 236.928 141.831C236.928 141.351 237.108 140.75 237.469 140.029C237.829 139.308 238.009 138.707 238.009 138.227C238.009 137.866 237.889 137.326 237.649 136.605C237.409 135.884 237.289 135.343 237.289 134.983C237.289 134.743 237.349 134.382 237.469 133.902C237.709 133.301 237.829 132.82 237.829 132.46C237.829 132.099 237.769 131.619 237.649 131.018C237.529 130.297 237.469 129.757 237.469 129.396C237.469 129.036 237.589 128.495 237.829 127.774C237.829 127.173 237.589 126.272 237.108 125.071C236.628 123.749 236.387 122.728 236.387 122.007C236.387 120.806 236.688 118.943 237.289 116.42C238.009 113.777 238.37 112.155 238.37 111.555C238.37 111.434 238.31 111.254 238.19 111.014C238.069 110.653 238.009 110.413 238.009 110.293C238.009 109.933 238.13 109.512 238.37 109.032C238.73 108.551 238.911 108.191 238.911 107.95C238.911 107.47 238.55 106.809 237.829 105.968C237.228 105.007 236.928 104.406 236.928 104.166C236.928 103.925 237.289 103.445 238.009 102.724C238.73 102.003 239.091 101.402 239.091 100.922C239.091 100.681 238.91 100.021 238.55 98.9393C238.19 97.858 238.009 97.017 238.009 96.4163C238.009 94.1335 238.61 92.3314 239.812 91.0098C241.013 89.6882 241.614 88.9072 241.614 88.667C241.614 88.3065 241.313 87.8259 240.713 87.2252C240.232 86.5043 239.872 85.7234 239.631 84.8824C241.193 81.1579 241.974 78.6349 241.974 77.3133C241.974 76.5924 241.554 75.3909 240.713 73.7089C239.872 72.0269 239.451 70.5251 239.451 69.2035C239.451 68.843 239.812 67.7017 240.532 65.7794C241.373 63.7369 241.794 62.0549 241.794 60.7333C241.794 59.7721 241.614 58.3904 241.253 56.5883C241.013 54.7861 240.893 53.4645 240.893 52.6235C240.893 51.7825 241.313 50.5209 242.154 48.8389C243.116 47.1569 243.596 45.7752 243.596 44.6939C243.596 44.0932 243.536 43.3122 243.416 42.3511C243.296 41.2698 243.236 40.4888 243.236 40.0083C243.236 32.9197 244.798 29.3754 247.921 29.3754C250.324 29.3754 252.847 30.2165 255.491 31.8985C258.254 33.5805 259.636 36.0435 259.636 39.2874C259.636 40.8493 258.734 43.7928 256.932 48.118C255.13 52.4433 254.229 55.4469 254.229 57.1289C254.229 59.1714 253.808 61.7545 252.967 64.8783C252.247 68.002 251.826 70.1046 251.706 71.1859C251.706 71.6664 251.886 72.2672 252.247 72.988C252.607 73.5888 252.787 74.0093 252.787 74.2496C252.787 74.4899 252.547 74.9104 252.066 75.5111C251.706 76.1118 251.526 76.5924 251.526 76.9528C251.526 77.1931 251.766 77.6737 252.247 78.3946C250.925 78.9953 249.964 79.6561 249.363 80.377C248.883 80.9777 248.462 82.059 248.102 83.6209C247.741 85.0626 247.321 86.3241 246.84 87.4054L247.201 87.7659C248.162 87.7659 248.883 87.1051 249.363 85.7835C249.964 84.3417 250.264 83.0802 250.264 81.9989C250.264 81.0377 250.024 80.1367 249.543 79.2957C249.784 79.1755 250.204 79.0554 250.805 78.9352C251.406 78.6949 251.826 78.5147 252.066 78.3946ZM270.268 71.7265C270.268 73.6488 269.608 75.3309 268.286 76.7726C267.085 78.2143 266.364 79.4158 266.123 80.377C265.883 81.3381 264.201 83.9813 261.077 88.3065C260.236 89.508 259.035 92.3314 257.473 96.7767C255.911 101.102 255.13 104.466 255.13 106.869C255.13 110.233 255.791 111.915 257.112 111.915C258.074 111.915 260.056 111.615 263.06 111.014C266.063 110.293 269.668 108.851 273.873 106.689C278.078 104.406 280.781 101.643 281.982 98.3987C285.226 93.8332 287.629 90.8896 289.191 89.568C290.272 88.727 291.714 84.7022 293.516 77.4935C295.319 70.1646 296.22 64.698 296.22 61.0937C296.22 58.9311 294.958 57.8498 292.435 57.8498C289.431 57.8498 285.467 60.0725 280.541 64.5178C275.735 68.9632 272.311 71.3661 270.268 71.7265ZM244.317 90.1087C243.836 90.349 243.596 90.8296 243.596 91.5504C243.596 91.7907 243.656 92.031 243.776 92.2713C243.897 92.5116 243.957 92.6918 243.957 92.812C243.957 92.6918 244.017 92.5116 244.137 92.2713C244.377 92.031 244.557 91.8508 244.677 91.7306C244.677 91.3702 244.557 90.8296 244.317 90.1087ZM246.84 145.616L246.66 146.156L247.201 146.337L246.84 145.616ZM244.137 136.965C244.377 136.244 244.497 135.824 244.497 135.704L244.137 135.343C243.897 135.824 243.776 136.244 243.776 136.605L244.137 136.965Z" fill="#78A8EF"/>
    <path d="M401.086 127.414C399.525 133.421 395.8 137.206 389.913 138.767C389.673 138.647 388.832 138.107 387.39 137.145C386.068 136.304 385.167 135.644 384.687 135.163C384.206 134.682 383.605 133.962 382.884 133C382.284 132.039 381.983 131.078 381.983 130.117C381.983 129.036 381.563 128.014 380.722 127.053C379.881 126.092 379.46 125.191 379.46 124.35C379.46 123.749 379.46 122.788 379.46 121.467C379.581 120.025 379.641 119.004 379.641 118.403C379.52 117.682 379.34 116.601 379.1 115.159C378.98 113.717 378.8 112.396 378.559 111.194C378.439 109.993 378.379 108.971 378.379 108.13C378.379 107.65 378.439 106.929 378.559 105.968C378.679 104.887 378.739 104.106 378.739 103.625C378.619 103.024 378.439 102.123 378.199 100.922C377.959 99.7203 377.838 98.8793 377.838 98.3987C377.838 97.9181 377.959 97.1972 378.199 96.2361C378.559 95.1548 378.739 94.4339 378.739 94.0735C378.739 93.713 378.619 93.1123 378.379 92.2713C378.259 91.4303 378.199 90.7695 378.199 90.2889C378.199 89.0875 378.379 86.9849 378.739 83.9813C379.1 80.9777 379.28 78.755 379.28 77.3133C379.28 75.6312 378.92 74.61 378.199 74.2496C377.959 74.2496 377.718 74.3096 377.478 74.4298C377.238 74.4298 376.997 74.4298 376.757 74.4298C376.757 74.6701 376.036 75.7514 374.594 77.6737C373.153 79.4759 371.591 81.5183 369.909 83.8011C368.347 86.0838 367.386 87.7058 367.025 88.667C364.863 94.3138 363.661 97.1372 363.421 97.1372C361.979 97.7379 360.778 99.2397 359.817 101.643C358.976 103.925 358.435 105.187 358.195 105.427C356.993 106.508 355.251 109.092 352.968 113.177C350.806 117.261 348.343 120.806 345.579 123.809C342.816 126.693 339.572 128.135 335.848 128.135C332.604 128.135 329.6 127.053 326.837 124.891C324.194 122.608 322.692 119.544 322.331 115.7C322.211 114.378 321.731 112.396 320.89 109.752C320.169 107.109 319.808 105.127 319.808 103.805C319.808 96.4764 320.409 89.9885 321.611 84.3417C321.731 84.1014 321.911 82.7798 322.151 80.377C322.392 77.8539 322.632 74.4298 322.872 70.1046C323.233 65.6592 323.413 61.5142 323.413 57.6696C323.413 57.189 323.293 56.4681 323.052 55.507C322.932 54.4257 322.872 53.6447 322.872 53.1641C322.872 52.6836 323.112 52.203 323.593 51.7224C324.194 51.1217 324.794 50.8213 325.395 50.8213C327.918 51.0616 330.081 51.7224 331.883 52.8037C333.805 53.885 334.766 55.4469 334.766 57.4893C332.724 80.5572 331.703 94.5541 331.703 99.48C331.703 109.452 332.724 114.438 334.766 114.438C335.968 114.438 337.89 112.696 340.533 109.212C343.177 105.607 346.42 100.742 350.265 94.6141C354.11 88.3666 356.573 84.4619 357.654 82.9C358.014 82.4194 358.856 81.5784 360.177 80.377C361.619 79.0554 362.46 77.7938 362.7 76.5924C362.94 75.7514 363.361 74.9104 363.962 74.0694C364.562 73.1082 365.103 72.3873 365.584 71.9067C366.184 71.306 366.905 70.5851 367.746 69.7441C368.707 68.783 369.308 68.1222 369.548 67.7617C369.669 67.6416 370.93 66.0797 373.333 63.0761C375.736 59.9523 377.838 57.4893 379.641 55.6872C381.563 53.7649 383.125 52.8037 384.326 52.8037C384.807 52.8037 385.708 52.7436 387.029 52.6235C388.471 52.5033 389.553 52.4433 390.273 52.4433C394.118 52.4433 396.941 53.6447 398.744 56.0476C400.666 58.3304 401.627 61.334 401.627 65.0585C401.627 67.4614 401.207 70.8855 400.366 75.3309C399.525 79.7762 399.104 82.8399 399.104 84.522C399.104 84.8824 399.104 85.5432 399.104 86.5043C399.224 87.3454 399.284 88.0062 399.284 88.4867C399.284 90.1688 399.044 92.6317 398.563 95.8756C398.083 99.1196 397.843 101.522 397.843 103.084C397.963 104.286 398.203 106.869 398.563 110.834C399.044 114.798 399.284 117.742 399.284 119.664C399.284 119.905 399.224 120.145 399.104 120.385C399.104 120.625 399.104 120.806 399.104 120.926C399.104 122.848 399.765 125.011 401.086 127.414Z" fill="#78A8EF"/>
    <path d="M541.646 108.311C540.565 111.555 539.183 115.279 537.501 119.484C537.021 121.046 535.879 123.028 534.077 125.431C532.395 127.714 531.554 130.237 531.554 133C531.554 134.803 531.013 137.446 529.932 140.93C528.971 144.414 528.37 146.757 528.13 147.958C527.409 149.4 526.748 150.542 526.147 151.383C525.667 152.224 524.826 153.365 523.624 154.807C522.543 156.248 521.161 157.33 519.479 158.051C517.797 158.772 515.875 159.132 513.712 159.132C511.189 159.132 508.847 158.111 506.684 156.068C504.521 154.026 503.44 151.923 503.44 149.761C503.44 149.52 503.62 148.739 503.981 147.418C501.337 142.372 500.016 139.188 500.016 137.866C500.016 137.746 500.256 136.004 500.737 132.64C501.338 129.276 501.638 125.071 501.638 120.025C501.638 118.703 502.118 117.021 503.08 114.979C504.041 112.936 504.521 111.434 504.521 110.473C504.521 109.873 504.341 108.971 503.981 107.77C503.74 106.569 503.62 105.728 503.62 105.247C503.861 104.887 504.341 104.466 505.062 103.985C505.783 103.505 506.263 103.084 506.504 102.724C505.663 101.042 505.242 99.6001 505.242 98.3987C505.242 95.3951 506.083 91.5504 507.765 86.8648C509.447 82.059 510.288 79.2956 510.288 78.5748C510.288 78.2143 510.228 77.6737 510.108 76.9528C509.988 76.232 509.928 75.6312 509.928 75.1506C509.928 74.4298 509.988 73.4686 510.108 72.2672C510.348 71.0657 510.469 70.1046 510.469 69.3837C510.469 69.1434 510.408 68.7229 510.288 68.1222C510.168 67.5214 510.108 67.0409 510.108 66.6804C510.108 66.4401 510.108 66.0797 510.108 65.5991C510.228 65.1185 510.288 64.7581 510.288 64.5178C510.288 64.1574 510.168 63.6167 509.928 62.8959C509.688 62.0549 509.567 61.4541 509.567 61.0937C509.567 60.0124 509.868 58.9912 510.469 58.03C510.228 58.03 509.928 58.03 509.567 58.03C509.207 57.9099 508.967 57.8498 508.847 57.8498C508.246 57.8498 506.924 58.4505 504.882 59.652C504.762 60.6131 504.461 61.4541 503.981 62.175C503.62 62.7757 503.26 63.1962 502.899 63.4365C502.659 63.6768 502.058 64.0973 501.097 64.698C500.256 65.1786 499.716 65.479 499.475 65.5991C498.514 69.8042 497.373 72.7478 496.051 74.4298C495.09 75.6312 493.528 78.4546 491.365 82.9C489.203 87.3454 487.16 90.7094 485.238 92.9922C484.637 93.713 484.037 95.2749 483.436 97.6778C482.835 99.9606 482.355 101.522 481.994 102.363C480.913 104.526 479.832 107.049 478.75 109.933C477.789 112.696 477.068 114.798 476.588 116.24C476.107 117.562 475.326 118.763 474.245 119.845C473.164 120.806 471.782 121.286 470.1 121.286C469.739 121.286 469.199 121.226 468.478 121.106C467.877 120.986 466.736 120.565 465.054 119.845C463.372 119.004 461.87 117.922 460.548 116.601C459.347 115.279 458.205 113.177 457.124 110.293C456.163 107.41 455.682 104.046 455.682 100.201V97.3174C455.682 94.0735 455.202 92.4515 454.241 92.4515C453.64 92.4515 452.979 92.5717 452.258 92.812C448.654 100.862 444.689 108.07 440.364 114.438C440.004 114.919 439.223 116.12 438.021 118.042C436.94 119.845 436.159 121.046 435.678 121.647C435.198 122.127 434.297 122.728 432.975 123.449C431.653 124.17 430.212 124.53 428.65 124.53C426.127 124.53 423.664 122.668 421.261 118.943C418.978 115.219 417.837 111.134 417.837 106.689C417.837 106.208 417.897 105.487 418.017 104.526C418.137 103.565 418.197 102.784 418.197 102.183C418.197 101.342 418.137 100.201 418.017 98.7591C417.897 97.1972 417.837 96.0559 417.837 95.335C417.837 94.1335 418.137 91.1299 418.738 86.3241C418.738 85.8435 419.218 84.2817 420.18 81.6385C421.261 78.9953 421.802 76.7726 421.802 74.9704C421.802 74.61 421.681 74.0693 421.441 73.3485C421.201 72.6276 421.081 72.087 421.081 71.7265C421.441 69.3236 421.982 66.9207 422.703 64.5178C422.943 63.5567 423.243 61.8146 423.604 59.2915C423.964 56.7685 424.385 54.7861 424.865 53.3443C425.466 51.9026 426.427 51.1817 427.749 51.1817C429.791 51.1817 432.434 52.0228 435.678 53.7048C438.922 55.2667 440.544 57.0688 440.544 59.1113C440.544 59.3516 440.424 59.712 440.184 60.1926C438.502 63.5567 437.661 67.6416 437.661 72.4474C437.661 74.3697 436.94 77.4935 435.498 81.8187C434.177 86.0238 433.516 89.3277 433.516 91.7306C433.516 92.6918 433.636 94.0735 433.876 95.8756C434.237 97.6778 434.417 99.0595 434.417 100.021C434.417 100.381 434.297 100.922 434.056 101.643C433.816 102.243 433.696 102.664 433.696 102.904C433.696 103.985 434.177 104.526 435.138 104.526C436.099 104.286 436.94 103.565 437.661 102.363C440.064 98.639 441.986 95.7555 443.428 93.713C444.869 91.6706 446.792 89.2076 449.195 86.3241C451.718 83.3205 454.181 81.1579 456.584 79.8363C459.107 78.3946 461.63 77.6737 464.153 77.6737C465.474 77.6737 466.616 78.1543 467.577 79.1154C468.658 80.0766 469.199 81.1579 469.199 82.3593C469.199 84.2817 469.079 86.9849 468.838 90.4691C468.718 93.8332 468.658 96.3562 468.658 98.0383C468.658 98.1584 468.778 98.3386 469.019 98.5789C469.98 98.5789 471.241 97.4375 472.803 95.1548C474.365 92.7519 475.326 90.7695 475.687 89.2076C475.807 88.4867 476.528 87.4655 477.849 86.1439C479.171 84.8223 480.072 83.741 480.552 82.9C482.234 79.7762 486.139 73.8291 492.267 65.0585C492.987 64.0973 494.009 63.1962 495.33 62.3552C496.772 61.3941 497.673 60.1926 498.034 58.7509C498.274 57.7897 499.055 56.7084 500.376 55.507C501.698 54.1854 502.539 53.2242 502.899 52.6235C503.5 51.422 504.341 50.1004 505.422 48.6587C506.504 47.0968 508.486 45.4148 511.37 43.6126C514.253 41.6903 517.317 40.7291 520.561 40.7291C522.123 40.7291 523.624 41.2698 525.066 42.3511C526.628 43.3122 527.409 44.5137 527.409 45.9554C527.409 46.0756 527.349 46.3159 527.229 46.6763C527.229 46.9166 527.229 47.0968 527.229 47.217C527.229 47.8177 527.349 48.5986 527.589 49.5598C527.95 50.5209 528.13 51.3019 528.13 51.9026C528.13 53.7048 527.769 56.8886 527.049 61.4541C526.328 65.8995 525.967 69.2035 525.967 71.3661C525.967 72.3272 525.487 73.4686 524.526 74.7902C523.684 75.9917 523.264 76.7726 523.264 77.133C523.264 77.7338 523.624 78.3946 524.345 79.1154C525.066 79.8363 525.427 80.3169 525.427 80.5572C525.427 81.3982 525.066 82.2993 524.345 83.2604C523.745 84.1015 523.444 84.8223 523.444 85.423C523.444 85.6633 523.444 86.0838 523.444 86.6846C523.564 87.1651 523.624 87.5256 523.624 87.7659C523.624 88.727 523.444 90.0486 523.084 91.7306C522.723 93.2925 522.543 94.4339 522.543 95.1548C522.423 95.6354 522.063 96.3562 521.462 97.3174C520.861 98.1584 520.561 98.8793 520.561 99.48C520.561 99.6001 520.561 99.6602 520.561 99.6602L520.741 100.021C520.741 100.742 520.32 102.003 519.479 103.805C518.638 105.607 518.218 107.109 518.218 108.311C518.218 110.233 518.098 113.056 517.857 116.781C517.617 120.385 517.497 123.209 517.497 125.251C517.497 129.937 518.458 132.28 520.38 132.28C522.423 132.28 526.928 124.771 533.897 109.752L535.339 106.689C535.339 106.088 535.579 104.947 536.059 103.265C536.66 101.462 537.201 100.561 537.681 100.561C537.922 100.561 538.582 101.883 539.664 104.526C540.865 107.049 541.526 108.311 541.646 108.311ZM498.394 30.8172C489.023 31.538 481.033 33.5204 474.425 36.7643C467.937 39.8881 462.23 41.45 457.304 41.45C451.177 41.45 445.71 39.4075 440.905 35.3226C436.219 31.2377 433.876 26.3718 433.876 20.725C433.876 19.1631 434.417 18.3822 435.498 18.3822C437.541 18.3822 440.184 19.7638 443.428 22.5272C446.792 25.1704 449.375 26.492 451.177 26.492C452.018 26.492 452.679 26.4319 453.159 26.3117C455.082 25.8312 458.686 24.9301 463.972 23.6085C469.259 22.1667 473.824 21.1455 477.669 20.5448C481.634 19.8239 485.779 19.4635 490.104 19.4635C490.945 19.4635 491.966 19.5236 493.168 19.6437C494.489 19.7638 496.472 20.0041 499.115 20.3646C501.758 20.6049 503.921 21.2657 505.603 22.347C507.405 23.3081 508.306 24.5696 508.306 26.1315C508.306 26.492 508.066 27.0326 507.585 27.7535C507.105 28.4744 506.203 29.2553 504.882 30.0963C503.56 30.9373 501.938 31.3578 500.016 31.3578C499.535 31.3578 498.995 31.1776 498.394 30.8172ZM521.101 106.689C520.861 106.208 520.741 105.848 520.741 105.607C520.861 105.607 521.041 105.547 521.282 105.427C521.161 105.667 521.101 106.088 521.101 106.689ZM520.921 106.508L521.101 106.689C520.981 106.448 520.801 106.328 520.561 106.328C520.441 106.328 520.38 106.388 520.38 106.508H520.921Z" fill="#78A8EF"/>
    <path d="M591.837 110.473C590.515 110.714 589.854 110.954 589.854 111.194C589.854 111.555 589.914 112.095 590.034 112.816C590.155 113.417 590.215 113.837 590.215 114.078C590.215 115.039 589.254 117.442 587.331 121.286C585.409 125.131 583.787 127.053 582.465 127.053L580.663 126.152C579.942 126.152 578.921 127.233 577.599 129.396C576.278 131.559 574.536 133.721 572.373 135.884C570.211 138.047 567.687 139.128 564.804 139.128C564.083 139.128 563.002 138.888 561.56 138.407C560.239 138.047 559.217 137.866 558.496 137.866C558.376 137.866 558.196 137.866 557.956 137.866C557.716 137.986 557.475 138.047 557.235 138.047C556.394 138.047 555.733 137.085 555.253 135.163C554.772 133.241 553.811 132.28 552.369 132.28C552.009 132.28 551.528 132.34 550.927 132.46C550.447 132.46 550.086 132.46 549.846 132.46C548.524 132.46 547.744 130.958 547.503 127.954C547.263 127.113 546.662 125.672 545.701 123.629C544.86 121.467 544.139 119.424 543.538 117.502C542.938 115.459 542.637 113.477 542.637 111.555C542.637 111.194 542.818 111.014 543.178 111.014C543.538 111.014 543.839 111.374 544.079 112.095C544.319 112.816 544.56 113.177 544.8 113.177C545.881 113.177 546.422 111.374 546.422 107.77C546.422 105.968 545.641 104.887 544.079 104.526C542.517 104.046 541.736 103.204 541.736 102.003C541.736 101.162 542.097 99.2998 542.818 96.4163C543.538 93.5328 543.899 91.9709 543.899 91.7306C543.899 89.9285 544.019 88.0662 544.259 86.1439C544.62 84.1014 545.1 81.7586 545.701 79.1154C546.422 76.3521 546.902 74.3697 547.143 73.1683C547.383 71.9668 547.984 70.3449 548.945 68.3024C550.026 66.1398 550.567 64.5779 550.567 63.6167C550.567 60.493 551.828 56.2879 554.351 51.0015C555.553 47.3972 557.836 45.595 561.2 45.595C568.649 45.595 572.373 47.9378 572.373 52.6235C572.373 55.6271 571.712 59.8322 570.391 65.2387C569.069 70.6452 568.408 74.1895 568.408 75.8715C568.408 76.8327 568.468 77.4935 568.589 77.8539C568.589 78.9352 568.288 80.4971 567.688 82.5396C567.207 84.4619 566.967 85.8435 566.967 86.6846C566.967 88.4867 569.79 89.8684 575.437 90.8296C581.204 91.7907 584.087 93.0522 584.087 94.6141C584.087 94.8544 583.847 95.2749 583.366 95.8756C583.006 96.4764 582.826 96.8368 582.826 96.957L583.366 97.858C583.727 98.4588 584.207 99.1196 584.808 99.8404C585.529 100.561 586.13 100.922 586.61 100.922C587.091 100.922 587.391 100.742 587.511 100.381C587.632 100.021 587.752 99.4199 587.872 98.5789C587.992 97.7379 588.052 97.1972 588.052 96.957C588.653 98.0383 589.314 99.48 590.034 101.282C590.755 103.084 591.837 104.887 593.278 106.689C593.278 107.41 593.038 108.191 592.558 109.032L591.837 110.473ZM564.984 103.265C564.984 103.385 564.864 103.565 564.624 103.805C564.384 104.046 564.263 104.226 564.263 104.346C564.263 116 566.606 121.827 571.292 121.827C572.253 121.827 573.455 121.226 574.896 120.025C576.338 118.703 577.059 117.382 577.059 116.06C577.059 115.94 576.999 115.82 576.879 115.7C576.879 115.459 576.879 115.279 576.879 115.159C576.638 114.678 576.218 113.777 575.617 112.456C575.016 111.134 574.536 110.173 574.175 109.572C573.935 108.971 573.455 108.191 572.734 107.229C572.013 106.268 571.352 105.547 570.751 105.067C570.15 104.586 569.31 104.166 568.228 103.805C567.267 103.445 566.186 103.265 564.984 103.265ZM591.656 110.473C592.978 110.954 593.639 111.795 593.639 112.996C593.639 113.357 593.278 113.537 592.558 113.537C591.837 113.537 591.476 112.936 591.476 111.735C591.476 111.374 591.596 110.954 591.837 110.473H591.656Z" fill="#78A8EF"/>
    <path d="M89.568 274.291C89.568 274.411 89.6281 274.892 89.7483 275.733C89.8684 276.453 89.9285 276.994 89.9285 277.355C90.0486 277.715 90.1688 278.316 90.2889 279.157C90.4091 279.998 90.5893 280.659 90.8296 281.139C91.0698 281.5 91.3101 281.92 91.5504 282.401C91.9109 282.881 92.2713 283.242 92.6317 283.482C93.1123 283.722 93.653 283.842 94.2537 283.842C95.0947 283.842 96.5364 283.182 98.5789 281.86C100.742 280.418 102.183 279.697 102.904 279.697C103.265 279.697 103.625 279.878 103.985 280.238C104.346 280.478 104.526 280.779 104.526 281.139C104.526 282.461 104.406 283.722 104.166 284.924C104.045 286.005 103.685 287.086 103.084 288.168C102.604 289.249 102.183 290.09 101.823 290.691C101.462 291.291 100.802 292.192 99.8404 293.394C98.9994 294.715 98.3987 295.617 98.0383 296.097C97.6778 296.217 97.1972 296.217 96.5965 296.097C95.9958 296.097 95.4551 296.157 94.9746 296.277C94.6141 296.398 94.3138 296.698 94.0735 297.178C90.9497 299.581 87.6457 300.783 84.1615 300.783C79.7162 300.783 77.3133 299.882 76.9528 298.08C76.8327 296.758 75.8114 295.136 73.8891 293.214C72.0869 291.291 71.1258 289.549 71.0056 287.987C70.8855 287.026 70.2247 285.645 69.0233 283.842C67.9419 282.04 67.4013 280.659 67.4013 279.697C67.4013 279.097 67.5815 278.556 67.9419 278.075C67.3412 276.153 66.9207 273.87 66.6804 271.227C66.5603 268.584 66.4401 266.902 66.32 266.181C66.32 265.58 66.6204 264.799 67.2211 263.838C67.8218 262.877 68.1222 262.156 68.1222 261.676C68.1222 261.315 67.5815 260.955 66.5002 260.594C65.5391 260.234 65.0585 259.813 65.0585 259.333C65.0585 258.972 65.1185 258.492 65.2387 257.891C65.479 257.17 65.5991 256.69 65.5991 256.449C65.5991 255.728 65.3588 254.527 64.8783 252.845C64.3977 251.163 64.1574 249.901 64.1574 249.06C64.1574 244.855 62.2951 242.753 58.5706 242.753C56.5282 242.753 52.263 243.173 45.7752 244.014C34.842 245.937 29.3754 247.559 29.3754 248.88C29.3754 249.361 29.3754 250.142 29.3754 251.223C29.4956 252.304 29.5557 253.145 29.5557 253.746C29.5557 254.467 29.4355 255.668 29.1952 257.35C28.9549 259.032 28.8348 260.294 28.8348 261.135C28.8348 261.616 28.8949 262.276 29.015 263.117C29.2553 263.958 29.3754 264.619 29.3754 265.1C29.3754 266.181 28.4143 267.383 26.492 268.704C24.6898 270.026 23.1279 270.686 21.8063 270.686C20.8451 270.686 19.9441 270.446 19.103 269.966C18.3822 269.365 17.7814 268.464 17.3009 267.262C16.8203 266.061 16.3998 264.859 16.0393 263.658C15.6789 262.457 15.3786 260.895 15.1383 258.972C15.0181 257.05 14.898 255.428 14.7778 254.106C14.7778 252.665 14.7178 250.863 14.5976 248.7C14.5976 246.537 14.5375 244.855 14.4174 243.654C14.4174 242.813 14.5375 241.431 14.7778 239.509C15.1383 237.587 15.3185 236.145 15.3185 235.184C15.3185 234.823 15.1983 234.223 14.958 233.382C14.7178 232.42 14.5976 231.699 14.5976 231.219C14.5976 230.498 15.1383 225.572 16.2196 216.441C16.58 214.278 19.4034 213.197 24.6898 213.197C26.2517 213.197 27.6333 213.678 28.8348 214.639C30.1564 215.6 30.8172 216.862 30.8172 218.423C30.8172 220.346 30.637 223.049 30.2765 226.533C30.0362 229.897 29.9161 232.42 29.9161 234.102C29.9161 235.064 30.2164 236.025 30.8172 236.986C31.4179 237.827 32.1988 238.247 33.16 238.247C37.3651 238.247 43.8529 237.707 52.6235 236.625C61.3941 235.424 65.7794 234.042 65.7794 232.48C65.7794 232.12 65.7193 231.519 65.5991 230.678C65.479 229.837 65.4189 229.176 65.4189 228.696C65.4189 227.975 65.6592 227.014 66.1398 225.812C66.6204 224.491 66.8606 223.53 66.8606 222.929C66.8606 222.568 66.7405 222.088 66.5002 221.487C66.3801 220.766 66.32 220.226 66.32 219.865C66.32 218.423 66.6804 216.381 67.4013 213.738C68.2423 211.095 68.6628 209.112 68.6628 207.791C68.6628 206.95 68.6028 205.688 68.4826 204.006C68.3625 202.324 68.3024 201.002 68.3024 200.041C68.3024 196.797 69.6841 195.175 72.4474 195.175C78.2143 195.175 81.9989 196.918 83.8011 200.402C85.7234 203.766 86.6846 208.271 86.6846 213.918C86.6846 216.201 86.8047 219.445 87.045 223.65C87.4054 227.855 87.5856 230.979 87.5856 233.021C87.5856 234.223 87.2853 236.085 86.6846 238.608C86.204 241.131 85.9637 242.993 85.9637 244.195C85.9637 244.795 85.5432 245.576 84.7022 246.537C83.8611 247.499 83.4407 248.4 83.4407 249.241C83.4407 249.481 83.9212 249.901 84.8824 250.502C85.9637 250.983 86.5043 251.824 86.5043 253.025C86.5043 253.145 86.3842 253.446 86.1439 253.926C85.9036 254.287 85.7835 254.647 85.7835 255.008C85.7835 257.531 86.1439 260.294 86.8648 263.298C87.5856 266.181 87.9461 267.923 87.9461 268.524C87.9461 268.764 87.8259 269.245 87.5856 269.966C87.4655 270.687 87.4054 271.227 87.4054 271.588C87.4054 272.188 88.1263 273.089 89.568 274.291ZM84.1615 236.986L84.5219 237.346V236.986C84.4018 236.986 84.2817 237.046 84.1615 237.166C84.2817 237.286 84.4018 237.346 84.5219 237.346C84.7622 237.346 84.8824 237.166 84.8824 236.806C84.7622 236.686 84.6421 236.625 84.5219 236.625L84.1615 236.986Z" fill="#78A8EF"/>
    <path d="M210.812 249.601C210.091 252.004 208.89 255.368 207.208 259.693C205.526 263.898 204.384 266.782 203.784 268.344C203.063 270.146 202.102 273.69 200.9 278.977C199.819 284.263 198.798 287.627 197.836 289.069L197.476 289.97C197.236 290.691 196.935 291.592 196.575 292.673C196.214 293.874 195.854 295.196 195.494 296.638C195.133 298.08 194.833 299.762 194.593 301.684C194.352 303.606 194.232 305.589 194.232 307.631C194.232 308.712 194.052 309.674 193.691 310.515C193.451 311.476 193.211 312.197 192.971 312.677C192.73 313.278 192.25 314.119 191.529 315.2C190.808 316.402 190.327 317.243 190.087 317.723C189.006 319.646 186.182 320.607 181.617 320.607C179.815 320.607 178.493 320.366 177.652 319.886C176.811 319.405 175.97 318.684 175.129 317.723C174.288 316.762 173.447 316.041 172.606 315.561C171.765 315.08 171.164 314.179 170.804 312.857C170.443 311.536 170.083 310.755 169.723 310.515C168.401 309.193 167.62 306.189 167.38 301.504C167.38 300.783 167.44 299.822 167.56 298.62C167.68 297.419 167.74 296.518 167.74 295.917C167.74 295.196 167.26 294.235 166.298 293.033C165.337 291.832 164.857 290.811 164.857 289.97C164.857 280.719 165.217 271.588 165.938 262.577C166.058 261.135 166.178 258.792 166.298 255.548C166.419 252.304 166.539 249.661 166.659 247.619C166.899 245.576 167.26 243.414 167.74 241.131C168.221 238.848 168.882 237.166 169.723 236.085C170.203 235.604 170.443 234.943 170.443 234.102C170.443 233.742 170.383 233.141 170.263 232.3C170.143 231.339 170.083 230.618 170.083 230.138C170.083 229.537 170.143 228.636 170.263 227.434C170.503 226.113 170.624 225.092 170.624 224.371C170.624 224.13 170.564 223.71 170.443 223.109C170.323 222.508 170.263 222.028 170.263 221.667C170.263 220.826 170.744 219.985 171.705 219.144C172.666 218.303 173.147 217.703 173.147 217.342C173.027 216.381 172.546 214.459 171.705 211.575C168.821 211.936 166.959 213.017 166.118 214.819C165.277 216.501 164.256 217.402 163.054 217.522C162.574 217.643 161.973 218.423 161.252 219.865C160.531 221.307 159.811 222.208 159.09 222.568C158.129 223.049 157.107 224.01 156.026 225.452C154.945 226.774 153.383 228.035 151.34 229.237C150.98 229.837 150.559 231.519 150.079 234.283C149.718 237.046 148.577 238.608 146.655 238.968C145.934 239.449 145.393 239.929 145.033 240.41C144.792 240.77 144.612 241.071 144.492 241.311C144.372 241.551 144.252 241.972 144.132 242.573C144.012 243.053 143.891 243.474 143.771 243.834C143.531 244.435 142.63 245.877 141.068 248.159C139.506 250.442 138.605 252.304 138.365 253.746C138.245 254.227 137.764 255.188 136.923 256.63C136.322 257.831 135.421 259.813 134.22 262.577C133.018 265.34 132.057 267.383 131.336 268.704C130.615 269.906 129.534 271.407 128.092 273.21C126.771 274.892 125.149 276.093 123.226 276.814C121.424 277.535 119.262 277.895 116.739 277.895C113.254 277.895 110.311 276.393 107.908 273.39C105.625 270.266 104.484 265.821 104.484 260.054C104.484 258.252 104.664 256.389 105.024 254.467C105.385 252.424 105.805 250.262 106.286 247.979C106.767 245.576 107.127 243.714 107.367 242.392C107.487 241.431 107.968 240.11 108.809 238.428C109.65 236.746 110.191 235.364 110.431 234.283C110.671 232.721 111.092 231.279 111.693 229.957C112.413 228.516 113.435 226.713 114.756 224.551C116.198 222.268 117.399 220.105 118.361 218.063C122.085 213.017 124.308 209.413 125.029 207.25C125.749 205.208 127.612 203.586 130.615 202.384C133.619 201.063 136.382 200.402 138.905 200.402C142.51 200.402 146.174 201.423 149.899 203.465C150.74 203.946 151.821 205.087 153.143 206.89C154.464 208.572 155.425 209.413 156.026 209.413C156.747 209.292 158.549 207.791 161.433 204.907C164.316 201.904 166.719 200.101 168.641 199.501C169.242 199.38 170.503 198.6 172.426 197.158C174.468 195.716 176.03 194.995 177.111 194.995C179.875 194.995 182.338 195.776 184.5 197.338C186.783 198.9 187.924 200.942 187.924 203.465C187.924 203.946 187.864 205.568 187.744 208.331C187.624 210.974 187.504 212.837 187.384 213.918C187.264 214.879 187.023 216.321 186.663 218.243C186.303 220.166 185.762 221.908 185.041 223.47C184.32 225.512 183.84 229.717 183.599 236.085C183.359 242.332 182.698 246.057 181.617 247.258C179.574 250.502 178.553 258.672 178.553 271.768C178.553 271.888 178.553 272.188 178.553 272.669C178.673 273.029 178.733 273.33 178.733 273.57C178.733 274.411 178.553 275.673 178.193 277.355C177.952 279.037 177.832 280.298 177.832 281.139C177.832 283.302 178.073 286.185 178.553 289.79C179.034 293.514 179.274 295.857 179.274 296.818C179.274 297.058 179.214 297.359 179.094 297.719C179.094 298.08 179.094 298.32 179.094 298.44C179.094 298.8 179.394 300.002 179.995 302.044C180.596 304.207 181.136 305.288 181.617 305.288C181.977 305.288 182.398 304.868 182.878 304.027C183.359 303.186 183.9 302.104 184.5 300.783C185.101 299.461 185.582 298.56 185.942 298.08C186.783 296.638 187.624 293.814 188.465 289.609C189.306 285.524 189.967 282.701 190.448 281.139C190.808 280.178 191.289 278.436 191.889 275.913C192.61 273.27 193.271 271.047 193.872 269.245C194.593 267.443 195.313 266.181 196.034 265.46C196.515 265.1 197.116 262.877 197.836 258.792C198.677 254.587 199.699 251.704 200.9 250.142C201.621 249.301 202.943 247.198 204.865 243.834C206.787 240.47 208.589 238.007 210.271 236.445C211.713 236.445 212.434 237.887 212.434 240.77C212.434 243.293 211.893 246.237 210.812 249.601ZM151.521 213.738C150.319 212.657 148.817 212.116 147.015 212.116C145.573 212.116 144.192 212.536 142.87 213.377C132.898 220.466 125.569 233.021 120.884 251.043C120.763 251.163 120.703 251.403 120.703 251.764C120.703 252.605 120.944 253.025 121.424 253.025C122.145 253.025 123.767 251.403 126.29 248.159C128.813 244.795 130.916 241.792 132.598 239.148C135.481 234.583 138.425 230.979 141.428 228.335C142.149 227.615 143.231 226.233 144.672 224.19C146.234 222.028 147.676 220.586 148.998 219.865L151.701 214.459V214.278C151.581 214.038 151.521 213.858 151.521 213.738Z" fill="#78A8EF"/>
    <path d="M282.596 245.997C282.716 246.357 282.957 246.898 283.317 247.619C283.678 248.34 283.978 248.94 284.218 249.421C283.497 249.901 282.416 250.562 280.974 251.403C279.653 252.124 278.391 252.845 277.19 253.566C275.988 254.287 274.967 255.068 274.126 255.909C272.444 255.909 270.041 257.471 266.917 260.594C263.794 263.598 262.232 267.022 262.232 270.867C262.232 271.107 262.232 271.347 262.232 271.588C262.352 271.828 262.412 272.008 262.412 272.128C262.412 272.729 262.292 273.27 262.052 273.75C259.288 277.955 257.907 281.439 257.907 284.203C257.907 284.804 257.907 285.645 257.907 286.726C258.027 287.687 258.087 288.408 258.087 288.888C258.087 294.415 257.186 299.702 255.384 304.748C254.903 305.589 254.482 306.97 254.122 308.893C253.882 310.935 253.461 312.377 252.86 313.218C252.38 313.819 252.019 315.02 251.779 316.822C251.659 318.624 251.359 319.706 250.878 320.066C249.797 320.907 249.076 322.349 248.715 324.391C248.355 326.554 248.055 327.755 247.814 327.996C246.853 328.476 246.252 329.077 246.012 329.798C245.772 330.519 245.592 331.36 245.472 332.321C245.472 333.402 245.351 334.243 245.111 334.844C245.231 334.724 245.351 334.664 245.472 334.664L240.425 342.233C240.425 344.395 240.185 345.777 239.705 346.378C239.344 346.979 238.263 347.579 236.461 348.18C236.461 351.184 235.62 353.707 233.938 355.749C232.376 357.912 230.393 359.474 227.99 360.435C225.588 361.396 223.425 362.057 221.503 362.417C219.7 362.778 218.199 362.958 216.997 362.958C214.474 362.958 211.29 361.576 207.446 358.813C203.721 356.17 201.859 352.986 201.859 349.261C201.859 347.219 202.039 344.275 202.4 340.431C202.88 336.586 203.12 333.823 203.12 332.141C203.12 330.338 204.022 327.095 205.824 322.409C207.746 317.723 208.827 314.119 209.068 311.596C209.188 309.914 210.149 307.691 211.951 304.928C213.753 302.164 214.654 300.663 214.654 300.422C215.015 298.019 217.057 294.595 220.782 290.15C225.948 283.422 230.453 277.895 234.298 273.57C234.779 273.089 235.74 272.489 237.182 271.768C238.623 270.927 239.584 270.026 240.065 269.065C240.666 267.623 241.807 266.181 243.489 264.739C245.171 263.177 246.733 261.916 248.175 260.955C249.737 259.873 251.118 258.552 252.32 256.99C253.521 255.308 254.122 253.566 254.122 251.764C254.122 250.923 254.543 248.76 255.384 245.276C256.225 241.792 256.645 239.569 256.645 238.608C256.645 238.247 256.585 237.707 256.465 236.986C256.345 236.145 256.285 235.484 256.285 235.003C256.285 234.042 256.465 232.42 256.825 230.138C257.186 227.855 257.366 226.233 257.366 225.272C257.366 224.911 257.005 224.731 256.285 224.731C255.323 224.851 254.002 225.692 252.32 227.254C250.758 228.816 249.376 229.777 248.175 230.138C247.574 230.378 246.553 231.159 245.111 232.48C243.669 233.802 242.949 234.943 242.949 235.905C242.949 238.307 241.266 239.569 237.902 239.689C237.782 240.29 237.482 241.191 237.001 242.392C236.521 243.594 235.74 244.975 234.659 246.537C233.577 247.979 232.556 248.7 231.595 248.7C230.874 248.7 229.793 249.962 228.351 252.485C226.909 255.008 226.068 257.05 225.828 258.612C225.467 260.895 224.206 262.697 222.043 264.018C219.881 265.22 217.598 265.821 215.195 265.821C213.032 265.821 211.35 265.7 210.149 265.46C208.948 265.22 207.386 264.559 205.463 263.478C203.541 262.396 202.099 260.354 201.138 257.35C200.177 254.347 199.696 250.442 199.696 245.636C199.696 243.594 200.117 240.951 200.958 237.707C201.919 234.463 202.4 232.12 202.4 230.678C203.12 229.357 204.022 227.434 205.103 224.911C206.304 222.388 207.265 220.526 207.986 219.325C208.707 218.003 210.029 216.321 211.951 214.278C213.994 212.116 216.517 210.013 219.52 207.971C226.248 203.165 231.835 200.762 236.28 200.762C240.606 200.762 244.45 201.543 247.814 203.105C251.299 204.667 253.041 206.829 253.041 209.593C253.041 211.996 252.08 213.197 250.157 213.197C249.196 213.197 247.574 212.596 245.291 211.395C243.129 210.073 241.567 209.413 240.606 209.413C239.645 209.413 238.623 209.593 237.542 209.953C236.341 210.554 234.538 211.635 232.135 213.197C229.853 214.759 227.089 216.922 223.845 219.685C220.602 222.448 217.778 225.812 215.375 229.777C213.093 233.622 211.951 237.466 211.951 241.311C211.951 241.431 211.951 241.732 211.951 242.212C212.071 242.693 212.131 243.053 212.131 243.293C212.131 244.014 211.951 245.156 211.591 246.718C211.23 248.279 211.05 249.541 211.05 250.502C211.05 253.506 211.711 255.008 213.032 255.008C213.753 255.008 214.955 254.167 216.637 252.485C218.439 250.682 220.481 248.58 222.764 246.177C225.167 243.774 227.029 242.032 228.351 240.951C232.556 239.749 235.439 237.106 237.001 233.021C237.482 232.06 238.083 231.399 238.803 231.039C241.206 229.957 243.129 227.855 244.57 224.731C244.931 224.01 245.892 223.229 247.454 222.388C249.016 221.547 249.977 220.526 250.337 219.325C250.337 218.724 251.058 218.003 252.5 217.162C254.062 216.321 254.963 215.6 255.203 214.999C255.684 213.558 256.825 212.236 258.627 211.035C260.43 209.833 262.112 209.232 263.673 209.232C267.278 209.232 269.741 209.833 271.062 211.035C272.384 212.116 273.045 214.158 273.045 217.162C273.045 219.805 272.504 223.47 271.423 228.155C270.342 232.721 269.681 235.965 269.44 237.887C269.32 238.728 268.9 239.929 268.179 241.491C267.458 243.053 267.098 243.954 267.098 244.195C267.098 245.396 268.299 245.997 270.702 245.997C271.303 245.997 272.564 245.636 274.487 244.915C276.409 244.195 277.791 243.834 278.632 243.834C280.193 243.834 281.515 244.555 282.596 245.997ZM250.337 296.277C250.578 295.797 250.698 295.436 250.698 295.196C250.698 294.355 250.157 293.514 249.076 292.673C248.115 291.832 247.634 291.171 247.634 290.691L249.617 284.023C249.496 283.782 249.436 283.362 249.436 282.761C249.436 282.16 249.857 280.598 250.698 278.075C250.698 277.234 250.277 276.814 249.436 276.814C249.196 276.814 249.016 276.874 248.896 276.994C246.373 279.037 243.429 282.401 240.065 287.086C236.821 291.652 234.118 294.836 231.955 296.638C230.874 297.599 229.793 299.221 228.711 301.504C227.75 303.907 226.909 305.529 226.188 306.37C224.146 309.013 221.863 313.698 219.34 320.426C216.817 327.155 215.555 332.501 215.555 336.466C215.435 337.067 215.075 338.088 214.474 339.53C213.994 340.971 213.753 342.113 213.753 342.954C213.753 349.081 214.895 352.145 217.177 352.145C219.34 352.145 221.082 351.544 222.404 350.343C222.884 349.622 224.206 348.3 226.369 346.378C228.531 344.455 230.333 342.533 231.775 340.611C233.337 338.809 234.118 337.187 234.118 335.745C234.118 335.144 234.899 333.462 236.461 330.699C238.023 327.936 238.924 325.833 239.164 324.391C239.164 324.271 239.945 323.31 241.507 321.508C243.189 319.706 244.03 318.504 244.03 317.903C244.03 317.663 243.85 317.363 243.489 317.002C243.249 316.762 242.828 316.462 242.228 316.101C241.747 315.861 241.387 315.681 241.146 315.561C241.266 315.44 241.807 314.239 242.768 311.956C243.729 309.674 244.691 307.15 245.652 304.387C246.733 301.744 247.274 300.062 247.274 299.341C247.274 298.981 247.214 298.56 247.094 298.08C247.094 297.719 247.094 297.479 247.094 297.359C247.094 296.998 247.334 296.458 247.814 295.737C248.055 295.737 248.355 295.917 248.715 296.277C249.196 296.638 249.496 296.818 249.617 296.818C249.737 296.818 249.977 296.638 250.337 296.277Z" fill="#78A8EF"/>
    <path d="M293.095 225.092C295.618 220.406 297.18 216.982 297.781 214.819C298.262 213.137 299.403 211.335 301.205 209.413C303.127 207.37 304.93 205.748 306.612 204.547C308.294 203.345 309.135 202.865 309.135 203.105C309.735 202.384 310.396 201.904 311.117 201.663C311.958 201.303 312.979 201.123 314.181 201.123C315.382 201.002 316.223 200.882 316.704 200.762C318.025 200.762 320.068 201.363 322.831 202.564C325.715 203.766 327.937 204.427 329.499 204.547C329.74 204.667 330.28 205.027 331.121 205.628C332.082 206.109 332.803 206.529 333.284 206.89C333.885 207.25 334.605 207.791 335.446 208.512C336.408 209.232 337.129 209.953 337.609 210.674C338.09 211.395 338.51 212.296 338.871 213.377C339.351 214.339 339.591 215.42 339.591 216.621C339.591 219.865 337.97 223.65 334.726 227.975C331.482 232.18 327.877 235.664 323.913 238.428C322.951 239.148 321.69 240.29 320.128 241.852C318.686 243.293 317.245 244.495 315.803 245.456C314.361 246.417 312.739 247.018 310.937 247.258C307.933 247.619 306.011 248.88 305.17 251.043C304.329 253.085 303.908 257.23 303.908 263.478C303.908 271.527 305.891 275.552 309.856 275.552C311.057 275.552 314.421 273.75 319.948 270.146C325.474 266.421 329.259 263.298 331.301 260.775C332.503 260.294 334.185 259.032 336.348 256.99C338.63 254.948 340.493 253.926 341.934 253.926C342.775 253.926 343.496 254.227 344.097 254.827C344.818 255.428 345.178 256.089 345.178 256.81C345.178 257.891 343.857 259.873 341.213 262.757C338.69 265.64 336.708 267.322 335.266 267.803C334.425 268.043 333.464 268.704 332.383 269.785C331.422 270.867 330.581 271.528 329.86 271.768C329.74 271.888 329.139 272.729 328.058 274.291C326.976 275.733 326.015 276.754 325.174 277.355C324.693 277.715 323.853 278.676 322.651 280.238C321.45 281.8 320.068 283.182 318.506 284.383C316.944 285.464 315.082 286.005 312.919 286.005C312.439 286.005 311.538 285.945 310.216 285.825C309.015 285.584 308.053 285.464 307.333 285.464C307.092 285.464 306.732 285.524 306.251 285.645C305.771 285.645 305.41 285.645 305.17 285.645C303.007 285.645 300.665 284.804 298.141 283.121C295.739 281.319 294.537 279.577 294.537 277.895C294.537 277.174 294.057 276.634 293.095 276.273C292.254 275.793 291.834 275.072 291.834 274.111C291.834 273.39 291.293 272.128 290.212 270.326C289.131 268.404 288.59 266.902 288.59 265.821L289.671 262.216C290.272 259.813 290.572 257.951 290.572 256.63C290.572 256.029 290.092 254.827 289.131 253.025C288.29 251.223 287.869 250.082 287.869 249.601C287.869 248.64 287.929 247.318 288.049 245.636C288.29 243.954 288.41 242.633 288.41 241.672C288.41 241.431 288.35 241.071 288.23 240.59C288.23 240.11 288.23 239.749 288.23 239.509C288.47 239.028 288.83 238.247 289.311 237.166C289.912 235.965 290.392 235.003 290.753 234.283C291.113 233.562 291.413 232.721 291.654 231.76C292.014 230.678 292.194 229.777 292.194 229.056C292.194 228.936 292.134 228.756 292.014 228.516C292.014 228.275 292.014 228.095 292.014 227.975C292.014 227.615 292.194 227.134 292.555 226.533C293.035 225.933 293.276 225.512 293.276 225.272L293.095 225.092ZM306.251 237.346L307.693 236.625C308.654 236.025 309.796 235.304 311.117 234.463C312.439 233.622 313.88 232.661 315.442 231.579C317.004 230.378 318.446 229.237 319.768 228.155C321.089 227.074 322.17 225.933 323.011 224.731C323.973 223.53 324.453 222.508 324.453 221.667C324.453 220.706 324.213 219.264 323.732 217.342C323.252 215.42 322.591 214.459 321.75 214.459C320.789 214.459 319.587 215.18 318.146 216.621C316.704 218.063 315.202 219.805 313.64 221.848C312.078 223.77 310.997 224.971 310.396 225.452L309.135 227.434C308.414 228.756 307.633 230.318 306.792 232.12C305.951 233.802 305.53 235.003 305.53 235.724C305.53 236.085 305.771 236.625 306.251 237.346ZM293.095 225.092L293.456 225.272C293.216 225.272 293.095 225.212 293.095 225.092Z" fill="#78A8EF"/>
    <path d="M453.083 216.801C453.324 216.441 453.744 215.78 454.345 214.819C455.066 213.738 455.666 212.957 456.147 212.476C456.628 211.876 457.228 211.515 457.949 211.395C458.91 211.155 459.691 210.194 460.292 208.512C461.013 206.829 461.854 205.808 462.815 205.448C463.896 204.967 465.098 204.006 466.419 202.564C467.861 201.002 469.363 199.681 470.925 198.6C472.607 197.398 474.529 196.797 476.692 196.797C477.052 196.797 477.713 196.918 478.674 197.158C482.038 198.479 484.201 199.921 485.162 201.483C486.123 203.045 486.604 205.928 486.604 210.133C486.604 211.815 486.183 215.9 485.342 222.388C484.261 230.078 482.999 235.003 481.558 237.166C481.558 238.368 481.257 240.17 480.657 242.573C480.056 244.855 479.756 246.658 479.756 247.979C479.756 248.46 479.876 249.301 480.116 250.502C479.756 252.424 479.575 255.308 479.575 259.153C479.575 269.125 480.236 274.111 481.558 274.111C482.399 274.111 483.54 273.69 484.982 272.849C486.424 272.008 488.046 270.927 489.848 269.605C491.77 268.163 492.972 267.262 493.452 266.902C493.933 266.662 495.014 266.001 496.696 264.92C498.378 263.718 499.64 262.877 500.481 262.397C501.442 261.796 502.643 261.075 504.085 260.234C505.647 259.393 507.028 258.792 508.23 258.432C509.431 258.071 510.573 257.891 511.654 257.891C512.856 257.891 513.456 258.191 513.456 258.792C513.456 259.994 512.255 261.255 509.852 262.577C508.05 263.778 506.247 265.58 504.445 267.983C502.643 270.266 500.721 272.969 498.678 276.093C496.756 279.217 495.495 281.199 494.894 282.04C494.293 282.881 493.092 283.963 491.289 285.284C489.487 286.606 488.286 287.807 487.685 288.888C482.759 291.652 479.695 293.033 478.494 293.033C473.929 293.033 470.444 291.231 468.041 287.627C465.759 284.023 464.017 278.316 462.815 270.506C462.815 269.906 462.995 269.185 463.356 268.344C463.716 267.503 463.896 266.902 463.896 266.542C463.896 266.181 463.776 265.761 463.536 265.28C463.416 264.679 463.356 264.199 463.356 263.838C463.356 263.238 463.596 262.457 464.077 261.495C464.557 260.534 464.798 259.813 464.798 259.333C464.798 258.852 464.677 258.191 464.437 257.35C464.317 256.509 464.257 255.849 464.257 255.368C464.257 254.767 464.317 253.866 464.437 252.665C464.677 251.343 464.798 250.562 464.798 250.322C466.359 242.753 467.441 234.943 468.041 226.894C468.162 225.572 468.642 223.53 469.483 220.766C470.324 217.883 470.745 215.66 470.745 214.098C470.745 212.536 470.324 211.755 469.483 211.755C468.282 211.755 466.419 213.257 463.896 216.261C461.373 219.144 459.811 221.367 459.211 222.929C457.649 226.533 456.207 228.456 454.886 228.696C454.165 229.056 453.023 231.279 451.461 235.364C449.9 239.449 448.638 242.152 447.677 243.474C447.196 243.954 446.656 244.975 446.055 246.537C445.454 248.099 444.914 249 444.433 249.241C443.592 249.841 441.97 252.364 439.567 256.81C437.284 261.255 434.521 263.478 431.277 263.478C428.994 263.478 427.132 262.817 425.69 261.495C424.249 260.174 423.227 258.252 422.627 255.728C422.026 253.085 421.605 250.682 421.365 248.52C421.245 246.357 421.185 243.714 421.185 240.59C421.185 239.629 421.185 238.247 421.185 236.445C421.305 234.643 421.365 233.321 421.365 232.48C421.365 228.155 420.704 225.993 419.383 225.993C418.422 225.993 415.298 228.275 410.011 232.841C404.725 237.286 402.082 240.77 402.082 243.293C402.082 243.534 402.142 243.954 402.262 244.555C402.502 245.156 402.623 245.576 402.623 245.817C402.623 246.417 402.262 246.958 401.541 247.438C400.82 247.919 400.46 248.279 400.46 248.52C400.46 249.361 400.34 250.742 400.099 252.665C399.979 254.467 399.919 255.849 399.919 256.81C399.919 257.05 399.919 257.471 399.919 258.071C400.039 258.672 400.099 259.153 400.099 259.513C400.099 260.354 399.799 261.375 399.198 262.577C398.478 263.658 397.937 265.16 397.576 267.082C397.216 269.004 396.916 270.266 396.675 270.867C396.315 271.588 395.594 272.909 394.513 274.831C393.431 276.634 392.771 278.135 392.53 279.337C391.569 283.182 389.046 286.426 384.961 289.069C380.876 291.832 377.512 293.214 374.869 293.214C371.265 293.214 367.72 291.652 364.236 288.528C363.876 287.807 362.674 286.786 360.632 285.464C358.589 284.143 357.328 282.521 356.847 280.598C356.847 273.63 358.649 267.563 362.254 262.397C365.858 257.11 370.844 251.944 377.212 246.898C383.82 241.732 387.664 238.368 388.746 236.806C389.947 235.244 390.548 232.24 390.548 227.795C390.548 227.434 390.488 226.533 390.368 225.092C390.248 223.53 390.127 222.028 390.007 220.586C389.887 219.144 389.707 217.462 389.467 215.54C389.347 213.498 389.106 211.695 388.746 210.133C388.505 208.451 388.145 206.89 387.664 205.448C387.184 204.006 386.643 202.865 386.043 202.024C385.442 201.183 384.721 200.762 383.88 200.762C380.636 200.762 377.512 202.264 374.509 205.268C371.505 208.151 369.162 211.335 367.48 214.819C365.678 218.303 363.816 221.547 361.893 224.551C359.851 227.434 358.049 228.876 356.487 228.876C356.367 228.876 355.586 228.395 354.144 227.434C352.582 226.473 351.02 225.272 349.458 223.83C347.896 222.388 347.116 221.187 347.116 220.226C347.116 219.264 348.317 217.162 350.72 213.918C353.003 210.554 355.105 207.911 357.028 205.988C359.671 201.423 363.455 197.638 368.381 194.635C373.307 191.511 378.173 189.949 382.979 189.949C388.265 189.949 392.65 191.631 396.135 194.995C399.739 198.239 401.661 202.024 401.902 206.349C401.902 208.031 402.322 211.455 403.163 216.621C404.004 221.667 404.785 224.19 405.506 224.19C406.948 224.07 410.192 222.268 415.238 218.784C420.404 215.18 424.128 213.377 426.411 213.377C430.616 213.377 433.32 214.399 434.521 216.441C435.722 218.484 436.323 221.547 436.323 225.632C436.323 226.713 436.143 228.275 435.783 230.318C435.542 232.36 435.422 233.922 435.422 235.003C435.422 236.565 435.783 237.346 436.503 237.346C436.744 237.346 437.344 236.746 438.306 235.544C439.267 234.343 440.288 233.141 441.369 231.94C442.451 230.618 443.111 229.837 443.352 229.597C444.073 228.996 444.793 227.975 445.514 226.533C446.235 224.971 447.076 223.89 448.037 223.289C448.758 222.929 449.659 221.848 450.741 220.045C451.942 218.243 452.783 217.102 453.264 216.621V217.162C453.264 217.042 453.204 216.922 453.083 216.801ZM387.845 254.467C386.283 254.467 385.021 254.948 384.06 255.909C383.7 256.269 382.558 257.35 380.636 259.153C378.714 260.835 377.092 262.397 375.77 263.838C374.449 265.16 373.127 266.902 371.805 269.065C370.604 271.107 370.003 272.969 370.003 274.651C370.003 276.574 370.424 277.535 371.265 277.535C371.625 277.535 372.106 277.475 372.706 277.355C373.307 277.114 373.968 276.874 374.689 276.634C375.41 276.393 375.89 276.213 376.131 276.093C377.933 275.612 380.336 273.39 383.339 269.425C386.463 265.46 388.025 261.555 388.025 257.711C388.025 257.35 387.965 256.81 387.845 256.089C387.845 255.368 387.845 254.827 387.845 254.467Z" fill="#78A8EF"/>
    <path d="M581.961 245.997C582.081 246.357 582.322 246.898 582.682 247.619C583.043 248.34 583.343 248.94 583.583 249.421C582.862 249.901 581.781 250.562 580.339 251.403C579.018 252.124 577.756 252.845 576.555 253.566C575.353 254.287 574.332 255.068 573.491 255.909C571.809 255.909 569.406 257.471 566.282 260.594C563.159 263.598 561.597 267.022 561.597 270.867C561.597 271.107 561.597 271.347 561.597 271.588C561.717 271.828 561.777 272.008 561.777 272.128C561.777 272.729 561.657 273.27 561.417 273.75C558.653 277.955 557.272 281.439 557.272 284.203C557.272 284.804 557.272 285.645 557.272 286.726C557.392 287.687 557.452 288.408 557.452 288.888C557.452 294.415 556.551 299.702 554.748 304.748C554.268 305.589 553.847 306.97 553.487 308.893C553.247 310.935 552.826 312.377 552.225 313.218C551.745 313.819 551.384 315.02 551.144 316.822C551.024 318.624 550.724 319.706 550.243 320.066C549.162 320.907 548.441 322.349 548.081 324.391C547.72 326.554 547.42 327.755 547.179 327.996C546.218 328.476 545.617 329.077 545.377 329.798C545.137 330.519 544.957 331.36 544.837 332.321C544.837 333.402 544.716 334.243 544.476 334.844C544.596 334.724 544.716 334.664 544.837 334.664L539.79 342.233C539.79 344.395 539.55 345.777 539.07 346.378C538.709 346.979 537.628 347.579 535.826 348.18C535.826 351.184 534.985 353.707 533.303 355.749C531.741 357.912 529.758 359.474 527.355 360.435C524.953 361.396 522.79 362.057 520.868 362.417C519.065 362.778 517.564 362.958 516.362 362.958C513.839 362.958 510.655 361.576 506.811 358.813C503.086 356.17 501.224 352.986 501.224 349.261C501.224 347.219 501.404 344.275 501.765 340.431C502.245 336.586 502.485 333.823 502.485 332.141C502.485 330.338 503.387 327.095 505.189 322.409C507.111 317.723 508.192 314.119 508.433 311.596C508.553 309.914 509.514 307.691 511.316 304.928C513.118 302.164 514.019 300.663 514.019 300.422C514.38 298.019 516.422 294.595 520.147 290.15C525.313 283.422 529.818 277.895 533.663 273.57C534.144 273.089 535.105 272.489 536.547 271.768C537.988 270.927 538.949 270.026 539.43 269.065C540.031 267.623 541.172 266.181 542.854 264.739C544.536 263.177 546.098 261.916 547.54 260.955C549.102 259.873 550.483 258.552 551.685 256.99C552.886 255.308 553.487 253.566 553.487 251.764C553.487 250.923 553.907 248.76 554.748 245.276C555.589 241.792 556.01 239.569 556.01 238.608C556.01 238.247 555.95 237.707 555.83 236.986C555.71 236.145 555.65 235.484 555.65 235.003C555.65 234.042 555.83 232.42 556.19 230.138C556.551 227.855 556.731 226.233 556.731 225.272C556.731 224.911 556.37 224.731 555.65 224.731C554.688 224.851 553.367 225.692 551.685 227.254C550.123 228.816 548.741 229.777 547.54 230.138C546.939 230.378 545.918 231.159 544.476 232.48C543.034 233.802 542.313 234.943 542.313 235.905C542.313 238.307 540.632 239.569 537.267 239.689C537.147 240.29 536.847 241.191 536.366 242.392C535.886 243.594 535.105 244.975 534.023 246.537C532.942 247.979 531.921 248.7 530.96 248.7C530.239 248.7 529.158 249.962 527.716 252.485C526.274 255.008 525.433 257.05 525.193 258.612C524.832 260.895 523.571 262.697 521.408 264.018C519.246 265.22 516.963 265.821 514.56 265.821C512.397 265.821 510.715 265.7 509.514 265.46C508.312 265.22 506.751 264.559 504.828 263.478C502.906 262.396 501.464 260.354 500.503 257.35C499.542 254.347 499.061 250.442 499.061 245.636C499.061 243.594 499.482 240.951 500.323 237.707C501.284 234.463 501.765 232.12 501.765 230.678C502.485 229.357 503.387 227.434 504.468 224.911C505.669 222.388 506.63 220.526 507.351 219.325C508.072 218.003 509.394 216.321 511.316 214.278C513.359 212.116 515.882 210.013 518.885 207.971C525.613 203.165 531.2 200.762 535.645 200.762C539.971 200.762 543.815 201.543 547.179 203.105C550.664 204.667 552.406 206.829 552.406 209.593C552.406 211.996 551.445 213.197 549.522 213.197C548.561 213.197 546.939 212.596 544.656 211.395C542.494 210.073 540.932 209.413 539.971 209.413C539.01 209.413 537.988 209.593 536.907 209.953C535.706 210.554 533.903 211.635 531.5 213.197C529.218 214.759 526.454 216.922 523.21 219.685C519.967 222.448 517.143 225.812 514.74 229.777C512.457 233.622 511.316 237.466 511.316 241.311C511.316 241.431 511.316 241.732 511.316 242.212C511.436 242.693 511.496 243.053 511.496 243.293C511.496 244.014 511.316 245.156 510.956 246.718C510.595 248.279 510.415 249.541 510.415 250.502C510.415 253.506 511.076 255.008 512.397 255.008C513.118 255.008 514.32 254.167 516.002 252.485C517.804 250.682 519.846 248.58 522.129 246.177C524.532 243.774 526.394 242.032 527.716 240.951C531.921 239.749 534.804 237.106 536.366 233.021C536.847 232.06 537.448 231.399 538.169 231.039C540.571 229.957 542.494 227.855 543.935 224.731C544.296 224.01 545.257 223.229 546.819 222.388C548.381 221.547 549.342 220.526 549.702 219.325C549.702 218.724 550.423 218.003 551.865 217.162C553.427 216.321 554.328 215.6 554.568 214.999C555.049 213.558 556.19 212.236 557.992 211.035C559.795 209.833 561.477 209.232 563.039 209.232C566.643 209.232 569.106 209.833 570.427 211.035C571.749 212.116 572.41 214.158 572.41 217.162C572.41 219.805 571.869 223.47 570.788 228.155C569.707 232.721 569.046 235.965 568.805 237.887C568.685 238.728 568.265 239.929 567.544 241.491C566.823 243.053 566.463 243.954 566.463 244.195C566.463 245.396 567.664 245.997 570.067 245.997C570.668 245.997 571.929 245.636 573.852 244.915C575.774 244.195 577.156 243.834 577.997 243.834C579.558 243.834 580.88 244.555 581.961 245.997ZM549.702 296.277C549.943 295.797 550.063 295.436 550.063 295.196C550.063 294.355 549.522 293.514 548.441 292.673C547.48 291.832 546.999 291.171 546.999 290.691L548.982 284.023C548.861 283.782 548.801 283.362 548.801 282.761C548.801 282.16 549.222 280.598 550.063 278.075C550.063 277.234 549.642 276.814 548.801 276.814C548.561 276.814 548.381 276.874 548.261 276.994C545.738 279.037 542.794 282.401 539.43 287.086C536.186 291.652 533.483 294.836 531.32 296.638C530.239 297.599 529.158 299.221 528.076 301.504C527.115 303.907 526.274 305.529 525.553 306.37C523.511 309.013 521.228 313.698 518.705 320.426C516.182 327.155 514.92 332.501 514.92 336.466C514.8 337.067 514.44 338.088 513.839 339.53C513.359 340.971 513.118 342.113 513.118 342.954C513.118 349.081 514.26 352.145 516.542 352.145C518.705 352.145 520.447 351.544 521.769 350.343C522.249 349.622 523.571 348.3 525.733 346.378C527.896 344.455 529.698 342.533 531.14 340.611C532.702 338.809 533.483 337.187 533.483 335.745C533.483 335.144 534.264 333.462 535.826 330.699C537.388 327.936 538.289 325.833 538.529 324.391C538.529 324.271 539.31 323.31 540.872 321.508C542.554 319.706 543.395 318.504 543.395 317.903C543.395 317.663 543.215 317.363 542.854 317.002C542.614 316.762 542.193 316.462 541.593 316.101C541.112 315.861 540.752 315.681 540.511 315.561C540.631 315.44 541.172 314.239 542.133 311.956C543.094 309.674 544.056 307.15 545.017 304.387C546.098 301.744 546.639 300.062 546.639 299.341C546.639 298.981 546.579 298.56 546.458 298.08C546.458 297.719 546.458 297.479 546.458 297.359C546.458 296.998 546.699 296.458 547.179 295.737C547.42 295.737 547.72 295.917 548.081 296.277C548.561 296.638 548.861 296.818 548.982 296.818C549.102 296.818 549.342 296.638 549.702 296.277Z" fill="#78A8EF"/>
    <path d="M640.759 330.338C639.197 331.9 638.055 334.664 637.334 338.628C636.614 342.593 635.653 345.417 634.451 347.099C634.451 351.544 632.288 356.11 627.963 360.795C623.758 365.601 619.133 368.004 614.086 368.004C611.563 368.004 609.581 367.643 608.139 366.923C606.698 366.322 605.316 365.361 603.994 364.039C602.793 362.838 601.772 361.997 600.931 361.516C597.807 359.714 596.245 355.208 596.245 348C596.245 338.749 598.107 330.939 601.832 324.572C602.312 323.971 602.973 322.169 603.814 319.165C604.775 316.161 605.436 314.179 605.796 313.218C608.199 307.931 611.143 302.465 614.627 296.818C614.867 296.458 615.348 295.857 616.069 295.016C616.79 294.175 617.33 293.514 617.691 293.033C618.171 292.313 618.892 290.931 619.853 288.888C620.935 286.846 621.896 285.224 622.737 284.023C623.578 282.701 624.479 281.86 625.44 281.5C626.521 280.899 627.663 279.697 628.864 277.895C630.186 276.093 631.267 274.831 632.108 274.111C636.073 270.867 638.896 264.679 640.578 255.548C640.699 254.467 641.359 253.085 642.561 251.403C643.762 249.601 644.363 248.219 644.363 247.258C644.363 246.537 644.243 246.177 644.003 246.177C643.882 246.177 643.462 246.417 642.741 246.898C642.14 247.258 641.72 247.438 641.48 247.438C640.999 247.438 640.759 247.198 640.759 246.718C640.759 243.834 641.359 241.251 642.561 238.968C643.762 236.565 644.363 234.763 644.363 233.562C644.363 225.512 643.282 221.487 641.119 221.487C639.918 221.487 638.896 222.208 638.055 223.65C637.214 224.971 636.614 225.632 636.253 225.632C632.769 228.275 630.787 230.678 630.306 232.841L629.045 234.102C625.921 237.947 623.698 240.23 622.376 240.951C622.016 241.191 621.175 242.513 619.853 244.915C618.532 247.198 617.751 249.06 617.511 250.502C617.39 251.463 616.97 252.364 616.249 253.205C615.528 254.046 614.327 255.188 612.645 256.63C611.083 257.951 610.182 258.732 609.941 258.972C597.206 257.771 590.838 248.82 590.838 232.12C590.838 230.798 590.959 228.936 591.199 226.533C591.199 225.092 591.439 222.148 591.92 217.703C592.4 213.257 593.422 208.271 594.983 202.745C596.665 197.098 598.708 194.274 601.111 194.274C604.355 194.274 606.998 195.476 609.04 197.879C611.083 200.282 612.104 202.624 612.104 204.907C612.104 207.791 611.563 212.176 610.482 218.063C609.401 223.83 608.86 228.035 608.86 230.678C608.86 232.24 609.281 233.021 610.122 233.021C611.203 233.021 613.125 231.88 615.889 229.597C618.652 227.194 620.754 225.152 622.196 223.47C624.359 220.826 627.423 218.604 631.387 216.801C632.348 216.321 632.949 215.54 633.19 214.459C633.55 213.257 634.091 212.536 634.811 212.296C635.652 211.936 636.313 211.035 636.794 209.593C637.395 208.151 638.115 207.13 638.956 206.529C639.197 206.409 639.858 205.808 640.939 204.727C642.14 203.646 643.162 202.745 644.003 202.024C644.964 201.183 646.165 200.402 647.607 199.681C649.049 198.96 650.43 198.6 651.752 198.6C654.035 198.6 656.558 199.441 659.321 201.123C662.205 202.684 663.646 204.306 663.646 205.988C663.646 206.109 663.466 209.232 663.106 215.36C662.745 216.801 662.205 220.466 661.484 226.353C660.763 232.24 659.802 236.265 658.6 238.428C657.519 240.47 656.978 243.774 656.978 248.34C656.978 249.541 657.519 250.142 658.6 250.142C659.201 250.142 660.042 249.841 661.123 249.241C662.325 248.64 663.706 247.859 665.268 246.898C666.83 245.937 668.032 245.276 668.873 244.915C672.237 241.912 675.42 239.929 678.424 238.968C681.308 237.887 683.05 236.866 683.65 235.905C683.891 235.544 685.813 234.643 689.417 233.201C693.022 231.76 695.364 231.039 696.446 231.039C698.248 231.039 700.29 231.519 702.573 232.48C704.976 233.321 706.178 234.703 706.178 236.625C706.178 238.788 705.276 239.989 703.474 240.23C702.153 240.23 700.951 240.35 699.87 240.59C698.909 240.83 698.188 241.071 697.707 241.311C697.227 241.551 696.446 242.032 695.365 242.753C694.283 243.354 693.322 243.894 692.481 244.375C683.23 249.301 676.141 253.506 671.215 256.99C669.173 258.191 666.89 259.813 664.367 261.856C661.844 263.898 660.162 265.16 659.321 265.64C656.438 267.563 654.095 269.785 652.293 272.308C650.611 274.832 648.688 278.976 646.526 284.743C646.405 285.104 645.865 285.524 644.904 286.005C644.063 286.486 643.642 287.086 643.642 287.807C643.642 289.009 643.882 289.669 644.363 289.79C644.964 289.79 645.504 289.549 645.985 289.069C646.466 290.631 646.706 292.373 646.706 294.295C646.706 295.256 646.586 296.698 646.345 298.62C646.225 299.702 645.084 300.663 642.921 301.504C640.759 302.345 639.677 303.546 639.677 305.108C639.677 305.348 639.737 305.709 639.858 306.189C639.978 306.67 640.038 307.03 640.038 307.271C640.398 307.03 640.759 306.249 641.119 304.928C641.48 303.606 642.32 302.945 643.642 302.945C644.964 302.945 645.625 303.666 645.625 305.108C645.625 305.829 645.444 306.73 645.084 307.811C644.844 308.893 644.723 309.613 644.723 309.974L643.462 311.235C642.621 311.956 642.2 312.737 642.2 313.578C642.2 313.698 642.2 313.939 642.2 314.299C642.321 314.66 642.381 314.96 642.381 315.2C642.381 315.32 642.321 315.501 642.2 315.741C642.2 315.981 642.2 316.221 642.2 316.462C642.2 316.942 642.381 317.663 642.741 318.624C643.101 319.706 643.282 320.487 643.282 320.967L642.741 323.31C642.501 324.872 642.14 326.434 641.66 327.996C641.179 329.678 640.639 330.519 640.038 330.519C639.918 330.519 639.737 330.459 639.497 330.338C639.377 330.338 639.257 330.338 639.137 330.338C638.776 330.338 638.416 330.519 638.055 330.879L637.875 331.24C638.115 330.999 639.077 330.699 640.759 330.338ZM639.858 321.688C638.656 321.808 637.875 321.988 637.515 322.229C637.274 322.589 637.154 323.31 637.154 324.391C637.154 324.511 637.274 324.692 637.515 324.932C638.356 324.932 638.956 324.391 639.317 323.31C639.797 322.229 640.098 321.628 640.218 321.508C640.218 321.268 640.158 321.147 640.038 321.147C639.797 321.147 639.677 321.207 639.677 321.328L639.858 321.508V321.688ZM608.5 348.18C608.5 352.145 609.941 354.127 612.825 354.127C613.786 354.127 614.927 353.586 616.249 352.505C617.571 351.424 618.532 350.763 619.133 350.523C620.574 349.922 621.896 348.841 623.097 347.279C624.419 345.837 625.68 344.035 626.882 341.872C628.203 339.83 629.285 338.328 630.126 337.367C630.006 337.127 629.705 336.766 629.225 336.286C628.864 335.805 628.684 335.385 628.684 335.024C628.684 333.823 629.165 332.501 630.126 331.059C631.207 329.738 631.748 328.536 631.748 327.455C631.748 327.215 631.688 326.854 631.568 326.374C631.568 325.893 631.568 325.593 631.568 325.473C631.568 324.511 632.048 322.829 633.009 320.426C634.091 318.024 634.631 315.981 634.631 314.299C634.631 313.939 634.571 313.458 634.451 312.857C634.331 312.257 634.271 311.836 634.271 311.596C634.271 310.154 634.751 307.03 635.713 302.225C636.674 297.419 637.154 293.814 637.154 291.412C637.154 289.73 636.614 288.888 635.532 288.888C634.932 288.888 633.25 290.811 630.486 294.655C627.723 298.5 625.801 301.504 624.719 303.666C624.479 304.147 624.119 304.688 623.638 305.288C617.15 312.857 613.846 319.165 613.726 324.211C613.726 324.692 613.486 325.292 613.005 326.013C611.924 327.215 610.422 334.604 608.5 348.18ZM639.677 313.578C639.557 313.698 639.377 313.819 639.137 313.939C639.017 314.179 638.836 314.299 638.596 314.299C638.476 314.419 638.356 314.539 638.236 314.66C638.115 314.9 638.055 315.08 638.055 315.2C638.055 315.681 638.416 315.921 639.137 315.921C640.338 315.561 640.939 315.02 640.939 314.299C640.458 314.059 640.038 313.819 639.677 313.578ZM640.398 295.556C640.278 295.436 640.098 295.316 639.858 295.196C639.737 295.076 639.617 295.016 639.497 295.016C639.017 295.016 638.776 295.256 638.776 295.737C638.776 295.977 638.956 296.097 639.317 296.097C639.557 296.097 639.737 296.037 639.858 295.917C640.098 295.677 640.278 295.556 640.398 295.556ZM633.73 333.402C633.25 333.402 633.009 333.582 633.009 333.943C633.009 334.183 633.129 334.303 633.37 334.303C633.61 334.303 633.73 334.003 633.73 333.402ZM627.242 346.918L627.062 346.738C626.942 346.618 626.882 346.498 626.882 346.378C626.642 346.618 626.521 346.798 626.521 346.918C626.521 347.279 626.642 347.459 626.882 347.459C627.122 347.459 627.242 347.279 627.242 346.918ZM644.723 284.563C644.723 283.963 644.603 283.662 644.363 283.662C644.123 283.782 644.003 283.902 644.003 284.023C644.003 284.383 644.243 284.563 644.723 284.563ZM633.19 327.635L633.37 328.176L633.55 327.996C633.67 327.875 633.79 327.815 633.91 327.815L633.55 327.455L633.19 327.635ZM637.875 330.879V331.24L638.055 330.879H637.875Z" fill="#78A8EF"/>
</svg>
