<svg width="325" height="52" viewBox="0 0 325 52" fill="none" xmlns="http://www.w3.org/2000/svg">
    <path d="M16.2294 16.9043C16.5134 14.9593 16.6554 12.2134 16.6554 8.66667C16.6554 8.38064 16.7122 7.96589 16.8258 7.42244C16.9393 6.87899 16.9961 6.47855 16.9961 6.22112C16.9961 6.0209 16.9677 5.72057 16.911 5.32013C16.8826 4.89109 16.8684 4.23322 16.8684 3.34653C16.8684 1.11551 17.0387 0 17.3795 0C19.8217 0 21.0428 1.37294 21.0428 4.11881C21.0428 4.40484 21.0144 4.87679 20.9577 5.53465C20.9293 6.16392 20.9151 6.65017 20.9151 6.9934C20.9151 7.16502 20.9293 7.40814 20.9577 7.72277C20.986 8.0374 21.0002 8.26623 21.0002 8.40924C21.0002 8.72387 20.9719 9.18152 20.9151 9.78218C20.8867 10.3828 20.8725 10.8262 20.8725 11.1122C20.8725 11.341 20.8867 11.6986 20.9151 12.1848C20.9435 12.6711 20.9577 13.0429 20.9577 13.3003C20.9577 13.615 20.9435 14.0726 20.9151 14.6733C20.9151 15.2739 20.9151 15.7316 20.9151 16.0462C20.9151 16.2464 20.9577 16.5468 21.0428 16.9472C21.1564 17.319 21.2132 17.5908 21.2132 17.7624C21.2132 17.8196 21.199 17.9197 21.1706 18.0627C21.1706 18.2057 21.1706 18.3058 21.1706 18.363C21.1706 18.7349 21.2132 19.2926 21.2984 20.0363C21.412 20.78 21.4688 21.3377 21.4688 21.7096C21.6108 22.396 21.6818 23.3828 21.6818 24.67C21.6818 25.9571 21.7244 26.901 21.8096 27.5016C21.7812 27.7305 21.767 28.0737 21.767 28.5314C21.767 29.1034 21.8096 29.9186 21.8948 30.9769C22.0084 32.0352 22.0652 32.7932 22.0652 33.2508C22.122 35.2816 22.1788 36.5259 22.2356 36.9835C21.7812 37.0693 21.3836 37.4268 21.0428 38.0561C20.8725 38.0561 20.6879 37.9846 20.4891 37.8416C20.3187 37.6986 20.2051 37.6128 20.1483 37.5842C20.1199 37.5842 20.0489 37.7272 19.9353 38.0132C19.8501 38.3278 19.6797 38.6282 19.4242 38.9142C19.197 39.2288 18.8988 39.3861 18.5296 39.3861C17.9333 39.3861 17.6351 39.0143 17.6351 38.2706C17.6351 38.0418 17.4931 37.6128 17.2091 36.9835C16.9251 36.3542 16.7832 35.8251 16.7832 35.396C16.7832 35.1672 16.7974 34.8526 16.8258 34.4521C16.8826 34.0517 16.911 33.7371 16.911 33.5083C16.911 33.2222 16.8968 33.0077 16.8684 32.8647C16.9535 32.6931 16.9961 32.5358 16.9961 32.3927C16.9961 32.2211 16.9251 31.9923 16.7832 31.7063C16.6696 31.4202 16.6128 31.1914 16.6128 31.0198C16.6128 30.8768 16.6696 30.6909 16.7832 30.462C16.9251 30.2046 16.9961 30.0187 16.9961 29.9043C16.9961 29.7327 16.8684 29.3751 16.6128 28.8317C16.3856 28.2882 16.272 27.8592 16.272 27.5446C16.272 27.2585 16.3146 26.8438 16.3998 26.3003C16.485 25.7569 16.5418 25.3993 16.5702 25.2277C16.4566 25.0847 16.3998 24.8845 16.3998 24.6271C16.3998 24.5699 16.3998 24.484 16.3998 24.3696C16.4282 24.2552 16.4424 24.1694 16.4424 24.1122C16.4424 24.0264 16.4282 23.8977 16.3998 23.7261C16.3714 23.5545 16.3572 23.4257 16.3572 23.3399C16.3572 23.2541 16.3572 23.0968 16.3572 22.868C16.3856 22.6392 16.3998 22.4818 16.3998 22.396C16.343 21.967 16.1726 21.4378 15.8886 20.8086C15.633 20.1507 15.3775 19.8218 15.1219 19.8218C13.9292 19.8504 12.1259 20.1364 9.71208 20.6799C7.32666 21.1947 6.03455 21.4664 5.83577 21.495C5.3814 21.5809 5.15422 22.1815 5.15422 23.297C5.15422 24.0121 5.09742 24.7558 4.98383 25.5281C4.87024 26.3003 4.81344 26.8581 4.81344 27.2013C4.81344 27.3729 4.85604 27.6304 4.94124 27.9736C5.05483 28.2882 5.11162 28.517 5.11162 28.6601C5.11162 28.8031 5.04063 29.0748 4.89864 29.4752C4.75665 29.8471 4.68565 30.1188 4.68565 30.2904C4.68565 30.4048 4.77085 30.5192 4.94124 30.6337C5.11162 30.7195 5.19682 30.8339 5.19682 30.9769C5.19682 31.0627 5.16842 31.22 5.11162 31.4488C5.11162 31.7063 5.31041 31.9494 5.70798 32.1782C5.70798 32.2068 5.67958 32.407 5.62278 32.7789C5.59439 33.1221 5.58019 33.3795 5.58019 33.5512C5.58019 33.7514 5.60859 34.0374 5.66538 34.4092C5.75058 34.7811 5.79317 35.0528 5.79317 35.2244C5.79317 35.3388 5.77897 35.5247 5.75058 35.7822C5.72218 36.0682 5.70798 36.2684 5.70798 36.3828C5.65118 36.3828 5.58019 36.3542 5.49499 36.297C5.4382 36.2398 5.3814 36.2112 5.32461 36.2112C5.18262 36.2112 4.95543 36.4257 4.64306 36.8548C4.33068 37.2838 4.0893 37.4983 3.91891 37.4983C3.83372 37.4983 3.72013 37.4697 3.57814 37.4125C3.46454 37.3553 3.37935 37.3267 3.32256 37.3267C3.15217 37.3267 2.93918 37.4125 2.6836 37.5842C2.42802 37.7844 2.22924 37.8845 2.08725 37.8845C1.97365 37.8845 1.83166 37.8559 1.66128 37.7987C0.922932 37.4268 0.454367 37.0979 0.255581 36.8119C0.0851936 36.5258 0 35.868 0 34.8383C0 34.6953 0.0425968 34.495 0.12779 34.2376C0.212984 33.9516 0.255581 33.7514 0.255581 33.637C0.255581 33.4939 0.212984 33.308 0.12779 33.0792C0.0709948 32.8504 0.0425969 32.6788 0.0425969 32.5644C0.0425969 32.4499 0.0851938 32.3069 0.170387 32.1353C0.255581 31.9637 0.298178 31.8207 0.298178 31.7063C0.298178 31.6205 0.26978 31.4917 0.212984 31.3201C0.156188 31.1199 0.12779 30.9769 0.12779 30.8911C0.12779 30.6337 0.170387 30.2761 0.255581 29.8185C0.369173 29.3322 0.425968 28.9747 0.425968 28.7459C0.425968 28.6887 0.41177 28.6029 0.383372 28.4884C0.383372 28.374 0.383372 28.2882 0.383372 28.231C0.383372 28.1166 0.440168 27.8878 0.553759 27.5446C0.695749 27.2013 0.766743 26.9296 0.766743 26.7294C0.766743 26.5578 0.709947 26.286 0.596356 25.9142C0.482764 25.5424 0.425968 25.2706 0.425968 25.099C0.425968 24.813 0.440167 24.3839 0.468565 23.8119C0.496963 23.2398 0.511162 22.8108 0.511162 22.5248C0.511162 22.2959 0.567958 21.967 0.68155 21.538C0.795141 21.0803 0.851937 20.7371 0.851937 20.5083C0.851937 20.022 0.908733 19.2926 1.02232 18.3201C1.13592 17.319 1.19271 16.5897 1.19271 16.132C1.19271 16.0462 1.17851 15.9032 1.15012 15.703C1.15012 15.5027 1.15012 15.3454 1.15012 15.231C1.15012 14.7734 1.22111 14.0154 1.3631 12.9571C1.53349 11.8988 1.61868 11.1551 1.61868 10.7261C1.61868 10.6403 1.59028 10.4972 1.53349 10.297C1.50509 10.0968 1.49089 9.93949 1.49089 9.82508C1.49089 9.53905 1.53349 9.11001 1.61868 8.53795C1.73227 7.9659 1.78907 7.53685 1.78907 7.25082C1.78907 6.82178 1.83166 6.14961 1.91686 5.23432C2.00205 4.29043 2.04465 3.57536 2.04465 3.08911C2.04465 2.9747 2.01625 2.78878 1.95946 2.53135C1.93106 2.24532 1.91686 2.0308 1.91686 1.88779C1.91686 1.54455 2.10144 1.34433 2.47062 1.28713C4.28808 1.28713 5.19682 2.24532 5.19682 4.16172C5.19682 4.27613 5.18262 4.43344 5.15422 4.63366C5.15422 4.83388 5.15422 4.9769 5.15422 5.0627C5.15422 5.40594 5.21102 5.92079 5.32461 6.60726C5.4382 7.29373 5.49499 7.83718 5.49499 8.23762C5.49499 8.78108 5.4524 9.62486 5.3672 10.769C5.31041 11.9131 5.28201 12.7283 5.28201 13.2145C5.28201 13.3003 5.32461 13.4433 5.4098 13.6436C5.49499 13.8438 5.53759 14.0011 5.53759 14.1155C5.53759 14.2013 5.52339 14.33 5.49499 14.5016C5.49499 14.6447 5.49499 14.7448 5.49499 14.802C5.49499 14.9164 5.49499 15.0594 5.49499 15.231C5.52339 15.4026 5.53759 15.5314 5.53759 15.6172C5.53759 15.7602 5.49499 15.989 5.4098 16.3036C5.32461 16.6183 5.28201 16.8614 5.28201 17.033C5.28201 17.7481 5.26781 18.1628 5.23941 18.2772C5.23941 18.4488 5.3672 18.5347 5.62278 18.5347C5.70798 18.5347 5.77897 18.5203 5.83577 18.4917C8.50517 18.0055 11.9697 17.4763 16.2294 16.9043ZM2.7262 26.9868C2.7262 26.7866 2.6978 26.6865 2.64101 26.6865C2.52741 26.6865 2.47062 26.7294 2.47062 26.8152C2.47062 26.901 2.52741 27.0011 2.64101 27.1155C2.64101 27.0869 2.6552 27.0726 2.6836 27.0726L2.7262 26.9868ZM21.4262 32.3927C21.5398 32.2783 21.5966 32.2068 21.5966 32.1782C21.5966 32.0352 21.5256 31.9637 21.3836 31.9637C21.2132 31.9637 21.128 32.0352 21.128 32.1782C21.128 32.264 21.2274 32.3355 21.4262 32.3927ZM21.4262 33.2508C21.4262 33.165 21.3978 33.1221 21.341 33.1221C21.2274 33.1221 21.1706 33.1507 21.1706 33.2079L21.2984 33.3795C21.3552 33.3795 21.3978 33.3366 21.4262 33.2508ZM2.55581 30.2046L2.59841 30.3333L2.64101 30.2475L2.55581 30.2046Z" fill="#78A8EF"/>
    <path d="M45.6895 32.3927C45.3203 33.8229 44.4399 34.7239 43.0484 35.0957C42.9916 35.0671 42.7929 34.9384 42.4521 34.7096C42.1397 34.5093 41.9267 34.352 41.8131 34.2376C41.6995 34.1232 41.5576 33.9516 41.3872 33.7228C41.2452 33.4939 41.1742 33.2651 41.1742 33.0363C41.1742 32.7789 41.0748 32.5358 40.876 32.3069C40.6772 32.0781 40.5778 31.8636 40.5778 31.6634C40.5778 31.5204 40.5778 31.2915 40.5778 30.9769C40.6062 30.6337 40.6204 30.3905 40.6204 30.2475C40.592 30.0759 40.5494 29.8185 40.4926 29.4752C40.4642 29.132 40.4216 28.8174 40.3648 28.5314C40.3364 28.2453 40.3222 28.0022 40.3222 27.802C40.3222 27.6876 40.3364 27.516 40.3648 27.2871C40.3932 27.0297 40.4074 26.8438 40.4074 26.7294C40.379 26.5864 40.3364 26.3718 40.2797 26.0858C40.2229 25.7998 40.1945 25.5996 40.1945 25.4851C40.1945 25.3707 40.2229 25.1991 40.2797 24.9703C40.3648 24.7129 40.4074 24.5413 40.4074 24.4554C40.4074 24.3696 40.379 24.2266 40.3222 24.0264C40.2938 23.8262 40.2797 23.6689 40.2797 23.5545C40.2797 23.2684 40.3223 22.7679 40.4074 22.0528C40.4926 21.3377 40.5352 20.8086 40.5352 20.4653C40.5352 20.0649 40.45 19.8218 40.2797 19.736C40.2229 19.736 40.1661 19.7503 40.1093 19.7789C40.0525 19.7789 39.9957 19.7789 39.9389 19.7789C39.9389 19.8361 39.7685 20.0935 39.4277 20.5512C39.0869 20.9802 38.7178 21.4664 38.3202 22.0099C37.951 22.5534 37.7238 22.9395 37.6386 23.1683C37.1275 24.5127 36.8435 25.1848 36.7867 25.1848C36.4459 25.3278 36.162 25.6854 35.9348 26.2574C35.736 26.8009 35.6082 27.1012 35.5514 27.1584C35.2674 27.4158 34.8557 28.0308 34.3161 29.0033C33.8049 29.9758 33.2228 30.8196 32.5696 31.5347C31.9165 32.2211 31.1497 32.5644 30.2694 32.5644C29.5026 32.5644 28.7927 32.3069 28.1395 31.7921C27.5148 31.2486 27.1598 30.5192 27.0746 29.604C27.0462 29.2893 26.9326 28.8174 26.7339 28.1881C26.5635 27.5589 26.4783 27.0869 26.4783 26.7723C26.4783 25.0275 26.6203 23.4829 26.9042 22.1386C26.9326 22.0814 26.9752 21.7668 27.032 21.1947C27.0888 20.5941 27.1456 19.7789 27.2024 18.7492C27.2876 17.6909 27.3302 16.7041 27.3302 15.7888C27.3302 15.6744 27.3018 15.5028 27.245 15.2739C27.2166 15.0165 27.2024 14.8306 27.2024 14.7162C27.2024 14.6018 27.2592 14.4873 27.3728 14.3729C27.5148 14.2299 27.6568 14.1584 27.7988 14.1584C28.3951 14.2156 28.9063 14.3729 29.3323 14.6304C29.7866 14.8878 30.0138 15.2596 30.0138 15.7459C29.531 21.2376 29.2897 24.5699 29.2897 25.7426C29.2897 28.1166 29.531 29.3036 30.0138 29.3036C30.2978 29.3036 30.7522 28.8889 31.3769 28.0594C32.0017 27.2013 32.7684 26.0429 33.6771 24.5842C34.5859 23.0968 35.168 22.1672 35.4236 21.7954C35.5088 21.681 35.7076 21.4807 36.02 21.1947C36.3607 20.8801 36.5595 20.5798 36.6163 20.2937C36.6731 20.0935 36.7725 19.8933 36.9145 19.6931C37.0565 19.4642 37.1843 19.2926 37.2979 19.1782C37.4399 19.0352 37.6102 18.8636 37.809 18.6634C38.0362 18.4345 38.1782 18.2772 38.235 18.1914C38.2634 18.1628 38.5616 17.791 39.1295 17.0759C39.6975 16.3322 40.1945 15.7459 40.6204 15.3168C41.0748 14.8592 41.444 14.6304 41.7279 14.6304C41.8415 14.6304 42.0545 14.6161 42.3669 14.5875C42.7077 14.5589 42.9633 14.5446 43.1336 14.5446C44.0424 14.5446 44.7097 14.8306 45.1357 15.4026C45.5901 15.9461 45.8172 16.6612 45.8172 17.5479C45.8172 18.1199 45.7178 18.9351 45.5191 19.9934C45.3203 21.0517 45.2209 21.7811 45.2209 22.1815C45.2209 22.2673 45.2209 22.4246 45.2209 22.6535C45.2493 22.8537 45.2635 23.011 45.2635 23.1254C45.2635 23.5259 45.2067 24.1122 45.0931 24.8845C44.9795 25.6568 44.9227 26.2288 44.9227 26.6007C44.9511 26.8867 45.0079 27.5016 45.0931 28.4455C45.2067 29.3894 45.2635 30.0902 45.2635 30.5479C45.2635 30.6051 45.2493 30.6623 45.2209 30.7195C45.2209 30.7767 45.2209 30.8196 45.2209 30.8482C45.2209 31.3058 45.3771 31.8207 45.6895 32.3927Z" fill="#78A8EF"/>
    <path d="M53.5249 24.7558C53.6385 24.8416 53.7805 24.8845 53.9509 24.8845C54.1213 24.8845 54.3627 24.5413 54.6751 23.8548C55.0442 22.9395 55.5412 21.8812 56.1659 20.6799C56.8191 19.4499 57.5716 18.1628 58.4236 16.8185C59.3039 15.4455 60.241 14.3014 61.235 13.3861C62.2573 12.4708 63.1802 12.0132 64.0038 12.0132C64.7137 12.0132 65.4805 12.2706 66.304 12.7855C67.1275 13.3003 67.5393 13.9725 67.5393 14.802C67.2269 16.5182 66.7868 17.3762 66.2188 17.3762C65.8496 17.3762 65.4237 16.8614 64.9409 15.8317C64.4865 14.802 64.1316 14.2871 63.876 14.2871C63.7908 14.2871 63.7198 14.3014 63.663 14.33C61.8455 15.1595 60.1701 16.9043 58.6366 19.5644C58.2106 20.0506 57.7988 20.6942 57.4013 21.495C57.0037 22.2959 56.8049 22.8966 56.8049 23.297C56.8049 23.4686 56.8617 23.5545 56.9753 23.5545H57.0179L57.0605 23.5115C57.2025 23.4543 57.4155 23.3542 57.6994 23.2112C58.0118 23.0682 58.2532 22.9538 58.4236 22.868C58.6224 22.7822 58.8354 22.7107 59.0625 22.6535C59.3181 22.5677 59.5311 22.5248 59.7015 22.5248C62.4277 22.5248 63.7908 23.8548 63.7908 26.5149C63.7908 26.9725 63.734 27.659 63.6204 28.5743C63.5352 29.4895 63.4926 30.176 63.4926 30.6337C63.4926 31.2915 63.5068 31.7778 63.5352 32.0924C63.5352 32.3212 63.45 32.5787 63.2796 32.8647C63.1092 33.1507 63.024 33.3509 63.024 33.4653C63.024 33.5798 63.0808 33.7085 63.1944 33.8515C63.308 33.9659 63.3648 34.066 63.3648 34.1518C63.3648 34.1804 63.3364 34.2233 63.2796 34.2805C63.2512 34.3663 63.237 34.4378 63.237 34.495C63.237 34.5809 63.2654 34.681 63.3222 34.7954C63.379 34.9098 63.4074 35.0099 63.4074 35.0957C63.4074 35.1815 63.3364 35.3531 63.1944 35.6106C63.0524 35.868 62.9814 36.0682 62.9814 36.2112C62.9814 36.44 63.0382 36.7547 63.1518 37.1551C63.2654 37.5842 63.3222 37.8988 63.3222 38.099C63.3222 38.242 63.2938 38.4422 63.237 38.6997C63.1802 38.9571 63.1518 39.1573 63.1518 39.3003C63.1518 39.6722 63.2938 40.1727 63.5778 40.802C63.5778 40.8592 63.7198 40.9593 64.0038 41.1023C64.3161 41.2453 64.4723 41.4598 64.4723 41.7459C64.4723 42.1749 64.3303 42.5325 64.0464 42.8185C63.7908 43.1045 63.4642 43.2475 63.0666 43.2475C62.3567 43.2475 61.7461 42.9758 61.235 42.4323C60.7238 41.9175 60.3404 41.3311 60.0849 40.6733C59.8577 40.0154 59.6731 39.143 59.5311 38.0561C59.4175 36.9692 59.3465 36.1397 59.3181 35.5677C59.3181 34.9956 59.3181 34.2662 59.3181 33.3795C59.3181 30.8625 59.3891 28.1309 59.5311 25.1848C59.5311 25.1276 59.4885 25.0704 59.4033 25.0132C59.3181 24.9274 59.2471 24.8845 59.1903 24.8845C58.2248 25.1991 57.3303 25.7283 56.5067 26.4719C55.7116 27.2156 55.172 28.0165 54.888 28.8746C54.8596 28.9318 54.7603 29.2321 54.5899 29.7756C54.4195 30.2904 54.3059 30.6337 54.2491 30.8053C54.1923 30.9483 54.0645 31.2486 53.8657 31.7063C53.6953 32.1353 53.5391 32.4499 53.3972 32.6502C53.2552 32.8218 53.0706 33.0363 52.8434 33.2937C52.6446 33.5512 52.4174 33.7371 52.1618 33.8515C51.9063 33.9373 51.6365 33.9802 51.3525 33.9802C50.7845 33.9802 50.2876 33.4796 49.8616 32.4785C49.4356 31.4488 49.2227 30.3333 49.2227 29.132C49.2227 29.0176 49.2227 28.846 49.2227 28.6172C49.2511 28.3883 49.2653 28.2167 49.2653 28.1023C49.2653 27.9593 49.2511 27.7448 49.2227 27.4587C49.2227 27.1727 49.2227 26.9582 49.2227 26.8152C49.2227 26.5292 49.3363 25.4279 49.5634 23.5115C49.6202 23.2827 49.7338 23.0253 49.9042 22.7393C50.0746 22.4532 50.1598 22.2101 50.1598 22.0099C50.1598 21.7239 50.0888 21.4092 49.9468 21.066C49.8332 20.7228 49.7764 20.4653 49.7764 20.2937C49.7764 20.2651 49.819 19.9934 49.9042 19.4785C49.961 18.9065 50.032 18.0341 50.1172 16.8614C50.2308 15.6601 50.316 14.7734 50.3728 14.2013C50.3728 13.6293 50.9691 13.3432 52.1618 13.3432C52.5026 13.3432 52.9286 13.4719 53.4398 13.7294C53.9793 13.9582 54.2491 14.2585 54.2491 14.6304C54.2491 15.0308 54.2207 15.6458 54.1639 16.4752C54.1355 17.2761 54.1213 17.8911 54.1213 18.3201C54.1213 18.549 54.0361 18.835 53.8657 19.1782C53.7237 19.4928 53.6527 19.7503 53.6527 19.9505C53.6527 20.1221 53.6669 20.3795 53.6953 20.7228C53.7521 21.066 53.7805 21.3234 53.7805 21.495C53.7805 21.5523 53.7663 21.6667 53.7379 21.8383C53.7379 22.0099 53.7379 22.1386 53.7379 22.2244C53.7379 22.3102 53.7521 22.4532 53.7805 22.6535C53.8373 22.8537 53.8657 23.011 53.8657 23.1254C53.8657 23.2398 53.8231 23.3828 53.7379 23.5545C53.6811 23.7261 53.6527 23.8548 53.6527 23.9406C53.6527 24.0264 53.6527 24.1408 53.6527 24.2838C53.6811 24.4268 53.6953 24.527 53.6953 24.5842C53.6953 24.6128 53.6669 24.67 53.6101 24.7558C53.5533 24.813 53.5249 24.8702 53.5249 24.9274L53.5675 24.9703C53.5675 24.9417 53.5533 24.9131 53.5249 24.8845C53.5249 24.8273 53.5249 24.7844 53.5249 24.7558ZM53.5675 26.0429L53.4823 25.8713C53.4823 25.8999 53.4539 25.9428 53.3972 26C53.3972 26.1144 53.4255 26.1716 53.4823 26.1716C53.5391 26.1716 53.5675 26.1287 53.5675 26.0429ZM52.886 27.2442V27.2013C52.9144 27.1727 52.9286 27.1441 52.9286 27.1155C52.9286 27.0869 52.9002 27.0726 52.8434 27.0726C52.815 27.0726 52.8008 27.1155 52.8008 27.2013C52.8292 27.2013 52.8576 27.2156 52.886 27.2442Z" fill="#78A8EF"/>
    <path d="M89.7506 17.2475C90.0346 17.4763 90.1765 17.7338 90.1765 18.0198C90.1765 18.3058 90.0204 18.5633 89.708 18.7921C89.3956 19.0209 88.9838 19.1353 88.4727 19.1353C88.3023 19.1353 88.0467 19.1067 87.7059 19.0495C86.1156 19.5358 84.6531 20.1793 83.3184 20.9802C83.1197 21.1232 82.9493 21.2948 82.8073 21.495C82.6937 21.6953 82.6227 21.8812 82.5943 22.0528C82.5659 22.1958 82.5375 22.4103 82.5091 22.6964C82.5091 22.9824 82.5091 23.1683 82.5091 23.2541C82.4807 23.5402 82.3671 23.9406 82.1683 24.4554C81.9979 24.9703 81.9128 25.3993 81.9128 25.7426C81.9128 25.9714 81.785 26.2431 81.5294 26.5578C81.3022 26.8724 81.1886 27.1584 81.1886 27.4158C81.1886 27.473 81.1886 27.5446 81.1886 27.6304C81.217 27.7162 81.2312 27.7734 81.2312 27.802C81.2312 28.3168 80.9472 28.9747 80.3793 29.7756C80.2089 30.3476 79.6409 31.2057 78.6754 32.3498C77.7383 33.4939 76.9715 34.066 76.3752 34.066C76.29 34.066 76.148 34.1232 75.9492 34.2376C75.7504 34.352 75.5232 34.495 75.2676 34.6667C75.0121 34.8669 74.7991 35.0099 74.6287 35.0957C73.0384 34.7239 71.9309 34.2376 71.3061 33.637C70.6246 32.8647 70.0424 31.8779 69.5597 30.6766C69.0769 29.4466 68.8355 28.374 68.8355 27.4587C68.8355 27.1155 68.8923 26.6293 69.0059 26C69.1195 25.3421 69.1763 24.8702 69.1763 24.5842C69.1763 24.3553 69.3325 23.8405 69.6449 23.0396C69.9572 22.2101 70.1134 21.6238 70.1134 21.2805C70.1134 21.0517 69.9004 20.451 69.4745 19.4785C69.0769 18.5061 68.8781 17.7767 68.8781 17.2904C68.8781 15.2596 69.2331 13.9582 69.943 13.3861C70.6814 12.7855 71.8457 12.4851 73.436 12.4851H75.3954C76.219 12.4851 77.4117 12.9857 78.9736 13.9868C80.5639 14.9593 81.5294 16.2035 81.8702 17.7195C82.0689 18.6348 82.4097 19.0924 82.8925 19.0924C83.0061 19.0924 83.0913 19.0781 83.1481 19.0495C83.4036 18.9637 83.8154 18.8207 84.3834 18.6205C84.9797 18.3916 85.4341 18.22 85.7465 18.1056C86.0872 17.9912 86.499 17.8625 86.9818 17.7195C87.4645 17.5765 87.9331 17.4763 88.3875 17.4191C88.8418 17.3333 89.2962 17.2761 89.7506 17.2475ZM80.2941 23.5545C80.2941 23.4972 80.2799 23.4114 80.2515 23.297C80.2515 23.154 80.2373 23.0539 80.2089 22.9967C80.2089 22.9109 80.1947 22.8251 80.1663 22.7393C80.1379 22.6535 80.0953 22.5963 80.0385 22.5677C79.9817 22.5105 79.9107 22.4818 79.8255 22.4818C79.7119 22.4818 79.5415 22.5105 79.3143 22.5677C77.2129 23.3399 75.7504 23.7261 74.9269 23.7261C74.0465 23.7261 73.6064 25.4851 73.6064 29.0033C73.6064 29.604 73.7484 30.176 74.0323 30.7195C74.3447 31.2629 74.7281 31.5347 75.1824 31.5347C75.8356 31.5347 76.4887 31.1056 77.1419 30.2475C77.8234 29.3608 78.4198 28.4312 78.931 27.4587C79.4421 26.4576 79.7403 25.9142 79.8255 25.8284C79.9675 25.5996 80.1237 24.8416 80.2941 23.5545ZM71.3061 17.1617C71.4197 18.077 71.5901 18.5347 71.8173 18.5347C71.9877 18.5347 72.1723 18.3916 72.3711 18.1056C72.5982 17.791 72.8112 17.6337 73.01 17.6337L73.3508 17.7195C73.578 17.7767 73.8619 17.8625 74.2027 17.9769C74.5435 18.0913 74.8843 18.22 75.225 18.363C75.5658 18.5061 75.8498 18.692 76.077 18.9208C76.3326 19.121 76.4604 19.3355 76.4604 19.5644C76.4604 19.6788 76.4178 19.8218 76.3326 19.9934C76.2758 20.165 76.1764 20.3652 76.0344 20.5941C75.9208 20.7943 75.8498 20.9373 75.8214 21.0231C75.8214 21.1947 75.8782 21.3234 75.9918 21.4092C76.1054 21.4664 76.2048 21.495 76.29 21.495C76.9999 21.495 77.7809 21.3377 78.6328 21.0231C79.5131 20.6799 79.9533 20.2651 79.9533 19.7789C79.9533 18.5776 79.3001 17.3047 77.9938 15.9604C76.7159 14.6161 75.4522 13.9439 74.2027 13.9439C73.3224 13.9439 72.6124 14.2728 72.0729 14.9307C71.5617 15.5886 71.3061 16.3322 71.3061 17.1617Z" fill="#78A8EF"/>
    <path d="M87.8853 24.5842C87.2889 24.527 86.7494 24.3124 86.2666 23.9406C85.7555 23.5402 85.4999 23.1397 85.4999 22.7393C85.4999 21.4521 86.3376 19.6502 88.0131 17.3333C89.0922 15.7888 89.9016 14.8163 90.4411 14.4158C90.5547 14.33 90.6967 14.1584 90.8671 13.901C91.0375 13.615 91.1936 13.4147 91.3356 13.3003C92.1592 12.6711 92.7697 12.2277 93.1673 11.9703C93.5649 11.6843 94.147 11.3839 94.9138 11.0693C95.6805 10.7261 96.4189 10.5545 97.1288 10.5545C97.9808 10.5545 98.7191 10.8977 99.3438 11.5842C99.9686 12.242 100.281 12.9714 100.281 13.7723C100.281 14.0869 100.196 14.5446 100.025 15.1452C99.8834 15.7459 99.8124 16.2035 99.8124 16.5182C99.8124 16.5754 99.8124 16.6469 99.8124 16.7327C99.8408 16.8185 99.855 16.89 99.855 16.9472C99.855 17.1188 99.7982 17.2618 99.6846 17.3762C99.3155 17.8625 99.1309 18.6205 99.1309 19.6502C99.1309 19.7932 98.9889 20.2794 98.7049 21.1089C98.4209 21.9098 98.2789 22.4961 98.2789 22.868L98.1085 23.4686C98.0234 23.8691 97.9098 24.2981 97.7678 24.7558C97.6258 25.1848 97.498 25.4565 97.3844 25.571C97.2708 25.6854 97.1856 25.8999 97.1288 26.2145C97.072 26.5005 97.0152 26.8581 96.9584 27.2871C96.93 27.7162 96.9016 28.0308 96.8732 28.231C96.8448 28.4026 96.7454 28.6744 96.5751 29.0462C96.4331 29.3894 96.3621 29.6755 96.3621 29.9043C96.3621 30.3619 96.4615 30.5908 96.6602 30.5908C96.8022 30.5908 96.9584 30.4906 97.1288 30.2904C97.2992 30.0902 97.4838 29.8042 97.6826 29.4323C97.9098 29.0605 98.0375 28.8603 98.0659 28.8317C98.2363 28.6029 98.5345 28.231 98.9605 27.7162C99.4148 27.1727 99.7414 26.7437 99.9402 26.429C100.025 26.143 100.437 25.6854 101.176 25.0561C101.914 24.4268 102.524 24.1122 103.007 24.1122C103.518 24.1122 103.774 24.3553 103.774 24.8416C103.774 25.242 102.979 26.3289 101.388 28.1023C101.247 28.2739 101.133 28.5171 101.048 28.8317C100.963 29.1177 100.892 29.3751 100.835 29.604C100.806 29.8328 100.778 29.9615 100.75 29.9901C100.437 30.3047 100.253 30.9054 100.196 31.7921C100.139 32.2497 99.8976 32.7074 99.4716 33.165C99.0741 33.6227 98.8753 33.9945 98.8753 34.2805C98.8753 34.7668 98.5629 35.2387 97.9381 35.6964C97.3134 36.1826 96.6886 36.4257 96.0639 36.4257C95.9503 36.4257 95.7799 36.3542 95.5527 36.2112C95.3255 36.0968 95.1552 36.0396 95.0416 36.0396C94.4736 36.0396 94.0476 35.7536 93.7637 35.1815C93.4797 34.6381 93.3377 34.0374 93.3377 33.3795C93.3377 32.9791 93.3519 32.3927 93.3803 31.6205C93.4371 30.8482 93.4655 30.2761 93.4655 29.9043C93.4655 29.6755 93.4371 29.3465 93.3803 28.9175C93.3235 28.4598 93.2951 28.1452 93.2951 27.9736C93.2951 27.8878 93.3377 27.7591 93.4229 27.5875C93.5081 27.4158 93.5507 27.2728 93.5507 27.1584C93.5507 27.1012 93.5365 27.0154 93.5081 26.901C93.5081 26.7866 93.5081 26.7151 93.5081 26.6865C93.5081 26.4004 93.6643 26.1001 93.9766 25.7855C94.289 25.4422 94.4452 25.1991 94.4452 25.0561C94.4452 24.9989 94.4168 24.9131 94.36 24.7987C94.3032 24.6557 94.2748 24.5413 94.2748 24.4554C94.2748 23.9692 94.4026 23.5545 94.6582 23.2112C94.9138 22.868 95.0416 22.6249 95.0416 22.4818C95.0416 22.396 94.999 22.2673 94.9138 22.0957C94.857 21.9241 94.8286 21.7811 94.8286 21.6667C94.8286 21.209 95.0558 20.451 95.5101 19.3927C95.9645 18.3058 96.1917 17.6766 96.1917 17.5049C96.1917 17.4477 96.1633 17.3619 96.1065 17.2475C96.0497 17.1045 96.0213 16.9901 96.0213 16.9043C96.0213 16.8471 96.1491 15.6601 96.4047 13.3432C96.4047 12.9428 96.2911 12.7426 96.0639 12.7426C95.2971 13.429 94.7292 13.9153 94.36 14.2013C94.1328 14.2585 93.8631 14.4158 93.5507 14.6733C93.2667 14.9021 93.0253 15.1309 92.8265 15.3597C92.6277 15.5886 92.358 15.9175 92.0172 16.3465C91.6764 16.7756 91.4492 17.0473 91.3356 17.1617C91.1936 17.3333 91.0659 17.6051 90.9523 17.9769C90.8671 18.3201 90.7677 18.5776 90.6541 18.7492C90.2281 19.2926 89.7738 20.3223 89.291 21.8383C88.8082 23.3256 88.3397 24.2409 87.8853 24.5842Z" fill="#78A8EF"/>
    <path d="M121.679 24.1551C121.707 24.2409 121.764 24.3696 121.849 24.5413C121.934 24.7129 122.005 24.8559 122.062 24.9703C121.892 25.0847 121.636 25.242 121.296 25.4422C120.983 25.6139 120.685 25.7855 120.401 25.9571C120.117 26.1287 119.876 26.3146 119.677 26.5149C119.279 26.5149 118.711 26.8867 117.973 27.6304C117.235 28.3454 116.865 29.1606 116.865 30.0759C116.865 30.1331 116.865 30.1903 116.865 30.2475C116.894 30.3047 116.908 30.3476 116.908 30.3762C116.908 30.5193 116.88 30.648 116.823 30.7624C116.17 31.7635 115.843 32.593 115.843 33.2508C115.843 33.3938 115.843 33.5941 115.843 33.8515C115.872 34.0803 115.886 34.2519 115.886 34.3663C115.886 35.6821 115.673 36.9406 115.247 38.1419C115.133 38.3421 115.034 38.6711 114.949 39.1287C114.892 39.615 114.792 39.9582 114.65 40.1584C114.537 40.3014 114.452 40.5875 114.395 41.0165C114.366 41.4455 114.295 41.703 114.182 41.7888C113.926 41.989 113.756 42.3322 113.671 42.8185C113.586 43.3333 113.515 43.6194 113.458 43.6766C113.231 43.791 113.089 43.934 113.032 44.1056C112.975 44.2772 112.932 44.4774 112.904 44.7063C112.904 44.9637 112.876 45.1639 112.819 45.3069C112.847 45.2783 112.876 45.264 112.904 45.264L111.711 47.066C111.711 47.5809 111.654 47.9098 111.541 48.0528C111.456 48.1958 111.2 48.3388 110.774 48.4818C110.774 49.1969 110.575 49.7976 110.178 50.2838C109.809 50.7987 109.34 51.1705 108.772 51.3993C108.204 51.6282 107.693 51.7855 107.239 51.8713C106.813 51.9571 106.458 52 106.174 52C105.577 52 104.825 51.6711 103.916 51.0132C103.036 50.3839 102.596 49.626 102.596 48.7393C102.596 48.253 102.638 47.5523 102.723 46.637C102.837 45.7217 102.894 45.0638 102.894 44.6634C102.894 44.2343 103.107 43.462 103.533 42.3465C103.987 41.231 104.243 40.3729 104.299 39.7723C104.328 39.3718 104.555 38.8427 104.981 38.1848C105.407 37.5269 105.62 37.1694 105.62 37.1122C105.705 36.5402 106.188 35.725 107.068 34.6667C108.289 33.0649 109.354 31.7492 110.263 30.7195C110.377 30.6051 110.604 30.462 110.944 30.2904C111.285 30.0902 111.512 29.8757 111.626 29.6469C111.768 29.3036 112.038 28.9604 112.435 28.6172C112.833 28.2453 113.202 27.945 113.543 27.7162C113.912 27.4587 114.239 27.1441 114.523 26.7723C114.807 26.3718 114.949 25.9571 114.949 25.5281C114.949 25.3278 115.048 24.813 115.247 23.9835C115.446 23.154 115.545 22.6249 115.545 22.396C115.545 22.3102 115.531 22.1815 115.502 22.0099C115.474 21.8097 115.46 21.6524 115.46 21.538C115.46 21.3091 115.502 20.923 115.588 20.3795C115.673 19.8361 115.715 19.4499 115.715 19.2211C115.715 19.1353 115.63 19.0924 115.46 19.0924C115.233 19.121 114.92 19.3212 114.523 19.6931C114.153 20.0649 113.827 20.2937 113.543 20.3795C113.401 20.4367 113.16 20.6227 112.819 20.9373C112.478 21.2519 112.308 21.5237 112.308 21.7525C112.308 22.3245 111.91 22.6249 111.115 22.6535C111.086 22.7965 111.016 23.011 110.902 23.297C110.788 23.5831 110.604 23.912 110.348 24.2838C110.093 24.6271 109.851 24.7987 109.624 24.7987C109.454 24.7987 109.198 25.099 108.857 25.6997C108.516 26.3003 108.318 26.7866 108.261 27.1584C108.176 27.7019 107.878 28.1309 107.366 28.4455C106.855 28.7316 106.316 28.8746 105.748 28.8746C105.237 28.8746 104.839 28.846 104.555 28.7888C104.271 28.7316 103.902 28.5743 103.447 28.3168C102.993 28.0594 102.652 27.5732 102.425 26.8581C102.198 26.143 102.084 25.2134 102.084 24.0693C102.084 23.5831 102.184 22.9538 102.383 22.1815C102.61 21.4092 102.723 20.8515 102.723 20.5083C102.894 20.1936 103.107 19.736 103.362 19.1353C103.646 18.5347 103.873 18.0913 104.044 17.8053C104.214 17.4906 104.527 17.0902 104.981 16.604C105.464 16.0891 106.06 15.5886 106.77 15.1023C108.36 13.9582 109.681 13.3861 110.732 13.3861C111.754 13.3861 112.663 13.5721 113.458 13.9439C114.281 14.3157 114.693 14.8306 114.693 15.4884C114.693 16.0605 114.466 16.3465 114.011 16.3465C113.784 16.3465 113.401 16.2035 112.861 15.9175C112.35 15.6029 111.981 15.4455 111.754 15.4455C111.527 15.4455 111.285 15.4884 111.03 15.5743C110.746 15.7173 110.32 15.9747 109.752 16.3465C109.212 16.7184 108.559 17.2332 107.792 17.8911C107.026 18.549 106.358 19.3498 105.79 20.2937C105.251 21.209 104.981 22.1243 104.981 23.0396C104.981 23.0682 104.981 23.1397 104.981 23.2541C105.009 23.3685 105.024 23.4543 105.024 23.5115C105.024 23.6832 104.981 23.9549 104.896 24.3267C104.811 24.6986 104.768 24.9989 104.768 25.2277C104.768 25.9428 104.924 26.3003 105.237 26.3003C105.407 26.3003 105.691 26.1001 106.088 25.6997C106.514 25.2706 106.997 24.7701 107.537 24.198C108.105 23.626 108.545 23.2112 108.857 22.9538C109.851 22.6678 110.533 22.0385 110.902 21.066C111.016 20.8372 111.157 20.6799 111.328 20.5941C111.896 20.3366 112.35 19.8361 112.691 19.0924C112.776 18.9208 113.003 18.7349 113.373 18.5347C113.742 18.3344 113.969 18.0913 114.054 17.8053C114.054 17.6623 114.224 17.4906 114.565 17.2904C114.934 17.0902 115.147 16.9186 115.204 16.7756C115.318 16.4323 115.588 16.1177 116.014 15.8317C116.44 15.5457 116.837 15.4026 117.206 15.4026C118.058 15.4026 118.64 15.5457 118.953 15.8317C119.265 16.0891 119.421 16.5754 119.421 17.2904C119.421 17.9197 119.293 18.7921 119.038 19.9076C118.782 20.9945 118.626 21.7668 118.569 22.2244C118.541 22.4246 118.442 22.7107 118.271 23.0825C118.101 23.4543 118.016 23.6689 118.016 23.7261C118.016 24.0121 118.3 24.1551 118.868 24.1551C119.01 24.1551 119.308 24.0693 119.762 23.8977C120.216 23.7261 120.543 23.6403 120.742 23.6403C121.111 23.6403 121.423 23.8119 121.679 24.1551ZM114.054 36.1254C114.111 36.011 114.139 35.9252 114.139 35.868C114.139 35.6678 114.011 35.4675 113.756 35.2673C113.529 35.0671 113.415 34.9098 113.415 34.7954L113.884 33.2079C113.855 33.1507 113.841 33.0506 113.841 32.9076C113.841 32.7646 113.94 32.3927 114.139 31.7921C114.139 31.5919 114.04 31.4917 113.841 31.4917C113.784 31.4917 113.742 31.506 113.713 31.5347C113.117 32.0209 112.421 32.8218 111.626 33.9373C110.859 35.0242 110.22 35.7822 109.709 36.2112C109.454 36.44 109.198 36.8262 108.942 37.3696C108.715 37.9417 108.516 38.3278 108.346 38.5281C107.863 39.1573 107.324 40.2728 106.727 41.8746C106.131 43.4763 105.833 44.7492 105.833 45.6931C105.804 45.8361 105.719 46.0792 105.577 46.4224C105.464 46.7657 105.407 47.0374 105.407 47.2376C105.407 48.6964 105.677 49.4257 106.216 49.4257C106.727 49.4257 107.139 49.2827 107.452 48.9967C107.565 48.8251 107.878 48.5104 108.389 48.0528C108.9 47.5952 109.326 47.1375 109.667 46.6799C110.036 46.2508 110.22 45.8647 110.22 45.5215C110.22 45.3784 110.405 44.978 110.774 44.3201C111.143 43.6623 111.356 43.1617 111.413 42.8185C111.413 42.7899 111.598 42.5611 111.967 42.132C112.364 41.703 112.563 41.4169 112.563 41.2739C112.563 41.2167 112.521 41.1452 112.435 41.0594C112.379 41.0022 112.279 40.9307 112.137 40.8449C112.024 40.7877 111.938 40.7448 111.882 40.7162C111.91 40.6876 112.038 40.4015 112.265 39.8581C112.492 39.3146 112.719 38.714 112.947 38.0561C113.202 37.4268 113.33 37.0264 113.33 36.8548C113.33 36.769 113.316 36.6689 113.287 36.5545C113.287 36.4686 113.287 36.4114 113.287 36.3828C113.287 36.297 113.344 36.1683 113.458 35.9967C113.515 35.9967 113.586 36.0396 113.671 36.1254C113.784 36.2112 113.855 36.2541 113.884 36.2541C113.912 36.2541 113.969 36.2112 114.054 36.1254Z" fill="#78A8EF"/>
    <path d="M148.057 25.0132C147.887 25.5853 147.603 26.3861 147.205 27.4158C146.808 28.4169 146.538 29.1034 146.396 29.4752C146.226 29.9043 145.998 30.7481 145.715 32.0066C145.459 33.2651 145.218 34.066 144.99 34.4092L144.905 34.6238C144.848 34.7954 144.777 35.0099 144.692 35.2673C144.607 35.5534 144.522 35.868 144.437 36.2112C144.351 36.5545 144.28 36.9549 144.224 37.4125C144.167 37.8702 144.138 38.3421 144.138 38.8284C144.138 39.0858 144.096 39.3146 144.011 39.5149C143.954 39.7437 143.897 39.9153 143.84 40.0297C143.783 40.1727 143.67 40.3729 143.499 40.6304C143.329 40.9164 143.215 41.1166 143.159 41.231C142.903 41.6887 142.236 41.9175 141.157 41.9175C140.731 41.9175 140.418 41.8603 140.22 41.7459C140.021 41.6315 139.822 41.4598 139.623 41.231C139.424 41.0022 139.226 40.8306 139.027 40.7162C138.828 40.6018 138.686 40.3872 138.601 40.0726C138.516 39.758 138.43 39.5721 138.345 39.5149C138.033 39.2002 137.848 38.4851 137.792 37.3696C137.792 37.198 137.806 36.9692 137.834 36.6832C137.862 36.3971 137.877 36.1826 137.877 36.0396C137.877 35.868 137.763 35.6392 137.536 35.3531C137.309 35.0671 137.195 34.824 137.195 34.6238C137.195 32.4213 137.28 30.2475 137.451 28.1023C137.479 27.7591 137.508 27.2013 137.536 26.429C137.564 25.6568 137.593 25.0275 137.621 24.5413C137.678 24.055 137.763 23.5402 137.877 22.9967C137.99 22.4532 138.146 22.0528 138.345 21.7954C138.459 21.681 138.516 21.5237 138.516 21.3234C138.516 21.2376 138.501 21.0946 138.473 20.8944C138.445 20.6656 138.43 20.4939 138.43 20.3795C138.43 20.2365 138.445 20.022 138.473 19.736C138.53 19.4213 138.558 19.1782 138.558 19.0066C138.558 18.9494 138.544 18.8493 138.516 18.7063C138.487 18.5633 138.473 18.4488 138.473 18.363C138.473 18.1628 138.587 17.9626 138.814 17.7624C139.041 17.5622 139.155 17.4191 139.155 17.3333C139.126 17.1045 139.013 16.6469 138.814 15.9604C138.132 16.0462 137.692 16.3036 137.493 16.7327C137.295 17.1331 137.053 17.3476 136.769 17.3762C136.656 17.4048 136.514 17.5908 136.343 17.934C136.173 18.2772 136.002 18.4917 135.832 18.5776C135.605 18.692 135.363 18.9208 135.108 19.264C134.852 19.5787 134.483 19.879 134 20.165C133.915 20.308 133.816 20.7085 133.702 21.3663C133.617 22.0242 133.347 22.396 132.893 22.4818C132.722 22.5963 132.595 22.7107 132.509 22.8251C132.453 22.9109 132.41 22.9824 132.382 23.0396C132.353 23.0968 132.325 23.1969 132.297 23.3399C132.268 23.4543 132.24 23.5545 132.211 23.6403C132.155 23.7833 131.942 24.1265 131.572 24.67C131.203 25.2134 130.99 25.6568 130.933 26C130.905 26.1144 130.791 26.3432 130.593 26.6865C130.451 26.9725 130.238 27.4444 129.954 28.1023C129.67 28.7602 129.443 29.2464 129.272 29.5611C129.102 29.8471 128.846 30.2046 128.505 30.6337C128.193 31.0341 127.81 31.3201 127.355 31.4917C126.929 31.6634 126.418 31.7492 125.822 31.7492C124.998 31.7492 124.302 31.3916 123.735 30.6766C123.195 29.9329 122.925 28.8746 122.925 27.5016C122.925 27.0726 122.968 26.6293 123.053 26.1716C123.138 25.6854 123.238 25.1705 123.351 24.6271C123.465 24.055 123.55 23.6117 123.607 23.297C123.635 23.0682 123.749 22.7536 123.948 22.3531C124.146 21.9527 124.274 21.6238 124.331 21.3663C124.388 20.9945 124.487 20.6513 124.629 20.3366C124.799 19.9934 125.041 19.5644 125.353 19.0495C125.694 18.5061 125.978 17.9912 126.205 17.5049C127.085 16.3036 127.611 15.4455 127.781 14.9307C127.952 14.4444 128.392 14.0583 129.102 13.7723C129.812 13.4576 130.465 13.3003 131.061 13.3003C131.913 13.3003 132.779 13.5435 133.66 14.0297C133.858 14.1441 134.114 14.4158 134.426 14.8449C134.739 15.2453 134.966 15.4455 135.108 15.4455C135.278 15.4169 135.704 15.0594 136.386 14.3729C137.067 13.6579 137.635 13.2288 138.09 13.0858C138.232 13.0572 138.53 12.8713 138.984 12.5281C139.467 12.1848 139.836 12.0132 140.092 12.0132C140.745 12.0132 141.327 12.1991 141.838 12.571C142.378 12.9428 142.648 13.429 142.648 14.0297C142.648 14.1441 142.633 14.5303 142.605 15.1881C142.577 15.8174 142.548 16.2607 142.52 16.5182C142.491 16.747 142.435 17.0902 142.349 17.5479C142.264 18.0055 142.136 18.4202 141.966 18.7921C141.796 19.2783 141.682 20.2794 141.625 21.7954C141.568 23.2827 141.412 24.1694 141.157 24.4554C140.674 25.2277 140.433 27.1727 140.433 30.2904C140.433 30.319 140.433 30.3905 140.433 30.5049C140.461 30.5908 140.475 30.6623 140.475 30.7195C140.475 30.9197 140.432 31.22 140.347 31.6205C140.291 32.0209 140.262 32.3212 140.262 32.5215C140.262 33.0363 140.319 33.7228 140.433 34.5809C140.546 35.4675 140.603 36.0253 140.603 36.2541C140.603 36.3113 140.589 36.3828 140.56 36.4686C140.56 36.5545 140.56 36.6117 140.56 36.6403C140.56 36.7261 140.631 37.0121 140.773 37.4983C140.915 38.0132 141.043 38.2706 141.157 38.2706C141.242 38.2706 141.341 38.1705 141.455 37.9703C141.568 37.7701 141.696 37.5127 141.838 37.198C141.98 36.8834 142.094 36.6689 142.179 36.5545C142.378 36.2112 142.577 35.5391 142.775 34.538C142.974 33.5655 143.13 32.8933 143.244 32.5215C143.329 32.2926 143.443 31.8779 143.585 31.2772C143.755 30.648 143.911 30.1188 144.053 29.6898C144.224 29.2607 144.394 28.9604 144.564 28.7888C144.678 28.703 144.82 28.1738 144.99 27.2013C145.189 26.2002 145.431 25.5138 145.715 25.1419C145.885 24.9417 146.197 24.4411 146.652 23.6403C147.106 22.8394 147.532 22.253 147.93 21.8812C148.27 21.8812 148.441 22.2244 148.441 22.9109C148.441 23.5116 148.313 24.2123 148.057 25.0132ZM134.043 16.4752C133.759 16.2178 133.404 16.0891 132.978 16.0891C132.637 16.0891 132.311 16.1892 131.998 16.3894C129.641 18.077 127.909 21.066 126.802 25.3564C126.773 25.385 126.759 25.4422 126.759 25.5281C126.759 25.7283 126.816 25.8284 126.929 25.8284C127.1 25.8284 127.483 25.4422 128.079 24.67C128.676 23.8691 129.173 23.154 129.57 22.5248C130.252 21.4378 130.948 20.5798 131.658 19.9505C131.828 19.7789 132.084 19.4499 132.424 18.9637C132.793 18.4488 133.134 18.1056 133.447 17.934L134.086 16.6469V16.604C134.057 16.5468 134.043 16.5038 134.043 16.4752Z" fill="#78A8EF"/>
    <path d="M174.268 30.8911C174.268 30.9197 174.282 31.0341 174.311 31.2343C174.339 31.4059 174.353 31.5347 174.353 31.6205C174.382 31.7063 174.41 31.8493 174.438 32.0495C174.467 32.2497 174.509 32.407 174.566 32.5215C174.623 32.6073 174.68 32.7074 174.737 32.8218C174.822 32.9362 174.907 33.022 174.992 33.0792C175.106 33.1364 175.234 33.165 175.376 33.165C175.574 33.165 175.915 33.0077 176.398 32.6931C176.909 32.3498 177.25 32.1782 177.42 32.1782C177.505 32.1782 177.591 32.2211 177.676 32.3069C177.761 32.3641 177.804 32.4356 177.804 32.5215C177.804 32.8361 177.775 33.1364 177.718 33.4224C177.69 33.6799 177.605 33.9373 177.463 34.1947C177.349 34.4521 177.25 34.6524 177.165 34.7954C177.079 34.9384 176.923 35.1529 176.696 35.4389C176.497 35.7536 176.355 35.9681 176.27 36.0825C176.185 36.1111 176.071 36.1111 175.929 36.0825C175.787 36.0825 175.66 36.0968 175.546 36.1254C175.461 36.154 175.39 36.2255 175.333 36.3399C174.595 36.912 173.814 37.198 172.99 37.198C171.939 37.198 171.371 36.9835 171.286 36.5545C171.258 36.2398 171.016 35.8537 170.562 35.396C170.136 34.9384 169.909 34.5237 169.881 34.1518C169.852 33.923 169.696 33.5941 169.412 33.165C169.156 32.736 169.029 32.407 169.029 32.1782C169.029 32.0352 169.071 31.9065 169.156 31.7921C169.014 31.3344 168.915 30.791 168.858 30.1617C168.83 29.5325 168.801 29.132 168.773 28.9604C168.773 28.8174 168.844 28.6315 168.986 28.4026C169.128 28.1738 169.199 28.0022 169.199 27.8878C169.199 27.802 169.071 27.7162 168.816 27.6304C168.588 27.5446 168.475 27.4444 168.475 27.33C168.475 27.2442 168.489 27.1298 168.517 26.9868C168.574 26.8152 168.603 26.7008 168.603 26.6436C168.603 26.4719 168.546 26.1859 168.432 25.7855C168.319 25.385 168.262 25.0847 168.262 24.8845C168.262 23.8834 167.822 23.3828 166.941 23.3828C166.459 23.3828 165.451 23.4829 163.917 23.6832C161.333 24.1408 160.041 24.527 160.041 24.8416C160.041 24.956 160.041 25.1419 160.041 25.3993C160.069 25.6568 160.083 25.857 160.083 26C160.083 26.1716 160.055 26.4576 159.998 26.8581C159.941 27.2585 159.913 27.5589 159.913 27.7591C159.913 27.8735 159.927 28.0308 159.956 28.231C160.012 28.4312 160.041 28.5886 160.041 28.703C160.041 28.9604 159.814 29.2464 159.359 29.5611C158.933 29.8757 158.564 30.033 158.252 30.033C158.024 30.033 157.811 29.9758 157.613 29.8614C157.442 29.7184 157.3 29.5038 157.187 29.2178C157.073 28.9318 156.974 28.6458 156.889 28.3597C156.803 28.0737 156.732 27.7019 156.676 27.2442C156.647 26.7866 156.619 26.4004 156.59 26.0858C156.59 25.7426 156.576 25.3135 156.548 24.7987C156.548 24.2838 156.534 23.8834 156.505 23.5974C156.505 23.3971 156.534 23.0682 156.59 22.6106C156.676 22.1529 156.718 21.8097 156.718 21.5809C156.718 21.495 156.69 21.352 156.633 21.1518C156.576 20.923 156.548 20.7514 156.548 20.637C156.548 20.4653 156.676 19.2926 156.931 17.1188C157.016 16.604 157.684 16.3465 158.933 16.3465C159.302 16.3465 159.629 16.4609 159.913 16.6898C160.225 16.9186 160.381 17.2189 160.381 17.5908C160.381 18.0484 160.339 18.692 160.254 19.5215C160.197 20.3223 160.169 20.923 160.169 21.3234C160.169 21.5523 160.24 21.7811 160.381 22.0099C160.523 22.2101 160.708 22.3102 160.935 22.3102C161.929 22.3102 163.463 22.1815 165.536 21.9241C167.609 21.6381 168.645 21.3091 168.645 20.9373C168.645 20.8515 168.631 20.7085 168.603 20.5083C168.574 20.308 168.56 20.1507 168.56 20.0363C168.56 19.8647 168.617 19.6359 168.73 19.3498C168.844 19.0352 168.901 18.8064 168.901 18.6634C168.901 18.5776 168.872 18.4631 168.816 18.3201C168.787 18.1485 168.773 18.0198 168.773 17.934C168.773 17.5908 168.858 17.1045 169.029 16.4752C169.227 15.846 169.327 15.374 169.327 15.0594C169.327 14.8592 169.313 14.5589 169.284 14.1584C169.256 13.758 169.242 13.4433 169.242 13.2145C169.242 12.4422 169.568 12.0561 170.221 12.0561C171.584 12.0561 172.479 12.4708 172.905 13.3003C173.359 14.1012 173.587 15.1738 173.587 16.5182C173.587 17.0616 173.615 17.8339 173.672 18.835C173.757 19.8361 173.799 20.5798 173.799 21.066C173.799 21.352 173.728 21.7954 173.587 22.396C173.473 22.9967 173.416 23.44 173.416 23.7261C173.416 23.8691 173.317 24.055 173.118 24.2838C172.919 24.5126 172.82 24.7272 172.82 24.9274C172.82 24.9846 172.933 25.0847 173.161 25.2277C173.416 25.3421 173.544 25.5424 173.544 25.8284C173.544 25.857 173.516 25.9285 173.459 26.0429C173.402 26.1287 173.374 26.2145 173.374 26.3003C173.374 26.901 173.459 27.5589 173.629 28.2739C173.799 28.9604 173.885 29.3751 173.885 29.5182C173.885 29.5754 173.856 29.6898 173.799 29.8614C173.771 30.033 173.757 30.1617 173.757 30.2475C173.757 30.3905 173.927 30.6051 174.268 30.8911ZM172.99 22.0099L173.075 22.0957V22.0099C173.047 22.0099 173.019 22.0242 172.99 22.0528C173.019 22.0814 173.047 22.0957 173.075 22.0957C173.132 22.0957 173.161 22.0528 173.161 21.967C173.132 21.9384 173.104 21.9241 173.075 21.9241L172.99 22.0099Z" fill="#78A8EF"/>
    <path d="M179.029 19.1782C179.625 18.0627 179.994 17.2475 180.136 16.7327C180.25 16.3322 180.52 15.9032 180.946 15.4455C181.4 14.9593 181.826 14.5732 182.224 14.2871C182.621 14.0011 182.82 13.8867 182.82 13.9439C182.962 13.7723 183.118 13.6579 183.289 13.6007C183.487 13.5149 183.729 13.4719 184.013 13.4719C184.297 13.4433 184.496 13.4147 184.609 13.3861C184.921 13.3861 185.404 13.5292 186.057 13.8152C186.739 14.1012 187.264 14.2585 187.633 14.2871C187.69 14.3157 187.818 14.4015 188.017 14.5446C188.244 14.659 188.414 14.7591 188.528 14.8449C188.67 14.9307 188.84 15.0594 189.039 15.231C189.266 15.4026 189.437 15.5743 189.55 15.7459C189.664 15.9175 189.763 16.132 189.849 16.3894C189.962 16.6183 190.019 16.8757 190.019 17.1617C190.019 17.934 189.636 18.835 188.869 19.8647C188.102 20.8658 187.25 21.6953 186.313 22.3531C186.086 22.5247 185.788 22.7965 185.418 23.1683C185.078 23.5116 184.737 23.7976 184.396 24.0264C184.055 24.2552 183.672 24.3982 183.246 24.4554C182.536 24.5413 182.082 24.8416 181.883 25.3564C181.684 25.8427 181.585 26.8295 181.585 28.3168C181.585 30.2332 182.053 31.1914 182.99 31.1914C183.274 31.1914 184.07 30.7624 185.376 29.9043C186.682 29.0176 187.577 28.2739 188.059 27.6733C188.343 27.5589 188.741 27.2585 189.252 26.7723C189.792 26.286 190.232 26.0429 190.573 26.0429C190.771 26.0429 190.942 26.1144 191.084 26.2574C191.254 26.4004 191.339 26.5578 191.339 26.7294C191.339 26.9868 191.027 27.4587 190.402 28.1452C189.806 28.8317 189.337 29.2321 188.997 29.3465C188.798 29.4037 188.571 29.5611 188.315 29.8185C188.088 30.0759 187.889 30.2332 187.719 30.2904C187.69 30.319 187.548 30.5192 187.293 30.8911C187.037 31.2343 186.81 31.4774 186.611 31.6205C186.498 31.7063 186.299 31.9351 186.015 32.3069C185.731 32.6788 185.404 33.0077 185.035 33.2937C184.666 33.5512 184.226 33.6799 183.715 33.6799C183.601 33.6799 183.388 33.6656 183.076 33.637C182.792 33.5798 182.564 33.5512 182.394 33.5512C182.337 33.5512 182.252 33.5655 182.138 33.5941C182.025 33.5941 181.94 33.5941 181.883 33.5941C181.372 33.5941 180.818 33.3938 180.222 32.9934C179.654 32.5644 179.37 32.1496 179.37 31.7492C179.37 31.5776 179.256 31.4488 179.029 31.363C178.83 31.2486 178.731 31.077 178.731 30.8482C178.731 30.6766 178.603 30.3762 178.347 29.9472C178.092 29.4895 177.964 29.132 177.964 28.8746L178.22 28.0165C178.362 27.4444 178.433 27.0011 178.433 26.6865C178.433 26.5435 178.319 26.2574 178.092 25.8284C177.893 25.3993 177.794 25.1276 177.794 25.0132C177.794 24.7844 177.808 24.4697 177.836 24.0693C177.893 23.6689 177.921 23.3542 177.921 23.1254C177.921 23.0682 177.907 22.9824 177.879 22.868C177.879 22.7536 177.879 22.6678 177.879 22.6106C177.936 22.4961 178.021 22.3102 178.134 22.0528C178.276 21.7668 178.39 21.538 178.475 21.3663C178.56 21.1947 178.631 20.9945 178.688 20.7657C178.773 20.5083 178.816 20.2937 178.816 20.1221C178.816 20.0935 178.802 20.0506 178.773 19.9934C178.773 19.9362 178.773 19.8933 178.773 19.8647C178.773 19.7789 178.816 19.6645 178.901 19.5215C179.015 19.3784 179.072 19.2783 179.072 19.2211L179.029 19.1782ZM182.138 22.0957L182.479 21.9241C182.706 21.7811 182.976 21.6095 183.289 21.4092C183.601 21.209 183.942 20.9802 184.311 20.7228C184.68 20.4367 185.021 20.165 185.333 19.9076C185.646 19.6502 185.901 19.3784 186.1 19.0924C186.327 18.8064 186.441 18.5633 186.441 18.363C186.441 18.1342 186.384 17.791 186.27 17.3333C186.157 16.8757 186.001 16.6469 185.802 16.6469C185.575 16.6469 185.291 16.8185 184.95 17.1617C184.609 17.5049 184.254 17.9197 183.885 18.4059C183.516 18.8636 183.26 19.1496 183.118 19.264L182.82 19.736C182.65 20.0506 182.465 20.4224 182.266 20.8515C182.067 21.2519 181.968 21.538 181.968 21.7096C181.968 21.7954 182.025 21.9241 182.138 22.0957ZM179.029 19.1782L179.114 19.2211C179.057 19.2211 179.029 19.2068 179.029 19.1782Z" fill="#78A8EF"/>
    <path d="M204.966 19.3927C204.966 19.1925 204.994 18.9065 205.051 18.5347C205.136 18.1628 205.179 17.8911 205.179 17.7195C205.179 17.6337 205.15 17.5049 205.094 17.3333C205.065 17.1617 205.051 17.033 205.051 16.9472C205.051 16.8042 205.079 16.6183 205.136 16.3894C205.136 16.3608 205.15 16.2321 205.179 16.0033C205.207 15.7459 205.221 15.5457 205.221 15.4026C205.25 15.2596 205.292 15.0737 205.349 14.8449C205.434 14.5875 205.52 14.3872 205.605 14.2442C205.69 14.1012 205.803 13.9725 205.945 13.8581C206.087 13.7437 206.244 13.6865 206.414 13.6865C207.209 13.6865 207.806 13.8867 208.203 14.2871C208.601 14.6876 208.799 15.2024 208.799 15.8317C208.799 15.9747 208.757 16.2178 208.672 16.5611C208.615 16.8757 208.586 17.1188 208.586 17.2904C208.586 18.0055 208.544 19.0495 208.459 20.4224C208.402 21.7668 208.373 22.7679 208.373 23.4257C208.373 23.5116 208.373 23.6117 208.373 23.7261C208.402 23.8405 208.416 23.9406 208.416 24.0264C208.416 24.2266 208.373 24.5556 208.288 25.0132C208.231 25.4422 208.203 25.7426 208.203 25.9142C208.203 26.0286 208.246 26.2002 208.331 26.429C208.416 26.6579 208.487 26.7723 208.544 26.7723C208.771 26.7723 209.027 26.5578 209.311 26.1287C209.623 25.6711 209.822 25.3993 209.907 25.3135C210.077 25.1419 210.361 24.6128 210.759 23.7261C211.185 22.8394 211.398 22.2959 211.398 22.0957C211.398 21.8669 211.582 21.5809 211.952 21.2376C212.349 20.8944 212.548 20.4653 212.548 19.9505C212.548 19.9219 212.534 19.8647 212.505 19.7789C212.505 19.6931 212.505 19.6216 212.505 19.5644C212.875 18.3916 213.783 16.9472 215.232 15.231C215.629 14.7734 216.254 14.2156 217.106 13.5578C217.958 12.8999 218.639 12.571 219.15 12.571C219.264 12.571 219.406 12.6139 219.576 12.6997C219.775 12.7569 219.931 12.8284 220.045 12.9142L220.258 13C221.025 13 221.692 13.5149 222.26 14.5446C222.828 15.5457 223.112 16.6898 223.112 17.9769C223.112 18.0913 223.084 18.2772 223.027 18.5347C222.97 18.7921 222.942 18.9923 222.942 19.1353C222.942 19.3927 222.942 19.7646 222.942 20.2508C222.97 20.7371 222.984 21.0946 222.984 21.3234C222.984 21.4378 222.942 21.6095 222.856 21.8383C222.771 22.0385 222.729 22.2101 222.729 22.3531C222.729 22.4675 222.743 22.6678 222.771 22.9538C222.8 23.2112 222.814 23.3971 222.814 23.5115C222.814 23.7976 222.729 24.2838 222.558 24.9703C222.416 25.6568 222.345 26.1716 222.345 26.5149C222.345 26.6579 222.388 26.8581 222.473 27.1155C222.558 27.3729 222.601 27.5732 222.601 27.7162C222.601 27.802 222.587 27.9021 222.558 28.0165C222.558 28.1309 222.558 28.2167 222.558 28.2739V28.231L222.814 29.1749C222.984 29.8042 223.098 30.1188 223.155 30.1188C223.325 30.1188 223.538 29.8328 223.794 29.2607C224.049 28.6887 224.305 28.0737 224.56 27.4158C224.816 26.7294 224.986 26.3146 225.071 26.1716C225.242 25.9428 225.483 25.4708 225.796 24.7558C226.108 24.0121 226.435 23.4686 226.775 23.1254C227.116 22.7822 227.599 22.6106 228.224 22.6106C228.621 22.6106 228.82 22.7965 228.82 23.1683C228.763 23.3113 228.422 23.8977 227.798 24.9274C227.201 25.9571 226.903 26.8152 226.903 27.5016L226.775 28.7888C226.775 28.989 226.69 29.275 226.52 29.6469C226.349 29.9901 226.264 30.2761 226.264 30.5049C226.264 30.7624 226.122 31.1628 225.838 31.7063C225.554 32.2497 225.412 32.7217 225.412 33.1221C225.412 33.4939 225.128 33.8229 224.56 34.1089C224.021 34.3663 223.481 34.495 222.942 34.495C221.891 34.495 220.982 33.9516 220.215 32.8647C219.477 31.7492 218.938 30.462 218.597 29.0033C218.284 27.5446 218.128 26.0715 218.128 24.5842C218.128 23.6403 218.228 22.1958 218.426 20.2508C218.625 18.2772 218.725 16.7899 218.725 15.7888C218.725 15.4169 218.597 15.231 218.341 15.231C218.284 15.231 218.043 15.4169 217.617 15.7888C217.219 16.132 216.935 16.3322 216.765 16.3894C216.396 16.4466 215.998 17.033 215.572 18.1485C215.146 19.2354 214.706 19.8075 214.252 19.8647C214.195 19.8647 214.053 20.2079 213.826 20.8944C213.599 21.5523 213.372 22.253 213.144 22.9967C212.917 23.7118 212.747 24.1265 212.633 24.2409V24.1551C212.662 24.1265 212.676 24.0979 212.676 24.0693C212.676 24.0407 212.605 24.0264 212.463 24.0264L212.676 24.2409C212.477 24.3553 212.292 24.4697 212.122 24.5842C212.008 24.6986 211.81 24.9989 211.526 25.4851C211.242 25.9714 211.085 26.3575 211.057 26.6436C210.035 28.0737 209.396 29.6183 209.14 31.2772C208.941 31.506 208.728 31.9065 208.501 32.4785C208.302 33.022 208.075 33.4367 207.82 33.7228C207.564 34.0088 207.195 34.1518 206.712 34.1518H206.627C206.57 34.1518 206.457 34.1375 206.286 34.1089C206.144 34.0517 206.002 33.9945 205.86 33.9373C205.718 33.8515 205.548 33.7514 205.349 33.637C205.179 33.4939 205.023 33.3366 204.881 33.165C204.767 32.9648 204.653 32.7217 204.54 32.4356C204.455 32.121 204.398 31.7778 204.369 31.4059C204.369 30.9769 204.327 30.319 204.242 29.4323C204.156 28.5457 204.114 27.8735 204.114 27.4158C204.114 26.9868 204.256 26.5864 204.54 26.2145C204.483 26.3861 204.455 26.5149 204.455 26.6007C204.455 26.5721 204.469 26.5149 204.497 26.429C204.526 26.3432 204.54 26.2717 204.54 26.2145C204.369 26.1287 204.284 25.9857 204.284 25.7855C204.284 25.6711 204.284 25.571 204.284 25.4851C204.313 25.3993 204.327 25.3421 204.327 25.3135L204.114 25.6568L204.156 25.6997C204.242 25.6997 204.284 25.4136 204.284 24.8416C204.284 24.67 204.27 24.3267 204.242 23.8119C204.242 23.2684 204.242 22.8394 204.242 22.5248C204.242 20.5798 204.483 19.5358 204.966 19.3927ZM208.288 23.4686L208.118 22.7822C208.004 22.9538 207.948 23.2112 207.948 23.5545C207.948 23.8691 208.004 24.0693 208.118 24.1551C208.231 24.0979 208.288 23.8691 208.288 23.4686Z" fill="#78A8EF"/>
    <path d="M248.033 17.2475C248.317 17.4763 248.459 17.7338 248.459 18.0198C248.459 18.3058 248.303 18.5633 247.99 18.7921C247.678 19.0209 247.266 19.1353 246.755 19.1353C246.585 19.1353 246.329 19.1067 245.988 19.0495C244.398 19.5358 242.935 20.1793 241.601 20.9802C241.402 21.1232 241.232 21.2948 241.09 21.495C240.976 21.6953 240.905 21.8812 240.877 22.0528C240.848 22.1958 240.82 22.4103 240.791 22.6964C240.791 22.9824 240.791 23.1683 240.791 23.2541C240.763 23.5402 240.649 23.9406 240.451 24.4554C240.28 24.9703 240.195 25.3993 240.195 25.7426C240.195 25.9714 240.067 26.2431 239.812 26.5578C239.584 26.8724 239.471 27.1584 239.471 27.4158C239.471 27.473 239.471 27.5446 239.471 27.6304C239.499 27.7162 239.513 27.7734 239.513 27.802C239.513 28.3168 239.229 28.9747 238.661 29.7756C238.491 30.3476 237.923 31.2057 236.958 32.3498C236.02 33.4939 235.254 34.066 234.657 34.066C234.572 34.066 234.43 34.1232 234.231 34.2376C234.033 34.352 233.805 34.495 233.55 34.6667C233.294 34.8669 233.081 35.0099 232.911 35.0957C231.321 34.7239 230.213 34.2376 229.588 33.637C228.907 32.8647 228.325 31.8779 227.842 30.6766C227.359 29.4466 227.118 28.374 227.118 27.4587C227.118 27.1155 227.175 26.6293 227.288 26C227.402 25.3421 227.459 24.8702 227.459 24.5842C227.459 24.3553 227.615 23.8405 227.927 23.0396C228.24 22.2101 228.396 21.6238 228.396 21.2805C228.396 21.0517 228.183 20.451 227.757 19.4785C227.359 18.5061 227.16 17.7767 227.16 17.2904C227.16 15.2596 227.515 13.9582 228.225 13.3861C228.964 12.7855 230.128 12.4851 231.718 12.4851H233.678C234.501 12.4851 235.694 12.9857 237.256 13.9868C238.846 14.9593 239.812 16.2035 240.152 17.7195C240.351 18.6348 240.692 19.0924 241.175 19.0924C241.288 19.0924 241.374 19.0781 241.43 19.0495C241.686 18.9637 242.098 18.8207 242.666 18.6205C243.262 18.3916 243.716 18.22 244.029 18.1056C244.369 17.9912 244.781 17.8625 245.264 17.7195C245.747 17.5765 246.215 17.4763 246.67 17.4191C247.124 17.3333 247.578 17.2761 248.033 17.2475ZM238.576 23.5545C238.576 23.4972 238.562 23.4114 238.534 23.297C238.534 23.154 238.52 23.0539 238.491 22.9967C238.491 22.9109 238.477 22.8251 238.449 22.7393C238.42 22.6535 238.378 22.5963 238.321 22.5677C238.264 22.5105 238.193 22.4818 238.108 22.4818C237.994 22.4818 237.824 22.5105 237.597 22.5677C235.495 23.3399 234.033 23.7261 233.209 23.7261C232.329 23.7261 231.889 25.4851 231.889 29.0033C231.889 29.604 232.031 30.176 232.315 30.7195C232.627 31.2629 233.01 31.5347 233.465 31.5347C234.118 31.5347 234.771 31.1056 235.424 30.2475C236.106 29.3608 236.702 28.4312 237.213 27.4587C237.724 26.4576 238.023 25.9142 238.108 25.8284C238.25 25.5996 238.406 24.8416 238.576 23.5545ZM229.588 17.1617C229.702 18.077 229.872 18.5347 230.1 18.5347C230.27 18.5347 230.455 18.3916 230.653 18.1056C230.88 17.791 231.093 17.6337 231.292 17.6337L231.633 17.7195C231.86 17.7767 232.144 17.8625 232.485 17.9769C232.826 18.0913 233.167 18.22 233.507 18.363C233.848 18.5061 234.132 18.692 234.359 18.9208C234.615 19.121 234.743 19.3355 234.743 19.5644C234.743 19.6788 234.7 19.8218 234.615 19.9934C234.558 20.165 234.459 20.3652 234.317 20.5941C234.203 20.7943 234.132 20.9373 234.104 21.0231C234.104 21.1947 234.16 21.3234 234.274 21.4092C234.388 21.4664 234.487 21.495 234.572 21.495C235.282 21.495 236.063 21.3377 236.915 21.0231C237.795 20.6799 238.236 20.2651 238.236 19.7789C238.236 18.5776 237.582 17.3047 236.276 15.9604C234.998 14.6161 233.734 13.9439 232.485 13.9439C231.605 13.9439 230.895 14.2728 230.355 14.9307C229.844 15.5886 229.588 16.3322 229.588 17.1617Z" fill="#78A8EF"/>
    <path d="M242.981 49.297C242.697 48.6964 242.555 47.824 242.555 46.6799C242.555 44.5061 242.683 43.2475 242.939 42.9043C243.137 42.6183 243.293 42.1034 243.407 41.3597C243.521 40.6161 243.719 40.1441 244.003 39.9439C244.117 39.8581 244.33 39.1573 244.642 37.8416C244.955 36.5545 245.324 35.8537 245.75 35.7393C246.119 35.5963 246.375 35.2816 246.517 34.7954C246.602 34.4235 246.957 33.9802 247.582 33.4653C248.206 32.9505 248.575 32.5644 248.689 32.3069C248.774 32.1067 249.03 31.8207 249.456 31.4488C249.91 31.0484 250.194 30.6909 250.308 30.3762C250.393 30.2904 250.734 30.033 251.33 29.604C251.955 29.1749 252.509 28.7602 252.991 28.3597C253.474 27.9593 253.715 27.6733 253.715 27.5016C253.63 26.3003 253.417 25.6997 253.077 25.6997C252.707 25.9571 252.338 26.4576 251.969 27.2013C251.6 27.9164 251.231 28.374 250.862 28.5743C250.72 28.6315 250.563 28.8317 250.393 29.1749C250.223 29.5182 249.995 29.6898 249.711 29.6898C248.859 29.6898 248.178 29.4466 247.667 28.9604C247.184 28.4741 246.943 28.0451 246.943 27.6733C246.943 27.2156 247.184 26.3861 247.667 25.1848C247.894 24.6414 248.277 24.1694 248.817 23.769C249.385 23.3685 249.924 22.9824 250.436 22.6106C250.947 22.2387 251.287 21.7811 251.458 21.2376L251.713 20.8515C251.884 20.5941 252.04 20.2794 252.182 19.9076C252.352 19.5358 252.438 19.1639 252.438 18.7921C252.409 18.6777 252.395 18.4774 252.395 18.1914C252.395 17.9912 252.409 17.6623 252.438 17.2046C252.494 16.747 252.523 16.4037 252.523 16.1749C252.523 15.2882 252.267 14.8449 251.756 14.8449C251.16 14.9307 250.847 14.9736 250.819 14.9736C250.279 14.9736 249.825 15.2882 249.456 15.9175C249.087 16.5182 248.803 17.1903 248.604 17.934C248.433 18.6777 248.164 19.3641 247.795 19.9934C247.454 20.5941 247.042 20.8944 246.559 20.8944C246.02 20.8944 245.466 20.7514 244.898 20.4653C244.33 20.1507 244.046 19.7646 244.046 19.3069C244.046 18.3344 244.387 17.2904 245.068 16.1749C245.778 15.0594 246.602 14.0726 247.539 13.2145C247.851 13.1573 248.292 13.0572 248.859 12.9142C249.456 12.7712 249.953 12.6711 250.35 12.6139C250.748 12.5567 251.174 12.5281 251.628 12.5281C252.878 12.5281 253.943 12.9285 254.823 13.7294C254.965 13.8438 255.079 14.0011 255.164 14.2013C255.249 14.4015 255.306 14.5732 255.334 14.7162C255.363 14.8592 255.391 14.945 255.419 14.9736C255.817 15.4026 256.016 15.9461 256.016 16.604C256.016 16.9472 255.987 17.319 255.931 17.7195C255.874 18.0913 255.803 18.4059 255.718 18.6634C255.661 18.9208 255.561 19.2926 255.419 19.7789C255.306 20.2365 255.221 20.5798 255.164 20.8086C255.135 20.8944 255.036 21.0517 254.866 21.2805C254.724 21.4807 254.653 21.6953 254.653 21.9241C254.653 22.1243 254.78 22.3531 255.036 22.6106C255.377 22.7822 255.718 23.0968 256.058 23.5545C256.399 24.0121 256.683 24.4268 256.91 24.7987C257.166 25.1705 257.35 25.3564 257.464 25.3564C257.691 25.3564 258.117 25.242 258.742 25.0132C259.395 24.7844 259.849 24.67 260.105 24.67C260.19 24.67 260.318 24.6843 260.488 24.7129C260.659 24.7415 260.772 24.7558 260.829 24.7558C260.943 24.7558 261.085 24.7415 261.255 24.7129C261.426 24.6843 261.568 24.67 261.681 24.67C262.135 24.67 262.363 24.9131 262.363 25.3993C262.221 25.8284 261.88 26.2145 261.34 26.5578C260.801 26.8724 260.247 27.1298 259.679 27.33C259.111 27.5303 258.6 27.8449 258.146 28.2739C257.691 28.703 257.464 29.2321 257.464 29.8614C257.464 29.9186 257.464 30.0044 257.464 30.1188C257.492 30.2046 257.507 30.2761 257.507 30.3333C257.507 31.1056 257.35 32.3212 257.038 33.9802C256.754 35.6392 256.598 36.5402 256.569 36.6832C256.541 36.8262 256.456 37.0407 256.314 37.3267C256.2 37.6128 256.144 37.813 256.144 37.9274C256.144 37.9846 256.144 38.0561 256.144 38.1419C256.172 38.2563 256.186 38.3278 256.186 38.3564C256.186 38.8427 255.945 39.5578 255.462 40.5016C255.008 41.4455 254.78 42.0033 254.78 42.1749C254.78 42.5468 254.397 43.3619 253.63 44.6205C252.864 45.9076 252.381 46.8372 252.182 47.4092C252.097 47.5523 251.884 47.824 251.543 48.2244C251.202 48.6249 250.989 48.9538 250.904 49.2112C250.876 49.297 250.705 49.4257 250.393 49.5974C250.109 49.769 249.924 49.9549 249.839 50.1551C249.64 50.5556 249.257 50.8702 248.689 51.099C248.121 51.3278 247.653 51.4422 247.283 51.4422C246.914 51.4422 246.588 51.4136 246.304 51.3564C246.02 51.2992 245.721 51.1848 245.409 51.0132C245.097 50.8416 244.855 50.6986 244.685 50.5842C244.515 50.4697 244.231 50.2552 243.833 49.9406C243.435 49.6546 243.151 49.44 242.981 49.297ZM245.665 46.2937V46.7657C245.665 47.824 245.977 48.3531 246.602 48.3531C246.715 48.3531 247.085 48.1815 247.709 47.8383C248.334 47.495 249.044 46.9373 249.839 46.165C250.634 45.4213 251.16 44.6205 251.415 43.7624C251.472 43.6194 251.586 43.4191 251.756 43.1617C251.955 42.9043 252.054 42.6612 252.054 42.4323C252.054 42.3751 252.04 42.3036 252.012 42.2178C252.012 42.132 252.012 42.0748 252.012 42.0462C252.012 41.9318 252.182 41.4884 252.523 40.7162C252.892 39.9725 253.105 39.4004 253.162 39C253.19 38.8284 253.29 38.6139 253.46 38.3564C253.659 38.099 253.758 37.8845 253.758 37.7129C253.758 37.6557 253.744 37.5842 253.715 37.4983C253.715 37.4125 253.715 37.341 253.715 37.2838C253.715 36.7976 253.786 36.0682 253.928 35.0957C254.07 34.1232 254.141 33.4081 254.141 32.9505C254.141 32.0638 253.985 31.6205 253.673 31.6205C253.559 31.6205 252.764 32.3641 251.287 33.8515C251.003 34.2805 250.563 34.8955 249.967 35.6964C249.371 36.5259 248.845 37.2838 248.391 37.9703C247.965 38.6854 247.638 39.3718 247.411 40.0297C247.326 40.3157 247.113 40.8735 246.772 41.703C246.431 42.5611 246.176 43.2761 246.005 43.8482C245.835 44.4202 245.75 44.9208 245.75 45.3498C245.75 45.4356 245.736 45.5071 245.707 45.5644C245.707 45.6502 245.693 45.7503 245.665 45.8647C245.665 45.9791 245.665 46.1221 245.665 46.2937Z" fill="#78A8EF"/>
    <path d="M279.42 24.1551C279.449 24.2409 279.506 24.3696 279.591 24.5413C279.676 24.7129 279.747 24.8559 279.804 24.9703C279.633 25.0847 279.378 25.242 279.037 25.4422C278.725 25.6139 278.426 25.7855 278.142 25.9571C277.859 26.1287 277.617 26.3146 277.418 26.5149C277.021 26.5149 276.453 26.8867 275.714 27.6304C274.976 28.3454 274.607 29.1606 274.607 30.0759C274.607 30.1331 274.607 30.1903 274.607 30.2475C274.635 30.3047 274.65 30.3476 274.65 30.3762C274.65 30.5193 274.621 30.648 274.564 30.7624C273.911 31.7635 273.585 32.593 273.585 33.2508C273.585 33.3938 273.585 33.5941 273.585 33.8515C273.613 34.0803 273.627 34.2519 273.627 34.3663C273.627 35.6821 273.414 36.9406 272.988 38.1419C272.875 38.3421 272.775 38.6711 272.69 39.1287C272.633 39.615 272.534 39.9582 272.392 40.1584C272.278 40.3014 272.193 40.5875 272.136 41.0165C272.108 41.4455 272.037 41.703 271.923 41.7888C271.668 41.989 271.497 42.3322 271.412 42.8185C271.327 43.3333 271.256 43.6194 271.199 43.6766C270.972 43.791 270.83 43.934 270.773 44.1056C270.716 44.2772 270.674 44.4774 270.645 44.7063C270.645 44.9637 270.617 45.1639 270.56 45.3069C270.589 45.2783 270.617 45.264 270.645 45.264L269.453 47.066C269.453 47.5809 269.396 47.9098 269.282 48.0528C269.197 48.1958 268.942 48.3388 268.516 48.4818C268.516 49.1969 268.317 49.7976 267.919 50.2838C267.55 50.7987 267.082 51.1705 266.514 51.3993C265.946 51.6282 265.434 51.7855 264.98 51.8713C264.554 51.9571 264.199 52 263.915 52C263.319 52 262.566 51.6711 261.658 51.0132C260.777 50.3839 260.337 49.626 260.337 48.7393C260.337 48.253 260.38 47.5523 260.465 46.637C260.578 45.7217 260.635 45.0638 260.635 44.6634C260.635 44.2343 260.848 43.462 261.274 42.3465C261.729 41.231 261.984 40.3729 262.041 39.7723C262.069 39.3718 262.296 38.8427 262.722 38.1848C263.148 37.5269 263.361 37.1694 263.361 37.1122C263.447 36.5402 263.929 35.725 264.81 34.6667C266.031 33.0649 267.096 31.7492 268.004 30.7195C268.118 30.6051 268.345 30.462 268.686 30.2904C269.027 30.0902 269.254 29.8757 269.368 29.6469C269.51 29.3036 269.779 28.9604 270.177 28.6172C270.574 28.2453 270.944 27.945 271.284 27.7162C271.654 27.4587 271.98 27.1441 272.264 26.7723C272.548 26.3718 272.69 25.9571 272.69 25.5281C272.69 25.3278 272.789 24.813 272.988 23.9835C273.187 23.154 273.286 22.6249 273.286 22.396C273.286 22.3102 273.272 22.1815 273.244 22.0099C273.215 21.8097 273.201 21.6524 273.201 21.538C273.201 21.3091 273.244 20.923 273.329 20.3795C273.414 19.8361 273.457 19.4499 273.457 19.2211C273.457 19.1353 273.372 19.0924 273.201 19.0924C272.974 19.121 272.662 19.3212 272.264 19.6931C271.895 20.0649 271.568 20.2937 271.284 20.3795C271.142 20.4367 270.901 20.6227 270.56 20.9373C270.219 21.2519 270.049 21.5237 270.049 21.7525C270.049 22.3245 269.651 22.6249 268.856 22.6535C268.828 22.7965 268.757 23.011 268.643 23.297C268.53 23.5831 268.345 23.912 268.09 24.2838C267.834 24.6271 267.593 24.7987 267.365 24.7987C267.195 24.7987 266.94 25.099 266.599 25.6997C266.258 26.3003 266.059 26.7866 266.002 27.1584C265.917 27.7019 265.619 28.1309 265.108 28.4455C264.597 28.7316 264.057 28.8746 263.489 28.8746C262.978 28.8746 262.58 28.846 262.296 28.7888C262.012 28.7316 261.643 28.5743 261.189 28.3168C260.735 28.0594 260.394 27.5732 260.167 26.8581C259.939 26.143 259.826 25.2134 259.826 24.0693C259.826 23.5831 259.925 22.9538 260.124 22.1815C260.351 21.4092 260.465 20.8515 260.465 20.5083C260.635 20.1936 260.848 19.736 261.104 19.1353C261.388 18.5347 261.615 18.0913 261.785 17.8053C261.956 17.4906 262.268 17.0902 262.722 16.604C263.205 16.0891 263.802 15.5886 264.511 15.1023C266.102 13.9582 267.422 13.3861 268.473 13.3861C269.495 13.3861 270.404 13.5721 271.199 13.9439C272.023 14.3157 272.434 14.8306 272.434 15.4884C272.434 16.0605 272.207 16.3465 271.753 16.3465C271.526 16.3465 271.142 16.2035 270.603 15.9175C270.092 15.6029 269.723 15.4455 269.495 15.4455C269.268 15.4455 269.027 15.4884 268.771 15.5743C268.487 15.7173 268.061 15.9747 267.493 16.3465C266.954 16.7184 266.301 17.2332 265.534 17.8911C264.767 18.549 264.1 19.3498 263.532 20.2937C262.992 21.209 262.722 22.1243 262.722 23.0396C262.722 23.0682 262.722 23.1397 262.722 23.2541C262.751 23.3685 262.765 23.4543 262.765 23.5115C262.765 23.6832 262.722 23.9549 262.637 24.3267C262.552 24.6986 262.509 24.9989 262.509 25.2277C262.509 25.9428 262.666 26.3003 262.978 26.3003C263.148 26.3003 263.432 26.1001 263.83 25.6997C264.256 25.2706 264.739 24.7701 265.278 24.198C265.846 23.626 266.286 23.2112 266.599 22.9538C267.593 22.6678 268.274 22.0385 268.643 21.066C268.757 20.8372 268.899 20.6799 269.069 20.5941C269.637 20.3366 270.092 19.8361 270.432 19.0924C270.518 18.9208 270.745 18.7349 271.114 18.5347C271.483 18.3344 271.71 18.0913 271.796 17.8053C271.796 17.6623 271.966 17.4906 272.307 17.2904C272.676 17.0902 272.889 16.9186 272.946 16.7756C273.059 16.4323 273.329 16.1177 273.755 15.8317C274.181 15.5457 274.579 15.4026 274.948 15.4026C275.8 15.4026 276.382 15.5457 276.694 15.8317C277.007 16.0891 277.163 16.5754 277.163 17.2904C277.163 17.9197 277.035 18.7921 276.779 19.9076C276.524 20.9945 276.368 21.7668 276.311 22.2244C276.282 22.4246 276.183 22.7107 276.013 23.0825C275.842 23.4543 275.757 23.6689 275.757 23.7261C275.757 24.0121 276.041 24.1551 276.609 24.1551C276.751 24.1551 277.049 24.0693 277.504 23.8977C277.958 23.7261 278.284 23.6403 278.483 23.6403C278.852 23.6403 279.165 23.8119 279.42 24.1551ZM271.796 36.1254C271.852 36.011 271.881 35.9252 271.881 35.868C271.881 35.6678 271.753 35.4675 271.497 35.2673C271.27 35.0671 271.157 34.9098 271.157 34.7954L271.625 33.2079C271.597 33.1507 271.583 33.0506 271.583 32.9076C271.583 32.7646 271.682 32.3927 271.881 31.7921C271.881 31.5919 271.781 31.4917 271.583 31.4917C271.526 31.4917 271.483 31.506 271.455 31.5347C270.858 32.0209 270.163 32.8218 269.368 33.9373C268.601 35.0242 267.962 35.7822 267.451 36.2112C267.195 36.44 266.939 36.8262 266.684 37.3696C266.457 37.9417 266.258 38.3278 266.088 38.5281C265.605 39.1573 265.065 40.2728 264.469 41.8746C263.873 43.4763 263.574 44.7492 263.574 45.6931C263.546 45.8361 263.461 46.0792 263.319 46.4224C263.205 46.7657 263.148 47.0374 263.148 47.2376C263.148 48.6964 263.418 49.4257 263.958 49.4257C264.469 49.4257 264.881 49.2827 265.193 48.9967C265.307 48.8251 265.619 48.5104 266.13 48.0528C266.641 47.5952 267.067 47.1375 267.408 46.6799C267.777 46.2508 267.962 45.8647 267.962 45.5215C267.962 45.3784 268.146 44.978 268.516 44.3201C268.885 43.6623 269.098 43.1617 269.155 42.8185C269.155 42.7899 269.339 42.5611 269.708 42.132C270.106 41.703 270.305 41.4169 270.305 41.2739C270.305 41.2167 270.262 41.1452 270.177 41.0594C270.12 41.0022 270.021 40.9307 269.879 40.8449C269.765 40.7877 269.68 40.7448 269.623 40.7162C269.652 40.6876 269.779 40.4015 270.006 39.8581C270.234 39.3146 270.461 38.714 270.688 38.0561C270.944 37.4268 271.071 37.0264 271.071 36.8548C271.071 36.769 271.057 36.6689 271.029 36.5545C271.029 36.4686 271.029 36.4114 271.029 36.3828C271.029 36.297 271.086 36.1683 271.199 35.9967C271.256 35.9967 271.327 36.0396 271.412 36.1254C271.526 36.2112 271.597 36.2541 271.625 36.2541C271.654 36.2541 271.71 36.2112 271.796 36.1254Z" fill="#78A8EF"/>
    <path d="M298.856 30.8911C298.856 30.9197 298.87 31.0341 298.898 31.2343C298.927 31.4059 298.941 31.5347 298.941 31.6205C298.969 31.7063 298.997 31.8493 299.026 32.0495C299.054 32.2497 299.097 32.407 299.154 32.5215C299.211 32.6073 299.267 32.7074 299.324 32.8218C299.409 32.9362 299.494 33.022 299.58 33.0792C299.693 33.1364 299.821 33.165 299.963 33.165C300.162 33.165 300.503 33.0077 300.985 32.6931C301.497 32.3498 301.837 32.1782 302.008 32.1782C302.093 32.1782 302.178 32.2211 302.263 32.3069C302.348 32.3641 302.391 32.4356 302.391 32.5215C302.391 32.8361 302.363 33.1364 302.306 33.4224C302.277 33.6799 302.192 33.9373 302.05 34.1947C301.937 34.4521 301.837 34.6524 301.752 34.7954C301.667 34.9384 301.511 35.1529 301.284 35.4389C301.085 35.7536 300.943 35.9681 300.858 36.0825C300.772 36.1111 300.659 36.1111 300.517 36.0825C300.375 36.0825 300.247 36.0968 300.133 36.1254C300.048 36.154 299.977 36.2255 299.92 36.3399C299.182 36.912 298.401 37.198 297.578 37.198C296.527 37.198 295.959 36.9835 295.874 36.5545C295.845 36.2398 295.604 35.8537 295.15 35.396C294.724 34.9384 294.496 34.5237 294.468 34.1518C294.44 33.923 294.283 33.5941 293.999 33.165C293.744 32.736 293.616 32.407 293.616 32.1782C293.616 32.0352 293.659 31.9065 293.744 31.7921C293.602 31.3344 293.503 30.791 293.446 30.1617C293.417 29.5325 293.389 29.132 293.361 28.9604C293.361 28.8174 293.432 28.6315 293.574 28.4026C293.716 28.1738 293.786 28.0022 293.786 27.8878C293.786 27.802 293.659 27.7162 293.403 27.6304C293.176 27.5446 293.062 27.4444 293.062 27.33C293.062 27.2442 293.077 27.1298 293.105 26.9868C293.162 26.8152 293.19 26.7008 293.19 26.6436C293.19 26.4719 293.133 26.1859 293.02 25.7855C292.906 25.385 292.849 25.0847 292.849 24.8845C292.849 23.8834 292.409 23.3828 291.529 23.3828C291.046 23.3828 290.038 23.4829 288.504 23.6832C285.92 24.1408 284.628 24.527 284.628 24.8416C284.628 24.956 284.628 25.1419 284.628 25.3993C284.657 25.6568 284.671 25.857 284.671 26C284.671 26.1716 284.642 26.4576 284.586 26.8581C284.529 27.2585 284.5 27.5589 284.5 27.7591C284.5 27.8735 284.515 28.0308 284.543 28.231C284.6 28.4312 284.628 28.5886 284.628 28.703C284.628 28.9604 284.401 29.2464 283.947 29.5611C283.521 29.8757 283.151 30.033 282.839 30.033C282.612 30.033 282.399 29.9758 282.2 29.8614C282.03 29.7184 281.888 29.5038 281.774 29.2178C281.661 28.9318 281.561 28.6458 281.476 28.3597C281.391 28.0737 281.32 27.7019 281.263 27.2442C281.235 26.7866 281.206 26.4004 281.178 26.0858C281.178 25.7426 281.164 25.3135 281.135 24.7987C281.135 24.2838 281.121 23.8834 281.093 23.5974C281.093 23.3971 281.121 23.0682 281.178 22.6106C281.263 22.1529 281.306 21.8097 281.306 21.5809C281.306 21.495 281.277 21.352 281.22 21.1518C281.164 20.923 281.135 20.7514 281.135 20.637C281.135 20.4653 281.263 19.2926 281.519 17.1188C281.604 16.604 282.271 16.3465 283.521 16.3465C283.89 16.3465 284.216 16.4609 284.5 16.6898C284.813 16.9186 284.969 17.2189 284.969 17.5908C284.969 18.0484 284.926 18.692 284.841 19.5215C284.784 20.3223 284.756 20.923 284.756 21.3234C284.756 21.5523 284.827 21.7811 284.969 22.0099C285.111 22.2101 285.296 22.3102 285.523 22.3102C286.517 22.3102 288.05 22.1815 290.123 21.9241C292.196 21.6381 293.233 21.3091 293.233 20.9373C293.233 20.8515 293.219 20.7085 293.19 20.5083C293.162 20.308 293.148 20.1507 293.148 20.0363C293.148 19.8647 293.204 19.6359 293.318 19.3498C293.432 19.0352 293.488 18.8064 293.488 18.6634C293.488 18.5776 293.46 18.4631 293.403 18.3201C293.375 18.1485 293.361 18.0198 293.361 17.934C293.361 17.5908 293.446 17.1045 293.616 16.4752C293.815 15.846 293.914 15.374 293.914 15.0594C293.914 14.8592 293.9 14.5589 293.872 14.1584C293.843 13.758 293.829 13.4433 293.829 13.2145C293.829 12.4422 294.156 12.0561 294.809 12.0561C296.172 12.0561 297.066 12.4708 297.492 13.3003C297.947 14.1012 298.174 15.1738 298.174 16.5182C298.174 17.0616 298.202 17.8339 298.259 18.835C298.344 19.8361 298.387 20.5798 298.387 21.066C298.387 21.352 298.316 21.7954 298.174 22.396C298.06 22.9967 298.004 23.44 298.004 23.7261C298.004 23.8691 297.904 24.055 297.705 24.2838C297.507 24.5126 297.407 24.7272 297.407 24.9274C297.407 24.9846 297.521 25.0847 297.748 25.2277C298.004 25.3421 298.131 25.5424 298.131 25.8284C298.131 25.857 298.103 25.9285 298.046 26.0429C297.989 26.1287 297.961 26.2145 297.961 26.3003C297.961 26.901 298.046 27.5589 298.217 28.2739C298.387 28.9604 298.472 29.3751 298.472 29.5182C298.472 29.5754 298.444 29.6898 298.387 29.8614C298.359 30.033 298.344 30.1617 298.344 30.2475C298.344 30.3905 298.515 30.6051 298.856 30.8911ZM297.578 22.0099L297.663 22.0957V22.0099C297.634 22.0099 297.606 22.0242 297.578 22.0528C297.606 22.0814 297.634 22.0957 297.663 22.0957C297.72 22.0957 297.748 22.0528 297.748 21.967C297.72 21.9384 297.691 21.9241 297.663 21.9241L297.578 22.0099Z" fill="#78A8EF"/>
    <path d="M324.574 17.2475C324.858 17.4763 325 17.7338 325 18.0198C325 18.3058 324.844 18.5633 324.531 18.7921C324.219 19.0209 323.807 19.1353 323.296 19.1353C323.126 19.1353 322.87 19.1067 322.529 19.0495C320.939 19.5358 319.477 20.1793 318.142 20.9802C317.943 21.1232 317.773 21.2948 317.631 21.495C317.517 21.6953 317.446 21.8812 317.418 22.0528C317.389 22.1958 317.361 22.4103 317.333 22.6964C317.333 22.9824 317.333 23.1683 317.333 23.2541C317.304 23.5402 317.191 23.9406 316.992 24.4554C316.821 24.9703 316.736 25.3993 316.736 25.7426C316.736 25.9714 316.608 26.2431 316.353 26.5578C316.126 26.8724 316.012 27.1584 316.012 27.4158C316.012 27.473 316.012 27.5446 316.012 27.6304C316.04 27.7162 316.055 27.7734 316.055 27.802C316.055 28.3168 315.771 28.9747 315.203 29.7756C315.032 30.3476 314.464 31.2057 313.499 32.3498C312.562 33.4939 311.795 34.066 311.199 34.066C311.113 34.066 310.971 34.1232 310.773 34.2376C310.574 34.352 310.347 34.495 310.091 34.6667C309.836 34.8669 309.623 35.0099 309.452 35.0957C307.862 34.7239 306.754 34.2376 306.13 33.637C305.448 32.8647 304.866 31.8779 304.383 30.6766C303.9 29.4466 303.659 28.374 303.659 27.4587C303.659 27.1155 303.716 26.6293 303.829 26C303.943 25.3421 304 24.8702 304 24.5842C304 24.3553 304.156 23.8405 304.468 23.0396C304.781 22.2101 304.937 21.6238 304.937 21.2805C304.937 21.0517 304.724 20.451 304.298 19.4785C303.9 18.5061 303.702 17.7767 303.702 17.2904C303.702 15.2596 304.057 13.9582 304.766 13.3861C305.505 12.7855 306.669 12.4851 308.259 12.4851H310.219C311.042 12.4851 312.235 12.9857 313.797 13.9868C315.387 14.9593 316.353 16.2035 316.694 17.7195C316.892 18.6348 317.233 19.0924 317.716 19.0924C317.83 19.0924 317.915 19.0781 317.972 19.0495C318.227 18.9637 318.639 18.8207 319.207 18.6205C319.803 18.3916 320.258 18.22 320.57 18.1056C320.911 17.9912 321.322 17.8625 321.805 17.7195C322.288 17.5765 322.757 17.4763 323.211 17.4191C323.665 17.3333 324.12 17.2761 324.574 17.2475ZM315.118 23.5545C315.118 23.4972 315.103 23.4114 315.075 23.297C315.075 23.154 315.061 23.0539 315.032 22.9967C315.032 22.9109 315.018 22.8251 314.99 22.7393C314.961 22.6535 314.919 22.5963 314.862 22.5677C314.805 22.5105 314.734 22.4818 314.649 22.4818C314.535 22.4818 314.365 22.5105 314.138 22.5677C312.036 23.3399 310.574 23.7261 309.75 23.7261C308.87 23.7261 308.43 25.4851 308.43 29.0033C308.43 29.604 308.572 30.176 308.856 30.7195C309.168 31.2629 309.552 31.5347 310.006 31.5347C310.659 31.5347 311.312 31.1056 311.965 30.2475C312.647 29.3608 313.243 28.4312 313.754 27.4587C314.266 26.4576 314.564 25.9142 314.649 25.8284C314.791 25.5996 314.947 24.8416 315.118 23.5545ZM306.13 17.1617C306.243 18.077 306.414 18.5347 306.641 18.5347C306.811 18.5347 306.996 18.3916 307.195 18.1056C307.422 17.791 307.635 17.6337 307.833 17.6337L308.174 17.7195C308.401 17.7767 308.685 17.8625 309.026 17.9769C309.367 18.0913 309.708 18.22 310.049 18.363C310.389 18.5061 310.673 18.692 310.9 18.9208C311.156 19.121 311.284 19.3355 311.284 19.5644C311.284 19.6788 311.241 19.8218 311.156 19.9934C311.099 20.165 311 20.3652 310.858 20.5941C310.744 20.7943 310.673 20.9373 310.645 21.0231C310.645 21.1947 310.702 21.3234 310.815 21.4092C310.929 21.4664 311.028 21.495 311.113 21.495C311.823 21.495 312.604 21.3377 313.456 21.0231C314.337 20.6799 314.777 20.2651 314.777 19.7789C314.777 18.5776 314.124 17.3047 312.817 15.9604C311.539 14.6161 310.276 13.9439 309.026 13.9439C308.146 13.9439 307.436 14.2728 306.896 14.9307C306.385 15.5886 306.13 16.3322 306.13 17.1617Z" fill="#78A8EF"/>
</svg>
