<svg width="1258" height="420" viewBox="0 0 1258 420" fill="none" xmlns="http://www.w3.org/2000/svg">
    <path d="M1028.34 129.683C1019.31 125.945 996.515 121.197 982.334 112.354C968.153 103.511 918.246 72.3892 895.065 57.9339C858.82 39.1199 793.5 -3.38355 756.011 1.52268C731.96 4.67025 649.616 12.1919 611.579 17.5111L273.414 143.736L0.462307 244.343M1028.34 129.683C1048.05 137.555 1088.98 155.751 1094.98 165.557C1102.49 177.813 1099.44 191.818 1089.22 196.053C1079.01 200.288 1053.17 198.191 1041.53 196.613C1040.9 196.463 1040.25 196.307 1039.58 196.143M1028.34 129.683C1028.86 131.897 1038.88 109.742 1055.91 97.6307C1072.93 85.5193 1083.16 99.4767 1084.7 106.118C1085.93 111.432 1074.45 135.711 1068.56 147.187C1054.54 155.491 1032.1 177.102 1054.47 197.111M859.045 149.103C871.289 145.168 899.119 151.789 925.976 160.213M925.976 160.213C956.269 169.713 985.325 181.508 989.389 183.039C995.266 185.252 1024.13 192.414 1039.58 196.143M925.976 160.213C947.611 175.011 979.077 196.163 1008.91 215.512M1249.43 288.385C1256.52 286.742 1255.67 278.385 1254.36 274.412C1253.11 272.369 1248.15 266.753 1238.33 260.631C1228.52 254.508 1206.87 257.426 1197.28 259.65L1160.83 263.435C1143 263.68 1104.34 264.127 1092.33 263.95C1087.68 263.882 1069.27 253.498 1045.53 238.792M1249.43 288.385C1243.9 289.668 1222.77 296.94 1206.42 302.694M1249.43 288.385C1240.17 286.038 1218.59 285.614 1206.42 302.694M168.083 418.942L324.533 329.014C425.207 276.902 629.245 170.187 640 160.228C650.755 150.269 707.752 174.07 734.906 187.215L891.542 279.21C922 292.616 994.486 296.631 1044.09 313.975M893.227 261.322C929.254 270.362 1004.81 290.725 1018.81 299.862C1032.8 308.999 1041.5 313.078 1044.09 313.975M1044.09 313.975C1058.99 319.183 1072.26 324.163 1082.54 328.243L1146.41 316.936L1194.26 307.008C1197.64 305.799 1201.84 304.306 1206.42 302.694M1188.76 258.126L1221.1 229.05M1253.43 199.974C1259.44 192.36 1262.44 176.424 1226.32 173.599C1221.23 175.634 1212.04 180.148 1201.93 186.793C1199.57 188.342 1197.16 190.007 1194.74 191.782M1253.43 199.974C1244.52 200.097 1225.95 205.18 1222.97 224.534L1221.1 229.05M1253.43 199.974L1221.1 229.05M1045.53 238.792C1053.9 247.235 1078.86 247.09 1090.29 245.962C1111.98 240.545 1159.67 225.212 1176.96 207.206C1177.34 206.81 1177.72 206.418 1178.11 206.028M1045.53 238.792C1038.17 234.236 1030.3 229.266 1022.17 224.06M1194.74 191.782C1202.94 182.374 1218.3 162.16 1214.21 156.578M1194.74 191.782C1189.08 195.939 1183.36 200.707 1178.11 206.028M1214.21 156.578C1209.09 149.599 1199.71 134.278 1173.83 148.442C1147.95 162.607 1144.91 179.644 1128.22 188.178C1111.54 196.712 1067.01 236.622 1022.17 224.06M1214.21 156.578C1200.45 166.936 1173.97 191.327 1178.11 206.028M1022.17 224.06C1017.81 221.269 1013.38 218.411 1008.91 215.512M1008.91 215.512C1019.39 209.466 1040.2 197.128 1039.58 196.143" stroke="#78A8EF"/>
</svg>
