<svg width="714" height="307" viewBox="0 0 714 307" fill="none" xmlns="http://www.w3.org/2000/svg">
    <path d="M120.96 260.894C117.815 261.852 112.182 264.918 114.807 269.517C121.37 268.568 135.644 270.486 140.238 285.748C129.707 280.32 116.818 273.039 114.807 269.517C112.182 264.918 117.815 261.852 120.96 260.894C130.257 261.442 155.087 264.179 180.026 270.748C204.965 277.318 228.7 269.38 237.451 264.59L266.984 237.492L187.409 233.386C170.865 231.744 133.183 226.16 114.807 216.963C96.431 207.766 78.9847 199.992 72.5586 197.255C62.9877 194.655 42.9436 186.744 39.334 175.905C35.7244 165.066 59.9797 163.725 72.5586 164.409C82.531 166.694 97.1069 170.253 110.705 173.998C103.869 169.16 89.7862 157.43 88.1455 149.218C71.8008 145.667 39.6053 138.473 32.3611 136.13C31.788 135.944 31.3711 135.789 31.1305 135.669C27.0287 133.616 4.05865 130.742 1.18739 117.604C-1.10962 107.093 18.2782 102.275 28.2592 101.181C48.6315 104.192 95.5288 108.407 120.14 101.181C132.978 97.4109 159.398 85.4324 186.589 72.3098C171.822 73.2243 141.223 74.5046 136.957 72.3098C131.624 69.5662 93.0677 66.2816 94.7084 50.6797C95.9284 39.0783 118.269 39.3481 131.625 41.2022C119.811 48.0728 102.092 50.3833 94.7084 50.6797C93.0677 66.2816 131.624 69.5662 136.957 72.3098C141.223 74.5046 171.822 73.2243 186.589 72.3098C159.398 85.4324 132.978 97.4109 120.14 101.181C95.5288 108.407 48.6315 104.192 28.2592 101.181C18.2782 102.275 -1.10962 107.093 1.18739 117.604C12.5357 117.09 34.6581 120.076 32.3611 136.13C39.6053 138.473 71.8008 145.667 88.1455 149.218C89.7862 157.43 103.869 169.16 110.705 173.998C97.1069 170.253 82.531 166.694 72.5586 164.409C59.9797 163.725 35.7244 165.066 39.334 175.905C51.2292 176.453 74.5273 181.489 72.5586 197.255C78.9847 199.992 96.431 207.766 114.807 216.963C133.183 226.16 170.865 231.744 187.409 233.386L266.984 237.492L237.451 264.59C228.7 269.38 204.965 277.318 180.026 270.748C155.087 264.179 130.257 261.442 120.96 260.894Z" fill="#78A8EF"/>
    <path d="M629.993 206.288C619.055 199.171 593.815 186.17 580.361 191.097C566.907 196.024 539.48 207.383 527.448 212.446C505.298 214.226 458.948 220.247 450.744 230.101C442.541 239.955 385.526 247.619 358.044 250.219C338.765 255.557 305.985 269.517 290.774 283.066C279.249 293.332 235.4 304.279 212.43 306.468C196.98 305.51 162.634 300.885 148.852 290.045C146.452 288.892 143.455 287.407 140.238 285.748M114.807 269.517C112.182 264.918 117.815 261.852 120.96 260.894C130.257 261.442 155.087 264.179 180.026 270.748C204.965 277.318 228.7 269.38 237.451 264.59L266.984 237.492M114.807 269.517C116.818 273.039 129.707 280.32 140.238 285.748M114.807 269.517C121.37 268.568 135.644 270.486 140.238 285.748M266.984 237.492H288.313M266.984 237.492L187.409 233.386C170.865 231.744 133.183 226.16 114.807 216.963C96.431 207.766 78.9847 199.992 72.5586 197.255M72.5586 197.255C62.9877 194.655 42.9436 186.744 39.334 175.905M72.5586 197.255C74.5273 181.489 51.2292 176.453 39.334 175.905M39.334 175.905C35.7244 165.066 59.9797 163.725 72.5586 164.409C82.531 166.694 97.1069 170.253 110.705 173.998M277.238 177.548C235.537 183.022 150.985 192.575 146.391 186.991C143.815 183.861 128.056 178.777 110.705 173.998M110.705 173.998C103.869 169.16 89.7862 157.43 88.1455 149.218M88.1455 149.218C101.681 149.765 129.328 150.532 131.625 149.218C133.922 147.904 220.907 126.226 264.113 115.551M88.1455 149.218C71.8008 145.667 39.6053 138.472 32.3611 136.13M1.18739 117.604C4.05865 130.742 27.0287 133.616 31.1305 135.669C31.3711 135.789 31.788 135.944 32.3611 136.13M1.18739 117.604C-1.10962 107.093 18.2782 102.275 28.2592 101.181C48.6315 104.192 95.5288 108.407 120.14 101.181C132.978 97.4109 159.398 85.4324 186.589 72.3098M1.18739 117.604C12.5357 117.09 34.6581 120.076 32.3611 136.13M253.448 38.773C237.098 47.2832 211.52 60.2775 186.589 72.3098M186.589 72.3098C171.822 73.2243 141.223 74.5046 136.957 72.3098C131.624 69.5662 93.0677 66.2816 94.7084 50.6797M94.7084 50.6797C95.9284 39.0783 118.269 39.3481 131.625 41.2022M94.7084 50.6797C102.092 50.3833 119.811 48.0728 131.625 41.2022M289.954 141.417C297.337 139.501 313.17 137.311 317.436 143.88M283.391 74.0822C290.638 72.7136 305.951 71.7009 309.232 78.5985M131.625 41.2022C132.638 41.3429 133.599 41.4926 134.496 41.6471C141.469 40.5522 159.435 36.3096 175.514 28.098C191.593 19.8865 255.772 8.80095 285.852 4.28461C288.45 2.91602 294.564 1.00005 302.259 1C309.182 0.999957 446.779 10.5799 514.732 14.9592C563.817 29.1925 663.627 55.1957 670.19 45.3419C683.726 43.1522 711.391 38.773 713.76 38.773" stroke="#78A8EF"/>
</svg>
